%TF.GenerationSoftware,KiCad,Pcbnew,(6.0.4)*%
%TF.CreationDate,2022-12-17T19:50:06+01:00*%
%TF.ProjectId,bsc,6273632e-6b69-4636-9164-5f7063625858,rev?*%
%TF.SameCoordinates,Original*%
%TF.FileFunction,Soldermask,Bot*%
%TF.FilePolarity,Negative*%
%FSLAX46Y46*%
G04 Gerber Fmt 4.6, Leading zero omitted, Abs format (unit mm)*
G04 Created by KiCad (PCBNEW (6.0.4)) date 2022-12-17 19:50:06*
%MOMM*%
%LPD*%
G01*
G04 APERTURE LIST*
G04 Aperture macros list*
%AMRoundRect*
0 Rectangle with rounded corners*
0 $1 Rounding radius*
0 $2 $3 $4 $5 $6 $7 $8 $9 X,Y pos of 4 corners*
0 Add a 4 corners polygon primitive as box body*
4,1,4,$2,$3,$4,$5,$6,$7,$8,$9,$2,$3,0*
0 Add four circle primitives for the rounded corners*
1,1,$1+$1,$2,$3*
1,1,$1+$1,$4,$5*
1,1,$1+$1,$6,$7*
1,1,$1+$1,$8,$9*
0 Add four rect primitives between the rounded corners*
20,1,$1+$1,$2,$3,$4,$5,0*
20,1,$1+$1,$4,$5,$6,$7,0*
20,1,$1+$1,$6,$7,$8,$9,0*
20,1,$1+$1,$8,$9,$2,$3,0*%
%AMFreePoly0*
4,1,22,0.500000,-0.750000,0.000000,-0.750000,0.000000,-0.745033,-0.079941,-0.743568,-0.215256,-0.701293,-0.333266,-0.622738,-0.424486,-0.514219,-0.481581,-0.384460,-0.499164,-0.250000,-0.500000,-0.250000,-0.500000,0.250000,-0.499164,0.250000,-0.499963,0.256109,-0.478152,0.396186,-0.417904,0.524511,-0.324060,0.630769,-0.204165,0.706417,-0.067858,0.745374,0.000000,0.744959,0.000000,0.750000,
0.500000,0.750000,0.500000,-0.750000,0.500000,-0.750000,$1*%
%AMFreePoly1*
4,1,20,0.000000,0.744959,0.073905,0.744508,0.209726,0.703889,0.328688,0.626782,0.421226,0.519385,0.479903,0.390333,0.500000,0.250000,0.500000,-0.250000,0.499851,-0.262216,0.476331,-0.402017,0.414519,-0.529596,0.319384,-0.634700,0.198574,-0.708877,0.061801,-0.746166,0.000000,-0.745033,0.000000,-0.750000,-0.500000,-0.750000,-0.500000,0.750000,0.000000,0.750000,0.000000,0.744959,
0.000000,0.744959,$1*%
%AMFreePoly2*
4,1,22,0.550000,-0.750000,0.000000,-0.750000,0.000000,-0.745033,-0.079941,-0.743568,-0.215256,-0.701293,-0.333266,-0.622738,-0.424486,-0.514219,-0.481581,-0.384460,-0.499164,-0.250000,-0.500000,-0.250000,-0.500000,0.250000,-0.499164,0.250000,-0.499963,0.256109,-0.478152,0.396186,-0.417904,0.524511,-0.324060,0.630769,-0.204165,0.706417,-0.067858,0.745374,0.000000,0.744959,0.000000,0.750000,
0.550000,0.750000,0.550000,-0.750000,0.550000,-0.750000,$1*%
%AMFreePoly3*
4,1,20,0.000000,0.744959,0.073905,0.744508,0.209726,0.703889,0.328688,0.626782,0.421226,0.519385,0.479903,0.390333,0.500000,0.250000,0.500000,-0.250000,0.499851,-0.262216,0.476331,-0.402017,0.414519,-0.529596,0.319384,-0.634700,0.198574,-0.708877,0.061801,-0.746166,0.000000,-0.745033,0.000000,-0.750000,-0.550000,-0.750000,-0.550000,0.750000,0.000000,0.750000,0.000000,0.744959,
0.000000,0.744959,$1*%
G04 Aperture macros list end*
%ADD10R,1.700000X1.700000*%
%ADD11O,1.700000X1.700000*%
%ADD12C,0.500000*%
%ADD13C,3.200000*%
%ADD14O,2.300000X1.600000*%
%ADD15R,2.250000X1.750000*%
%ADD16O,2.250000X1.750000*%
%ADD17RoundRect,0.250000X-0.650000X-1.550000X0.650000X-1.550000X0.650000X1.550000X-0.650000X1.550000X0*%
%ADD18O,1.800000X3.600000*%
%ADD19R,1.500000X2.300000*%
%ADD20O,1.500000X2.300000*%
%ADD21RoundRect,0.250000X0.650000X1.550000X-0.650000X1.550000X-0.650000X-1.550000X0.650000X-1.550000X0*%
%ADD22FreePoly0,180.000000*%
%ADD23FreePoly1,180.000000*%
%ADD24FreePoly0,90.000000*%
%ADD25FreePoly1,90.000000*%
%ADD26R,1.000000X1.000000*%
%ADD27R,1.300000X1.700000*%
%ADD28RoundRect,0.225000X-0.225000X-0.250000X0.225000X-0.250000X0.225000X0.250000X-0.225000X0.250000X0*%
%ADD29RoundRect,0.150000X0.150000X-0.825000X0.150000X0.825000X-0.150000X0.825000X-0.150000X-0.825000X0*%
%ADD30FreePoly0,0.000000*%
%ADD31FreePoly1,0.000000*%
%ADD32RoundRect,0.225000X0.225000X0.250000X-0.225000X0.250000X-0.225000X-0.250000X0.225000X-0.250000X0*%
%ADD33RoundRect,0.200000X-0.200000X-0.275000X0.200000X-0.275000X0.200000X0.275000X-0.200000X0.275000X0*%
%ADD34RoundRect,0.200000X0.275000X-0.200000X0.275000X0.200000X-0.275000X0.200000X-0.275000X-0.200000X0*%
%ADD35RoundRect,0.225000X-0.250000X0.225000X-0.250000X-0.225000X0.250000X-0.225000X0.250000X0.225000X0*%
%ADD36FreePoly2,180.000000*%
%ADD37R,1.000000X1.500000*%
%ADD38FreePoly3,180.000000*%
%ADD39R,1.500000X2.000000*%
%ADD40R,3.800000X2.000000*%
%ADD41RoundRect,0.150000X-0.825000X-0.150000X0.825000X-0.150000X0.825000X0.150000X-0.825000X0.150000X0*%
%ADD42R,1.700000X1.300000*%
%ADD43R,0.740000X2.400000*%
G04 APERTURE END LIST*
D10*
%TO.C,J14*%
X135432800Y-81584800D03*
D11*
X135432800Y-79044800D03*
X135432800Y-76504800D03*
%TD*%
D12*
%TO.C,mouse-bite-3mm-slot*%
X142500000Y-27000000D03*
X141738000Y-30000000D03*
X140988000Y-27000000D03*
X144024000Y-27000000D03*
X142500000Y-30000000D03*
X144024000Y-30000000D03*
X143250000Y-30000000D03*
X140988000Y-30000000D03*
X143250000Y-27000000D03*
X141750000Y-27000000D03*
%TD*%
D13*
%TO.C,H1*%
X35000000Y-21000000D03*
%TD*%
D10*
%TO.C,J9*%
X74422000Y-89154000D03*
D11*
X76962000Y-89154000D03*
%TD*%
D13*
%TO.C,H4*%
X35000000Y-111000000D03*
%TD*%
D14*
%TO.C,K4*%
X120142000Y-85852000D03*
X120142000Y-75692000D03*
X120142000Y-73152000D03*
X112522000Y-73152000D03*
X112522000Y-75692000D03*
X112522000Y-85852000D03*
%TD*%
D15*
%TO.C,PS2*%
X111570500Y-65583500D03*
D16*
X111570500Y-63043500D03*
X111570500Y-60503500D03*
X111570500Y-57963500D03*
%TD*%
D12*
%TO.C,mouse-bite-3mm-slot*%
X142500000Y-105000000D03*
X141750000Y-102000000D03*
X144024000Y-102000000D03*
X143250000Y-105000000D03*
X140988000Y-105000000D03*
X140988000Y-102000000D03*
X144024000Y-105000000D03*
X142500000Y-102000000D03*
X141738000Y-105000000D03*
X143250000Y-102000000D03*
%TD*%
D10*
%TO.C,J5*%
X99822000Y-89154000D03*
D11*
X97282000Y-89154000D03*
%TD*%
D10*
%TO.C,J10*%
X140512800Y-89154000D03*
D11*
X137972800Y-89154000D03*
%TD*%
D12*
%TO.C,mouse-bite-3mm-slot*%
X38250000Y-105000000D03*
X35988000Y-102000000D03*
X37500000Y-105000000D03*
X36738000Y-105000000D03*
X38250000Y-102000000D03*
X35988000Y-105000000D03*
X39024000Y-105000000D03*
X37500000Y-102000000D03*
X39024000Y-102000000D03*
X36750000Y-102000000D03*
%TD*%
D10*
%TO.C,J16*%
X108305600Y-81584800D03*
D11*
X108305600Y-79044800D03*
X108305600Y-76504800D03*
%TD*%
D10*
%TO.C,J13*%
X112517000Y-89154000D03*
D11*
X115057000Y-89154000D03*
%TD*%
D13*
%TO.C,H3*%
X145000000Y-111000000D03*
%TD*%
D15*
%TO.C,PS5*%
X92137500Y-50800000D03*
D16*
X92137500Y-48260000D03*
X92137500Y-45720000D03*
X92137500Y-43180000D03*
%TD*%
D17*
%TO.C,X2*%
X75055000Y-37000000D03*
D18*
X78865000Y-37000000D03*
X82675000Y-37000000D03*
X86485000Y-37000000D03*
X90295000Y-37000000D03*
X94105000Y-37000000D03*
X97915000Y-37000000D03*
X101725000Y-37000000D03*
X105535000Y-37000000D03*
%TD*%
D19*
%TO.C,U1*%
X69688500Y-70032500D03*
D20*
X67148500Y-70032500D03*
X64608500Y-70032500D03*
%TD*%
D14*
%TO.C,K3*%
X131318000Y-85852000D03*
X131318000Y-75692000D03*
X131318000Y-73152000D03*
X123698000Y-73152000D03*
X123698000Y-75692000D03*
X123698000Y-85852000D03*
%TD*%
D17*
%TO.C,X1*%
X35560000Y-36957000D03*
D18*
X39370000Y-36957000D03*
X43180000Y-36957000D03*
X46990000Y-36957000D03*
X50800000Y-36957000D03*
X54610000Y-36957000D03*
X58420000Y-36957000D03*
X62230000Y-36957000D03*
X66040000Y-36957000D03*
%TD*%
D12*
%TO.C,mouse-bite-3mm-slot*%
X37500000Y-30000000D03*
X35988000Y-27000000D03*
X39024000Y-30000000D03*
X36750000Y-27000000D03*
X38250000Y-30000000D03*
X36738000Y-30000000D03*
X37500000Y-27000000D03*
X39024000Y-27000000D03*
X38250000Y-27000000D03*
X35988000Y-30000000D03*
%TD*%
D14*
%TO.C,K7*%
X83058000Y-85852000D03*
X83058000Y-75692000D03*
X83058000Y-73152000D03*
X75438000Y-73152000D03*
X75438000Y-75692000D03*
X75438000Y-85852000D03*
%TD*%
D12*
%TO.C,mouse-bite-3mm-slot*%
X89250000Y-102000000D03*
X90000000Y-105000000D03*
X90000000Y-102000000D03*
X88488000Y-105000000D03*
X91524000Y-102000000D03*
X89238000Y-105000000D03*
X90750000Y-105000000D03*
X91524000Y-105000000D03*
X90750000Y-102000000D03*
X88488000Y-102000000D03*
%TD*%
D21*
%TO.C,X5*%
X105500000Y-95000000D03*
D18*
X101690000Y-95000000D03*
X97880000Y-95000000D03*
X94070000Y-95000000D03*
X90260000Y-95000000D03*
X86450000Y-95000000D03*
X82640000Y-95000000D03*
X78830000Y-95000000D03*
X75020000Y-95000000D03*
%TD*%
D12*
%TO.C,mouse-bite-3mm-slot*%
X91524000Y-30000000D03*
X90000000Y-30000000D03*
X90000000Y-27000000D03*
X90750000Y-27000000D03*
X88488000Y-27000000D03*
X91524000Y-27000000D03*
X89238000Y-30000000D03*
X90750000Y-30000000D03*
X89250000Y-27000000D03*
X88488000Y-30000000D03*
%TD*%
D10*
%TO.C,J11*%
X33065800Y-79796400D03*
D11*
X35605800Y-79796400D03*
X33065800Y-82336400D03*
X35605800Y-82336400D03*
X33065800Y-84876400D03*
X35605800Y-84876400D03*
%TD*%
D13*
%TO.C,H2*%
X145000000Y-21000000D03*
%TD*%
D17*
%TO.C,X3*%
X114554000Y-37000000D03*
D18*
X118364000Y-37000000D03*
X122174000Y-37000000D03*
X125984000Y-37000000D03*
X129794000Y-37000000D03*
X133604000Y-37000000D03*
X137414000Y-37000000D03*
X141224000Y-37000000D03*
X145034000Y-37000000D03*
%TD*%
D14*
%TO.C,K2*%
X146558000Y-85852000D03*
X146558000Y-75692000D03*
X146558000Y-73152000D03*
X138938000Y-73152000D03*
X138938000Y-75692000D03*
X138938000Y-85852000D03*
%TD*%
%TO.C,K6*%
X93980000Y-85852000D03*
X93980000Y-75692000D03*
X93980000Y-73152000D03*
X86360000Y-73152000D03*
X86360000Y-75692000D03*
X86360000Y-85852000D03*
%TD*%
D21*
%TO.C,X4*%
X66000000Y-95000000D03*
D18*
X62190000Y-95000000D03*
X58380000Y-95000000D03*
X54570000Y-95000000D03*
X50760000Y-95000000D03*
X46950000Y-95000000D03*
X43140000Y-95000000D03*
X39330000Y-95000000D03*
X35520000Y-95000000D03*
%TD*%
D10*
%TO.C,J2*%
X60553600Y-49697400D03*
D11*
X60553600Y-52237400D03*
X60553600Y-54777400D03*
%TD*%
D21*
%TO.C,X6*%
X145000000Y-95000000D03*
D18*
X141190000Y-95000000D03*
X137380000Y-95000000D03*
X133570000Y-95000000D03*
X129760000Y-95000000D03*
X125950000Y-95000000D03*
X122140000Y-95000000D03*
X118330000Y-95000000D03*
X114520000Y-95000000D03*
%TD*%
D10*
%TO.C,J4*%
X60553600Y-58618200D03*
D11*
X60553600Y-61158200D03*
%TD*%
D10*
%TO.C,J12*%
X122275600Y-89154000D03*
D11*
X119735600Y-89154000D03*
%TD*%
D15*
%TO.C,PS3*%
X79437500Y-50800000D03*
D16*
X79437500Y-48260000D03*
X79437500Y-45720000D03*
X79437500Y-43180000D03*
%TD*%
D10*
%TO.C,J15*%
X131176000Y-89154000D03*
D11*
X128636000Y-89154000D03*
X126096000Y-89154000D03*
%TD*%
D14*
%TO.C,K5*%
X104902000Y-85852000D03*
X104902000Y-75692000D03*
X104902000Y-73152000D03*
X97282000Y-73152000D03*
X97282000Y-75692000D03*
X97282000Y-85852000D03*
%TD*%
D15*
%TO.C,PS4*%
X104837500Y-50800000D03*
D16*
X104837500Y-48260000D03*
X104837500Y-45720000D03*
X104837500Y-43180000D03*
%TD*%
D10*
%TO.C,J8*%
X87117000Y-89154000D03*
D11*
X89657000Y-89154000D03*
%TD*%
D19*
%TO.C,U19*%
X53755500Y-78303500D03*
D20*
X56295500Y-78303500D03*
X58835500Y-78303500D03*
%TD*%
D15*
%TO.C,PS1*%
X66864500Y-50851500D03*
D16*
X66864500Y-48311500D03*
X66864500Y-45771500D03*
X66864500Y-43231500D03*
%TD*%
D22*
%TO.C,JP14*%
X93614000Y-40640000D03*
D23*
X92314000Y-40640000D03*
%TD*%
D24*
%TO.C,JP25*%
X101092000Y-55387000D03*
D25*
X101092000Y-54087000D03*
%TD*%
D24*
%TO.C,JP11*%
X76631800Y-56286400D03*
D25*
X76631800Y-54986400D03*
%TD*%
D24*
%TO.C,JP9*%
X79019400Y-62575200D03*
D25*
X79019400Y-61275200D03*
%TD*%
D26*
%TO.C,TP5*%
X117221000Y-63246000D03*
%TD*%
D24*
%TO.C,JP19*%
X81026000Y-55118000D03*
D25*
X81026000Y-53818000D03*
%TD*%
D27*
%TO.C,D10*%
X81381600Y-77800200D03*
X77881600Y-77800200D03*
%TD*%
D28*
%TO.C,C44*%
X74383600Y-66852800D03*
X75933600Y-66852800D03*
%TD*%
D29*
%TO.C,U5*%
X101727000Y-64832000D03*
X100457000Y-64832000D03*
X99187000Y-64832000D03*
X97917000Y-64832000D03*
X97917000Y-59882000D03*
X99187000Y-59882000D03*
X100457000Y-59882000D03*
X101727000Y-59882000D03*
%TD*%
D27*
%TO.C,D9*%
X91973400Y-77800200D03*
X88473400Y-77800200D03*
%TD*%
D30*
%TO.C,JP3*%
X50038000Y-45008800D03*
D31*
X51338000Y-45008800D03*
%TD*%
D22*
%TO.C,JP30*%
X39624000Y-84963000D03*
D23*
X38324000Y-84963000D03*
%TD*%
D32*
%TO.C,C41*%
X85623400Y-49936400D03*
X84073400Y-49936400D03*
%TD*%
D29*
%TO.C,U8*%
X74422000Y-56958000D03*
X73152000Y-56958000D03*
X71882000Y-56958000D03*
X70612000Y-56958000D03*
X70612000Y-52008000D03*
X71882000Y-52008000D03*
X73152000Y-52008000D03*
X74422000Y-52008000D03*
%TD*%
D24*
%TO.C,JP24*%
X98679000Y-63032400D03*
D25*
X98679000Y-61732400D03*
%TD*%
D29*
%TO.C,U16*%
X86868000Y-56958000D03*
X85598000Y-56958000D03*
X84328000Y-56958000D03*
X83058000Y-56958000D03*
X83058000Y-52008000D03*
X84328000Y-52008000D03*
X85598000Y-52008000D03*
X86868000Y-52008000D03*
%TD*%
D33*
%TO.C,R37*%
X137923000Y-58420000D03*
X139573000Y-58420000D03*
%TD*%
D22*
%TO.C,JP7*%
X80533000Y-40640000D03*
D23*
X79233000Y-40640000D03*
%TD*%
D32*
%TO.C,C40*%
X73355200Y-49936400D03*
X71805200Y-49936400D03*
%TD*%
D33*
%TO.C,R39*%
X134621000Y-58420000D03*
X136271000Y-58420000D03*
%TD*%
D22*
%TO.C,JP31*%
X34279600Y-87299800D03*
D23*
X32979600Y-87299800D03*
%TD*%
D34*
%TO.C,R19*%
X64262000Y-45338000D03*
X64262000Y-43688000D03*
%TD*%
D33*
%TO.C,R41*%
X145416000Y-58420000D03*
X147066000Y-58420000D03*
%TD*%
D35*
%TO.C,C36*%
X69596000Y-48247000D03*
X69596000Y-49797000D03*
%TD*%
D30*
%TO.C,JP4*%
X50038000Y-43027600D03*
D31*
X51338000Y-43027600D03*
%TD*%
D29*
%TO.C,U9*%
X99060000Y-56958000D03*
X97790000Y-56958000D03*
X96520000Y-56958000D03*
X95250000Y-56958000D03*
X95250000Y-52008000D03*
X96520000Y-52008000D03*
X97790000Y-52008000D03*
X99060000Y-52008000D03*
%TD*%
D32*
%TO.C,C43*%
X97955400Y-49936400D03*
X96405400Y-49936400D03*
%TD*%
D27*
%TO.C,D6*%
X129108200Y-77800200D03*
X125608200Y-77800200D03*
%TD*%
D28*
%TO.C,C47*%
X98964400Y-66856800D03*
X100514400Y-66856800D03*
%TD*%
D29*
%TO.C,U6*%
X89535000Y-64832000D03*
X88265000Y-64832000D03*
X86995000Y-64832000D03*
X85725000Y-64832000D03*
X85725000Y-59882000D03*
X86995000Y-59882000D03*
X88265000Y-59882000D03*
X89535000Y-59882000D03*
%TD*%
D24*
%TO.C,JP18*%
X88900000Y-55118000D03*
D25*
X88900000Y-53818000D03*
%TD*%
D33*
%TO.C,R43*%
X142240000Y-58420000D03*
X143890000Y-58420000D03*
%TD*%
D24*
%TO.C,JP28*%
X60833000Y-79502000D03*
D25*
X60833000Y-78202000D03*
%TD*%
D35*
%TO.C,C45*%
X82169000Y-48247000D03*
X82169000Y-49797000D03*
%TD*%
D36*
%TO.C,JP29*%
X58272200Y-82524600D03*
D37*
X56972200Y-82524600D03*
D38*
X55672200Y-82524600D03*
%TD*%
D30*
%TO.C,JP1*%
X50150000Y-46990000D03*
D31*
X51450000Y-46990000D03*
%TD*%
D39*
%TO.C,U15*%
X102122000Y-47854000D03*
X99822000Y-47854000D03*
D40*
X99822000Y-41554000D03*
D39*
X97522000Y-47854000D03*
%TD*%
D24*
%TO.C,JP17*%
X83261200Y-62499000D03*
D25*
X83261200Y-61199000D03*
%TD*%
D33*
%TO.C,R63*%
X75603600Y-43738800D03*
X77253600Y-43738800D03*
%TD*%
D34*
%TO.C,R64*%
X107188000Y-45275000D03*
X107188000Y-43625000D03*
%TD*%
D41*
%TO.C,U13*%
X48071000Y-45847000D03*
X48071000Y-44577000D03*
X48071000Y-43307000D03*
X48071000Y-42037000D03*
X53021000Y-42037000D03*
X53021000Y-43307000D03*
X53021000Y-44577000D03*
X53021000Y-45847000D03*
%TD*%
D24*
%TO.C,JP16*%
X91668600Y-62458600D03*
D25*
X91668600Y-61158600D03*
%TD*%
D42*
%TO.C,D2*%
X94869000Y-46327000D03*
X94869000Y-42827000D03*
%TD*%
D27*
%TO.C,D3*%
X59916000Y-41148000D03*
X56416000Y-41148000D03*
%TD*%
D24*
%TO.C,JP10*%
X71120000Y-63388000D03*
D25*
X71120000Y-62088000D03*
%TD*%
D43*
%TO.C,J1*%
X42037000Y-58121000D03*
X42037000Y-62021000D03*
X43307000Y-58121000D03*
X43307000Y-62021000D03*
X44577000Y-58121000D03*
X44577000Y-62021000D03*
X45847000Y-58121000D03*
X45847000Y-62021000D03*
X47117000Y-58121000D03*
X47117000Y-62021000D03*
X48387000Y-58121000D03*
X48387000Y-62021000D03*
X49657000Y-58121000D03*
X49657000Y-62021000D03*
X50927000Y-58121000D03*
X50927000Y-62021000D03*
X52197000Y-58121000D03*
X52197000Y-62021000D03*
X53467000Y-58121000D03*
X53467000Y-62021000D03*
%TD*%
D22*
%TO.C,JP21*%
X105933000Y-40767000D03*
D23*
X104633000Y-40767000D03*
%TD*%
D39*
%TO.C,U17*%
X89168000Y-47854000D03*
X86868000Y-47854000D03*
D40*
X86868000Y-41554000D03*
D39*
X84568000Y-47854000D03*
%TD*%
D28*
%TO.C,C46*%
X86842600Y-66827400D03*
X88392600Y-66827400D03*
%TD*%
D32*
%TO.C,C28*%
X125108000Y-67564000D03*
X123558000Y-67564000D03*
%TD*%
D35*
%TO.C,C37*%
X94869000Y-48247000D03*
X94869000Y-49797000D03*
%TD*%
D27*
%TO.C,D5*%
X144424400Y-77800200D03*
X140924400Y-77800200D03*
%TD*%
D42*
%TO.C,D24*%
X72136000Y-39215000D03*
X72136000Y-35715000D03*
%TD*%
D24*
%TO.C,JP26*%
X93218000Y-55387000D03*
D25*
X93218000Y-54087000D03*
%TD*%
D24*
%TO.C,JP23*%
X101168200Y-63032400D03*
D25*
X101168200Y-61732400D03*
%TD*%
D34*
%TO.C,R65*%
X88925400Y-45173400D03*
X88925400Y-43523400D03*
%TD*%
D24*
%TO.C,JP12*%
X68580000Y-55148000D03*
D25*
X68580000Y-53848000D03*
%TD*%
D22*
%TO.C,JP15*%
X90058000Y-51308000D03*
D23*
X88758000Y-51308000D03*
%TD*%
D41*
%TO.C,U12*%
X120080000Y-65786000D03*
X120080000Y-64516000D03*
X120080000Y-63246000D03*
X120080000Y-61976000D03*
X120080000Y-60706000D03*
X120080000Y-59436000D03*
X120080000Y-58166000D03*
X120080000Y-56896000D03*
X125030000Y-56896000D03*
X125030000Y-58166000D03*
X125030000Y-59436000D03*
X125030000Y-60706000D03*
X125030000Y-61976000D03*
X125030000Y-63246000D03*
X125030000Y-64516000D03*
X125030000Y-65786000D03*
%TD*%
D29*
%TO.C,U4*%
X76962000Y-64832000D03*
X75692000Y-64832000D03*
X74422000Y-64832000D03*
X73152000Y-64832000D03*
X73152000Y-59882000D03*
X74422000Y-59882000D03*
X75692000Y-59882000D03*
X76962000Y-59882000D03*
%TD*%
D39*
%TO.C,U14*%
X76722000Y-47854000D03*
X74422000Y-47854000D03*
D40*
X74422000Y-41554000D03*
D39*
X72122000Y-47854000D03*
%TD*%
D24*
%TO.C,JP8*%
X76631800Y-51562000D03*
D25*
X76631800Y-50262000D03*
%TD*%
D22*
%TO.C,JP22*%
X102773000Y-51562000D03*
D23*
X101473000Y-51562000D03*
%TD*%
D27*
%TO.C,D8*%
X103680200Y-77800200D03*
X100180200Y-77800200D03*
%TD*%
D30*
%TO.C,JP2*%
X50038000Y-41021000D03*
D31*
X51338000Y-41021000D03*
%TD*%
D27*
%TO.C,D7*%
X118160800Y-77800200D03*
X114660800Y-77800200D03*
%TD*%
M02*
