%TF.GenerationSoftware,KiCad,Pcbnew,(6.0.4)*%
%TF.CreationDate,2022-12-17T19:50:06+01:00*%
%TF.ProjectId,bsc,6273632e-6b69-4636-9164-5f7063625858,rev?*%
%TF.SameCoordinates,Original*%
%TF.FileFunction,Copper,L4,Bot*%
%TF.FilePolarity,Positive*%
%FSLAX46Y46*%
G04 Gerber Fmt 4.6, Leading zero omitted, Abs format (unit mm)*
G04 Created by KiCad (PCBNEW (6.0.4)) date 2022-12-17 19:50:06*
%MOMM*%
%LPD*%
G01*
G04 APERTURE LIST*
G04 Aperture macros list*
%AMRoundRect*
0 Rectangle with rounded corners*
0 $1 Rounding radius*
0 $2 $3 $4 $5 $6 $7 $8 $9 X,Y pos of 4 corners*
0 Add a 4 corners polygon primitive as box body*
4,1,4,$2,$3,$4,$5,$6,$7,$8,$9,$2,$3,0*
0 Add four circle primitives for the rounded corners*
1,1,$1+$1,$2,$3*
1,1,$1+$1,$4,$5*
1,1,$1+$1,$6,$7*
1,1,$1+$1,$8,$9*
0 Add four rect primitives between the rounded corners*
20,1,$1+$1,$2,$3,$4,$5,0*
20,1,$1+$1,$4,$5,$6,$7,0*
20,1,$1+$1,$6,$7,$8,$9,0*
20,1,$1+$1,$8,$9,$2,$3,0*%
%AMFreePoly0*
4,1,22,0.500000,-0.750000,0.000000,-0.750000,0.000000,-0.745033,-0.079941,-0.743568,-0.215256,-0.701293,-0.333266,-0.622738,-0.424486,-0.514219,-0.481581,-0.384460,-0.499164,-0.250000,-0.500000,-0.250000,-0.500000,0.250000,-0.499164,0.250000,-0.499963,0.256109,-0.478152,0.396186,-0.417904,0.524511,-0.324060,0.630769,-0.204165,0.706417,-0.067858,0.745374,0.000000,0.744959,0.000000,0.750000,
0.500000,0.750000,0.500000,-0.750000,0.500000,-0.750000,$1*%
%AMFreePoly1*
4,1,20,0.000000,0.744959,0.073905,0.744508,0.209726,0.703889,0.328688,0.626782,0.421226,0.519385,0.479903,0.390333,0.500000,0.250000,0.500000,-0.250000,0.499851,-0.262216,0.476331,-0.402017,0.414519,-0.529596,0.319384,-0.634700,0.198574,-0.708877,0.061801,-0.746166,0.000000,-0.745033,0.000000,-0.750000,-0.500000,-0.750000,-0.500000,0.750000,0.000000,0.750000,0.000000,0.744959,
0.000000,0.744959,$1*%
%AMFreePoly2*
4,1,22,0.550000,-0.750000,0.000000,-0.750000,0.000000,-0.745033,-0.079941,-0.743568,-0.215256,-0.701293,-0.333266,-0.622738,-0.424486,-0.514219,-0.481581,-0.384460,-0.499164,-0.250000,-0.500000,-0.250000,-0.500000,0.250000,-0.499164,0.250000,-0.499963,0.256109,-0.478152,0.396186,-0.417904,0.524511,-0.324060,0.630769,-0.204165,0.706417,-0.067858,0.745374,0.000000,0.744959,0.000000,0.750000,
0.550000,0.750000,0.550000,-0.750000,0.550000,-0.750000,$1*%
%AMFreePoly3*
4,1,20,0.000000,0.744959,0.073905,0.744508,0.209726,0.703889,0.328688,0.626782,0.421226,0.519385,0.479903,0.390333,0.500000,0.250000,0.500000,-0.250000,0.499851,-0.262216,0.476331,-0.402017,0.414519,-0.529596,0.319384,-0.634700,0.198574,-0.708877,0.061801,-0.746166,0.000000,-0.745033,0.000000,-0.750000,-0.550000,-0.750000,-0.550000,0.750000,0.000000,0.750000,0.000000,0.744959,
0.000000,0.744959,$1*%
G04 Aperture macros list end*
%TA.AperFunction,ComponentPad*%
%ADD10R,1.700000X1.700000*%
%TD*%
%TA.AperFunction,ComponentPad*%
%ADD11O,1.700000X1.700000*%
%TD*%
%TA.AperFunction,ComponentPad*%
%ADD12O,2.300000X1.600000*%
%TD*%
%TA.AperFunction,ComponentPad*%
%ADD13R,2.250000X1.750000*%
%TD*%
%TA.AperFunction,ComponentPad*%
%ADD14O,2.250000X1.750000*%
%TD*%
%TA.AperFunction,ComponentPad*%
%ADD15RoundRect,0.250000X-0.650000X-1.550000X0.650000X-1.550000X0.650000X1.550000X-0.650000X1.550000X0*%
%TD*%
%TA.AperFunction,ComponentPad*%
%ADD16O,1.800000X3.600000*%
%TD*%
%TA.AperFunction,ComponentPad*%
%ADD17R,1.500000X2.300000*%
%TD*%
%TA.AperFunction,ComponentPad*%
%ADD18O,1.500000X2.300000*%
%TD*%
%TA.AperFunction,ComponentPad*%
%ADD19RoundRect,0.250000X0.650000X1.550000X-0.650000X1.550000X-0.650000X-1.550000X0.650000X-1.550000X0*%
%TD*%
%TA.AperFunction,SMDPad,CuDef*%
%ADD20FreePoly0,180.000000*%
%TD*%
%TA.AperFunction,SMDPad,CuDef*%
%ADD21FreePoly1,180.000000*%
%TD*%
%TA.AperFunction,SMDPad,CuDef*%
%ADD22FreePoly0,90.000000*%
%TD*%
%TA.AperFunction,SMDPad,CuDef*%
%ADD23FreePoly1,90.000000*%
%TD*%
%TA.AperFunction,SMDPad,CuDef*%
%ADD24R,1.000000X1.000000*%
%TD*%
%TA.AperFunction,SMDPad,CuDef*%
%ADD25R,1.300000X1.700000*%
%TD*%
%TA.AperFunction,SMDPad,CuDef*%
%ADD26RoundRect,0.225000X-0.225000X-0.250000X0.225000X-0.250000X0.225000X0.250000X-0.225000X0.250000X0*%
%TD*%
%TA.AperFunction,SMDPad,CuDef*%
%ADD27RoundRect,0.150000X0.150000X-0.825000X0.150000X0.825000X-0.150000X0.825000X-0.150000X-0.825000X0*%
%TD*%
%TA.AperFunction,SMDPad,CuDef*%
%ADD28FreePoly0,0.000000*%
%TD*%
%TA.AperFunction,SMDPad,CuDef*%
%ADD29FreePoly1,0.000000*%
%TD*%
%TA.AperFunction,SMDPad,CuDef*%
%ADD30RoundRect,0.225000X0.225000X0.250000X-0.225000X0.250000X-0.225000X-0.250000X0.225000X-0.250000X0*%
%TD*%
%TA.AperFunction,SMDPad,CuDef*%
%ADD31RoundRect,0.200000X-0.200000X-0.275000X0.200000X-0.275000X0.200000X0.275000X-0.200000X0.275000X0*%
%TD*%
%TA.AperFunction,SMDPad,CuDef*%
%ADD32RoundRect,0.200000X0.275000X-0.200000X0.275000X0.200000X-0.275000X0.200000X-0.275000X-0.200000X0*%
%TD*%
%TA.AperFunction,SMDPad,CuDef*%
%ADD33RoundRect,0.225000X-0.250000X0.225000X-0.250000X-0.225000X0.250000X-0.225000X0.250000X0.225000X0*%
%TD*%
%TA.AperFunction,SMDPad,CuDef*%
%ADD34FreePoly2,180.000000*%
%TD*%
%TA.AperFunction,SMDPad,CuDef*%
%ADD35R,1.000000X1.500000*%
%TD*%
%TA.AperFunction,SMDPad,CuDef*%
%ADD36FreePoly3,180.000000*%
%TD*%
%TA.AperFunction,SMDPad,CuDef*%
%ADD37R,1.500000X2.000000*%
%TD*%
%TA.AperFunction,SMDPad,CuDef*%
%ADD38R,3.800000X2.000000*%
%TD*%
%TA.AperFunction,SMDPad,CuDef*%
%ADD39RoundRect,0.150000X-0.825000X-0.150000X0.825000X-0.150000X0.825000X0.150000X-0.825000X0.150000X0*%
%TD*%
%TA.AperFunction,SMDPad,CuDef*%
%ADD40R,1.700000X1.300000*%
%TD*%
%TA.AperFunction,SMDPad,CuDef*%
%ADD41R,0.740000X2.400000*%
%TD*%
%TA.AperFunction,ViaPad*%
%ADD42C,0.800000*%
%TD*%
%TA.AperFunction,ViaPad*%
%ADD43C,1.200000*%
%TD*%
%TA.AperFunction,Conductor*%
%ADD44C,0.500000*%
%TD*%
%TA.AperFunction,Conductor*%
%ADD45C,0.250000*%
%TD*%
%TA.AperFunction,Conductor*%
%ADD46C,0.400000*%
%TD*%
%TA.AperFunction,Conductor*%
%ADD47C,0.350000*%
%TD*%
%TA.AperFunction,Conductor*%
%ADD48C,1.000000*%
%TD*%
%TA.AperFunction,Conductor*%
%ADD49C,0.200000*%
%TD*%
G04 APERTURE END LIST*
D10*
%TO.P,J14,1,Pin_1*%
%TO.N,/OUTPUT/TACHO1*%
X135432800Y-81584800D03*
D11*
%TO.P,J14,2,Pin_2*%
%TO.N,/OUTPUT/REL1_NC_TACHO*%
X135432800Y-79044800D03*
%TO.P,J14,3,Pin_3*%
%TO.N,/OUTPUT/REL1_NC*%
X135432800Y-76504800D03*
%TD*%
D10*
%TO.P,J9,1,Pin_1*%
%TO.N,/OUTPUT/REL6_COM*%
X74422000Y-89154000D03*
D11*
%TO.P,J9,2,Pin_2*%
%TO.N,V_IN*%
X76962000Y-89154000D03*
%TD*%
D12*
%TO.P,K4,1*%
%TO.N,N/C*%
X120142000Y-85852000D03*
%TO.P,K4,5*%
%TO.N,/OUTPUT/VCC_REL*%
X120142000Y-75692000D03*
%TO.P,K4,6*%
%TO.N,/OUTPUT/REL3_NO*%
X120142000Y-73152000D03*
%TO.P,K4,7*%
%TO.N,/OUTPUT/REL3_NC*%
X112522000Y-73152000D03*
%TO.P,K4,8*%
%TO.N,Net-(D7-Pad2)*%
X112522000Y-75692000D03*
%TO.P,K4,12*%
%TO.N,/OUTPUT/REL3_COM*%
X112522000Y-85852000D03*
%TD*%
D13*
%TO.P,PS2,1,-Vin*%
%TO.N,GND*%
X111570500Y-65583500D03*
D14*
%TO.P,PS2,2,+Vin*%
%TO.N,+5V*%
X111570500Y-63043500D03*
%TO.P,PS2,3,-Vout*%
%TO.N,GND1*%
X111570500Y-60503500D03*
%TO.P,PS2,4,+Vout*%
%TO.N,/INPUT/5V_1*%
X111570500Y-57963500D03*
%TD*%
D10*
%TO.P,J5,1,Pin_1*%
%TO.N,/OUTPUT/REL4_COM*%
X99822000Y-89154000D03*
D11*
%TO.P,J5,2,Pin_2*%
%TO.N,V_IN*%
X97282000Y-89154000D03*
%TD*%
D10*
%TO.P,J10,1,Pin_1*%
%TO.N,/OUTPUT/REL1_COM*%
X140512800Y-89154000D03*
D11*
%TO.P,J10,2,Pin_2*%
%TO.N,V_IN*%
X137972800Y-89154000D03*
%TD*%
D10*
%TO.P,J16,1,Pin_1*%
%TO.N,/OUTPUT/TACHO3*%
X108305600Y-81584800D03*
D11*
%TO.P,J16,2,Pin_2*%
%TO.N,/OUTPUT/REL3_NC_TACHO*%
X108305600Y-79044800D03*
%TO.P,J16,3,Pin_3*%
%TO.N,/OUTPUT/REL3_NC*%
X108305600Y-76504800D03*
%TD*%
D10*
%TO.P,J13,1,Pin_1*%
%TO.N,/OUTPUT/REL3_COM*%
X112517000Y-89154000D03*
D11*
%TO.P,J13,2,Pin_2*%
%TO.N,V_IN*%
X115057000Y-89154000D03*
%TD*%
D13*
%TO.P,PS5,1,-Vin*%
%TO.N,GND*%
X92137500Y-50800000D03*
D14*
%TO.P,PS5,2,+Vin*%
%TO.N,+5V*%
X92137500Y-48260000D03*
%TO.P,PS5,3,-Vout*%
%TO.N,/serial/U2_GND*%
X92137500Y-45720000D03*
%TO.P,PS5,4,+Vout*%
%TO.N,/serial/U2_VCC*%
X92137500Y-43180000D03*
%TD*%
D15*
%TO.P,X2,1,Pin_1*%
%TO.N,/serial/U2_VCC_e*%
X75055000Y-37000000D03*
D16*
%TO.P,X2,2,Pin_2*%
%TO.N,/serial/U2_GND*%
X78865000Y-37000000D03*
%TO.P,X2,3,Pin_3*%
%TO.N,/serial/U2TX_O*%
X82675000Y-37000000D03*
%TO.P,X2,4,Pin_4*%
%TO.N,/serial/U2RX_O*%
X86485000Y-37000000D03*
%TO.P,X2,5,Pin_5*%
%TO.N,/serial/U3_VCC_e*%
X90295000Y-37000000D03*
%TO.P,X2,6,Pin_6*%
%TO.N,/serial/U3_GND*%
X94105000Y-37000000D03*
%TO.P,X2,7,Pin_7*%
%TO.N,/serial/U3TX_O*%
X97915000Y-37000000D03*
%TO.P,X2,8,Pin_8*%
%TO.N,/serial/U3RX_O*%
X101725000Y-37000000D03*
%TO.P,X2,9,Pin_9*%
%TO.N,GND*%
X105535000Y-37000000D03*
%TD*%
D17*
%TO.P,U1,1,IN*%
%TO.N,V_IN*%
X69688500Y-70032500D03*
D18*
%TO.P,U1,2,GND*%
%TO.N,GND*%
X67148500Y-70032500D03*
%TO.P,U1,3,OUT*%
%TO.N,+3V3*%
X64608500Y-70032500D03*
%TD*%
D12*
%TO.P,K3,1*%
%TO.N,N/C*%
X131318000Y-85852000D03*
%TO.P,K3,5*%
%TO.N,/OUTPUT/VCC_REL*%
X131318000Y-75692000D03*
%TO.P,K3,6*%
%TO.N,/OUTPUT/REL2_NO*%
X131318000Y-73152000D03*
%TO.P,K3,7*%
%TO.N,/OUTPUT/REL2_NC*%
X123698000Y-73152000D03*
%TO.P,K3,8*%
%TO.N,Net-(D6-Pad2)*%
X123698000Y-75692000D03*
%TO.P,K3,12*%
%TO.N,/OUTPUT/REL2_COM*%
X123698000Y-85852000D03*
%TD*%
D15*
%TO.P,X1,1,Pin_1*%
%TO.N,GND*%
X35560000Y-36957000D03*
D16*
%TO.P,X1,2,Pin_2*%
%TO.N,+3V3*%
X39370000Y-36957000D03*
%TO.P,X1,3,Pin_3*%
%TO.N,/onewire*%
X43180000Y-36957000D03*
%TO.P,X1,4,Pin_4*%
%TO.N,/CAN_H*%
X46990000Y-36957000D03*
%TO.P,X1,5,Pin_5*%
%TO.N,/CAN_L*%
X50800000Y-36957000D03*
%TO.P,X1,6,Pin_6*%
%TO.N,/U1_VCC_e*%
X54610000Y-36957000D03*
%TO.P,X1,7,Pin_7*%
%TO.N,/U1_GND*%
X58420000Y-36957000D03*
%TO.P,X1,8,Pin_8*%
%TO.N,/U1TX_O*%
X62230000Y-36957000D03*
%TO.P,X1,9,Pin_9*%
%TO.N,/U1RX_O*%
X66040000Y-36957000D03*
%TD*%
D12*
%TO.P,K7,1*%
%TO.N,N/C*%
X83058000Y-85852000D03*
%TO.P,K7,5*%
%TO.N,/OUTPUT/VCC_REL*%
X83058000Y-75692000D03*
%TO.P,K7,6*%
%TO.N,/OUTPUT/REL6_NO*%
X83058000Y-73152000D03*
%TO.P,K7,7*%
%TO.N,/OUTPUT/REL6_NC*%
X75438000Y-73152000D03*
%TO.P,K7,8*%
%TO.N,Net-(D10-Pad2)*%
X75438000Y-75692000D03*
%TO.P,K7,12*%
%TO.N,/OUTPUT/REL6_COM*%
X75438000Y-85852000D03*
%TD*%
D19*
%TO.P,X5,1,Pin_1*%
%TO.N,/OUTPUT/REL4_NO*%
X105500000Y-95000000D03*
D16*
%TO.P,X5,2,Pin_2*%
%TO.N,/OUTPUT/REL4_COM*%
X101690000Y-95000000D03*
%TO.P,X5,3,Pin_3*%
%TO.N,/OUTPUT/TACHO4*%
X97880000Y-95000000D03*
%TO.P,X5,4,Pin_4*%
%TO.N,/OUTPUT/REL5_NO*%
X94070000Y-95000000D03*
%TO.P,X5,5,Pin_5*%
%TO.N,/OUTPUT/REL5_COM*%
X90260000Y-95000000D03*
%TO.P,X5,6,Pin_6*%
%TO.N,/OUTPUT/TACHO5*%
X86450000Y-95000000D03*
%TO.P,X5,7,Pin_7*%
%TO.N,/OUTPUT/REL6_NO*%
X82640000Y-95000000D03*
%TO.P,X5,8,Pin_8*%
%TO.N,/OUTPUT/REL6_COM*%
X78830000Y-95000000D03*
%TO.P,X5,9,Pin_9*%
%TO.N,/OUTPUT/TACHO6*%
X75020000Y-95000000D03*
%TD*%
D10*
%TO.P,J11,1,Pin_1*%
%TO.N,/SCL*%
X33065800Y-79796400D03*
D11*
%TO.P,J11,2,Pin_2*%
%TO.N,GND*%
X35605800Y-79796400D03*
%TO.P,J11,3,Pin_3*%
%TO.N,/SDA*%
X33065800Y-82336400D03*
%TO.P,J11,4,Pin_4*%
%TO.N,GND*%
X35605800Y-82336400D03*
%TO.P,J11,5,Pin_5*%
%TO.N,Net-(J11-Pad5)*%
X33065800Y-84876400D03*
%TO.P,J11,6,Pin_6*%
%TO.N,Net-(J11-Pad6)*%
X35605800Y-84876400D03*
%TD*%
D15*
%TO.P,X3,1,Pin_1*%
%TO.N,/INPUT/DI1_P*%
X114554000Y-37000000D03*
D16*
%TO.P,X3,2,Pin_2*%
%TO.N,/INPUT/5V_1*%
X118364000Y-37000000D03*
%TO.P,X3,3,Pin_3*%
%TO.N,/INPUT/DI2_P*%
X122174000Y-37000000D03*
%TO.P,X3,4,Pin_4*%
%TO.N,/INPUT/5V_1*%
X125984000Y-37000000D03*
%TO.P,X3,5,Pin_5*%
%TO.N,/INPUT/DI3_P*%
X129794000Y-37000000D03*
%TO.P,X3,6,Pin_6*%
%TO.N,/INPUT/5V_1*%
X133604000Y-37000000D03*
%TO.P,X3,7,Pin_7*%
%TO.N,/INPUT/DI4_P*%
X137414000Y-37000000D03*
%TO.P,X3,8,Pin_8*%
%TO.N,/INPUT/5V_1*%
X141224000Y-37000000D03*
%TO.P,X3,9,Pin_9*%
%TO.N,GND1*%
X145034000Y-37000000D03*
%TD*%
D12*
%TO.P,K2,1*%
%TO.N,N/C*%
X146558000Y-85852000D03*
%TO.P,K2,5*%
%TO.N,/OUTPUT/VCC_REL*%
X146558000Y-75692000D03*
%TO.P,K2,6*%
%TO.N,/OUTPUT/REL1_NO*%
X146558000Y-73152000D03*
%TO.P,K2,7*%
%TO.N,/OUTPUT/REL1_NC*%
X138938000Y-73152000D03*
%TO.P,K2,8*%
%TO.N,Net-(D5-Pad2)*%
X138938000Y-75692000D03*
%TO.P,K2,12*%
%TO.N,/OUTPUT/REL1_COM*%
X138938000Y-85852000D03*
%TD*%
%TO.P,K6,1*%
%TO.N,N/C*%
X93980000Y-85852000D03*
%TO.P,K6,5*%
%TO.N,/OUTPUT/VCC_REL*%
X93980000Y-75692000D03*
%TO.P,K6,6*%
%TO.N,/OUTPUT/REL5_NO*%
X93980000Y-73152000D03*
%TO.P,K6,7*%
%TO.N,/OUTPUT/REL5_NC*%
X86360000Y-73152000D03*
%TO.P,K6,8*%
%TO.N,Net-(D9-Pad2)*%
X86360000Y-75692000D03*
%TO.P,K6,12*%
%TO.N,/OUTPUT/REL5_COM*%
X86360000Y-85852000D03*
%TD*%
D19*
%TO.P,X4,1,Pin_1*%
%TO.N,/AI1*%
X66000000Y-95000000D03*
D16*
%TO.P,X4,2,Pin_2*%
%TO.N,V_IN*%
X62190000Y-95000000D03*
%TO.P,X4,3,Pin_3*%
%TO.N,+5V*%
X58380000Y-95000000D03*
%TO.P,X4,4,Pin_4*%
%TO.N,+3V3*%
X54570000Y-95000000D03*
%TO.P,X4,5,Pin_5*%
%TO.N,GND*%
X50760000Y-95000000D03*
%TO.P,X4,6,Pin_6*%
X46950000Y-95000000D03*
%TO.P,X4,7,Pin_7*%
X43140000Y-95000000D03*
%TO.P,X4,8,Pin_8*%
%TO.N,V_IN2*%
X39330000Y-95000000D03*
%TO.P,X4,9,Pin_9*%
%TO.N,V_IN1*%
X35520000Y-95000000D03*
%TD*%
D10*
%TO.P,J2,1,Pin_1*%
%TO.N,/U0RXD*%
X60553600Y-49697400D03*
D11*
%TO.P,J2,2,Pin_2*%
%TO.N,/U0TXD*%
X60553600Y-52237400D03*
%TO.P,J2,3,Pin_3*%
%TO.N,GND*%
X60553600Y-54777400D03*
%TD*%
D19*
%TO.P,X6,1,Pin_1*%
%TO.N,/OUTPUT/REL1_NO*%
X145000000Y-95000000D03*
D16*
%TO.P,X6,2,Pin_2*%
%TO.N,/OUTPUT/REL1_COM*%
X141190000Y-95000000D03*
%TO.P,X6,3,Pin_3*%
%TO.N,/OUTPUT/REL1_NC_TACHO*%
X137380000Y-95000000D03*
%TO.P,X6,4,Pin_4*%
%TO.N,/OUTPUT/REL2_NO*%
X133570000Y-95000000D03*
%TO.P,X6,5,Pin_5*%
%TO.N,/OUTPUT/REL2_COM*%
X129760000Y-95000000D03*
%TO.P,X6,6,Pin_6*%
%TO.N,/OUTPUT/REL2_NC_TACHO*%
X125950000Y-95000000D03*
%TO.P,X6,7,Pin_7*%
%TO.N,/OUTPUT/REL3_NO*%
X122140000Y-95000000D03*
%TO.P,X6,8,Pin_8*%
%TO.N,/OUTPUT/REL3_COM*%
X118330000Y-95000000D03*
%TO.P,X6,9,Pin_9*%
%TO.N,/OUTPUT/REL3_NC_TACHO*%
X114520000Y-95000000D03*
%TD*%
D10*
%TO.P,J4,1,Pin_1*%
%TO.N,/LED1*%
X60553600Y-58618200D03*
D11*
%TO.P,J4,2,Pin_2*%
%TO.N,GND*%
X60553600Y-61158200D03*
%TD*%
D10*
%TO.P,J12,1,Pin_1*%
%TO.N,/OUTPUT/REL2_COM*%
X122275600Y-89154000D03*
D11*
%TO.P,J12,2,Pin_2*%
%TO.N,V_IN*%
X119735600Y-89154000D03*
%TD*%
D13*
%TO.P,PS3,1,-Vin*%
%TO.N,GND*%
X79437500Y-50800000D03*
D14*
%TO.P,PS3,2,+Vin*%
%TO.N,+5V*%
X79437500Y-48260000D03*
%TO.P,PS3,3,-Vout*%
%TO.N,/U1_GND*%
X79437500Y-45720000D03*
%TO.P,PS3,4,+Vout*%
%TO.N,/serial/U1_VCC*%
X79437500Y-43180000D03*
%TD*%
D10*
%TO.P,J15,1,Pin_1*%
%TO.N,/OUTPUT/TACHO2*%
X131176000Y-89154000D03*
D11*
%TO.P,J15,2,Pin_2*%
%TO.N,/OUTPUT/REL2_NC_TACHO*%
X128636000Y-89154000D03*
%TO.P,J15,3,Pin_3*%
%TO.N,/OUTPUT/REL2_NC*%
X126096000Y-89154000D03*
%TD*%
D12*
%TO.P,K5,1*%
%TO.N,N/C*%
X104902000Y-85852000D03*
%TO.P,K5,5*%
%TO.N,/OUTPUT/VCC_REL*%
X104902000Y-75692000D03*
%TO.P,K5,6*%
%TO.N,/OUTPUT/REL4_NO*%
X104902000Y-73152000D03*
%TO.P,K5,7*%
%TO.N,/OUTPUT/REL4_NC*%
X97282000Y-73152000D03*
%TO.P,K5,8*%
%TO.N,Net-(D8-Pad2)*%
X97282000Y-75692000D03*
%TO.P,K5,12*%
%TO.N,/OUTPUT/REL4_COM*%
X97282000Y-85852000D03*
%TD*%
D13*
%TO.P,PS4,1,-Vin*%
%TO.N,GND*%
X104837500Y-50800000D03*
D14*
%TO.P,PS4,2,+Vin*%
%TO.N,+5V*%
X104837500Y-48260000D03*
%TO.P,PS4,3,-Vout*%
%TO.N,/serial/U3_GND*%
X104837500Y-45720000D03*
%TO.P,PS4,4,+Vout*%
%TO.N,/serial/U3_VCC*%
X104837500Y-43180000D03*
%TD*%
D10*
%TO.P,J8,1,Pin_1*%
%TO.N,/OUTPUT/REL5_COM*%
X87117000Y-89154000D03*
D11*
%TO.P,J8,2,Pin_2*%
%TO.N,V_IN*%
X89657000Y-89154000D03*
%TD*%
D17*
%TO.P,U19,1,IN*%
%TO.N,V_IN*%
X53755500Y-78303500D03*
D18*
%TO.P,U19,2,GND*%
%TO.N,GND*%
X56295500Y-78303500D03*
%TO.P,U19,3,OUT*%
%TO.N,+5V*%
X58835500Y-78303500D03*
%TD*%
D13*
%TO.P,PS1,1,-Vin*%
%TO.N,GND*%
X66864500Y-50851500D03*
D14*
%TO.P,PS1,2,+Vin*%
%TO.N,+5V*%
X66864500Y-48311500D03*
%TO.P,PS1,3,-Vout*%
%TO.N,/CAN_GND*%
X66864500Y-45771500D03*
%TO.P,PS1,4,+Vout*%
%TO.N,/CAN_VCC*%
X66864500Y-43231500D03*
%TD*%
D20*
%TO.P,JP14,1,A*%
%TO.N,+3V3*%
X93614000Y-40640000D03*
D21*
%TO.P,JP14,2,B*%
%TO.N,/serial/U2_VCC*%
X92314000Y-40640000D03*
%TD*%
D22*
%TO.P,JP25,1,A*%
%TO.N,/serial/U3RX_S*%
X101092000Y-55387000D03*
D23*
%TO.P,JP25,2,B*%
%TO.N,/serial/U3RX_O*%
X101092000Y-54087000D03*
%TD*%
D22*
%TO.P,JP11,1,A*%
%TO.N,/serial/U1RX_S*%
X76631800Y-56286400D03*
D23*
%TO.P,JP11,2,B*%
%TO.N,/U1RX_O*%
X76631800Y-54986400D03*
%TD*%
D22*
%TO.P,JP9,1,A*%
%TO.N,/U1RX*%
X79019400Y-62575200D03*
D23*
%TO.P,JP9,2,B*%
%TO.N,/serial/U1RX_S*%
X79019400Y-61275200D03*
%TD*%
D24*
%TO.P,TP5,1,1*%
%TO.N,Net-(TP5-Pad1)*%
X117221000Y-63246000D03*
%TD*%
D22*
%TO.P,JP19,1,A*%
%TO.N,/serial/U2TX_S*%
X81026000Y-55118000D03*
D23*
%TO.P,JP19,2,B*%
%TO.N,/serial/U2TX_O*%
X81026000Y-53818000D03*
%TD*%
D25*
%TO.P,D10,1,K*%
%TO.N,/OUTPUT/VCC_REL*%
X81381600Y-77800200D03*
%TO.P,D10,2,A*%
%TO.N,Net-(D10-Pad2)*%
X77881600Y-77800200D03*
%TD*%
D26*
%TO.P,C44,1*%
%TO.N,GND*%
X74383600Y-66852800D03*
%TO.P,C44,2*%
%TO.N,+3V3*%
X75933600Y-66852800D03*
%TD*%
D27*
%TO.P,U5,1,VDD1*%
%TO.N,+3V3*%
X101727000Y-64832000D03*
%TO.P,U5,2,VOA*%
%TO.N,/U3RX*%
X100457000Y-64832000D03*
%TO.P,U5,3,VIB*%
%TO.N,/U3TX*%
X99187000Y-64832000D03*
%TO.P,U5,4,GND1*%
%TO.N,GND*%
X97917000Y-64832000D03*
%TO.P,U5,5,GND2*%
%TO.N,/serial/U3_GND*%
X97917000Y-59882000D03*
%TO.P,U5,6,VOB*%
%TO.N,/serial/U3TX_S*%
X99187000Y-59882000D03*
%TO.P,U5,7,VIA*%
%TO.N,/serial/U3RX_S*%
X100457000Y-59882000D03*
%TO.P,U5,8,VDD2*%
%TO.N,/serial/U3_VCC*%
X101727000Y-59882000D03*
%TD*%
D25*
%TO.P,D9,1,K*%
%TO.N,/OUTPUT/VCC_REL*%
X91973400Y-77800200D03*
%TO.P,D9,2,A*%
%TO.N,Net-(D9-Pad2)*%
X88473400Y-77800200D03*
%TD*%
D28*
%TO.P,JP3,1,A*%
%TO.N,/CAN_Rx*%
X50038000Y-45008800D03*
D29*
%TO.P,JP3,2,B*%
%TO.N,/CAN_Rx_s*%
X51338000Y-45008800D03*
%TD*%
D20*
%TO.P,JP30,1,A*%
%TO.N,+5V*%
X39624000Y-84963000D03*
D21*
%TO.P,JP30,2,B*%
%TO.N,Net-(J11-Pad6)*%
X38324000Y-84963000D03*
%TD*%
D30*
%TO.P,C41,1*%
%TO.N,/serial/U2_VCC*%
X85623400Y-49936400D03*
%TO.P,C41,2*%
%TO.N,/serial/U2_GND*%
X84073400Y-49936400D03*
%TD*%
D27*
%TO.P,U8,1,RO*%
%TO.N,/serial/U1RX_S*%
X74422000Y-56958000D03*
%TO.P,U8,2,~{RE}*%
%TO.N,/serial/U1RXTX_ENs*%
X73152000Y-56958000D03*
%TO.P,U8,3,DE*%
X71882000Y-56958000D03*
%TO.P,U8,4,DI*%
%TO.N,/serial/U1TX_S*%
X70612000Y-56958000D03*
%TO.P,U8,5,GND*%
%TO.N,/U1_GND*%
X70612000Y-52008000D03*
%TO.P,U8,6,A*%
%TO.N,/U1RX_O*%
X71882000Y-52008000D03*
%TO.P,U8,7,B*%
%TO.N,/U1TX_O*%
X73152000Y-52008000D03*
%TO.P,U8,8,VCC*%
%TO.N,/serial/U1_VCC*%
X74422000Y-52008000D03*
%TD*%
D22*
%TO.P,JP24,1,A*%
%TO.N,/U3TX*%
X98679000Y-63032400D03*
D23*
%TO.P,JP24,2,B*%
%TO.N,/serial/U3TX_S*%
X98679000Y-61732400D03*
%TD*%
D27*
%TO.P,U16,1,RO*%
%TO.N,/serial/U2RX_S*%
X86868000Y-56958000D03*
%TO.P,U16,2,~{RE}*%
%TO.N,/serial/U2RXTX_ENs*%
X85598000Y-56958000D03*
%TO.P,U16,3,DE*%
X84328000Y-56958000D03*
%TO.P,U16,4,DI*%
%TO.N,/serial/U2TX_S*%
X83058000Y-56958000D03*
%TO.P,U16,5,GND*%
%TO.N,/serial/U2_GND*%
X83058000Y-52008000D03*
%TO.P,U16,6,A*%
%TO.N,/serial/U2RX_O*%
X84328000Y-52008000D03*
%TO.P,U16,7,B*%
%TO.N,/serial/U2TX_O*%
X85598000Y-52008000D03*
%TO.P,U16,8,VCC*%
%TO.N,/serial/U2_VCC*%
X86868000Y-52008000D03*
%TD*%
D31*
%TO.P,R37,1*%
%TO.N,Net-(IC1-Pad2)*%
X137923000Y-58420000D03*
%TO.P,R37,2*%
%TO.N,Net-(D20-Pad3)*%
X139573000Y-58420000D03*
%TD*%
D20*
%TO.P,JP7,1,A*%
%TO.N,+3V3*%
X80533000Y-40640000D03*
D21*
%TO.P,JP7,2,B*%
%TO.N,/serial/U1_VCC*%
X79233000Y-40640000D03*
%TD*%
D30*
%TO.P,C40,1*%
%TO.N,/serial/U1_VCC*%
X73355200Y-49936400D03*
%TO.P,C40,2*%
%TO.N,/U1_GND*%
X71805200Y-49936400D03*
%TD*%
D31*
%TO.P,R39,1*%
%TO.N,Net-(IC1-Pad4)*%
X134621000Y-58420000D03*
%TO.P,R39,2*%
%TO.N,Net-(D21-Pad3)*%
X136271000Y-58420000D03*
%TD*%
D20*
%TO.P,JP31,1,A*%
%TO.N,+3V3*%
X34279600Y-87299800D03*
D21*
%TO.P,JP31,2,B*%
%TO.N,Net-(J11-Pad5)*%
X32979600Y-87299800D03*
%TD*%
D32*
%TO.P,R19,1*%
%TO.N,/CAN_GND*%
X64262000Y-45338000D03*
%TO.P,R19,2*%
%TO.N,/CAN_VCC*%
X64262000Y-43688000D03*
%TD*%
D31*
%TO.P,R41,1*%
%TO.N,Net-(IC2-Pad2)*%
X145416000Y-58420000D03*
%TO.P,R41,2*%
%TO.N,Net-(D22-Pad3)*%
X147066000Y-58420000D03*
%TD*%
D33*
%TO.P,C36,1*%
%TO.N,Net-(C36-Pad1)*%
X69596000Y-48247000D03*
%TO.P,C36,2*%
%TO.N,/U1_GND*%
X69596000Y-49797000D03*
%TD*%
D28*
%TO.P,JP4,1,A*%
%TO.N,/CAN_Tx*%
X50038000Y-43027600D03*
D29*
%TO.P,JP4,2,B*%
%TO.N,/CAN_Tx_s*%
X51338000Y-43027600D03*
%TD*%
D27*
%TO.P,U9,1,RO*%
%TO.N,/serial/U3RX_S*%
X99060000Y-56958000D03*
%TO.P,U9,2,~{RE}*%
%TO.N,/serial/U3RXTX_ENs*%
X97790000Y-56958000D03*
%TO.P,U9,3,DE*%
X96520000Y-56958000D03*
%TO.P,U9,4,DI*%
%TO.N,/serial/U3TX_S*%
X95250000Y-56958000D03*
%TO.P,U9,5,GND*%
%TO.N,/serial/U3_GND*%
X95250000Y-52008000D03*
%TO.P,U9,6,A*%
%TO.N,/serial/U3RX_O*%
X96520000Y-52008000D03*
%TO.P,U9,7,B*%
%TO.N,/serial/U3TX_O*%
X97790000Y-52008000D03*
%TO.P,U9,8,VCC*%
%TO.N,/serial/U3_VCC*%
X99060000Y-52008000D03*
%TD*%
D30*
%TO.P,C43,1*%
%TO.N,/serial/U3_VCC*%
X97955400Y-49936400D03*
%TO.P,C43,2*%
%TO.N,/serial/U3_GND*%
X96405400Y-49936400D03*
%TD*%
D25*
%TO.P,D6,1,K*%
%TO.N,/OUTPUT/VCC_REL*%
X129108200Y-77800200D03*
%TO.P,D6,2,A*%
%TO.N,Net-(D6-Pad2)*%
X125608200Y-77800200D03*
%TD*%
D26*
%TO.P,C47,1*%
%TO.N,GND*%
X98964400Y-66856800D03*
%TO.P,C47,2*%
%TO.N,+3V3*%
X100514400Y-66856800D03*
%TD*%
D27*
%TO.P,U6,1,VDD1*%
%TO.N,+3V3*%
X89535000Y-64832000D03*
%TO.P,U6,2,VOA*%
%TO.N,/U2RX*%
X88265000Y-64832000D03*
%TO.P,U6,3,VIB*%
%TO.N,/U2TX*%
X86995000Y-64832000D03*
%TO.P,U6,4,GND1*%
%TO.N,GND*%
X85725000Y-64832000D03*
%TO.P,U6,5,GND2*%
%TO.N,/serial/U2_GND*%
X85725000Y-59882000D03*
%TO.P,U6,6,VOB*%
%TO.N,/serial/U2TX_S*%
X86995000Y-59882000D03*
%TO.P,U6,7,VIA*%
%TO.N,/serial/U2RX_S*%
X88265000Y-59882000D03*
%TO.P,U6,8,VDD2*%
%TO.N,/serial/U2_VCC*%
X89535000Y-59882000D03*
%TD*%
D22*
%TO.P,JP18,1,A*%
%TO.N,/serial/U2RX_S*%
X88900000Y-55118000D03*
D23*
%TO.P,JP18,2,B*%
%TO.N,/serial/U2RX_O*%
X88900000Y-53818000D03*
%TD*%
D31*
%TO.P,R43,1*%
%TO.N,Net-(IC2-Pad4)*%
X142240000Y-58420000D03*
%TO.P,R43,2*%
%TO.N,Net-(D23-Pad3)*%
X143890000Y-58420000D03*
%TD*%
D22*
%TO.P,JP28,1,A*%
%TO.N,V_IN*%
X60833000Y-79502000D03*
D23*
%TO.P,JP28,2,B*%
%TO.N,+5V*%
X60833000Y-78202000D03*
%TD*%
D33*
%TO.P,C45,1*%
%TO.N,Net-(C45-Pad1)*%
X82169000Y-48247000D03*
%TO.P,C45,2*%
%TO.N,/serial/U2_GND*%
X82169000Y-49797000D03*
%TD*%
D34*
%TO.P,JP29,1,A*%
%TO.N,+5V*%
X58272200Y-82524600D03*
D35*
%TO.P,JP29,2,C*%
%TO.N,/OUTPUT/VCC_REL*%
X56972200Y-82524600D03*
D36*
%TO.P,JP29,3,B*%
%TO.N,V_IN*%
X55672200Y-82524600D03*
%TD*%
D28*
%TO.P,JP1,1,A*%
%TO.N,+3V3*%
X50150000Y-46990000D03*
D29*
%TO.P,JP1,2,B*%
%TO.N,/CAN_VCC*%
X51450000Y-46990000D03*
%TD*%
D37*
%TO.P,U15,1,GND*%
%TO.N,/serial/U3_GND*%
X102122000Y-47854000D03*
%TO.P,U15,2,VO*%
%TO.N,/serial/U3_VCC*%
X99822000Y-47854000D03*
D38*
X99822000Y-41554000D03*
D37*
%TO.P,U15,3,VI*%
%TO.N,Net-(C37-Pad1)*%
X97522000Y-47854000D03*
%TD*%
D22*
%TO.P,JP17,1,A*%
%TO.N,/U2TX*%
X83261200Y-62499000D03*
D23*
%TO.P,JP17,2,B*%
%TO.N,/serial/U2TX_S*%
X83261200Y-61199000D03*
%TD*%
D31*
%TO.P,R63,1*%
%TO.N,/U1_GND*%
X75603600Y-43738800D03*
%TO.P,R63,2*%
%TO.N,/serial/U1_VCC*%
X77253600Y-43738800D03*
%TD*%
D32*
%TO.P,R64,1*%
%TO.N,/serial/U3_GND*%
X107188000Y-45275000D03*
%TO.P,R64,2*%
%TO.N,/serial/U3_VCC*%
X107188000Y-43625000D03*
%TD*%
D39*
%TO.P,U13,1,VDD1*%
%TO.N,+3V3*%
X48071000Y-45847000D03*
%TO.P,U13,2,VOA*%
%TO.N,/CAN_Rx*%
X48071000Y-44577000D03*
%TO.P,U13,3,VIB*%
%TO.N,/CAN_Tx*%
X48071000Y-43307000D03*
%TO.P,U13,4,GND1*%
%TO.N,GND*%
X48071000Y-42037000D03*
%TO.P,U13,5,GND2*%
%TO.N,/CAN_GND*%
X53021000Y-42037000D03*
%TO.P,U13,6,VOB*%
%TO.N,/CAN_Tx_s*%
X53021000Y-43307000D03*
%TO.P,U13,7,VIA*%
%TO.N,/CAN_Rx_s*%
X53021000Y-44577000D03*
%TO.P,U13,8,VDD2*%
%TO.N,/CAN_VCC*%
X53021000Y-45847000D03*
%TD*%
D22*
%TO.P,JP16,1,A*%
%TO.N,/U2RX*%
X91668600Y-62458600D03*
D23*
%TO.P,JP16,2,B*%
%TO.N,/serial/U2RX_S*%
X91668600Y-61158600D03*
%TD*%
D40*
%TO.P,D2,1,K*%
%TO.N,Net-(C37-Pad1)*%
X94869000Y-46327000D03*
%TO.P,D2,2,A*%
%TO.N,/serial/U3_VCC_e*%
X94869000Y-42827000D03*
%TD*%
D25*
%TO.P,D3,1,K*%
%TO.N,Net-(C36-Pad1)*%
X59916000Y-41148000D03*
%TO.P,D3,2,A*%
%TO.N,/U1_VCC_e*%
X56416000Y-41148000D03*
%TD*%
D22*
%TO.P,JP10,1,A*%
%TO.N,/U1TX*%
X71120000Y-63388000D03*
D23*
%TO.P,JP10,2,B*%
%TO.N,/serial/U1TX_S*%
X71120000Y-62088000D03*
%TD*%
D41*
%TO.P,J1,1,Pin_1*%
%TO.N,unconnected-(J1-Pad1)*%
X42037000Y-58121000D03*
%TO.P,J1,2,Pin_2*%
%TO.N,unconnected-(J1-Pad2)*%
X42037000Y-62021000D03*
%TO.P,J1,3,Pin_3*%
%TO.N,/RST_ESP*%
X43307000Y-58121000D03*
%TO.P,J1,4,Pin_4*%
%TO.N,GND*%
X43307000Y-62021000D03*
%TO.P,J1,5,Pin_5*%
%TO.N,/H_MISO*%
X44577000Y-58121000D03*
%TO.P,J1,6,Pin_6*%
%TO.N,GND*%
X44577000Y-62021000D03*
%TO.P,J1,7,Pin_7*%
%TO.N,/H_CLK*%
X45847000Y-58121000D03*
%TO.P,J1,8,Pin_8*%
%TO.N,GND*%
X45847000Y-62021000D03*
%TO.P,J1,9,Pin_9*%
%TO.N,/H_MOSI*%
X47117000Y-58121000D03*
%TO.P,J1,10,Pin_10*%
%TO.N,GND*%
X47117000Y-62021000D03*
%TO.P,J1,11,Pin_11*%
%TO.N,unconnected-(J1-Pad11)*%
X48387000Y-58121000D03*
%TO.P,J1,12,Pin_12*%
%TO.N,GND*%
X48387000Y-62021000D03*
%TO.P,J1,13,Pin_13*%
%TO.N,/T_ADDR2*%
X49657000Y-58121000D03*
%TO.P,J1,14,Pin_14*%
%TO.N,GND*%
X49657000Y-62021000D03*
%TO.P,J1,15,Pin_15*%
%TO.N,unconnected-(J1-Pad15)*%
X50927000Y-58121000D03*
%TO.P,J1,16,Pin_16*%
%TO.N,GND*%
X50927000Y-62021000D03*
%TO.P,J1,17,Pin_17*%
%TO.N,unconnected-(J1-Pad17)*%
X52197000Y-58121000D03*
%TO.P,J1,18,Pin_18*%
%TO.N,GND*%
X52197000Y-62021000D03*
%TO.P,J1,19,Pin_19*%
%TO.N,unconnected-(J1-Pad19)*%
X53467000Y-58121000D03*
%TO.P,J1,20,Pin_20*%
%TO.N,GND*%
X53467000Y-62021000D03*
%TD*%
D20*
%TO.P,JP21,1,A*%
%TO.N,+3V3*%
X105933000Y-40767000D03*
D21*
%TO.P,JP21,2,B*%
%TO.N,/serial/U3_VCC*%
X104633000Y-40767000D03*
%TD*%
D37*
%TO.P,U17,1,GND*%
%TO.N,/serial/U2_GND*%
X89168000Y-47854000D03*
%TO.P,U17,2,VO*%
%TO.N,/serial/U2_VCC*%
X86868000Y-47854000D03*
D38*
X86868000Y-41554000D03*
D37*
%TO.P,U17,3,VI*%
%TO.N,Net-(C45-Pad1)*%
X84568000Y-47854000D03*
%TD*%
D26*
%TO.P,C46,1*%
%TO.N,GND*%
X86842600Y-66827400D03*
%TO.P,C46,2*%
%TO.N,+3V3*%
X88392600Y-66827400D03*
%TD*%
D30*
%TO.P,C28,1*%
%TO.N,+3V3*%
X125108000Y-67564000D03*
%TO.P,C28,2*%
%TO.N,GND*%
X123558000Y-67564000D03*
%TD*%
D33*
%TO.P,C37,1*%
%TO.N,Net-(C37-Pad1)*%
X94869000Y-48247000D03*
%TO.P,C37,2*%
%TO.N,/serial/U3_GND*%
X94869000Y-49797000D03*
%TD*%
D25*
%TO.P,D5,1,K*%
%TO.N,/OUTPUT/VCC_REL*%
X144424400Y-77800200D03*
%TO.P,D5,2,A*%
%TO.N,Net-(D5-Pad2)*%
X140924400Y-77800200D03*
%TD*%
D40*
%TO.P,D24,1,K*%
%TO.N,Net-(C45-Pad1)*%
X72136000Y-39215000D03*
%TO.P,D24,2,A*%
%TO.N,/serial/U2_VCC_e*%
X72136000Y-35715000D03*
%TD*%
D22*
%TO.P,JP26,1,A*%
%TO.N,/serial/U3TX_S*%
X93218000Y-55387000D03*
D23*
%TO.P,JP26,2,B*%
%TO.N,/serial/U3TX_O*%
X93218000Y-54087000D03*
%TD*%
D22*
%TO.P,JP23,1,A*%
%TO.N,/U3RX*%
X101168200Y-63032400D03*
D23*
%TO.P,JP23,2,B*%
%TO.N,/serial/U3RX_S*%
X101168200Y-61732400D03*
%TD*%
D32*
%TO.P,R65,1*%
%TO.N,/serial/U2_GND*%
X88925400Y-45173400D03*
%TO.P,R65,2*%
%TO.N,/serial/U2_VCC*%
X88925400Y-43523400D03*
%TD*%
D22*
%TO.P,JP12,1,A*%
%TO.N,/serial/U1TX_S*%
X68580000Y-55148000D03*
D23*
%TO.P,JP12,2,B*%
%TO.N,/U1TX_O*%
X68580000Y-53848000D03*
%TD*%
D20*
%TO.P,JP15,1,A*%
%TO.N,GND*%
X90058000Y-51308000D03*
D21*
%TO.P,JP15,2,B*%
%TO.N,/serial/U2_GND*%
X88758000Y-51308000D03*
%TD*%
D39*
%TO.P,U12,1,~{PL}*%
%TO.N,/INPUT/IO_DI_PL*%
X120080000Y-65786000D03*
%TO.P,U12,2,CP*%
%TO.N,/H_CLK*%
X120080000Y-64516000D03*
%TO.P,U12,3,D4*%
%TO.N,Net-(TP5-Pad1)*%
X120080000Y-63246000D03*
%TO.P,U12,4,D5*%
%TO.N,+3V3*%
X120080000Y-61976000D03*
%TO.P,U12,5,D6*%
%TO.N,GND*%
X120080000Y-60706000D03*
%TO.P,U12,6,D7*%
X120080000Y-59436000D03*
%TO.P,U12,7,~{Q7}*%
%TO.N,unconnected-(U12-Pad7)*%
X120080000Y-58166000D03*
%TO.P,U12,8,GND*%
%TO.N,GND*%
X120080000Y-56896000D03*
%TO.P,U12,9,Q7*%
%TO.N,/H_MISO*%
X125030000Y-56896000D03*
%TO.P,U12,10,DS*%
%TO.N,/INPUT/IO_DATA_OUT*%
X125030000Y-58166000D03*
%TO.P,U12,11,D0*%
%TO.N,/INPUT/DI1s*%
X125030000Y-59436000D03*
%TO.P,U12,12,D1*%
%TO.N,/INPUT/DI2s*%
X125030000Y-60706000D03*
%TO.P,U12,13,D2*%
%TO.N,/INPUT/DI3s*%
X125030000Y-61976000D03*
%TO.P,U12,14,D3*%
%TO.N,/INPUT/DI4s*%
X125030000Y-63246000D03*
%TO.P,U12,15,~{CE}*%
%TO.N,GND*%
X125030000Y-64516000D03*
%TO.P,U12,16,VCC*%
%TO.N,+3V3*%
X125030000Y-65786000D03*
%TD*%
D27*
%TO.P,U4,1,VDD1*%
%TO.N,+3V3*%
X76962000Y-64832000D03*
%TO.P,U4,2,VOA*%
%TO.N,/U1RX*%
X75692000Y-64832000D03*
%TO.P,U4,3,VIB*%
%TO.N,/U1TX*%
X74422000Y-64832000D03*
%TO.P,U4,4,GND1*%
%TO.N,GND*%
X73152000Y-64832000D03*
%TO.P,U4,5,GND2*%
%TO.N,/U1_GND*%
X73152000Y-59882000D03*
%TO.P,U4,6,VOB*%
%TO.N,/serial/U1TX_S*%
X74422000Y-59882000D03*
%TO.P,U4,7,VIA*%
%TO.N,/serial/U1RX_S*%
X75692000Y-59882000D03*
%TO.P,U4,8,VDD2*%
%TO.N,/serial/U1_VCC*%
X76962000Y-59882000D03*
%TD*%
D37*
%TO.P,U14,1,GND*%
%TO.N,/U1_GND*%
X76722000Y-47854000D03*
%TO.P,U14,2,VO*%
%TO.N,/serial/U1_VCC*%
X74422000Y-47854000D03*
D38*
X74422000Y-41554000D03*
D37*
%TO.P,U14,3,VI*%
%TO.N,Net-(C36-Pad1)*%
X72122000Y-47854000D03*
%TD*%
D22*
%TO.P,JP8,1,A*%
%TO.N,GND*%
X76631800Y-51562000D03*
D23*
%TO.P,JP8,2,B*%
%TO.N,/U1_GND*%
X76631800Y-50262000D03*
%TD*%
D20*
%TO.P,JP22,1,A*%
%TO.N,GND*%
X102773000Y-51562000D03*
D21*
%TO.P,JP22,2,B*%
%TO.N,/serial/U3_GND*%
X101473000Y-51562000D03*
%TD*%
D25*
%TO.P,D8,1,K*%
%TO.N,/OUTPUT/VCC_REL*%
X103680200Y-77800200D03*
%TO.P,D8,2,A*%
%TO.N,Net-(D8-Pad2)*%
X100180200Y-77800200D03*
%TD*%
D28*
%TO.P,JP2,1,A*%
%TO.N,GND*%
X50038000Y-41021000D03*
D29*
%TO.P,JP2,2,B*%
%TO.N,/CAN_GND*%
X51338000Y-41021000D03*
%TD*%
D25*
%TO.P,D7,1,K*%
%TO.N,/OUTPUT/VCC_REL*%
X118160800Y-77800200D03*
%TO.P,D7,2,A*%
%TO.N,Net-(D7-Pad2)*%
X114660800Y-77800200D03*
%TD*%
D42*
%TO.N,+5V*%
X62534800Y-61772800D03*
X60960001Y-73094177D03*
%TO.N,/CAN_VCC*%
X62635700Y-43231500D03*
X55425564Y-42877966D03*
X53282650Y-46596638D03*
%TO.N,/CAN_GND*%
X62585600Y-45161200D03*
X42722800Y-42519600D03*
X61976000Y-46583600D03*
X45516800Y-41605200D03*
X52527200Y-41046400D03*
X71577200Y-44602400D03*
X70104000Y-45770800D03*
%TO.N,Net-(D5-Pad2)*%
X141388300Y-73495700D03*
%TO.N,Net-(D6-Pad2)*%
X125628400Y-76301600D03*
%TO.N,Net-(D7-Pad2)*%
X114960400Y-75590400D03*
%TO.N,V_IN*%
X69748400Y-74853800D03*
X43154600Y-78689200D03*
D43*
X38354000Y-81788000D03*
D42*
X60858400Y-81584800D03*
X48340400Y-78511400D03*
D43*
X45593000Y-81686400D03*
D42*
%TO.N,GND1*%
X119024400Y-48412400D03*
X119284000Y-53842400D03*
X119024400Y-44704000D03*
X138023600Y-48260000D03*
X128815500Y-44586800D03*
X126187200Y-53797200D03*
X138023600Y-44348400D03*
X128117600Y-48361600D03*
X134823200Y-53898800D03*
X147421600Y-48412400D03*
X117906800Y-56845200D03*
X146405600Y-42926000D03*
X147167600Y-54152800D03*
%TO.N,/CAN_H*%
X44583100Y-43821100D03*
%TO.N,Net-(D20-Pad3)*%
X140033100Y-57222100D03*
X121666000Y-54660800D03*
%TO.N,/INPUT/5V_1*%
X116789200Y-55956200D03*
%TO.N,GND*%
X120015000Y-67056000D03*
X85801200Y-66852800D03*
X126949200Y-64566800D03*
X40005000Y-77089000D03*
X107188000Y-58089800D03*
X127000000Y-66929000D03*
X96175909Y-59083310D03*
X68986400Y-60756800D03*
X137795000Y-65278000D03*
X119557800Y-69900800D03*
X56515000Y-72517000D03*
X39751000Y-50800000D03*
X90312750Y-69928413D03*
X145034000Y-67868800D03*
X93659400Y-70905500D03*
X86690200Y-68847300D03*
X44323000Y-71247000D03*
X43434000Y-74803000D03*
X45339000Y-77597000D03*
X97078800Y-64312800D03*
X38354000Y-72644000D03*
X76276200Y-68999700D03*
X69589400Y-77326800D03*
X59690000Y-72517000D03*
X126111000Y-55753000D03*
X57353200Y-87934800D03*
X73888600Y-71918700D03*
X103186800Y-62674200D03*
X102997000Y-60071000D03*
X38658800Y-49225200D03*
X66802000Y-88900000D03*
X128651000Y-61417200D03*
X122402600Y-66954400D03*
X43942000Y-60198000D03*
X49377600Y-76962000D03*
X85801200Y-62179200D03*
X38735000Y-67945000D03*
X80924400Y-61976000D03*
X133731000Y-67093500D03*
X65136361Y-74469211D03*
X97070307Y-68217323D03*
X58039000Y-68580000D03*
X73408815Y-67099998D03*
X134226900Y-63804800D03*
X117805200Y-60706000D03*
X134977900Y-69088000D03*
X54356000Y-62103000D03*
X144018000Y-62357000D03*
X52451000Y-71628000D03*
X100761800Y-72186800D03*
X107975400Y-69088000D03*
X122390500Y-56817000D03*
X45586981Y-44245940D03*
X38506400Y-78714600D03*
X127508000Y-57531000D03*
%TO.N,/serial/U1_VCC*%
X82269764Y-42288672D03*
X75438000Y-53035200D03*
X74396600Y-43205400D03*
X74422000Y-46177200D03*
X69286901Y-52370501D03*
X76962000Y-58064400D03*
%TO.N,+3V3*%
X63384300Y-72327100D03*
X43561000Y-68072000D03*
X123444000Y-65786000D03*
X104509119Y-59857810D03*
X103950729Y-67945829D03*
X74168000Y-83439000D03*
X94615000Y-41122600D03*
X48260000Y-46736000D03*
X72390000Y-77559500D03*
X41034300Y-64389000D03*
X82804000Y-40741600D03*
X39370000Y-39420800D03*
X131953000Y-59219500D03*
X134315200Y-64820800D03*
X72644000Y-88773000D03*
X107061000Y-40767000D03*
X140843000Y-64643000D03*
X62872300Y-88900000D03*
X100199400Y-67855500D03*
X96964665Y-60860020D03*
X35737800Y-87274400D03*
X90246200Y-66294000D03*
X147320000Y-67183000D03*
X131318000Y-57531000D03*
X44450000Y-73152000D03*
X121564400Y-62280800D03*
X59045500Y-87382075D03*
X41034300Y-67874800D03*
X74168000Y-80010000D03*
X38506400Y-80162400D03*
X77090581Y-67018500D03*
X104521000Y-57404000D03*
X42164000Y-74295000D03*
%TO.N,/U1RX*%
X53721000Y-51041900D03*
X59283600Y-63500000D03*
X75692000Y-62484000D03*
%TO.N,/RST_ESP*%
X42291000Y-72644000D03*
X42049500Y-60177419D03*
X42316400Y-67995800D03*
%TO.N,/serial/U3_VCC*%
X107492800Y-42240200D03*
X99822000Y-44069000D03*
X99720400Y-50546000D03*
X102489000Y-57581800D03*
%TO.N,/U1TX*%
X54610000Y-51726500D03*
%TO.N,/U1TX_O*%
X70612000Y-53873400D03*
X73152000Y-53594000D03*
X64770000Y-41910000D03*
%TO.N,/U3RX*%
X47371000Y-64643000D03*
%TO.N,/serial/U3_GND*%
X101752400Y-50342800D03*
X95148400Y-59893200D03*
X109220000Y-44704000D03*
X94386400Y-58039000D03*
X94326409Y-51197209D03*
X95850996Y-53521427D03*
%TO.N,/H_CLK*%
X105142100Y-66974100D03*
X54495178Y-64777615D03*
%TO.N,/H_MISO*%
X57784100Y-65477989D03*
X103962200Y-65201800D03*
%TO.N,/H_MOSI*%
X55118000Y-59944000D03*
%TO.N,Net-(D21-Pad3)*%
X136228100Y-55173600D03*
%TO.N,Net-(D22-Pad3)*%
X147468900Y-57055300D03*
%TO.N,/serial/U3_VCC_e*%
X95194200Y-39992500D03*
%TO.N,/CAN_Tx*%
X54483000Y-47625000D03*
%TO.N,/U3TX*%
X51054000Y-68122800D03*
%TO.N,/serial/U2_VCC*%
X86868000Y-43891200D03*
X90119200Y-43205400D03*
X95986600Y-44018200D03*
X89560400Y-58013600D03*
X86817200Y-49936400D03*
X86742212Y-46353788D03*
%TO.N,/CAN_Rx*%
X49049962Y-47483988D03*
%TO.N,/U2RX*%
X83820000Y-63931800D03*
%TO.N,/onewire*%
X48641000Y-50927000D03*
%TO.N,/serial/U2_GND*%
X83464400Y-59842400D03*
X97447700Y-44805600D03*
X93980000Y-44805600D03*
X82143600Y-51257200D03*
X89204800Y-46228000D03*
%TO.N,/SDA*%
X42570398Y-54813200D03*
%TO.N,/U0RXD*%
X44825000Y-50800000D03*
%TO.N,/U0TXD*%
X43561000Y-50774600D03*
%TO.N,/SCL*%
X42205400Y-50897800D03*
%TO.N,/U2TX*%
X83058000Y-64795400D03*
%TO.N,/OUTPUT/VCC_REL*%
X130556000Y-79197200D03*
X105119400Y-79266800D03*
X145745200Y-79146400D03*
X82677000Y-79171800D03*
X78181200Y-79615700D03*
X61909736Y-80553336D03*
X119579400Y-79206800D03*
X56972200Y-80543400D03*
X93349400Y-79246800D03*
%TO.N,/OUTPUT/TACHO3*%
X103149400Y-84480400D03*
%TO.N,/U3RXTX_EN*%
X49599836Y-68150434D03*
X82219800Y-58724800D03*
%TO.N,/U1RXTX_EN*%
X55482000Y-52451000D03*
X62636400Y-57226200D03*
%TO.N,/U1_GND*%
X72237600Y-59232800D03*
X70713600Y-48107600D03*
X76733400Y-46228000D03*
X81785671Y-46029249D03*
%TO.N,/OUTPUT/TACHO6*%
X65786000Y-84709000D03*
%TO.N,Net-(D8-Pad2)*%
X100634800Y-76250800D03*
%TO.N,Net-(D9-Pad2)*%
X88265000Y-73025000D03*
%TO.N,Net-(D10-Pad2)*%
X77876400Y-73507600D03*
%TO.N,Net-(IC1-Pad2)*%
X137578800Y-55179400D03*
X119253000Y-40868600D03*
%TO.N,/INPUT/DI4_P*%
X140282400Y-49293200D03*
%TO.N,/INPUT/IO_DI_PL*%
X97282000Y-66294000D03*
X52451000Y-68072000D03*
X106537220Y-67559600D03*
%TO.N,/serial/U2RXTX_ENs*%
X83908400Y-54800000D03*
%TO.N,/OUTPUT/REL1*%
X108610400Y-68148200D03*
X104419400Y-62865000D03*
X135864600Y-70815200D03*
X105003600Y-64439800D03*
%TO.N,Net-(D23-Pad3)*%
X143727000Y-55171600D03*
%TO.N,/OUTPUT/REL4*%
X95359400Y-67066800D03*
X96111262Y-63658661D03*
%TO.N,/serial/U1RXTX_ENs*%
X73787000Y-55549800D03*
X66958300Y-53417000D03*
X69469000Y-57023000D03*
%TO.N,/OUTPUT/REL5*%
X95758000Y-65405000D03*
X82575400Y-69088000D03*
X91948000Y-67691000D03*
%TO.N,/serial/U3RXTX_ENs*%
X94056200Y-56362600D03*
%TO.N,Net-(IC1-Pad4)*%
X123737800Y-42116600D03*
X133531258Y-56019500D03*
%TO.N,/INPUT/DI1s*%
X126975000Y-59436000D03*
%TO.N,/INPUT/DI2s*%
X127000000Y-61112400D03*
%TO.N,Net-(IC1-Pad6)*%
X123085400Y-60742600D03*
X131907100Y-60678500D03*
%TO.N,/INPUT/DI3s*%
X127406400Y-62026800D03*
%TO.N,Net-(D11-Pad2)*%
X69342000Y-59436000D03*
X65229300Y-53359700D03*
%TO.N,/T_ADDR2*%
X49403000Y-69723000D03*
X53390800Y-56210200D03*
%TO.N,/INPUT/DI4s*%
X128389941Y-64975994D03*
%TO.N,/CAN_Rx_s*%
X54495100Y-44084698D03*
%TO.N,/CAN_Tx_s*%
X55319664Y-45827957D03*
%TO.N,/serial/U3RX_O*%
X99161600Y-54457600D03*
X97044732Y-53768066D03*
%TO.N,/serial/U3TX_O*%
X96062800Y-47879000D03*
X93370400Y-46990000D03*
%TO.N,/serial/U2TX_O*%
X83062600Y-53818000D03*
X81762600Y-41427400D03*
X85902800Y-53517800D03*
%TO.N,Net-(IC2-Pad2)*%
X133276300Y-42158000D03*
X145231100Y-55187400D03*
%TO.N,Net-(IC2-Pad4)*%
X141859000Y-56642000D03*
%TO.N,/OUTPUT/T_ADDR1*%
X72898001Y-74421999D03*
X66040002Y-79629000D03*
%TO.N,/OUTPUT/T_ADDR0*%
X73406000Y-76835000D03*
X66040000Y-80899000D03*
%TO.N,Net-(C45-Pad1)*%
X84582000Y-47117000D03*
X82169000Y-46990000D03*
%TD*%
D44*
%TO.N,+5V*%
X66293300Y-48311500D02*
X63957200Y-50647600D01*
X58196000Y-84856800D02*
X58196000Y-87576223D01*
X104617775Y-66076701D02*
X98939476Y-71755000D01*
X111098900Y-63043500D02*
X108065699Y-66076701D01*
X111570500Y-63043500D02*
X111098900Y-63043500D01*
X58835500Y-80407300D02*
X58835500Y-78303500D01*
X74574400Y-71069200D02*
X72948800Y-71069200D01*
X61042425Y-73176601D02*
X60960001Y-73094177D01*
X39624000Y-84963000D02*
X58089800Y-84963000D01*
X58202701Y-94822701D02*
X58380000Y-95000000D01*
X70841399Y-73176601D02*
X61042425Y-73176601D01*
X58089800Y-84963000D02*
X58196000Y-84856800D01*
X58196000Y-82600800D02*
X58196000Y-84856800D01*
X58272200Y-82524600D02*
X58196000Y-82600800D01*
X63957200Y-50647600D02*
X63957200Y-60350400D01*
X66864500Y-48311500D02*
X66293300Y-48311500D01*
X58937000Y-78202000D02*
X58835500Y-78303500D01*
X60833000Y-78202000D02*
X58937000Y-78202000D01*
X58202701Y-87582924D02*
X58202701Y-94822701D01*
X108065699Y-66076701D02*
X104617775Y-66076701D01*
X63957200Y-60350400D02*
X62534800Y-61772800D01*
X58272200Y-80970600D02*
X58835500Y-80407300D01*
X58196000Y-87576223D02*
X58202701Y-87582924D01*
X75260200Y-71755000D02*
X74574400Y-71069200D01*
X98939476Y-71755000D02*
X75260200Y-71755000D01*
X58272200Y-82524600D02*
X58272200Y-80970600D01*
X72948800Y-71069200D02*
X70841399Y-73176601D01*
D45*
%TO.N,/CAN_VCC*%
X53282650Y-46108650D02*
X53021000Y-45847000D01*
X52889288Y-46990000D02*
X53282650Y-46596638D01*
X64262000Y-43688000D02*
X66408000Y-43688000D01*
X51450000Y-46990000D02*
X52889288Y-46990000D01*
X66408000Y-43688000D02*
X66864500Y-43231500D01*
X53282650Y-46596638D02*
X53282650Y-46108650D01*
%TO.N,/CAN_GND*%
X64262000Y-45338000D02*
X64980900Y-45338000D01*
X51363400Y-41046400D02*
X51338000Y-41021000D01*
X66864500Y-45771500D02*
X65414400Y-45771500D01*
X64980900Y-45338000D02*
X65414400Y-45771500D01*
X52527200Y-41046400D02*
X51363400Y-41046400D01*
X53021000Y-42037000D02*
X52552600Y-42037000D01*
X52527200Y-42011600D02*
X52527200Y-41046400D01*
X52552600Y-42037000D02*
X52527200Y-42011600D01*
%TO.N,Net-(D5-Pad2)*%
X140996000Y-77800200D02*
X141419400Y-77376800D01*
X141419400Y-77376800D02*
X141419400Y-73526800D01*
X141419400Y-73526800D02*
X141388300Y-73495700D01*
X140924400Y-77800200D02*
X140996000Y-77800200D01*
D46*
X138938000Y-75692000D02*
X140924400Y-77678400D01*
X140924400Y-77678400D02*
X140924400Y-77800200D01*
D45*
%TO.N,Net-(D6-Pad2)*%
X125628400Y-77780000D02*
X125608200Y-77800200D01*
X125608200Y-77602200D02*
X125608200Y-77800200D01*
D46*
X123698000Y-75692000D02*
X125608200Y-77602200D01*
D45*
X125628400Y-76301600D02*
X125628400Y-77780000D01*
D46*
%TO.N,Net-(D7-Pad2)*%
X114660800Y-77576800D02*
X112776000Y-75692000D01*
D45*
X112776000Y-75692000D02*
X112522000Y-75692000D01*
X114660800Y-77800200D02*
X114660800Y-77576800D01*
X114960400Y-75590400D02*
X114960400Y-77500600D01*
X114960400Y-77500600D02*
X114660800Y-77800200D01*
D44*
%TO.N,V_IN*%
X55672200Y-82139000D02*
X55672200Y-82524600D01*
D47*
X60833000Y-79502000D02*
X60833000Y-81559400D01*
D44*
X53755500Y-80222300D02*
X55672200Y-82139000D01*
D47*
X60833000Y-81559400D02*
X60858400Y-81584800D01*
D44*
X53755500Y-78303500D02*
X53755500Y-80222300D01*
D45*
%TO.N,/CAN_H*%
X44583100Y-43821100D02*
X44583100Y-40151300D01*
X44583100Y-40151300D02*
X46990000Y-37744400D01*
X46990000Y-37744400D02*
X46990000Y-36957000D01*
%TO.N,Net-(D20-Pad3)*%
X138766600Y-59226400D02*
X139573000Y-58420000D01*
X121666000Y-54660800D02*
X121686700Y-54681500D01*
X140033100Y-57222100D02*
X139573000Y-57682200D01*
X121686700Y-54681500D02*
X129611500Y-54681500D01*
X134156400Y-59226400D02*
X138766600Y-59226400D01*
X139573000Y-57682200D02*
X139573000Y-58420000D01*
X129611500Y-54681500D02*
X134156400Y-59226400D01*
D48*
%TO.N,/OUTPUT/REL1_COM*%
X140512800Y-87401400D02*
X138963400Y-85852000D01*
X140512800Y-89154000D02*
X140512800Y-87401400D01*
X138963400Y-85852000D02*
X138938000Y-85852000D01*
X140868400Y-89509600D02*
X140868400Y-94678400D01*
X140512800Y-89154000D02*
X140868400Y-89509600D01*
X140868400Y-94678400D02*
X141190000Y-95000000D01*
%TO.N,/OUTPUT/REL1_NC*%
X138938000Y-73152000D02*
X138201400Y-73152000D01*
X135432800Y-75920600D02*
X135432800Y-76504800D01*
X138201400Y-73152000D02*
X135432800Y-75920600D01*
%TO.N,/OUTPUT/REL1_NO*%
X146100800Y-73152000D02*
X142697200Y-76555600D01*
X142697200Y-86664800D02*
X145000000Y-88967600D01*
X145000000Y-88967600D02*
X145000000Y-95000000D01*
X142697200Y-76555600D02*
X142697200Y-86664800D01*
X146558000Y-73152000D02*
X146100800Y-73152000D01*
%TO.N,/OUTPUT/REL2_COM*%
X124002800Y-89255600D02*
X122377200Y-89255600D01*
X124002800Y-89255600D02*
X124002800Y-86156800D01*
X124002800Y-90271600D02*
X125196600Y-91465400D01*
X125196600Y-91465400D02*
X126225400Y-91465400D01*
X126225400Y-91465400D02*
X129760000Y-95000000D01*
X124002800Y-86156800D02*
X123698000Y-85852000D01*
X124002800Y-89255600D02*
X124002800Y-90271600D01*
X122377200Y-89255600D02*
X122275600Y-89154000D01*
D47*
%TO.N,GND*%
X98959400Y-66856800D02*
X98964400Y-66856800D01*
X74136402Y-67099998D02*
X73408815Y-67099998D01*
X102874600Y-51460400D02*
X102773000Y-51562000D01*
X104837500Y-50800000D02*
X104837500Y-51423300D01*
X123012200Y-67564000D02*
X123558000Y-67564000D01*
X104800400Y-51460400D02*
X102874600Y-51460400D01*
X48071000Y-42037000D02*
X47269400Y-42037000D01*
X98964400Y-66856800D02*
X98964400Y-66741800D01*
X48133000Y-41975000D02*
X48133000Y-41402000D01*
X43307000Y-62021000D02*
X53467000Y-62021000D01*
X86842600Y-66827400D02*
X86537800Y-67132200D01*
X122402600Y-66954400D02*
X123012200Y-67564000D01*
X86537800Y-67132200D02*
X86080600Y-67132200D01*
X78663800Y-51333400D02*
X76860400Y-51333400D01*
X48514000Y-41021000D02*
X50038000Y-41021000D01*
X117805200Y-60706000D02*
X120080000Y-60706000D01*
X120080000Y-60706000D02*
X120080000Y-59436000D01*
X85725000Y-65709800D02*
X86842600Y-66827400D01*
X45586981Y-43719419D02*
X45586981Y-44245940D01*
X90058000Y-51308000D02*
X91629500Y-51308000D01*
X122311500Y-56896000D02*
X122390500Y-56817000D01*
X79437500Y-50800000D02*
X79197200Y-50800000D01*
X48133000Y-41402000D02*
X48514000Y-41021000D01*
X98964400Y-66741800D02*
X98039400Y-65816800D01*
X126898400Y-64516000D02*
X126949200Y-64566800D01*
X122390500Y-56817000D02*
X123454500Y-55753000D01*
X79197200Y-50800000D02*
X78663800Y-51333400D01*
X104837500Y-51423300D02*
X104800400Y-51460400D01*
X123454500Y-55753000D02*
X126111000Y-55753000D01*
X120080000Y-56896000D02*
X122311500Y-56896000D01*
X54274000Y-62021000D02*
X54356000Y-62103000D01*
X91629500Y-51308000D02*
X92137500Y-50800000D01*
X47269400Y-42037000D02*
X45586981Y-43719419D01*
X97598877Y-68217323D02*
X98959400Y-66856800D01*
X74383600Y-66852800D02*
X73152000Y-65621200D01*
X74383600Y-66852800D02*
X74136402Y-67099998D01*
X85725000Y-64832000D02*
X85725000Y-65709800D01*
X86080600Y-67132200D02*
X85801200Y-66852800D01*
X48071000Y-42037000D02*
X48133000Y-41975000D01*
X97070307Y-68217323D02*
X97598877Y-68217323D01*
X76860400Y-51333400D02*
X76631800Y-51562000D01*
X125030000Y-64516000D02*
X126898400Y-64516000D01*
X73152000Y-65621200D02*
X73152000Y-64832000D01*
X53467000Y-62021000D02*
X54274000Y-62021000D01*
D48*
%TO.N,/OUTPUT/REL2_NC*%
X124510800Y-73152000D02*
X127431800Y-76073000D01*
X127431800Y-76073000D02*
X127431800Y-85953600D01*
X127431800Y-85953600D02*
X126096000Y-87289400D01*
X126096000Y-87289400D02*
X126096000Y-89154000D01*
X123698000Y-73152000D02*
X124510800Y-73152000D01*
%TO.N,/OUTPUT/REL2_NO*%
X131724400Y-73152000D02*
X133477000Y-74904600D01*
X131318000Y-73152000D02*
X131724400Y-73152000D01*
X133477000Y-94907000D02*
X133570000Y-95000000D01*
X133451600Y-94881600D02*
X133570000Y-95000000D01*
X133477000Y-74904600D02*
X133477000Y-94907000D01*
%TO.N,/OUTPUT/REL3_COM*%
X112517000Y-89154000D02*
X112517000Y-89187000D01*
X112522000Y-89149000D02*
X112517000Y-89154000D01*
X112517000Y-89187000D02*
X118330000Y-95000000D01*
X112522000Y-85852000D02*
X112522000Y-89149000D01*
%TO.N,/OUTPUT/REL3_NC*%
X112522000Y-73152000D02*
X111683800Y-73152000D01*
X111683800Y-73152000D02*
X108331000Y-76504800D01*
X108331000Y-76504800D02*
X108305600Y-76504800D01*
%TO.N,/OUTPUT/REL3_NO*%
X120142000Y-73152000D02*
X119735600Y-73152000D01*
X119735600Y-73152000D02*
X116332000Y-76555600D01*
X116332000Y-76555600D02*
X116332000Y-79298800D01*
X117348000Y-90208000D02*
X122140000Y-95000000D01*
X117348000Y-80314800D02*
X117348000Y-90208000D01*
X116332000Y-79298800D02*
X117348000Y-80314800D01*
D45*
%TO.N,/serial/U1_VCC*%
X74422000Y-52008000D02*
X74422000Y-52616100D01*
X74396600Y-41579400D02*
X74422000Y-41554000D01*
X78878700Y-43738800D02*
X79437500Y-43180000D01*
X77253600Y-43738800D02*
X78878700Y-43738800D01*
X79437500Y-40844500D02*
X79437500Y-43180000D01*
X74422000Y-52616100D02*
X74841100Y-53035200D01*
X73990200Y-49936400D02*
X73355200Y-49936400D01*
X76962000Y-58064400D02*
X76962000Y-59882000D01*
X74422000Y-48107600D02*
X74422000Y-47854000D01*
X74396600Y-43205400D02*
X74396600Y-41579400D01*
X74422000Y-46177200D02*
X74422000Y-47854000D01*
X79233000Y-40640000D02*
X79437500Y-40844500D01*
X74422000Y-50368200D02*
X73990200Y-49936400D01*
X74422000Y-52008000D02*
X74422000Y-50368200D01*
X73355200Y-49936400D02*
X73355200Y-49174400D01*
X73355200Y-49174400D02*
X74422000Y-48107600D01*
X74841100Y-53035200D02*
X75438000Y-53035200D01*
D47*
%TO.N,+3V3*%
X82702400Y-40640000D02*
X82804000Y-40741600D01*
X48286513Y-46709487D02*
X48260000Y-46736000D01*
X88672000Y-67106800D02*
X89433400Y-67106800D01*
X49869487Y-46709487D02*
X48286513Y-46709487D01*
X100529400Y-66856800D02*
X101579400Y-65806800D01*
X88392600Y-66827400D02*
X89535000Y-65685000D01*
X75933600Y-66852800D02*
X76060600Y-66979800D01*
X50150000Y-46990000D02*
X49869487Y-46709487D01*
X125108000Y-65864000D02*
X125030000Y-65786000D01*
D44*
X76962000Y-64832000D02*
X76962000Y-65278000D01*
D47*
X100199400Y-67855500D02*
X100484400Y-67570500D01*
X34279600Y-87299800D02*
X35712400Y-87299800D01*
X89433400Y-67106800D02*
X90246200Y-66294000D01*
X88392600Y-66827400D02*
X88672000Y-67106800D01*
X48071000Y-45847000D02*
X48071000Y-46547000D01*
X93614000Y-41036000D02*
X93700600Y-41122600D01*
X100484400Y-66856800D02*
X100529400Y-66856800D01*
X93614000Y-40640000D02*
X93614000Y-41036000D01*
X121259600Y-61976000D02*
X121564400Y-62280800D01*
X125108000Y-67564000D02*
X125108000Y-65864000D01*
X89535000Y-65685000D02*
X89535000Y-64832000D01*
X100484400Y-67570500D02*
X100484400Y-66856800D01*
X120080000Y-61976000D02*
X121259600Y-61976000D01*
X77051881Y-66979800D02*
X77090581Y-67018500D01*
X35712400Y-87299800D02*
X35737800Y-87274400D01*
X48071000Y-46547000D02*
X48260000Y-46736000D01*
X75933600Y-66636600D02*
X75933600Y-66852800D01*
X80533000Y-40640000D02*
X82702400Y-40640000D01*
X76962000Y-64832000D02*
X76962000Y-65608200D01*
X76060600Y-66979800D02*
X77051881Y-66979800D01*
X101579400Y-65806800D02*
X101649400Y-65806800D01*
X76962000Y-65608200D02*
X75933600Y-66636600D01*
X123444000Y-65786000D02*
X125030000Y-65786000D01*
X105933000Y-40767000D02*
X107061000Y-40767000D01*
X93700600Y-41122600D02*
X94615000Y-41122600D01*
D45*
%TO.N,/U1RX*%
X58445400Y-58369200D02*
X58445400Y-62661800D01*
X58445400Y-62661800D02*
X59283600Y-63500000D01*
X53721000Y-53644800D02*
X58445400Y-58369200D01*
X75692000Y-64832000D02*
X75692000Y-62484000D01*
X78928200Y-62484000D02*
X79019400Y-62575200D01*
X53721000Y-51041900D02*
X53721000Y-53644800D01*
X75692000Y-62484000D02*
X78928200Y-62484000D01*
%TO.N,/U1RX_O*%
X75539600Y-46228000D02*
X66268600Y-36957000D01*
X76631800Y-54986400D02*
X76631800Y-53128200D01*
X72808499Y-54825299D02*
X76470699Y-54825299D01*
X71882000Y-53898800D02*
X72808499Y-54825299D01*
X76470699Y-54825299D02*
X76631800Y-54986400D01*
X71882000Y-52008000D02*
X71882000Y-53898800D01*
X76631800Y-53128200D02*
X75539600Y-52036000D01*
X66268600Y-36957000D02*
X66040000Y-36957000D01*
X75539600Y-52036000D02*
X75539600Y-46228000D01*
%TO.N,/RST_ESP*%
X42316400Y-67995800D02*
X42291000Y-68021200D01*
X42282919Y-59944000D02*
X42049500Y-60177419D01*
X43307000Y-58951000D02*
X42314000Y-59944000D01*
X42314000Y-59944000D02*
X42282919Y-59944000D01*
X43307000Y-58121000D02*
X43307000Y-58951000D01*
X42291000Y-68021200D02*
X42291000Y-72644000D01*
D48*
%TO.N,/OUTPUT/REL4_COM*%
X99822000Y-92532200D02*
X101690000Y-94400200D01*
X99822000Y-89154000D02*
X99822000Y-88392000D01*
X99822000Y-88392000D02*
X97282000Y-85852000D01*
X99822000Y-89154000D02*
X99822000Y-92532200D01*
X101690000Y-94400200D02*
X101690000Y-95000000D01*
D45*
%TO.N,/serial/U3_VCC*%
X104633000Y-40767000D02*
X104837500Y-40971500D01*
X101727000Y-59882000D02*
X101727000Y-58293000D01*
X104837500Y-43180000D02*
X106743000Y-43180000D01*
X99060000Y-52008000D02*
X99060000Y-51308000D01*
X99822000Y-50444400D02*
X99720400Y-50546000D01*
X99060000Y-51308000D02*
X99060000Y-51282600D01*
X99822000Y-44069000D02*
X99822000Y-41554000D01*
X99720400Y-50647600D02*
X99720400Y-50546000D01*
X104837500Y-40971500D02*
X104837500Y-43180000D01*
X102438200Y-57581800D02*
X102489000Y-57581800D01*
X101727000Y-58293000D02*
X102438200Y-57581800D01*
X97955400Y-50178000D02*
X97955400Y-49936400D01*
X99822000Y-47854000D02*
X99822000Y-50444400D01*
X99060000Y-51333400D02*
X99060000Y-51308000D01*
X106743000Y-43180000D02*
X107188000Y-43625000D01*
X99060000Y-52008000D02*
X99060000Y-51333400D01*
X99060000Y-51308000D02*
X99720400Y-50647600D01*
X99060000Y-51282600D02*
X97955400Y-50178000D01*
%TO.N,/U1TX*%
X73624200Y-63388000D02*
X74422000Y-64185800D01*
X74422000Y-64185800D02*
X74422000Y-64832000D01*
X54610000Y-51726500D02*
X54610000Y-53136800D01*
X58894911Y-61160521D02*
X61122390Y-63388000D01*
X61122390Y-63388000D02*
X71120000Y-63388000D01*
X54610000Y-53136800D02*
X58894911Y-57421711D01*
X71120000Y-63388000D02*
X73624200Y-63388000D01*
X58894911Y-57421711D02*
X58894911Y-61160521D01*
%TO.N,/U1TX_O*%
X73152000Y-52008000D02*
X73152000Y-53365400D01*
X67499300Y-41910000D02*
X64770000Y-41910000D01*
X68580000Y-53848000D02*
X68562400Y-53830400D01*
X68580000Y-53848000D02*
X70586600Y-53848000D01*
X73152000Y-53365400D02*
X73152000Y-53594000D01*
X68562400Y-42973100D02*
X67499300Y-41910000D01*
X68562400Y-53830400D02*
X68562400Y-42973100D01*
X70586600Y-53848000D02*
X70612000Y-53873400D01*
%TO.N,/U3RX*%
X75361800Y-70815200D02*
X91897200Y-70815200D01*
X91897200Y-70815200D02*
X92735400Y-69977000D01*
X71232862Y-71602600D02*
X72573431Y-70262031D01*
X99109200Y-69977000D02*
X102899400Y-66186800D01*
X102899400Y-66186800D02*
X102899400Y-64342200D01*
X101589600Y-63032400D02*
X101168200Y-63032400D01*
X47371000Y-64643000D02*
X47371000Y-68715600D01*
X57531000Y-70612000D02*
X58521600Y-71602600D01*
X47371000Y-68715600D02*
X49267400Y-70612000D01*
X101168200Y-63032400D02*
X100457000Y-63743600D01*
X102899400Y-64342200D02*
X101589600Y-63032400D01*
X92735400Y-69977000D02*
X99109200Y-69977000D01*
X74808631Y-70262031D02*
X75361800Y-70815200D01*
X58521600Y-71602600D02*
X71232862Y-71602600D01*
X49267400Y-70612000D02*
X57531000Y-70612000D01*
X72573431Y-70262031D02*
X74808631Y-70262031D01*
X100457000Y-63743600D02*
X100457000Y-64832000D01*
%TO.N,/serial/U3_GND*%
X94386400Y-59131200D02*
X95148400Y-59893200D01*
X94869000Y-49797000D02*
X94326409Y-50339591D01*
X107188000Y-45275000D02*
X105282500Y-45275000D01*
X97905800Y-59893200D02*
X95148400Y-59893200D01*
X101752400Y-48223600D02*
X102122000Y-47854000D01*
X105282500Y-45275000D02*
X104837500Y-45720000D01*
X101752400Y-50342800D02*
X101752400Y-48223600D01*
X94386400Y-58039000D02*
X94386400Y-59131200D01*
X95250000Y-51257200D02*
X95190009Y-51197209D01*
X95250000Y-51231800D02*
X96405400Y-50076400D01*
X101752400Y-51282600D02*
X101473000Y-51562000D01*
X96405400Y-50076400D02*
X96405400Y-49936400D01*
X95190009Y-51197209D02*
X94326409Y-51197209D01*
X101752400Y-50342800D02*
X101752400Y-51282600D01*
X94326409Y-50339591D02*
X94326409Y-51197209D01*
X97917000Y-59882000D02*
X97905800Y-59893200D01*
D48*
%TO.N,/OUTPUT/REL4_NO*%
X104902000Y-73152000D02*
X104317800Y-73152000D01*
X101854000Y-90322400D02*
X105500000Y-93968400D01*
X105500000Y-93968400D02*
X105500000Y-95000000D01*
X104317800Y-73152000D02*
X101854000Y-75615800D01*
X101854000Y-75615800D02*
X101854000Y-90322400D01*
%TO.N,/OUTPUT/REL5_COM*%
X87117000Y-89154000D02*
X87117000Y-91028600D01*
X87117000Y-86609000D02*
X86360000Y-85852000D01*
X87117000Y-89154000D02*
X87117000Y-86609000D01*
X87117000Y-91028600D02*
X90260000Y-94171600D01*
X90260000Y-94171600D02*
X90260000Y-95000000D01*
D45*
%TO.N,/H_CLK*%
X45847000Y-58951000D02*
X45847000Y-58121000D01*
X47221000Y-60325000D02*
X45847000Y-58951000D01*
X105142100Y-66974100D02*
X105281100Y-66835100D01*
X117034782Y-66835100D02*
X119353882Y-64516000D01*
X105281100Y-66835100D02*
X117034782Y-66835100D01*
X55118000Y-61341000D02*
X54102000Y-60325000D01*
X119353882Y-64516000D02*
X120080000Y-64516000D01*
X54102000Y-60325000D02*
X47221000Y-60325000D01*
X55118000Y-64154793D02*
X55118000Y-61341000D01*
X54495178Y-64777615D02*
X55118000Y-64154793D01*
%TO.N,/H_MISO*%
X46699200Y-55168800D02*
X44577000Y-57291000D01*
X53848000Y-55168800D02*
X46699200Y-55168800D01*
X124358400Y-56896000D02*
X125030000Y-56896000D01*
X57784100Y-65477989D02*
X57784100Y-59104900D01*
X44577000Y-57291000D02*
X44577000Y-58121000D01*
X123712900Y-57541500D02*
X124358400Y-56896000D01*
X109352000Y-61844000D02*
X113848000Y-61844000D01*
X103963412Y-65203012D02*
X105992988Y-65203012D01*
X103962200Y-65201800D02*
X103963412Y-65203012D01*
X57784100Y-59104900D02*
X53848000Y-55168800D01*
X118150000Y-57541500D02*
X123712900Y-57541500D01*
X105992988Y-65203012D02*
X109352000Y-61844000D01*
X113848000Y-61844000D02*
X118150000Y-57541500D01*
%TO.N,/H_MOSI*%
X47117000Y-58121000D02*
X47117000Y-58951000D01*
X47983000Y-59817000D02*
X54991000Y-59817000D01*
X47117000Y-58951000D02*
X47983000Y-59817000D01*
X54991000Y-59817000D02*
X55118000Y-59944000D01*
%TO.N,Net-(D21-Pad3)*%
X136228100Y-58377100D02*
X136228100Y-55173600D01*
X136271000Y-58420000D02*
X136228100Y-58377100D01*
%TO.N,Net-(D22-Pad3)*%
X147066000Y-57458200D02*
X147468900Y-57055300D01*
X147066000Y-58420000D02*
X147066000Y-57458200D01*
%TO.N,/U1_VCC_e*%
X54610000Y-38227000D02*
X54610000Y-36957000D01*
X56416000Y-40033000D02*
X54610000Y-38227000D01*
X56416000Y-41148000D02*
X56416000Y-40033000D01*
%TO.N,/serial/U3_VCC_e*%
X95402400Y-42293600D02*
X95402400Y-40200700D01*
X94869000Y-42827000D02*
X95402400Y-42293600D01*
X95402400Y-40200700D02*
X95194200Y-39992500D01*
%TO.N,/CAN_Tx*%
X49758600Y-43307000D02*
X50038000Y-43027600D01*
X46304200Y-47193200D02*
X47319489Y-48208489D01*
X47345600Y-43307000D02*
X46304200Y-44348400D01*
X48071000Y-43307000D02*
X47345600Y-43307000D01*
X47319489Y-48208489D02*
X53899511Y-48208489D01*
X53899511Y-48208489D02*
X54483000Y-47625000D01*
X48071000Y-43307000D02*
X49758600Y-43307000D01*
X46304200Y-44348400D02*
X46304200Y-47193200D01*
%TO.N,/U3TX*%
X98522089Y-62875489D02*
X98679000Y-63032400D01*
X99089400Y-64358300D02*
X99187000Y-64455900D01*
X71069200Y-67132200D02*
X72212200Y-68275200D01*
X81889600Y-68275200D02*
X82516911Y-67647889D01*
X99089400Y-63442800D02*
X99089400Y-64358300D01*
X72212200Y-68275200D02*
X81889600Y-68275200D01*
X52044600Y-67132200D02*
X71069200Y-67132200D01*
X98679000Y-63032400D02*
X99089400Y-63442800D01*
X90873511Y-67647889D02*
X95645911Y-62875489D01*
X99187000Y-64455900D02*
X99187000Y-64832000D01*
X95645911Y-62875489D02*
X98522089Y-62875489D01*
X82516911Y-67647889D02*
X90873511Y-67647889D01*
X51054000Y-68122800D02*
X52044600Y-67132200D01*
%TO.N,/serial/U2_VCC*%
X85623400Y-49936400D02*
X86868000Y-51181000D01*
X89560400Y-59856600D02*
X89560400Y-58013600D01*
X86868000Y-42316400D02*
X86868000Y-42418000D01*
X88925400Y-43523400D02*
X89801200Y-43523400D01*
X85623400Y-49936400D02*
X86817200Y-49936400D01*
X92314000Y-40640000D02*
X92100400Y-40853600D01*
X86868000Y-51181000D02*
X86868000Y-52008000D01*
X86868000Y-46479576D02*
X86742212Y-46353788D01*
X89801200Y-43523400D02*
X90119200Y-43205400D01*
X86868000Y-43891200D02*
X86868000Y-42418000D01*
X86868000Y-47269400D02*
X86868000Y-49885600D01*
X92100400Y-40853600D02*
X92100400Y-43142900D01*
X89535000Y-59882000D02*
X89560400Y-59856600D01*
X92100400Y-43142900D02*
X92137500Y-43180000D01*
X86868000Y-47854000D02*
X86868000Y-46479576D01*
%TO.N,/CAN_Rx*%
X46771480Y-45252720D02*
X46771480Y-46272080D01*
X48071000Y-44577000D02*
X47447200Y-44577000D01*
X48071000Y-44577000D02*
X49606200Y-44577000D01*
X47447200Y-44577000D02*
X46771480Y-45252720D01*
X49606200Y-44577000D02*
X50038000Y-45008800D01*
X46771480Y-46272080D02*
X47983388Y-47483988D01*
X47983388Y-47483988D02*
X49049962Y-47483988D01*
%TO.N,/U2RX*%
X84343424Y-63931800D02*
X85250134Y-63025090D01*
X88265000Y-64832000D02*
X88239600Y-64806600D01*
X85250134Y-63025090D02*
X88308110Y-63025090D01*
X91298000Y-62499000D02*
X91694000Y-62499000D01*
X88308110Y-63025090D02*
X90771910Y-63025090D01*
X83820000Y-63931800D02*
X84343424Y-63931800D01*
X88239600Y-64806600D02*
X88239600Y-63093600D01*
X90771910Y-63025090D02*
X91298000Y-62499000D01*
X88239600Y-63093600D02*
X88308110Y-63025090D01*
%TO.N,/onewire*%
X43535600Y-45821600D02*
X48641000Y-50927000D01*
X43180000Y-36957000D02*
X43535600Y-37312600D01*
X43535600Y-37312600D02*
X43535600Y-45821600D01*
%TO.N,/serial/U2_GND*%
X89204800Y-46228000D02*
X89204800Y-45452800D01*
X82169000Y-51231800D02*
X82143600Y-51257200D01*
X82308400Y-49936400D02*
X82169000Y-49797000D01*
X84073400Y-50191000D02*
X84073400Y-49936400D01*
X89204800Y-47193200D02*
X89204800Y-48681200D01*
X83058000Y-52008000D02*
X83058000Y-51206400D01*
X83058000Y-51206400D02*
X84073400Y-50191000D01*
X84073400Y-49936400D02*
X82308400Y-49936400D01*
X88758000Y-51308000D02*
X88758000Y-49128000D01*
X89204800Y-45452800D02*
X88925400Y-45173400D01*
X83058000Y-52008000D02*
X83058000Y-51257200D01*
X85685400Y-59842400D02*
X85725000Y-59882000D01*
X83464400Y-59842400D02*
X85685400Y-59842400D01*
X89168000Y-46264800D02*
X89204800Y-46228000D01*
X88758000Y-49128000D02*
X89168000Y-48718000D01*
X89168000Y-47854000D02*
X89168000Y-46264800D01*
X82169000Y-49797000D02*
X82169000Y-51231800D01*
X89204800Y-48681200D02*
X89168000Y-48718000D01*
%TO.N,/SDA*%
X37439600Y-78155800D02*
X40309800Y-75285600D01*
X33065800Y-82336400D02*
X33386000Y-82336400D01*
X34671000Y-81051400D02*
X36499800Y-81051400D01*
X40309800Y-75285600D02*
X40309800Y-57073798D01*
X40309800Y-57073798D02*
X42570398Y-54813200D01*
X36499800Y-81051400D02*
X37439600Y-80111600D01*
X37439600Y-80111600D02*
X37439600Y-78155800D01*
X33386000Y-82336400D02*
X34671000Y-81051400D01*
%TO.N,/U0RXD*%
X46018800Y-51993800D02*
X49250600Y-51993800D01*
X51816000Y-49428400D02*
X60284600Y-49428400D01*
X49250600Y-51993800D02*
X51816000Y-49428400D01*
X44825000Y-50800000D02*
X46018800Y-51993800D01*
X60284600Y-49428400D02*
X60553600Y-49697400D01*
%TO.N,/U0TXD*%
X43561000Y-50774600D02*
X43561000Y-50927000D01*
X52451000Y-50317400D02*
X58633600Y-50317400D01*
X58633600Y-50317400D02*
X60553600Y-52237400D01*
X50063400Y-52705000D02*
X52451000Y-50317400D01*
X43561000Y-50927000D02*
X45339000Y-52705000D01*
X45339000Y-52705000D02*
X50063400Y-52705000D01*
%TO.N,/SCL*%
X39471600Y-73390600D02*
X33065800Y-79796400D01*
X42205400Y-50897800D02*
X39471600Y-53631600D01*
X39471600Y-53631600D02*
X39471600Y-73390600D01*
%TO.N,/serial/U2_VCC_e*%
X74971000Y-37084000D02*
X72517000Y-37084000D01*
X72517000Y-37084000D02*
X72136000Y-36703000D01*
X72136000Y-36703000D02*
X72136000Y-35715000D01*
%TO.N,/U2TX*%
X85436328Y-63474600D02*
X84115528Y-64795400D01*
X86995000Y-64084200D02*
X86385400Y-63474600D01*
X83261200Y-62499000D02*
X83058000Y-62702200D01*
X86385400Y-63474600D02*
X85436328Y-63474600D01*
X83058000Y-62702200D02*
X83058000Y-64795400D01*
X84115528Y-64795400D02*
X83058000Y-64795400D01*
X86995000Y-64832000D02*
X86995000Y-64084200D01*
D46*
%TO.N,/OUTPUT/VCC_REL*%
X145745200Y-79146400D02*
X144424400Y-77825600D01*
D47*
X83058000Y-76123800D02*
X81381600Y-77800200D01*
D46*
X130556000Y-79197200D02*
X130505200Y-79197200D01*
X129146000Y-77800200D02*
X131254200Y-75692000D01*
X93349400Y-79246800D02*
X93349400Y-79176200D01*
X56972200Y-82524600D02*
X56972200Y-80518000D01*
X105119400Y-79266800D02*
X105119400Y-79239400D01*
X144424400Y-77825600D02*
X144424400Y-77800200D01*
X91973400Y-77712800D02*
X93980000Y-75706200D01*
X118160800Y-77800200D02*
X118160800Y-77673200D01*
X129108200Y-77800200D02*
X129146000Y-77800200D01*
X118160800Y-77673200D02*
X120142000Y-75692000D01*
X61909736Y-80553336D02*
X63093600Y-81737200D01*
X93349400Y-79176200D02*
X91973400Y-77800200D01*
X105119400Y-79239400D02*
X103680200Y-77800200D01*
X131254200Y-75692000D02*
X131318000Y-75692000D01*
X76059700Y-81737200D02*
X78181200Y-79615700D01*
D47*
X81381600Y-77876400D02*
X82677000Y-79171800D01*
D46*
X118172800Y-77800200D02*
X118160800Y-77800200D01*
X144424400Y-77800200D02*
X144449800Y-77800200D01*
X91973400Y-77800200D02*
X91973400Y-77712800D01*
X144449800Y-77800200D02*
X146558000Y-75692000D01*
X103680200Y-77800200D02*
X104902000Y-76578400D01*
X130505200Y-79197200D02*
X129108200Y-77800200D01*
X93980000Y-75706200D02*
X93980000Y-75692000D01*
D47*
X83058000Y-75692000D02*
X83058000Y-76123800D01*
D46*
X63093600Y-81737200D02*
X76059700Y-81737200D01*
X119579400Y-79206800D02*
X118172800Y-77800200D01*
X104902000Y-76578400D02*
X104902000Y-75692000D01*
D45*
%TO.N,/OUTPUT/TACHO3*%
X106121200Y-81584800D02*
X108305600Y-81584800D01*
X103149400Y-84480400D02*
X103225600Y-84480400D01*
X103225600Y-84480400D02*
X106121200Y-81584800D01*
%TO.N,/U3RXTX_EN*%
X82100849Y-63466551D02*
X82100849Y-58843751D01*
X77742902Y-67824498D02*
X82100849Y-63466551D01*
X71634315Y-66370200D02*
X73088613Y-67824498D01*
X82100849Y-58843751D02*
X82219800Y-58724800D01*
X51380070Y-66370200D02*
X71634315Y-66370200D01*
X49599836Y-68150434D02*
X51380070Y-66370200D01*
X73088613Y-67824498D02*
X77742902Y-67824498D01*
%TO.N,/U1RXTX_EN*%
X60257200Y-57226200D02*
X62636400Y-57226200D01*
X55482000Y-52451000D02*
X60257200Y-57226200D01*
D48*
%TO.N,/OUTPUT/REL5_NO*%
X94070000Y-90056800D02*
X90144600Y-86131400D01*
X93395800Y-73152000D02*
X93980000Y-73152000D01*
X90144600Y-76403200D02*
X93395800Y-73152000D01*
X90144600Y-86131400D02*
X90144600Y-76403200D01*
X94070000Y-95000000D02*
X94070000Y-90056800D01*
D45*
%TO.N,/U1_GND*%
X70612000Y-51257200D02*
X71805200Y-50064000D01*
X75603600Y-43738800D02*
X76733400Y-44868600D01*
X76722000Y-46239400D02*
X76733400Y-46228000D01*
X71475000Y-49606200D02*
X71805200Y-49936400D01*
X73152000Y-59334400D02*
X73050400Y-59232800D01*
X73152000Y-59882000D02*
X73152000Y-59334400D01*
X73050400Y-59232800D02*
X72237600Y-59232800D01*
X70713600Y-48107600D02*
X70713600Y-49606200D01*
X69596000Y-49797000D02*
X69786800Y-49606200D01*
X76631800Y-47944200D02*
X76722000Y-47854000D01*
X70612000Y-52008000D02*
X70612000Y-51257200D01*
X76631800Y-50262000D02*
X76631800Y-47944200D01*
X70713600Y-49606200D02*
X71475000Y-49606200D01*
X76733400Y-44868600D02*
X76733400Y-46228000D01*
X76722000Y-47854000D02*
X76722000Y-46239400D01*
X71805200Y-50064000D02*
X71805200Y-49936400D01*
X69786800Y-49606200D02*
X70713600Y-49606200D01*
D48*
%TO.N,/OUTPUT/REL6_COM*%
X78830000Y-94197000D02*
X78830000Y-95000000D01*
X74422000Y-89154000D02*
X74422000Y-86868000D01*
X74422000Y-86868000D02*
X75438000Y-85852000D01*
X74422000Y-89154000D02*
X74422000Y-89789000D01*
X74422000Y-89789000D02*
X78830000Y-94197000D01*
%TO.N,/OUTPUT/REL6_NO*%
X79603600Y-91033600D02*
X82640000Y-94070000D01*
X82550000Y-73152000D02*
X79603600Y-76098400D01*
X83058000Y-73152000D02*
X82550000Y-73152000D01*
X79603600Y-76098400D02*
X79603600Y-91033600D01*
X82640000Y-94070000D02*
X82640000Y-95000000D01*
D45*
%TO.N,/OUTPUT/TACHO6*%
X65786000Y-84912200D02*
X75020000Y-94146200D01*
X65786000Y-84709000D02*
X65786000Y-84912200D01*
X75020000Y-94146200D02*
X75020000Y-95000000D01*
%TO.N,Net-(D8-Pad2)*%
X97282000Y-75692000D02*
X98094800Y-75692000D01*
X100180200Y-77777400D02*
X100180200Y-77800200D01*
X100634800Y-77345600D02*
X100180200Y-77800200D01*
D46*
X98094800Y-75692000D02*
X100180200Y-77777400D01*
D45*
X100634800Y-76250800D02*
X100634800Y-77345600D01*
%TO.N,Net-(D9-Pad2)*%
X86360000Y-75692000D02*
X88265000Y-73787000D01*
D46*
X86563200Y-75692000D02*
X88473400Y-77602200D01*
D45*
X86360000Y-75692000D02*
X86563200Y-75692000D01*
X88265000Y-73787000D02*
X88265000Y-73025000D01*
X88473400Y-77602200D02*
X88473400Y-77800200D01*
D46*
%TO.N,Net-(D10-Pad2)*%
X75773400Y-75692000D02*
X77881600Y-77800200D01*
D45*
X77876400Y-73507600D02*
X77881600Y-73512800D01*
D44*
X75438000Y-75692000D02*
X75773400Y-75692000D01*
D45*
X77881600Y-73512800D02*
X77881600Y-77800200D01*
%TO.N,Net-(IC1-Pad2)*%
X137578800Y-54930900D02*
X123516500Y-40868600D01*
X123516500Y-40868600D02*
X119253000Y-40868600D01*
X137668000Y-58165000D02*
X137668000Y-55268600D01*
X137668000Y-55268600D02*
X137578800Y-55179400D01*
X137923000Y-58420000D02*
X137668000Y-58165000D01*
X137578800Y-55179400D02*
X137578800Y-54930900D01*
%TO.N,/INPUT/DI4_P*%
X137414000Y-37947600D02*
X137414000Y-37000000D01*
X140282400Y-40816000D02*
X137414000Y-37947600D01*
X140282400Y-49293200D02*
X140282400Y-40816000D01*
%TO.N,/INPUT/IO_DI_PL*%
X88454889Y-69812511D02*
X72149311Y-69812511D01*
X70192299Y-67855499D02*
X52667501Y-67855499D01*
X117906780Y-67284620D02*
X119405400Y-65786000D01*
X97282000Y-66294000D02*
X94894400Y-68681600D01*
X106812200Y-67284620D02*
X117906780Y-67284620D01*
X52667501Y-67855499D02*
X52451000Y-68072000D01*
X119405400Y-65786000D02*
X120080000Y-65786000D01*
X89585800Y-68681600D02*
X88454889Y-69812511D01*
X106537220Y-67559600D02*
X106812200Y-67284620D01*
X72149311Y-69812511D02*
X70192299Y-67855499D01*
X94894400Y-68681600D02*
X89585800Y-68681600D01*
%TO.N,/serial/U2RXTX_ENs*%
X84328000Y-56958000D02*
X84328000Y-55219600D01*
X84328000Y-55219600D02*
X83908400Y-54800000D01*
X84328000Y-56958000D02*
X85598000Y-56958000D01*
%TO.N,/OUTPUT/REL1*%
X109075381Y-68148200D02*
X111742381Y-70815200D01*
X105003600Y-64439800D02*
X105003600Y-63449200D01*
X105003600Y-63449200D02*
X104419400Y-62865000D01*
X108610400Y-68148200D02*
X109075381Y-68148200D01*
X111742381Y-70815200D02*
X135864600Y-70815200D01*
%TO.N,Net-(D23-Pad3)*%
X143890000Y-58420000D02*
X143727000Y-58257000D01*
X143727000Y-58257000D02*
X143727000Y-55171600D01*
%TO.N,/OUTPUT/REL4*%
X96111262Y-64479662D02*
X96111262Y-63658661D01*
X96482501Y-65943699D02*
X96482501Y-64850901D01*
X96482501Y-64850901D02*
X96111262Y-64479662D01*
X95359400Y-67066800D02*
X96482501Y-65943699D01*
%TO.N,/serial/U1RXTX_ENs*%
X66958300Y-53417000D02*
X66958300Y-55645800D01*
X73152000Y-56958000D02*
X73152000Y-56184800D01*
X71882000Y-56958000D02*
X73152000Y-56958000D01*
X66958300Y-55645800D02*
X68335500Y-57023000D01*
X68335500Y-57023000D02*
X69469000Y-57023000D01*
X73152000Y-56184800D02*
X73787000Y-55549800D01*
%TO.N,/OUTPUT/REL5*%
X91948000Y-67691000D02*
X91541600Y-68097400D01*
X83566000Y-68097400D02*
X82575400Y-69088000D01*
X93472000Y-67691000D02*
X91948000Y-67691000D01*
X91541600Y-68097400D02*
X83566000Y-68097400D01*
X95758000Y-65405000D02*
X93472000Y-67691000D01*
%TO.N,/serial/U3RXTX_ENs*%
X96520000Y-56311800D02*
X95866700Y-55658500D01*
X96520000Y-56958000D02*
X97790000Y-56958000D01*
X96520000Y-56958000D02*
X96520000Y-56311800D01*
X94760300Y-55658500D02*
X94056200Y-56362600D01*
X95866700Y-55658500D02*
X94760300Y-55658500D01*
%TO.N,Net-(IC1-Pad4)*%
X134621000Y-58370200D02*
X133531258Y-57280458D01*
X133531258Y-57280458D02*
X133531258Y-56019500D01*
X123737800Y-42116600D02*
X133531258Y-51910058D01*
X134621000Y-58420000D02*
X134621000Y-58370200D01*
X133531258Y-51910058D02*
X133531258Y-56019500D01*
%TO.N,/INPUT/DI1s*%
X125030000Y-59436000D02*
X126975000Y-59436000D01*
%TO.N,/INPUT/DI2s*%
X125030000Y-60706000D02*
X126593600Y-60706000D01*
X126593600Y-60706000D02*
X127000000Y-61112400D01*
%TO.N,Net-(IC1-Pad6)*%
X126720300Y-58665200D02*
X126593700Y-58791800D01*
X123972800Y-58791800D02*
X123085500Y-59679100D01*
X123085500Y-60742600D02*
X123085400Y-60742600D01*
X131907100Y-60678500D02*
X129893800Y-58665200D01*
X123085500Y-59679100D02*
X123085500Y-60742600D01*
X126593700Y-58791800D02*
X123972800Y-58791800D01*
X129893800Y-58665200D02*
X126720300Y-58665200D01*
%TO.N,/INPUT/DI3s*%
X127355600Y-61976000D02*
X127406400Y-62026800D01*
X125030000Y-61976000D02*
X127355600Y-61976000D01*
%TO.N,Net-(D11-Pad2)*%
X65229300Y-55383600D02*
X69281700Y-59436000D01*
X65229300Y-53359700D02*
X65229300Y-55383600D01*
X69281700Y-59436000D02*
X69342000Y-59436000D01*
%TO.N,/T_ADDR2*%
X56311800Y-58796778D02*
X53725222Y-56210200D01*
X49403000Y-69723000D02*
X48186996Y-68506996D01*
X48186996Y-68506996D02*
X48186996Y-67256004D01*
X49936400Y-65506600D02*
X55092600Y-65506600D01*
D49*
X50596800Y-56210200D02*
X53390800Y-56210200D01*
D45*
X55092600Y-65506600D02*
X56311800Y-64287400D01*
D49*
X49657000Y-57150000D02*
X50596800Y-56210200D01*
D45*
X48186996Y-67256004D02*
X49936400Y-65506600D01*
X56311800Y-64287400D02*
X56311800Y-58796778D01*
X53725222Y-56210200D02*
X53390800Y-56210200D01*
%TO.N,/INPUT/DI4s*%
X126659947Y-63246000D02*
X128389941Y-64975994D01*
X125030000Y-63246000D02*
X126659947Y-63246000D01*
%TO.N,/CAN_Rx_s*%
X53021000Y-44577000D02*
X54127400Y-44577000D01*
X54495100Y-44209300D02*
X54495100Y-44084698D01*
X51769800Y-44577000D02*
X51338000Y-45008800D01*
X53021000Y-44577000D02*
X51769800Y-44577000D01*
X54127400Y-44577000D02*
X54495100Y-44209300D01*
%TO.N,/CAN_Tx_s*%
X53021000Y-43307000D02*
X51617400Y-43307000D01*
X55319664Y-43796664D02*
X55319664Y-45827957D01*
X51617400Y-43307000D02*
X51338000Y-43027600D01*
X53021000Y-43307000D02*
X54830000Y-43307000D01*
X54830000Y-43307000D02*
X55319664Y-43796664D01*
%TO.N,/serial/U3RX_S*%
X100482400Y-59856600D02*
X100457000Y-59882000D01*
X100823000Y-61732400D02*
X100457000Y-61366400D01*
X100457000Y-61366400D02*
X100457000Y-59882000D01*
X99060000Y-56261000D02*
X99934000Y-55387000D01*
X101168200Y-61732400D02*
X100823000Y-61732400D01*
X99060000Y-56958000D02*
X99060000Y-56261000D01*
X100482400Y-58267600D02*
X101092000Y-57658000D01*
X101092000Y-57658000D02*
X101092000Y-55387000D01*
X100482400Y-58267600D02*
X100482400Y-59856600D01*
X99934000Y-55387000D02*
X101092000Y-55387000D01*
%TO.N,/serial/U3TX_S*%
X99189400Y-61338600D02*
X98795600Y-61732400D01*
X93599000Y-57150000D02*
X95058000Y-57150000D01*
X98313009Y-58358809D02*
X99187000Y-59232800D01*
X95976209Y-58358809D02*
X98313009Y-58358809D01*
X93218000Y-55387000D02*
X93218000Y-56769000D01*
X95058000Y-57150000D02*
X95250000Y-56958000D01*
X99187000Y-59232800D02*
X99187000Y-59882000D01*
X99189400Y-59884400D02*
X99189400Y-61338600D01*
X95250000Y-56958000D02*
X95250000Y-57632600D01*
X99187000Y-59882000D02*
X99189400Y-59884400D01*
X95250000Y-57632600D02*
X95976209Y-58358809D01*
X93218000Y-56769000D02*
X93599000Y-57150000D01*
X98795600Y-61732400D02*
X98679000Y-61732400D01*
%TO.N,/serial/U1RX_S*%
X78877400Y-61417200D02*
X79019400Y-61275200D01*
X74422000Y-57277000D02*
X75692000Y-57277000D01*
X76631800Y-56337200D02*
X76631800Y-56286400D01*
X75692000Y-59882000D02*
X75692000Y-57277000D01*
X76555600Y-61417200D02*
X78877400Y-61417200D01*
X75692000Y-57277000D02*
X76631800Y-56337200D01*
X75692000Y-60553600D02*
X76555600Y-61417200D01*
X75692000Y-59882000D02*
X75692000Y-60553600D01*
X74422000Y-56958000D02*
X74422000Y-57277000D01*
%TO.N,/serial/U1TX_S*%
X74422000Y-59882000D02*
X74422000Y-60553600D01*
X70612000Y-59309000D02*
X71120000Y-59817000D01*
X70612000Y-56958000D02*
X70612000Y-59309000D01*
X69524400Y-55148000D02*
X70612000Y-56235600D01*
X68580000Y-55148000D02*
X69524400Y-55148000D01*
X74422000Y-60553600D02*
X72887600Y-62088000D01*
X70612000Y-56235600D02*
X70612000Y-56958000D01*
X71120000Y-61190800D02*
X71120000Y-62088000D01*
X71120000Y-59817000D02*
X71120000Y-61190800D01*
X72887600Y-62088000D02*
X71120000Y-62088000D01*
%TO.N,/serial/U3RX_O*%
X100965000Y-46710600D02*
X100965000Y-50622200D01*
X100304600Y-53543200D02*
X100848400Y-54087000D01*
X102046511Y-37321511D02*
X101725000Y-37000000D01*
X100965000Y-46710600D02*
X102046511Y-45629089D01*
X102046511Y-45629089D02*
X102046511Y-37321511D01*
X100304600Y-51282600D02*
X100304600Y-53543200D01*
X100965000Y-50622200D02*
X100304600Y-51282600D01*
X100848400Y-54087000D02*
X101092000Y-54087000D01*
X100721400Y-54457600D02*
X99161600Y-54457600D01*
X96520000Y-52008000D02*
X96520000Y-53243334D01*
X101092000Y-54087000D02*
X100721400Y-54457600D01*
X96520000Y-53243334D02*
X97044732Y-53768066D01*
%TO.N,/serial/U3TX_O*%
X97915000Y-37000000D02*
X96723200Y-38191800D01*
X97790000Y-54047398D02*
X97344831Y-54492567D01*
X93597600Y-47217200D02*
X93370400Y-46990000D01*
X96723200Y-38191800D02*
X96723200Y-44653200D01*
X96723200Y-44653200D02*
X96062800Y-45313600D01*
X93597600Y-51863600D02*
X93597600Y-47217200D01*
X93187000Y-52274200D02*
X93187000Y-54056000D01*
X97344831Y-54492567D02*
X93623567Y-54492567D01*
X93187000Y-54056000D02*
X93218000Y-54087000D01*
X93623567Y-54492567D02*
X93218000Y-54087000D01*
X97790000Y-52008000D02*
X97790000Y-54047398D01*
X93597600Y-51863600D02*
X93187000Y-52274200D01*
X96062800Y-45313600D02*
X96062800Y-47879000D01*
%TO.N,/serial/U2RX_S*%
X88203000Y-56958000D02*
X88265000Y-56896000D01*
X88265000Y-59882000D02*
X88265000Y-60579000D01*
X88265000Y-59882000D02*
X88265000Y-56896000D01*
X86868000Y-56958000D02*
X88203000Y-56958000D01*
X88265000Y-60579000D02*
X88925400Y-61239400D01*
X88265000Y-56515000D02*
X88900000Y-55880000D01*
X88265000Y-56896000D02*
X88265000Y-56515000D01*
X88925400Y-61239400D02*
X91587800Y-61239400D01*
X91587800Y-61239400D02*
X91668600Y-61158600D01*
X88900000Y-55880000D02*
X88900000Y-55118000D01*
%TO.N,/serial/U2TX_S*%
X83058000Y-55626000D02*
X82550000Y-55118000D01*
X86273400Y-61199000D02*
X83261200Y-61199000D01*
X83312000Y-58420000D02*
X86741000Y-58420000D01*
X86995000Y-60258100D02*
X86995000Y-59882000D01*
X86995000Y-59882000D02*
X86995000Y-60477400D01*
X82550000Y-55118000D02*
X81026000Y-55118000D01*
X86995000Y-58674000D02*
X86995000Y-59882000D01*
X86995000Y-60477400D02*
X86273400Y-61199000D01*
X83058000Y-58166000D02*
X83312000Y-58420000D01*
X83058000Y-56958000D02*
X83058000Y-58166000D01*
X83058000Y-56958000D02*
X83058000Y-55626000D01*
X86741000Y-58420000D02*
X86995000Y-58674000D01*
%TO.N,/serial/U2RX_O*%
X84328000Y-52967600D02*
X85602701Y-54242301D01*
X84328000Y-52008000D02*
X84328000Y-52967600D01*
X85602701Y-54242301D02*
X88475699Y-54242301D01*
X88036400Y-46431200D02*
X84642900Y-43037700D01*
X87706200Y-49414822D02*
X88036400Y-49084622D01*
X88475699Y-54242301D02*
X88900000Y-53818000D01*
X84642900Y-39664700D02*
X86485000Y-37822600D01*
X86485000Y-37822600D02*
X86485000Y-37000000D01*
X84642900Y-43037700D02*
X84642900Y-39664700D01*
X88900000Y-53818000D02*
X87706200Y-52624200D01*
X88036400Y-49084622D02*
X88036400Y-46431200D01*
X87706200Y-52624200D02*
X87706200Y-49414822D01*
%TO.N,/serial/U2TX_O*%
X81026000Y-53818000D02*
X83062600Y-53818000D01*
X85598000Y-52008000D02*
X85598000Y-53213000D01*
X81026000Y-53818000D02*
X81026000Y-42164000D01*
X81026000Y-42164000D02*
X81762600Y-41427400D01*
X85598000Y-53213000D02*
X85902800Y-53517800D01*
%TO.N,Net-(IC2-Pad2)*%
X145231100Y-58235100D02*
X145231100Y-55187400D01*
X145416000Y-58420000D02*
X145231100Y-58235100D01*
X144849400Y-55187400D02*
X145231100Y-55187400D01*
X133276300Y-42158000D02*
X139344400Y-48226100D01*
X139344400Y-48226100D02*
X139344400Y-49682400D01*
X139344400Y-49682400D02*
X144849400Y-55187400D01*
%TO.N,Net-(TP5-Pad1)*%
X120080000Y-63246000D02*
X117221000Y-63246000D01*
%TO.N,Net-(IC2-Pad4)*%
X142240000Y-58420000D02*
X141960600Y-58140600D01*
X141960600Y-56743600D02*
X141859000Y-56642000D01*
X141960600Y-58140600D02*
X141960600Y-56743600D01*
%TO.N,/OUTPUT/T_ADDR1*%
X71247003Y-74421999D02*
X72898001Y-74421999D01*
X66040002Y-79629000D02*
X71247003Y-74421999D01*
%TO.N,/OUTPUT/T_ADDR0*%
X67183000Y-80899000D02*
X71247000Y-76835000D01*
X71247000Y-76835000D02*
X73406000Y-76835000D01*
X66040000Y-80899000D02*
X67183000Y-80899000D01*
D48*
%TO.N,/OUTPUT/REL1_NC_TACHO*%
X137380000Y-95000000D02*
X137380000Y-93971400D01*
X135483600Y-92075000D02*
X135483600Y-85877400D01*
X137380000Y-93971400D02*
X135483600Y-92075000D01*
X137718800Y-83642200D02*
X137718800Y-81026000D01*
X137718800Y-81026000D02*
X135737600Y-79044800D01*
X135483600Y-85877400D02*
X137718800Y-83642200D01*
X135737600Y-79044800D02*
X135432800Y-79044800D01*
D45*
%TO.N,Net-(C36-Pad1)*%
X69582599Y-47382999D02*
X71013613Y-47382999D01*
X67157399Y-40931499D02*
X69138800Y-42912900D01*
X59916000Y-41148000D02*
X60132501Y-40931499D01*
X69138800Y-47142400D02*
X69379399Y-47382999D01*
X69138800Y-42912900D02*
X69138800Y-47142400D01*
X60132501Y-40931499D02*
X67157399Y-40931499D01*
X71013613Y-47382999D02*
X72122000Y-48491386D01*
X69379399Y-47382999D02*
X69582599Y-47382999D01*
X69582599Y-47382999D02*
X69582599Y-48233599D01*
X69582599Y-48233599D02*
X69596000Y-48247000D01*
%TO.N,Net-(C37-Pad1)*%
X96772499Y-48603501D02*
X97522000Y-47854000D01*
X94869000Y-48247000D02*
X95225501Y-48603501D01*
X94869000Y-46327000D02*
X94869000Y-48247000D01*
X95225501Y-48603501D02*
X96772499Y-48603501D01*
%TO.N,Net-(C45-Pad1)*%
X82223970Y-39136970D02*
X83528501Y-40441501D01*
X72214030Y-39136970D02*
X82223970Y-39136970D01*
X83528501Y-40441501D02*
X83528501Y-45630499D01*
X72136000Y-39215000D02*
X72214030Y-39136970D01*
X83528501Y-45630499D02*
X82169000Y-46990000D01*
X82169000Y-46990000D02*
X82169000Y-48247000D01*
D48*
%TO.N,/OUTPUT/REL3_NC_TACHO*%
X110363000Y-79935919D02*
X109471881Y-79044800D01*
X109471881Y-79044800D02*
X108305600Y-79044800D01*
X112018000Y-95000000D02*
X110363000Y-93345000D01*
X114520000Y-95000000D02*
X112018000Y-95000000D01*
X110363000Y-93345000D02*
X110363000Y-79935919D01*
D45*
%TO.N,Net-(J11-Pad5)*%
X32979600Y-87299800D02*
X33065800Y-87213600D01*
X33065800Y-87213600D02*
X33065800Y-84876400D01*
%TO.N,Net-(J11-Pad6)*%
X38237400Y-84876400D02*
X35605800Y-84876400D01*
%TD*%
M02*
