%TF.GenerationSoftware,KiCad,Pcbnew,(6.0.4)*%
%TF.CreationDate,2022-12-17T19:50:06+01:00*%
%TF.ProjectId,bsc,6273632e-6b69-4636-9164-5f7063625858,rev?*%
%TF.SameCoordinates,Original*%
%TF.FileFunction,Profile,NP*%
%FSLAX46Y46*%
G04 Gerber Fmt 4.6, Leading zero omitted, Abs format (unit mm)*
G04 Created by KiCad (PCBNEW (6.0.4)) date 2022-12-17 19:50:06*
%MOMM*%
%LPD*%
G01*
G04 APERTURE LIST*
%TA.AperFunction,Profile*%
%ADD10C,0.100000*%
%TD*%
G04 APERTURE END LIST*
D10*
X40500000Y-105000000D02*
X87000000Y-105000000D01*
X30000000Y-102000000D02*
X34500000Y-102000000D01*
X87000000Y-105000000D02*
G75*
G03*
X87000000Y-102000000I0J1500000D01*
G01*
X139500000Y-30000000D02*
G75*
G03*
X139500000Y-27000000I0J1500000D01*
G01*
X150000000Y-102000000D02*
X150000000Y-30000000D01*
X34500000Y-30000000D02*
X30000000Y-30000000D01*
X30000000Y-116000000D02*
X150000000Y-116000000D01*
X87000000Y-30000000D02*
G75*
G03*
X87000000Y-27000000I0J1500000D01*
G01*
X139500000Y-105000000D02*
X93000000Y-105000000D01*
X93000000Y-27000000D02*
G75*
G03*
X93000000Y-30000000I0J-1500000D01*
G01*
X150000000Y-102000000D02*
X145500000Y-102000000D01*
X34500000Y-105000000D02*
X30000000Y-105000000D01*
X145500000Y-102000000D02*
G75*
G03*
X145500000Y-105000000I0J-1500000D01*
G01*
X40500000Y-102000000D02*
X87000000Y-102000000D01*
X150000000Y-16000000D02*
X30000000Y-16000000D01*
X40500000Y-27000000D02*
G75*
G03*
X40500000Y-30000000I0J-1500000D01*
G01*
X139500000Y-27000000D02*
X93000000Y-27000000D01*
X93000000Y-102000000D02*
G75*
G03*
X93000000Y-105000000I0J-1500000D01*
G01*
X40500000Y-102000000D02*
G75*
G03*
X40500000Y-105000000I0J-1500000D01*
G01*
X93000000Y-30000000D02*
X139500000Y-30000000D01*
X30000000Y-30000000D02*
X30000000Y-102000000D01*
X30000000Y-116000000D02*
X30000000Y-105000000D01*
X150000000Y-16000000D02*
X150000000Y-27000000D01*
X34500000Y-105000000D02*
G75*
G03*
X34500000Y-102000000I0J1500000D01*
G01*
X93000000Y-102000000D02*
X139500000Y-102000000D01*
X145500000Y-105000000D02*
X150000000Y-105000000D01*
X150000000Y-105000000D02*
X150000000Y-116000000D01*
X30000000Y-16000000D02*
X30000000Y-27000000D01*
X87000000Y-30000000D02*
X40500000Y-30000000D01*
X145500000Y-27000000D02*
G75*
G03*
X145500000Y-30000000I0J-1500000D01*
G01*
X145500000Y-30000000D02*
X150000000Y-30000000D01*
X40500000Y-27000000D02*
X87000000Y-27000000D01*
X139500000Y-105000000D02*
G75*
G03*
X139500000Y-102000000I0J1500000D01*
G01*
X34500000Y-30000000D02*
G75*
G03*
X34500000Y-27000000I0J1500000D01*
G01*
X34500000Y-27000000D02*
X30000000Y-27000000D01*
X145500000Y-27000000D02*
X150000000Y-27000000D01*
M02*
