%TF.GenerationSoftware,KiCad,Pcbnew,(6.0.4)*%
%TF.CreationDate,2022-12-17T19:50:06+01:00*%
%TF.ProjectId,bsc,6273632e-6b69-4636-9164-5f7063625858,rev?*%
%TF.SameCoordinates,Original*%
%TF.FileFunction,Legend,Bot*%
%TF.FilePolarity,Positive*%
%FSLAX46Y46*%
G04 Gerber Fmt 4.6, Leading zero omitted, Abs format (unit mm)*
G04 Created by KiCad (PCBNEW (6.0.4)) date 2022-12-17 19:50:06*
%MOMM*%
%LPD*%
G01*
G04 APERTURE LIST*
G04 Aperture macros list*
%AMRoundRect*
0 Rectangle with rounded corners*
0 $1 Rounding radius*
0 $2 $3 $4 $5 $6 $7 $8 $9 X,Y pos of 4 corners*
0 Add a 4 corners polygon primitive as box body*
4,1,4,$2,$3,$4,$5,$6,$7,$8,$9,$2,$3,0*
0 Add four circle primitives for the rounded corners*
1,1,$1+$1,$2,$3*
1,1,$1+$1,$4,$5*
1,1,$1+$1,$6,$7*
1,1,$1+$1,$8,$9*
0 Add four rect primitives between the rounded corners*
20,1,$1+$1,$2,$3,$4,$5,0*
20,1,$1+$1,$4,$5,$6,$7,0*
20,1,$1+$1,$6,$7,$8,$9,0*
20,1,$1+$1,$8,$9,$2,$3,0*%
%AMFreePoly0*
4,1,22,0.500000,-0.750000,0.000000,-0.750000,0.000000,-0.745033,-0.079941,-0.743568,-0.215256,-0.701293,-0.333266,-0.622738,-0.424486,-0.514219,-0.481581,-0.384460,-0.499164,-0.250000,-0.500000,-0.250000,-0.500000,0.250000,-0.499164,0.250000,-0.499963,0.256109,-0.478152,0.396186,-0.417904,0.524511,-0.324060,0.630769,-0.204165,0.706417,-0.067858,0.745374,0.000000,0.744959,0.000000,0.750000,
0.500000,0.750000,0.500000,-0.750000,0.500000,-0.750000,$1*%
%AMFreePoly1*
4,1,20,0.000000,0.744959,0.073905,0.744508,0.209726,0.703889,0.328688,0.626782,0.421226,0.519385,0.479903,0.390333,0.500000,0.250000,0.500000,-0.250000,0.499851,-0.262216,0.476331,-0.402017,0.414519,-0.529596,0.319384,-0.634700,0.198574,-0.708877,0.061801,-0.746166,0.000000,-0.745033,0.000000,-0.750000,-0.500000,-0.750000,-0.500000,0.750000,0.000000,0.750000,0.000000,0.744959,
0.000000,0.744959,$1*%
%AMFreePoly2*
4,1,22,0.550000,-0.750000,0.000000,-0.750000,0.000000,-0.745033,-0.079941,-0.743568,-0.215256,-0.701293,-0.333266,-0.622738,-0.424486,-0.514219,-0.481581,-0.384460,-0.499164,-0.250000,-0.500000,-0.250000,-0.500000,0.250000,-0.499164,0.250000,-0.499963,0.256109,-0.478152,0.396186,-0.417904,0.524511,-0.324060,0.630769,-0.204165,0.706417,-0.067858,0.745374,0.000000,0.744959,0.000000,0.750000,
0.550000,0.750000,0.550000,-0.750000,0.550000,-0.750000,$1*%
%AMFreePoly3*
4,1,20,0.000000,0.744959,0.073905,0.744508,0.209726,0.703889,0.328688,0.626782,0.421226,0.519385,0.479903,0.390333,0.500000,0.250000,0.500000,-0.250000,0.499851,-0.262216,0.476331,-0.402017,0.414519,-0.529596,0.319384,-0.634700,0.198574,-0.708877,0.061801,-0.746166,0.000000,-0.745033,0.000000,-0.750000,-0.550000,-0.750000,-0.550000,0.750000,0.000000,0.750000,0.000000,0.744959,
0.000000,0.744959,$1*%
G04 Aperture macros list end*
%ADD10C,0.150000*%
%ADD11C,0.434210*%
%ADD12C,0.120000*%
%ADD13C,0.283607*%
%ADD14R,1.700000X1.700000*%
%ADD15O,1.700000X1.700000*%
%ADD16C,0.500000*%
%ADD17C,3.200000*%
%ADD18O,2.300000X1.600000*%
%ADD19R,2.250000X1.750000*%
%ADD20O,2.250000X1.750000*%
%ADD21RoundRect,0.250000X-0.650000X-1.550000X0.650000X-1.550000X0.650000X1.550000X-0.650000X1.550000X0*%
%ADD22O,1.800000X3.600000*%
%ADD23R,1.500000X2.300000*%
%ADD24O,1.500000X2.300000*%
%ADD25RoundRect,0.250000X0.650000X1.550000X-0.650000X1.550000X-0.650000X-1.550000X0.650000X-1.550000X0*%
%ADD26FreePoly0,180.000000*%
%ADD27FreePoly1,180.000000*%
%ADD28FreePoly0,90.000000*%
%ADD29FreePoly1,90.000000*%
%ADD30R,1.000000X1.000000*%
%ADD31R,1.300000X1.700000*%
%ADD32RoundRect,0.225000X-0.225000X-0.250000X0.225000X-0.250000X0.225000X0.250000X-0.225000X0.250000X0*%
%ADD33RoundRect,0.150000X0.150000X-0.825000X0.150000X0.825000X-0.150000X0.825000X-0.150000X-0.825000X0*%
%ADD34FreePoly0,0.000000*%
%ADD35FreePoly1,0.000000*%
%ADD36RoundRect,0.225000X0.225000X0.250000X-0.225000X0.250000X-0.225000X-0.250000X0.225000X-0.250000X0*%
%ADD37RoundRect,0.200000X-0.200000X-0.275000X0.200000X-0.275000X0.200000X0.275000X-0.200000X0.275000X0*%
%ADD38RoundRect,0.200000X0.275000X-0.200000X0.275000X0.200000X-0.275000X0.200000X-0.275000X-0.200000X0*%
%ADD39RoundRect,0.225000X-0.250000X0.225000X-0.250000X-0.225000X0.250000X-0.225000X0.250000X0.225000X0*%
%ADD40FreePoly2,180.000000*%
%ADD41R,1.000000X1.500000*%
%ADD42FreePoly3,180.000000*%
%ADD43R,1.500000X2.000000*%
%ADD44R,3.800000X2.000000*%
%ADD45RoundRect,0.150000X-0.825000X-0.150000X0.825000X-0.150000X0.825000X0.150000X-0.825000X0.150000X0*%
%ADD46R,1.700000X1.300000*%
%ADD47R,0.740000X2.400000*%
G04 APERTURE END LIST*
D10*
X75895200Y-53213000D02*
X75895200Y-52209700D01*
X89357200Y-56997600D02*
X89103200Y-55930800D01*
X76365100Y-53213000D02*
X75895200Y-53213000D01*
D11*
X40857105Y-57658000D02*
G75*
G03*
X40857105Y-57658000I-217105J0D01*
G01*
D10*
X90932000Y-53390800D02*
X90525600Y-52273200D01*
X93624400Y-58470800D02*
X93319600Y-56235600D01*
X95097600Y-39801800D02*
X94386400Y-40106600D01*
X81991200Y-39878000D02*
X81305400Y-40157400D01*
X79984600Y-57581800D02*
X80726000Y-55930800D01*
X78079600Y-55676800D02*
X77647800Y-55676800D01*
X49377600Y-47244000D02*
X48768000Y-47498000D01*
X49225200Y-40721000D02*
X48666400Y-40487600D01*
X102108000Y-61417200D02*
X103022400Y-60756800D01*
X104394000Y-52578000D02*
X103581200Y-52120800D01*
X51378690Y-49537380D02*
X51378690Y-50251666D01*
X51426309Y-50394523D01*
X51521547Y-50489761D01*
X51664404Y-50537380D01*
X51759642Y-50537380D01*
X50902500Y-50537380D02*
X50902500Y-49537380D01*
X50521547Y-49537380D01*
X50426309Y-49585000D01*
X50378690Y-49632619D01*
X50331071Y-49727857D01*
X50331071Y-49870714D01*
X50378690Y-49965952D01*
X50426309Y-50013571D01*
X50521547Y-50061190D01*
X50902500Y-50061190D01*
X49378690Y-50537380D02*
X49950119Y-50537380D01*
X49664404Y-50537380D02*
X49664404Y-49537380D01*
X49759642Y-49680238D01*
X49854880Y-49775476D01*
X49950119Y-49823095D01*
X48950119Y-50442142D02*
X48902500Y-50489761D01*
X48950119Y-50537380D01*
X48997738Y-50489761D01*
X48950119Y-50442142D01*
X48950119Y-50537380D01*
X48950119Y-49918333D02*
X48902500Y-49965952D01*
X48950119Y-50013571D01*
X48997738Y-49965952D01*
X48950119Y-49918333D01*
X48950119Y-50013571D01*
X47140595Y-50442142D02*
X47188214Y-50489761D01*
X47331071Y-50537380D01*
X47426309Y-50537380D01*
X47569166Y-50489761D01*
X47664404Y-50394523D01*
X47712023Y-50299285D01*
X47759642Y-50108809D01*
X47759642Y-49965952D01*
X47712023Y-49775476D01*
X47664404Y-49680238D01*
X47569166Y-49585000D01*
X47426309Y-49537380D01*
X47331071Y-49537380D01*
X47188214Y-49585000D01*
X47140595Y-49632619D01*
X46759642Y-50251666D02*
X46283452Y-50251666D01*
X46854880Y-50537380D02*
X46521547Y-49537380D01*
X46188214Y-50537380D01*
X45854880Y-50537380D02*
X45854880Y-49537380D01*
X45283452Y-50537380D01*
X45283452Y-49537380D01*
X44188214Y-49537380D02*
X43854880Y-50537380D01*
X43521547Y-49537380D01*
X42616785Y-50442142D02*
X42664404Y-50489761D01*
X42807261Y-50537380D01*
X42902500Y-50537380D01*
X43045357Y-50489761D01*
X43140595Y-50394523D01*
X43188214Y-50299285D01*
X43235833Y-50108809D01*
X43235833Y-49965952D01*
X43188214Y-49775476D01*
X43140595Y-49680238D01*
X43045357Y-49585000D01*
X42902500Y-49537380D01*
X42807261Y-49537380D01*
X42664404Y-49585000D01*
X42616785Y-49632619D01*
X41616785Y-50442142D02*
X41664404Y-50489761D01*
X41807261Y-50537380D01*
X41902500Y-50537380D01*
X42045357Y-50489761D01*
X42140595Y-50394523D01*
X42188214Y-50299285D01*
X42235833Y-50108809D01*
X42235833Y-49965952D01*
X42188214Y-49775476D01*
X42140595Y-49680238D01*
X42045357Y-49585000D01*
X41902500Y-49537380D01*
X41807261Y-49537380D01*
X41664404Y-49585000D01*
X41616785Y-49632619D01*
X51378690Y-51147380D02*
X51378690Y-51861666D01*
X51426309Y-52004523D01*
X51521547Y-52099761D01*
X51664404Y-52147380D01*
X51759642Y-52147380D01*
X50902500Y-52147380D02*
X50902500Y-51147380D01*
X50521547Y-51147380D01*
X50426309Y-51195000D01*
X50378690Y-51242619D01*
X50331071Y-51337857D01*
X50331071Y-51480714D01*
X50378690Y-51575952D01*
X50426309Y-51623571D01*
X50521547Y-51671190D01*
X50902500Y-51671190D01*
X49950119Y-51242619D02*
X49902500Y-51195000D01*
X49807261Y-51147380D01*
X49569166Y-51147380D01*
X49473928Y-51195000D01*
X49426309Y-51242619D01*
X49378690Y-51337857D01*
X49378690Y-51433095D01*
X49426309Y-51575952D01*
X49997738Y-52147380D01*
X49378690Y-52147380D01*
X48950119Y-52052142D02*
X48902500Y-52099761D01*
X48950119Y-52147380D01*
X48997738Y-52099761D01*
X48950119Y-52052142D01*
X48950119Y-52147380D01*
X48950119Y-51528333D02*
X48902500Y-51575952D01*
X48950119Y-51623571D01*
X48997738Y-51575952D01*
X48950119Y-51528333D01*
X48950119Y-51623571D01*
X47140595Y-52052142D02*
X47188214Y-52099761D01*
X47331071Y-52147380D01*
X47426309Y-52147380D01*
X47569166Y-52099761D01*
X47664404Y-52004523D01*
X47712023Y-51909285D01*
X47759642Y-51718809D01*
X47759642Y-51575952D01*
X47712023Y-51385476D01*
X47664404Y-51290238D01*
X47569166Y-51195000D01*
X47426309Y-51147380D01*
X47331071Y-51147380D01*
X47188214Y-51195000D01*
X47140595Y-51242619D01*
X46759642Y-51861666D02*
X46283452Y-51861666D01*
X46854880Y-52147380D02*
X46521547Y-51147380D01*
X46188214Y-52147380D01*
X45854880Y-52147380D02*
X45854880Y-51147380D01*
X45283452Y-52147380D01*
X45283452Y-51147380D01*
X43521547Y-51195000D02*
X43616785Y-51147380D01*
X43759642Y-51147380D01*
X43902500Y-51195000D01*
X43997738Y-51290238D01*
X44045357Y-51385476D01*
X44092976Y-51575952D01*
X44092976Y-51718809D01*
X44045357Y-51909285D01*
X43997738Y-52004523D01*
X43902500Y-52099761D01*
X43759642Y-52147380D01*
X43664404Y-52147380D01*
X43521547Y-52099761D01*
X43473928Y-52052142D01*
X43473928Y-51718809D01*
X43664404Y-51718809D01*
X43045357Y-52147380D02*
X43045357Y-51147380D01*
X42473928Y-52147380D01*
X42473928Y-51147380D01*
X41997738Y-52147380D02*
X41997738Y-51147380D01*
X41759642Y-51147380D01*
X41616785Y-51195000D01*
X41521547Y-51290238D01*
X41473928Y-51385476D01*
X41426309Y-51575952D01*
X41426309Y-51718809D01*
X41473928Y-51909285D01*
X41521547Y-52004523D01*
X41616785Y-52099761D01*
X41759642Y-52147380D01*
X41997738Y-52147380D01*
X51378690Y-52757380D02*
X51378690Y-53471666D01*
X51426309Y-53614523D01*
X51521547Y-53709761D01*
X51664404Y-53757380D01*
X51759642Y-53757380D01*
X50902500Y-53757380D02*
X50902500Y-52757380D01*
X50521547Y-52757380D01*
X50426309Y-52805000D01*
X50378690Y-52852619D01*
X50331071Y-52947857D01*
X50331071Y-53090714D01*
X50378690Y-53185952D01*
X50426309Y-53233571D01*
X50521547Y-53281190D01*
X50902500Y-53281190D01*
X49997738Y-52757380D02*
X49378690Y-52757380D01*
X49712023Y-53138333D01*
X49569166Y-53138333D01*
X49473928Y-53185952D01*
X49426309Y-53233571D01*
X49378690Y-53328809D01*
X49378690Y-53566904D01*
X49426309Y-53662142D01*
X49473928Y-53709761D01*
X49569166Y-53757380D01*
X49854880Y-53757380D01*
X49950119Y-53709761D01*
X49997738Y-53662142D01*
X48950119Y-53662142D02*
X48902500Y-53709761D01*
X48950119Y-53757380D01*
X48997738Y-53709761D01*
X48950119Y-53662142D01*
X48950119Y-53757380D01*
X48950119Y-53138333D02*
X48902500Y-53185952D01*
X48950119Y-53233571D01*
X48997738Y-53185952D01*
X48950119Y-53138333D01*
X48950119Y-53233571D01*
X47140595Y-53662142D02*
X47188214Y-53709761D01*
X47331071Y-53757380D01*
X47426309Y-53757380D01*
X47569166Y-53709761D01*
X47664404Y-53614523D01*
X47712023Y-53519285D01*
X47759642Y-53328809D01*
X47759642Y-53185952D01*
X47712023Y-52995476D01*
X47664404Y-52900238D01*
X47569166Y-52805000D01*
X47426309Y-52757380D01*
X47331071Y-52757380D01*
X47188214Y-52805000D01*
X47140595Y-52852619D01*
X46759642Y-53471666D02*
X46283452Y-53471666D01*
X46854880Y-53757380D02*
X46521547Y-52757380D01*
X46188214Y-53757380D01*
X45854880Y-53757380D02*
X45854880Y-52757380D01*
X45283452Y-53757380D01*
X45283452Y-52757380D01*
X43473928Y-53757380D02*
X43807261Y-53281190D01*
X44045357Y-53757380D02*
X44045357Y-52757380D01*
X43664404Y-52757380D01*
X43569166Y-52805000D01*
X43521547Y-52852619D01*
X43473928Y-52947857D01*
X43473928Y-53090714D01*
X43521547Y-53185952D01*
X43569166Y-53233571D01*
X43664404Y-53281190D01*
X44045357Y-53281190D01*
X43140595Y-52757380D02*
X42473928Y-53757380D01*
X42473928Y-52757380D02*
X43140595Y-53757380D01*
X51378690Y-54367380D02*
X51378690Y-55081666D01*
X51426309Y-55224523D01*
X51521547Y-55319761D01*
X51664404Y-55367380D01*
X51759642Y-55367380D01*
X50902500Y-55367380D02*
X50902500Y-54367380D01*
X50521547Y-54367380D01*
X50426309Y-54415000D01*
X50378690Y-54462619D01*
X50331071Y-54557857D01*
X50331071Y-54700714D01*
X50378690Y-54795952D01*
X50426309Y-54843571D01*
X50521547Y-54891190D01*
X50902500Y-54891190D01*
X49473928Y-54700714D02*
X49473928Y-55367380D01*
X49712023Y-54319761D02*
X49950119Y-55034047D01*
X49331071Y-55034047D01*
X48950119Y-55272142D02*
X48902500Y-55319761D01*
X48950119Y-55367380D01*
X48997738Y-55319761D01*
X48950119Y-55272142D01*
X48950119Y-55367380D01*
X48950119Y-54748333D02*
X48902500Y-54795952D01*
X48950119Y-54843571D01*
X48997738Y-54795952D01*
X48950119Y-54748333D01*
X48950119Y-54843571D01*
X47140595Y-55272142D02*
X47188214Y-55319761D01*
X47331071Y-55367380D01*
X47426309Y-55367380D01*
X47569166Y-55319761D01*
X47664404Y-55224523D01*
X47712023Y-55129285D01*
X47759642Y-54938809D01*
X47759642Y-54795952D01*
X47712023Y-54605476D01*
X47664404Y-54510238D01*
X47569166Y-54415000D01*
X47426309Y-54367380D01*
X47331071Y-54367380D01*
X47188214Y-54415000D01*
X47140595Y-54462619D01*
X46759642Y-55081666D02*
X46283452Y-55081666D01*
X46854880Y-55367380D02*
X46521547Y-54367380D01*
X46188214Y-55367380D01*
X45854880Y-55367380D02*
X45854880Y-54367380D01*
X45283452Y-55367380D01*
X45283452Y-54367380D01*
X44188214Y-54367380D02*
X43616785Y-54367380D01*
X43902500Y-55367380D02*
X43902500Y-54367380D01*
X43378690Y-54367380D02*
X42712023Y-55367380D01*
X42712023Y-54367380D02*
X43378690Y-55367380D01*
X146444690Y-64501333D02*
X146492309Y-64453714D01*
X146587547Y-64310857D01*
X146635166Y-64215619D01*
X146682785Y-64072761D01*
X146730404Y-63834666D01*
X146730404Y-63644190D01*
X146682785Y-63406095D01*
X146635166Y-63263238D01*
X146587547Y-63168000D01*
X146492309Y-63025142D01*
X146444690Y-62977523D01*
X145730404Y-63596571D02*
X146063738Y-63596571D01*
X146063738Y-64120380D02*
X146063738Y-63120380D01*
X145587547Y-63120380D01*
X145206595Y-64120380D02*
X145206595Y-63453714D01*
X145206595Y-63644190D02*
X145158976Y-63548952D01*
X145111357Y-63501333D01*
X145016119Y-63453714D01*
X144920880Y-63453714D01*
X144444690Y-64120380D02*
X144539928Y-64072761D01*
X144587547Y-64025142D01*
X144635166Y-63929904D01*
X144635166Y-63644190D01*
X144587547Y-63548952D01*
X144539928Y-63501333D01*
X144444690Y-63453714D01*
X144301833Y-63453714D01*
X144206595Y-63501333D01*
X144158976Y-63548952D01*
X144111357Y-63644190D01*
X144111357Y-63929904D01*
X144158976Y-64025142D01*
X144206595Y-64072761D01*
X144301833Y-64120380D01*
X144444690Y-64120380D01*
X143682785Y-63453714D02*
X143682785Y-64120380D01*
X143682785Y-63548952D02*
X143635166Y-63501333D01*
X143539928Y-63453714D01*
X143397071Y-63453714D01*
X143301833Y-63501333D01*
X143254214Y-63596571D01*
X143254214Y-64120380D01*
X142920880Y-63453714D02*
X142539928Y-63453714D01*
X142778023Y-63120380D02*
X142778023Y-63977523D01*
X142730404Y-64072761D01*
X142635166Y-64120380D01*
X142539928Y-64120380D01*
X142254214Y-64072761D02*
X142158976Y-64120380D01*
X141968500Y-64120380D01*
X141873261Y-64072761D01*
X141825642Y-63977523D01*
X141825642Y-63929904D01*
X141873261Y-63834666D01*
X141968500Y-63787047D01*
X142111357Y-63787047D01*
X142206595Y-63739428D01*
X142254214Y-63644190D01*
X142254214Y-63596571D01*
X142206595Y-63501333D01*
X142111357Y-63453714D01*
X141968500Y-63453714D01*
X141873261Y-63501333D01*
X141397071Y-64120380D02*
X141397071Y-63453714D01*
X141397071Y-63120380D02*
X141444690Y-63168000D01*
X141397071Y-63215619D01*
X141349452Y-63168000D01*
X141397071Y-63120380D01*
X141397071Y-63215619D01*
X140492309Y-64120380D02*
X140492309Y-63120380D01*
X140492309Y-64072761D02*
X140587547Y-64120380D01*
X140778023Y-64120380D01*
X140873261Y-64072761D01*
X140920880Y-64025142D01*
X140968500Y-63929904D01*
X140968500Y-63644190D01*
X140920880Y-63548952D01*
X140873261Y-63501333D01*
X140778023Y-63453714D01*
X140587547Y-63453714D01*
X140492309Y-63501333D01*
X139635166Y-64072761D02*
X139730404Y-64120380D01*
X139920880Y-64120380D01*
X140016119Y-64072761D01*
X140063738Y-63977523D01*
X140063738Y-63596571D01*
X140016119Y-63501333D01*
X139920880Y-63453714D01*
X139730404Y-63453714D01*
X139635166Y-63501333D01*
X139587547Y-63596571D01*
X139587547Y-63691809D01*
X140063738Y-63787047D01*
X139254214Y-64501333D02*
X139206595Y-64453714D01*
X139111357Y-64310857D01*
X139063738Y-64215619D01*
X139016119Y-64072761D01*
X138968500Y-63834666D01*
X138968500Y-63644190D01*
X139016119Y-63406095D01*
X139063738Y-63263238D01*
X139111357Y-63168000D01*
X139206595Y-63025142D01*
X139254214Y-62977523D01*
X146444690Y-64730380D02*
X146444690Y-65444666D01*
X146492309Y-65587523D01*
X146587547Y-65682761D01*
X146730404Y-65730380D01*
X146825642Y-65730380D01*
X145968500Y-65730380D02*
X145968500Y-64730380D01*
X145587547Y-64730380D01*
X145492309Y-64778000D01*
X145444690Y-64825619D01*
X145397071Y-64920857D01*
X145397071Y-65063714D01*
X145444690Y-65158952D01*
X145492309Y-65206571D01*
X145587547Y-65254190D01*
X145968500Y-65254190D01*
X144492309Y-64730380D02*
X144968500Y-64730380D01*
X145016119Y-65206571D01*
X144968500Y-65158952D01*
X144873261Y-65111333D01*
X144635166Y-65111333D01*
X144539928Y-65158952D01*
X144492309Y-65206571D01*
X144444690Y-65301809D01*
X144444690Y-65539904D01*
X144492309Y-65635142D01*
X144539928Y-65682761D01*
X144635166Y-65730380D01*
X144873261Y-65730380D01*
X144968500Y-65682761D01*
X145016119Y-65635142D01*
X144016119Y-65635142D02*
X143968500Y-65682761D01*
X144016119Y-65730380D01*
X144063738Y-65682761D01*
X144016119Y-65635142D01*
X144016119Y-65730380D01*
X144016119Y-65111333D02*
X143968500Y-65158952D01*
X144016119Y-65206571D01*
X144063738Y-65158952D01*
X144016119Y-65111333D01*
X144016119Y-65206571D01*
X142778023Y-65349428D02*
X142016119Y-65349428D01*
X142397071Y-65730380D02*
X142397071Y-64968476D01*
X141063738Y-64730380D02*
X141539928Y-64730380D01*
X141587547Y-65206571D01*
X141539928Y-65158952D01*
X141444690Y-65111333D01*
X141206595Y-65111333D01*
X141111357Y-65158952D01*
X141063738Y-65206571D01*
X141016119Y-65301809D01*
X141016119Y-65539904D01*
X141063738Y-65635142D01*
X141111357Y-65682761D01*
X141206595Y-65730380D01*
X141444690Y-65730380D01*
X141539928Y-65682761D01*
X141587547Y-65635142D01*
X140730404Y-64730380D02*
X140397071Y-65730380D01*
X140063738Y-64730380D01*
X138968500Y-65349428D02*
X138206595Y-65349428D01*
X137730404Y-65063714D02*
X136968500Y-65349428D01*
X137730404Y-65635142D01*
X135730404Y-65730380D02*
X135730404Y-64730380D01*
X135492309Y-64730380D01*
X135349452Y-64778000D01*
X135254214Y-64873238D01*
X135206595Y-64968476D01*
X135158976Y-65158952D01*
X135158976Y-65301809D01*
X135206595Y-65492285D01*
X135254214Y-65587523D01*
X135349452Y-65682761D01*
X135492309Y-65730380D01*
X135730404Y-65730380D01*
X134730404Y-65730380D02*
X134730404Y-64730380D01*
X134492309Y-65825619D02*
X133730404Y-65825619D01*
X133635166Y-64730380D02*
X133301833Y-65730380D01*
X132968500Y-64730380D01*
X132063738Y-65635142D02*
X132111357Y-65682761D01*
X132254214Y-65730380D01*
X132349452Y-65730380D01*
X132492309Y-65682761D01*
X132587547Y-65587523D01*
X132635166Y-65492285D01*
X132682785Y-65301809D01*
X132682785Y-65158952D01*
X132635166Y-64968476D01*
X132587547Y-64873238D01*
X132492309Y-64778000D01*
X132349452Y-64730380D01*
X132254214Y-64730380D01*
X132111357Y-64778000D01*
X132063738Y-64825619D01*
X131063738Y-65635142D02*
X131111357Y-65682761D01*
X131254214Y-65730380D01*
X131349452Y-65730380D01*
X131492309Y-65682761D01*
X131587547Y-65587523D01*
X131635166Y-65492285D01*
X131682785Y-65301809D01*
X131682785Y-65158952D01*
X131635166Y-64968476D01*
X131587547Y-64873238D01*
X131492309Y-64778000D01*
X131349452Y-64730380D01*
X131254214Y-64730380D01*
X131111357Y-64778000D01*
X131063738Y-64825619D01*
X146444690Y-66340380D02*
X146444690Y-67054666D01*
X146492309Y-67197523D01*
X146587547Y-67292761D01*
X146730404Y-67340380D01*
X146825642Y-67340380D01*
X145968500Y-67340380D02*
X145968500Y-66340380D01*
X145587547Y-66340380D01*
X145492309Y-66388000D01*
X145444690Y-66435619D01*
X145397071Y-66530857D01*
X145397071Y-66673714D01*
X145444690Y-66768952D01*
X145492309Y-66816571D01*
X145587547Y-66864190D01*
X145968500Y-66864190D01*
X144539928Y-66340380D02*
X144730404Y-66340380D01*
X144825642Y-66388000D01*
X144873261Y-66435619D01*
X144968500Y-66578476D01*
X145016119Y-66768952D01*
X145016119Y-67149904D01*
X144968500Y-67245142D01*
X144920880Y-67292761D01*
X144825642Y-67340380D01*
X144635166Y-67340380D01*
X144539928Y-67292761D01*
X144492309Y-67245142D01*
X144444690Y-67149904D01*
X144444690Y-66911809D01*
X144492309Y-66816571D01*
X144539928Y-66768952D01*
X144635166Y-66721333D01*
X144825642Y-66721333D01*
X144920880Y-66768952D01*
X144968500Y-66816571D01*
X145016119Y-66911809D01*
X144016119Y-67245142D02*
X143968500Y-67292761D01*
X144016119Y-67340380D01*
X144063738Y-67292761D01*
X144016119Y-67245142D01*
X144016119Y-67340380D01*
X144016119Y-66721333D02*
X143968500Y-66768952D01*
X144016119Y-66816571D01*
X144063738Y-66768952D01*
X144016119Y-66721333D01*
X144016119Y-66816571D01*
X142254214Y-66388000D02*
X142349452Y-66340380D01*
X142492309Y-66340380D01*
X142635166Y-66388000D01*
X142730404Y-66483238D01*
X142778023Y-66578476D01*
X142825642Y-66768952D01*
X142825642Y-66911809D01*
X142778023Y-67102285D01*
X142730404Y-67197523D01*
X142635166Y-67292761D01*
X142492309Y-67340380D01*
X142397071Y-67340380D01*
X142254214Y-67292761D01*
X142206595Y-67245142D01*
X142206595Y-66911809D01*
X142397071Y-66911809D01*
X141778023Y-67340380D02*
X141778023Y-66340380D01*
X141206595Y-67340380D01*
X141206595Y-66340380D01*
X140730404Y-67340380D02*
X140730404Y-66340380D01*
X140492309Y-66340380D01*
X140349452Y-66388000D01*
X140254214Y-66483238D01*
X140206595Y-66578476D01*
X140158976Y-66768952D01*
X140158976Y-66911809D01*
X140206595Y-67102285D01*
X140254214Y-67197523D01*
X140349452Y-67292761D01*
X140492309Y-67340380D01*
X140730404Y-67340380D01*
X138968500Y-66959428D02*
X138206595Y-66959428D01*
X137730404Y-66673714D02*
X136968500Y-66959428D01*
X137730404Y-67245142D01*
X135730404Y-67340380D02*
X135730404Y-66340380D01*
X135492309Y-66340380D01*
X135349452Y-66388000D01*
X135254214Y-66483238D01*
X135206595Y-66578476D01*
X135158976Y-66768952D01*
X135158976Y-66911809D01*
X135206595Y-67102285D01*
X135254214Y-67197523D01*
X135349452Y-67292761D01*
X135492309Y-67340380D01*
X135730404Y-67340380D01*
X134730404Y-67340380D02*
X134730404Y-66340380D01*
X134492309Y-67435619D02*
X133730404Y-67435619D01*
X132968500Y-66388000D02*
X133063738Y-66340380D01*
X133206595Y-66340380D01*
X133349452Y-66388000D01*
X133444690Y-66483238D01*
X133492309Y-66578476D01*
X133539928Y-66768952D01*
X133539928Y-66911809D01*
X133492309Y-67102285D01*
X133444690Y-67197523D01*
X133349452Y-67292761D01*
X133206595Y-67340380D01*
X133111357Y-67340380D01*
X132968500Y-67292761D01*
X132920880Y-67245142D01*
X132920880Y-66911809D01*
X133111357Y-66911809D01*
X132492309Y-67340380D02*
X132492309Y-66340380D01*
X131920880Y-67340380D01*
X131920880Y-66340380D01*
X131444690Y-67340380D02*
X131444690Y-66340380D01*
X131206595Y-66340380D01*
X131063738Y-66388000D01*
X130968500Y-66483238D01*
X130920880Y-66578476D01*
X130873261Y-66768952D01*
X130873261Y-66911809D01*
X130920880Y-67102285D01*
X130968500Y-67197523D01*
X131063738Y-67292761D01*
X131206595Y-67340380D01*
X131444690Y-67340380D01*
X62827890Y-84270780D02*
X62827890Y-84985066D01*
X62875509Y-85127923D01*
X62970747Y-85223161D01*
X63113604Y-85270780D01*
X63208842Y-85270780D01*
X62351700Y-85270780D02*
X62351700Y-84270780D01*
X61970747Y-84270780D01*
X61875509Y-84318400D01*
X61827890Y-84366019D01*
X61780271Y-84461257D01*
X61780271Y-84604114D01*
X61827890Y-84699352D01*
X61875509Y-84746971D01*
X61970747Y-84794590D01*
X62351700Y-84794590D01*
X61399319Y-84366019D02*
X61351700Y-84318400D01*
X61256461Y-84270780D01*
X61018366Y-84270780D01*
X60923128Y-84318400D01*
X60875509Y-84366019D01*
X60827890Y-84461257D01*
X60827890Y-84556495D01*
X60875509Y-84699352D01*
X61446938Y-85270780D01*
X60827890Y-85270780D01*
X60351700Y-85270780D02*
X60161223Y-85270780D01*
X60065985Y-85223161D01*
X60018366Y-85175542D01*
X59923128Y-85032685D01*
X59875509Y-84842209D01*
X59875509Y-84461257D01*
X59923128Y-84366019D01*
X59970747Y-84318400D01*
X60065985Y-84270780D01*
X60256461Y-84270780D01*
X60351700Y-84318400D01*
X60399319Y-84366019D01*
X60446938Y-84461257D01*
X60446938Y-84699352D01*
X60399319Y-84794590D01*
X60351700Y-84842209D01*
X60256461Y-84889828D01*
X60065985Y-84889828D01*
X59970747Y-84842209D01*
X59923128Y-84794590D01*
X59875509Y-84699352D01*
X58827890Y-84270780D02*
X58494557Y-85270780D01*
X58161223Y-84270780D01*
X57256461Y-85175542D02*
X57304080Y-85223161D01*
X57446938Y-85270780D01*
X57542176Y-85270780D01*
X57685033Y-85223161D01*
X57780271Y-85127923D01*
X57827890Y-85032685D01*
X57875509Y-84842209D01*
X57875509Y-84699352D01*
X57827890Y-84508876D01*
X57780271Y-84413638D01*
X57685033Y-84318400D01*
X57542176Y-84270780D01*
X57446938Y-84270780D01*
X57304080Y-84318400D01*
X57256461Y-84366019D01*
X56256461Y-85175542D02*
X56304080Y-85223161D01*
X56446938Y-85270780D01*
X56542176Y-85270780D01*
X56685033Y-85223161D01*
X56780271Y-85127923D01*
X56827890Y-85032685D01*
X56875509Y-84842209D01*
X56875509Y-84699352D01*
X56827890Y-84508876D01*
X56780271Y-84413638D01*
X56685033Y-84318400D01*
X56542176Y-84270780D01*
X56446938Y-84270780D01*
X56304080Y-84318400D01*
X56256461Y-84366019D01*
X54494557Y-85270780D02*
X54827890Y-84794590D01*
X55065985Y-85270780D02*
X55065985Y-84270780D01*
X54685033Y-84270780D01*
X54589795Y-84318400D01*
X54542176Y-84366019D01*
X54494557Y-84461257D01*
X54494557Y-84604114D01*
X54542176Y-84699352D01*
X54589795Y-84746971D01*
X54685033Y-84794590D01*
X55065985Y-84794590D01*
X54065985Y-84746971D02*
X53732652Y-84746971D01*
X53589795Y-85270780D02*
X54065985Y-85270780D01*
X54065985Y-84270780D01*
X53589795Y-84270780D01*
X52685033Y-85270780D02*
X53161223Y-85270780D01*
X53161223Y-84270780D01*
X52351700Y-85175542D02*
X52304080Y-85223161D01*
X52351700Y-85270780D01*
X52399319Y-85223161D01*
X52351700Y-85175542D01*
X52351700Y-85270780D01*
X52351700Y-84651733D02*
X52304080Y-84699352D01*
X52351700Y-84746971D01*
X52399319Y-84699352D01*
X52351700Y-84651733D01*
X52351700Y-84746971D01*
X62589795Y-86880780D02*
X63161223Y-86880780D01*
X62875509Y-86880780D02*
X62875509Y-85880780D01*
X62970747Y-86023638D01*
X63065985Y-86118876D01*
X63161223Y-86166495D01*
X62161223Y-86499828D02*
X61399319Y-86499828D01*
X60970747Y-85976019D02*
X60923128Y-85928400D01*
X60827890Y-85880780D01*
X60589795Y-85880780D01*
X60494557Y-85928400D01*
X60446938Y-85976019D01*
X60399319Y-86071257D01*
X60399319Y-86166495D01*
X60446938Y-86309352D01*
X61018366Y-86880780D01*
X60399319Y-86880780D01*
X59970747Y-86785542D02*
X59923128Y-86833161D01*
X59970747Y-86880780D01*
X60018366Y-86833161D01*
X59970747Y-86785542D01*
X59970747Y-86880780D01*
X59970747Y-86261733D02*
X59923128Y-86309352D01*
X59970747Y-86356971D01*
X60018366Y-86309352D01*
X59970747Y-86261733D01*
X59970747Y-86356971D01*
X58732652Y-86499828D02*
X57970747Y-86499828D01*
X58351700Y-86880780D02*
X58351700Y-86118876D01*
X57018366Y-85880780D02*
X57494557Y-85880780D01*
X57542176Y-86356971D01*
X57494557Y-86309352D01*
X57399319Y-86261733D01*
X57161223Y-86261733D01*
X57065985Y-86309352D01*
X57018366Y-86356971D01*
X56970747Y-86452209D01*
X56970747Y-86690304D01*
X57018366Y-86785542D01*
X57065985Y-86833161D01*
X57161223Y-86880780D01*
X57399319Y-86880780D01*
X57494557Y-86833161D01*
X57542176Y-86785542D01*
X56685033Y-85880780D02*
X56351700Y-86880780D01*
X56018366Y-85880780D01*
X54685033Y-87214114D02*
X54685033Y-85785542D01*
X53256461Y-85976019D02*
X53208842Y-85928400D01*
X53113604Y-85880780D01*
X52875509Y-85880780D01*
X52780271Y-85928400D01*
X52732652Y-85976019D01*
X52685033Y-86071257D01*
X52685033Y-86166495D01*
X52732652Y-86309352D01*
X53304080Y-86880780D01*
X52685033Y-86880780D01*
X52256461Y-86499828D02*
X51494557Y-86499828D01*
X51113604Y-85880780D02*
X50494557Y-85880780D01*
X50827890Y-86261733D01*
X50685033Y-86261733D01*
X50589795Y-86309352D01*
X50542176Y-86356971D01*
X50494557Y-86452209D01*
X50494557Y-86690304D01*
X50542176Y-86785542D01*
X50589795Y-86833161D01*
X50685033Y-86880780D01*
X50970747Y-86880780D01*
X51065985Y-86833161D01*
X51113604Y-86785542D01*
X50065985Y-86785542D02*
X50018366Y-86833161D01*
X50065985Y-86880780D01*
X50113604Y-86833161D01*
X50065985Y-86785542D01*
X50065985Y-86880780D01*
X50065985Y-86261733D02*
X50018366Y-86309352D01*
X50065985Y-86356971D01*
X50113604Y-86309352D01*
X50065985Y-86261733D01*
X50065985Y-86356971D01*
X48970747Y-85880780D02*
X48637414Y-86880780D01*
X48304080Y-85880780D01*
X48208842Y-86976019D02*
X47446938Y-86976019D01*
X47208842Y-86880780D02*
X47208842Y-85880780D01*
X46732652Y-86880780D02*
X46732652Y-85880780D01*
X46161223Y-86880780D01*
X46161223Y-85880780D01*
X52845690Y-88156980D02*
X52845690Y-88871266D01*
X52893309Y-89014123D01*
X52988547Y-89109361D01*
X53131404Y-89156980D01*
X53226642Y-89156980D01*
X52369500Y-89156980D02*
X52369500Y-88156980D01*
X51988547Y-88156980D01*
X51893309Y-88204600D01*
X51845690Y-88252219D01*
X51798071Y-88347457D01*
X51798071Y-88490314D01*
X51845690Y-88585552D01*
X51893309Y-88633171D01*
X51988547Y-88680790D01*
X52369500Y-88680790D01*
X51464738Y-88156980D02*
X50845690Y-88156980D01*
X51179023Y-88537933D01*
X51036166Y-88537933D01*
X50940928Y-88585552D01*
X50893309Y-88633171D01*
X50845690Y-88728409D01*
X50845690Y-88966504D01*
X50893309Y-89061742D01*
X50940928Y-89109361D01*
X51036166Y-89156980D01*
X51321880Y-89156980D01*
X51417119Y-89109361D01*
X51464738Y-89061742D01*
X50226642Y-88156980D02*
X50131404Y-88156980D01*
X50036166Y-88204600D01*
X49988547Y-88252219D01*
X49940928Y-88347457D01*
X49893309Y-88537933D01*
X49893309Y-88776028D01*
X49940928Y-88966504D01*
X49988547Y-89061742D01*
X50036166Y-89109361D01*
X50131404Y-89156980D01*
X50226642Y-89156980D01*
X50321880Y-89109361D01*
X50369500Y-89061742D01*
X50417119Y-88966504D01*
X50464738Y-88776028D01*
X50464738Y-88537933D01*
X50417119Y-88347457D01*
X50369500Y-88252219D01*
X50321880Y-88204600D01*
X50226642Y-88156980D01*
X49464738Y-89061742D02*
X49417119Y-89109361D01*
X49464738Y-89156980D01*
X49512357Y-89109361D01*
X49464738Y-89061742D01*
X49464738Y-89156980D01*
X49464738Y-88537933D02*
X49417119Y-88585552D01*
X49464738Y-88633171D01*
X49512357Y-88585552D01*
X49464738Y-88537933D01*
X49464738Y-88633171D01*
X47750452Y-88156980D02*
X48226642Y-88156980D01*
X48274261Y-88633171D01*
X48226642Y-88585552D01*
X48131404Y-88537933D01*
X47893309Y-88537933D01*
X47798071Y-88585552D01*
X47750452Y-88633171D01*
X47702833Y-88728409D01*
X47702833Y-88966504D01*
X47750452Y-89061742D01*
X47798071Y-89109361D01*
X47893309Y-89156980D01*
X48131404Y-89156980D01*
X48226642Y-89109361D01*
X48274261Y-89061742D01*
X47417119Y-88156980D02*
X47083785Y-89156980D01*
X46750452Y-88156980D01*
X45798071Y-88490314D02*
X45417119Y-88490314D01*
X45655214Y-88156980D02*
X45655214Y-89014123D01*
X45607595Y-89109361D01*
X45512357Y-89156980D01*
X45417119Y-89156980D01*
X44940928Y-89156980D02*
X45036166Y-89109361D01*
X45083785Y-89061742D01*
X45131404Y-88966504D01*
X45131404Y-88680790D01*
X45083785Y-88585552D01*
X45036166Y-88537933D01*
X44940928Y-88490314D01*
X44798071Y-88490314D01*
X44702833Y-88537933D01*
X44655214Y-88585552D01*
X44607595Y-88680790D01*
X44607595Y-88966504D01*
X44655214Y-89061742D01*
X44702833Y-89109361D01*
X44798071Y-89156980D01*
X44940928Y-89156980D01*
X43417119Y-88633171D02*
X43083785Y-88633171D01*
X42940928Y-89156980D02*
X43417119Y-89156980D01*
X43417119Y-88156980D01*
X42940928Y-88156980D01*
X42607595Y-89156980D02*
X42083785Y-88490314D01*
X42607595Y-88490314D02*
X42083785Y-89156980D01*
X41845690Y-88490314D02*
X41464738Y-88490314D01*
X41702833Y-88156980D02*
X41702833Y-89014123D01*
X41655214Y-89109361D01*
X41559976Y-89156980D01*
X41464738Y-89156980D01*
X41131404Y-89061742D02*
X41083785Y-89109361D01*
X41131404Y-89156980D01*
X41179023Y-89109361D01*
X41131404Y-89061742D01*
X41131404Y-89156980D01*
X40655214Y-88776028D02*
X39893309Y-88776028D01*
X39417119Y-89156980D02*
X39417119Y-88156980D01*
X39036166Y-88156980D01*
X38940928Y-88204600D01*
X38893309Y-88252219D01*
X38845690Y-88347457D01*
X38845690Y-88490314D01*
X38893309Y-88585552D01*
X38940928Y-88633171D01*
X39036166Y-88680790D01*
X39417119Y-88680790D01*
X38274261Y-89156980D02*
X38369500Y-89109361D01*
X38417119Y-89061742D01*
X38464738Y-88966504D01*
X38464738Y-88680790D01*
X38417119Y-88585552D01*
X38369500Y-88537933D01*
X38274261Y-88490314D01*
X38131404Y-88490314D01*
X38036166Y-88537933D01*
X37988547Y-88585552D01*
X37940928Y-88680790D01*
X37940928Y-88966504D01*
X37988547Y-89061742D01*
X38036166Y-89109361D01*
X38131404Y-89156980D01*
X38274261Y-89156980D01*
X37512357Y-89156980D02*
X37512357Y-88490314D01*
X37512357Y-88680790D02*
X37464738Y-88585552D01*
X37417119Y-88537933D01*
X37321880Y-88490314D01*
X37226642Y-88490314D01*
X37036166Y-88490314D02*
X36655214Y-88490314D01*
X36893309Y-88156980D02*
X36893309Y-89014123D01*
X36845690Y-89109361D01*
X36750452Y-89156980D01*
X36655214Y-89156980D01*
X52845690Y-89766980D02*
X52845690Y-90481266D01*
X52893309Y-90624123D01*
X52988547Y-90719361D01*
X53131404Y-90766980D01*
X53226642Y-90766980D01*
X52369500Y-90766980D02*
X52369500Y-89766980D01*
X51988547Y-89766980D01*
X51893309Y-89814600D01*
X51845690Y-89862219D01*
X51798071Y-89957457D01*
X51798071Y-90100314D01*
X51845690Y-90195552D01*
X51893309Y-90243171D01*
X51988547Y-90290790D01*
X52369500Y-90290790D01*
X51464738Y-89766980D02*
X50845690Y-89766980D01*
X51179023Y-90147933D01*
X51036166Y-90147933D01*
X50940928Y-90195552D01*
X50893309Y-90243171D01*
X50845690Y-90338409D01*
X50845690Y-90576504D01*
X50893309Y-90671742D01*
X50940928Y-90719361D01*
X51036166Y-90766980D01*
X51321880Y-90766980D01*
X51417119Y-90719361D01*
X51464738Y-90671742D01*
X49893309Y-90766980D02*
X50464738Y-90766980D01*
X50179023Y-90766980D02*
X50179023Y-89766980D01*
X50274261Y-89909838D01*
X50369500Y-90005076D01*
X50464738Y-90052695D01*
X49464738Y-90671742D02*
X49417119Y-90719361D01*
X49464738Y-90766980D01*
X49512357Y-90719361D01*
X49464738Y-90671742D01*
X49464738Y-90766980D01*
X49464738Y-90147933D02*
X49417119Y-90195552D01*
X49464738Y-90243171D01*
X49512357Y-90195552D01*
X49464738Y-90147933D01*
X49464738Y-90243171D01*
X48321880Y-89766980D02*
X47702833Y-89766980D01*
X48036166Y-90147933D01*
X47893309Y-90147933D01*
X47798071Y-90195552D01*
X47750452Y-90243171D01*
X47702833Y-90338409D01*
X47702833Y-90576504D01*
X47750452Y-90671742D01*
X47798071Y-90719361D01*
X47893309Y-90766980D01*
X48179023Y-90766980D01*
X48274261Y-90719361D01*
X48321880Y-90671742D01*
X47417119Y-89766980D02*
X47083785Y-90766980D01*
X46750452Y-89766980D01*
X46512357Y-89766980D02*
X45893309Y-89766980D01*
X46226642Y-90147933D01*
X46083785Y-90147933D01*
X45988547Y-90195552D01*
X45940928Y-90243171D01*
X45893309Y-90338409D01*
X45893309Y-90576504D01*
X45940928Y-90671742D01*
X45988547Y-90719361D01*
X46083785Y-90766980D01*
X46369500Y-90766980D01*
X46464738Y-90719361D01*
X46512357Y-90671742D01*
X44845690Y-90100314D02*
X44464738Y-90100314D01*
X44702833Y-89766980D02*
X44702833Y-90624123D01*
X44655214Y-90719361D01*
X44559976Y-90766980D01*
X44464738Y-90766980D01*
X43988547Y-90766980D02*
X44083785Y-90719361D01*
X44131404Y-90671742D01*
X44179023Y-90576504D01*
X44179023Y-90290790D01*
X44131404Y-90195552D01*
X44083785Y-90147933D01*
X43988547Y-90100314D01*
X43845690Y-90100314D01*
X43750452Y-90147933D01*
X43702833Y-90195552D01*
X43655214Y-90290790D01*
X43655214Y-90576504D01*
X43702833Y-90671742D01*
X43750452Y-90719361D01*
X43845690Y-90766980D01*
X43988547Y-90766980D01*
X42464738Y-90243171D02*
X42131404Y-90243171D01*
X41988547Y-90766980D02*
X42464738Y-90766980D01*
X42464738Y-89766980D01*
X41988547Y-89766980D01*
X41655214Y-90766980D02*
X41131404Y-90100314D01*
X41655214Y-90100314D02*
X41131404Y-90766980D01*
X40893309Y-90100314D02*
X40512357Y-90100314D01*
X40750452Y-89766980D02*
X40750452Y-90624123D01*
X40702833Y-90719361D01*
X40607595Y-90766980D01*
X40512357Y-90766980D01*
X40179023Y-90671742D02*
X40131404Y-90719361D01*
X40179023Y-90766980D01*
X40226642Y-90719361D01*
X40179023Y-90671742D01*
X40179023Y-90766980D01*
X39702833Y-90386028D02*
X38940928Y-90386028D01*
X38464738Y-90766980D02*
X38464738Y-89766980D01*
X38083785Y-89766980D01*
X37988547Y-89814600D01*
X37940928Y-89862219D01*
X37893309Y-89957457D01*
X37893309Y-90100314D01*
X37940928Y-90195552D01*
X37988547Y-90243171D01*
X38083785Y-90290790D01*
X38464738Y-90290790D01*
X37321880Y-90766980D02*
X37417119Y-90719361D01*
X37464738Y-90671742D01*
X37512357Y-90576504D01*
X37512357Y-90290790D01*
X37464738Y-90195552D01*
X37417119Y-90147933D01*
X37321880Y-90100314D01*
X37179023Y-90100314D01*
X37083785Y-90147933D01*
X37036166Y-90195552D01*
X36988547Y-90290790D01*
X36988547Y-90576504D01*
X37036166Y-90671742D01*
X37083785Y-90719361D01*
X37179023Y-90766980D01*
X37321880Y-90766980D01*
X36559976Y-90766980D02*
X36559976Y-90100314D01*
X36559976Y-90290790D02*
X36512357Y-90195552D01*
X36464738Y-90147933D01*
X36369500Y-90100314D01*
X36274261Y-90100314D01*
X36083785Y-90100314D02*
X35702833Y-90100314D01*
X35940928Y-89766980D02*
X35940928Y-90624123D01*
X35893309Y-90719361D01*
X35798071Y-90766980D01*
X35702833Y-90766980D01*
X36037971Y-71663928D02*
X35985590Y-71506785D01*
X35933209Y-71454404D01*
X35828447Y-71402023D01*
X35671304Y-71402023D01*
X35566542Y-71454404D01*
X35514161Y-71506785D01*
X35461780Y-71611547D01*
X35461780Y-72030595D01*
X36561780Y-72030595D01*
X36561780Y-71663928D01*
X36509400Y-71559166D01*
X36457019Y-71506785D01*
X36352257Y-71454404D01*
X36247495Y-71454404D01*
X36142733Y-71506785D01*
X36090352Y-71559166D01*
X36037971Y-71663928D01*
X36037971Y-72030595D01*
X35461780Y-70459166D02*
X36037971Y-70459166D01*
X36142733Y-70511547D01*
X36195114Y-70616309D01*
X36195114Y-70825833D01*
X36142733Y-70930595D01*
X35514161Y-70459166D02*
X35461780Y-70563928D01*
X35461780Y-70825833D01*
X35514161Y-70930595D01*
X35618923Y-70982976D01*
X35723685Y-70982976D01*
X35828447Y-70930595D01*
X35880828Y-70825833D01*
X35880828Y-70563928D01*
X35933209Y-70459166D01*
X36195114Y-70092500D02*
X36195114Y-69673452D01*
X36561780Y-69935357D02*
X35618923Y-69935357D01*
X35514161Y-69882976D01*
X35461780Y-69778214D01*
X35461780Y-69673452D01*
X36195114Y-69463928D02*
X36195114Y-69044880D01*
X36561780Y-69306785D02*
X35618923Y-69306785D01*
X35514161Y-69254404D01*
X35461780Y-69149642D01*
X35461780Y-69044880D01*
X35514161Y-68259166D02*
X35461780Y-68363928D01*
X35461780Y-68573452D01*
X35514161Y-68678214D01*
X35618923Y-68730595D01*
X36037971Y-68730595D01*
X36142733Y-68678214D01*
X36195114Y-68573452D01*
X36195114Y-68363928D01*
X36142733Y-68259166D01*
X36037971Y-68206785D01*
X35933209Y-68206785D01*
X35828447Y-68730595D01*
X35461780Y-67735357D02*
X36195114Y-67735357D01*
X35985590Y-67735357D02*
X36090352Y-67682976D01*
X36142733Y-67630595D01*
X36195114Y-67525833D01*
X36195114Y-67421071D01*
X36195114Y-67159166D02*
X35461780Y-66897261D01*
X36195114Y-66635357D02*
X35461780Y-66897261D01*
X35199876Y-67002023D01*
X35147495Y-67054404D01*
X35095114Y-67159166D01*
X35514161Y-65430595D02*
X35461780Y-65325833D01*
X35461780Y-65116309D01*
X35514161Y-65011547D01*
X35618923Y-64959166D01*
X35671304Y-64959166D01*
X35776066Y-65011547D01*
X35828447Y-65116309D01*
X35828447Y-65273452D01*
X35880828Y-65378214D01*
X35985590Y-65430595D01*
X36037971Y-65430595D01*
X36142733Y-65378214D01*
X36195114Y-65273452D01*
X36195114Y-65116309D01*
X36142733Y-65011547D01*
X35461780Y-64016309D02*
X36037971Y-64016309D01*
X36142733Y-64068690D01*
X36195114Y-64173452D01*
X36195114Y-64382976D01*
X36142733Y-64487738D01*
X35514161Y-64016309D02*
X35461780Y-64121071D01*
X35461780Y-64382976D01*
X35514161Y-64487738D01*
X35618923Y-64540119D01*
X35723685Y-64540119D01*
X35828447Y-64487738D01*
X35880828Y-64382976D01*
X35880828Y-64121071D01*
X35933209Y-64016309D01*
X36195114Y-63649642D02*
X36195114Y-63230595D01*
X35461780Y-63492500D02*
X36404638Y-63492500D01*
X36509400Y-63440119D01*
X36561780Y-63335357D01*
X36561780Y-63230595D01*
X35514161Y-62444880D02*
X35461780Y-62549642D01*
X35461780Y-62759166D01*
X35514161Y-62863928D01*
X35618923Y-62916309D01*
X36037971Y-62916309D01*
X36142733Y-62863928D01*
X36195114Y-62759166D01*
X36195114Y-62549642D01*
X36142733Y-62444880D01*
X36037971Y-62392500D01*
X35933209Y-62392500D01*
X35828447Y-62916309D01*
X36195114Y-62078214D02*
X36195114Y-61659166D01*
X36561780Y-61921071D02*
X35618923Y-61921071D01*
X35514161Y-61868690D01*
X35461780Y-61763928D01*
X35461780Y-61659166D01*
X36195114Y-61397261D02*
X35461780Y-61135357D01*
X36195114Y-60873452D02*
X35461780Y-61135357D01*
X35199876Y-61240119D01*
X35147495Y-61292500D01*
X35095114Y-61397261D01*
X35514161Y-59144880D02*
X35461780Y-59249642D01*
X35461780Y-59459166D01*
X35514161Y-59563928D01*
X35566542Y-59616309D01*
X35671304Y-59668690D01*
X35985590Y-59668690D01*
X36090352Y-59616309D01*
X36142733Y-59563928D01*
X36195114Y-59459166D01*
X36195114Y-59249642D01*
X36142733Y-59144880D01*
X35461780Y-58516309D02*
X35514161Y-58621071D01*
X35566542Y-58673452D01*
X35671304Y-58725833D01*
X35985590Y-58725833D01*
X36090352Y-58673452D01*
X36142733Y-58621071D01*
X36195114Y-58516309D01*
X36195114Y-58359166D01*
X36142733Y-58254404D01*
X36090352Y-58202023D01*
X35985590Y-58149642D01*
X35671304Y-58149642D01*
X35566542Y-58202023D01*
X35514161Y-58254404D01*
X35461780Y-58359166D01*
X35461780Y-58516309D01*
X36195114Y-57678214D02*
X35461780Y-57678214D01*
X36090352Y-57678214D02*
X36142733Y-57625833D01*
X36195114Y-57521071D01*
X36195114Y-57363928D01*
X36142733Y-57259166D01*
X36037971Y-57206785D01*
X35461780Y-57206785D01*
X36195114Y-56840119D02*
X36195114Y-56421071D01*
X36561780Y-56682976D02*
X35618923Y-56682976D01*
X35514161Y-56630595D01*
X35461780Y-56525833D01*
X35461780Y-56421071D01*
X35461780Y-56054404D02*
X36195114Y-56054404D01*
X35985590Y-56054404D02*
X36090352Y-56002023D01*
X36142733Y-55949642D01*
X36195114Y-55844880D01*
X36195114Y-55740119D01*
X35461780Y-55216309D02*
X35514161Y-55321071D01*
X35566542Y-55373452D01*
X35671304Y-55425833D01*
X35985590Y-55425833D01*
X36090352Y-55373452D01*
X36142733Y-55321071D01*
X36195114Y-55216309D01*
X36195114Y-55059166D01*
X36142733Y-54954404D01*
X36090352Y-54902023D01*
X35985590Y-54849642D01*
X35671304Y-54849642D01*
X35566542Y-54902023D01*
X35514161Y-54954404D01*
X35461780Y-55059166D01*
X35461780Y-55216309D01*
X35461780Y-54221071D02*
X35514161Y-54325833D01*
X35618923Y-54378214D01*
X36561780Y-54378214D01*
X35461780Y-53644880D02*
X35514161Y-53749642D01*
X35618923Y-53802023D01*
X36561780Y-53802023D01*
X35514161Y-52806785D02*
X35461780Y-52911547D01*
X35461780Y-53121071D01*
X35514161Y-53225833D01*
X35618923Y-53278214D01*
X36037971Y-53278214D01*
X36142733Y-53225833D01*
X36195114Y-53121071D01*
X36195114Y-52911547D01*
X36142733Y-52806785D01*
X36037971Y-52754404D01*
X35933209Y-52754404D01*
X35828447Y-53278214D01*
X35461780Y-52282976D02*
X36195114Y-52282976D01*
X35985590Y-52282976D02*
X36090352Y-52230595D01*
X36142733Y-52178214D01*
X36195114Y-52073452D01*
X36195114Y-51968690D01*
X36561780Y-50921071D02*
X35461780Y-50554404D01*
X36561780Y-50187738D01*
X36457019Y-49873452D02*
X36509400Y-49821071D01*
X36561780Y-49716309D01*
X36561780Y-49454404D01*
X36509400Y-49349642D01*
X36457019Y-49297261D01*
X36352257Y-49244880D01*
X36247495Y-49244880D01*
X36090352Y-49297261D01*
X35461780Y-49925833D01*
X35461780Y-49244880D01*
X35566542Y-48773452D02*
X35514161Y-48721071D01*
X35461780Y-48773452D01*
X35514161Y-48825833D01*
X35566542Y-48773452D01*
X35461780Y-48773452D01*
X35461780Y-47673452D02*
X35461780Y-48302023D01*
X35461780Y-47987738D02*
X36561780Y-47987738D01*
X36404638Y-48092500D01*
X36299876Y-48197261D01*
X36247495Y-48302023D01*
X34424114Y-71559166D02*
X33533638Y-71559166D01*
X33428876Y-71611547D01*
X33376495Y-71663928D01*
X33324114Y-71768690D01*
X33324114Y-71925833D01*
X33376495Y-72030595D01*
X33743161Y-71559166D02*
X33690780Y-71663928D01*
X33690780Y-71873452D01*
X33743161Y-71978214D01*
X33795542Y-72030595D01*
X33900304Y-72082976D01*
X34214590Y-72082976D01*
X34319352Y-72030595D01*
X34371733Y-71978214D01*
X34424114Y-71873452D01*
X34424114Y-71663928D01*
X34371733Y-71559166D01*
X33690780Y-71035357D02*
X34424114Y-71035357D01*
X34790780Y-71035357D02*
X34738400Y-71087738D01*
X34686019Y-71035357D01*
X34738400Y-70982976D01*
X34790780Y-71035357D01*
X34686019Y-71035357D01*
X34424114Y-70668690D02*
X34424114Y-70249642D01*
X34790780Y-70511547D02*
X33847923Y-70511547D01*
X33743161Y-70459166D01*
X33690780Y-70354404D01*
X33690780Y-70249642D01*
X33690780Y-69882976D02*
X34790780Y-69882976D01*
X33690780Y-69411547D02*
X34266971Y-69411547D01*
X34371733Y-69463928D01*
X34424114Y-69568690D01*
X34424114Y-69725833D01*
X34371733Y-69830595D01*
X34319352Y-69882976D01*
X34424114Y-68416309D02*
X33690780Y-68416309D01*
X34424114Y-68887738D02*
X33847923Y-68887738D01*
X33743161Y-68835357D01*
X33690780Y-68730595D01*
X33690780Y-68573452D01*
X33743161Y-68468690D01*
X33795542Y-68416309D01*
X33690780Y-67892500D02*
X34790780Y-67892500D01*
X34371733Y-67892500D02*
X34424114Y-67787738D01*
X34424114Y-67578214D01*
X34371733Y-67473452D01*
X34319352Y-67421071D01*
X34214590Y-67368690D01*
X33900304Y-67368690D01*
X33795542Y-67421071D01*
X33743161Y-67473452D01*
X33690780Y-67578214D01*
X33690780Y-67787738D01*
X33743161Y-67892500D01*
X33795542Y-66897261D02*
X33743161Y-66844880D01*
X33690780Y-66897261D01*
X33743161Y-66949642D01*
X33795542Y-66897261D01*
X33690780Y-66897261D01*
X33743161Y-65902023D02*
X33690780Y-66006785D01*
X33690780Y-66216309D01*
X33743161Y-66321071D01*
X33795542Y-66373452D01*
X33900304Y-66425833D01*
X34214590Y-66425833D01*
X34319352Y-66373452D01*
X34371733Y-66321071D01*
X34424114Y-66216309D01*
X34424114Y-66006785D01*
X34371733Y-65902023D01*
X33690780Y-65273452D02*
X33743161Y-65378214D01*
X33795542Y-65430595D01*
X33900304Y-65482976D01*
X34214590Y-65482976D01*
X34319352Y-65430595D01*
X34371733Y-65378214D01*
X34424114Y-65273452D01*
X34424114Y-65116309D01*
X34371733Y-65011547D01*
X34319352Y-64959166D01*
X34214590Y-64906785D01*
X33900304Y-64906785D01*
X33795542Y-64959166D01*
X33743161Y-65011547D01*
X33690780Y-65116309D01*
X33690780Y-65273452D01*
X33690780Y-64435357D02*
X34424114Y-64435357D01*
X34319352Y-64435357D02*
X34371733Y-64382976D01*
X34424114Y-64278214D01*
X34424114Y-64121071D01*
X34371733Y-64016309D01*
X34266971Y-63963928D01*
X33690780Y-63963928D01*
X34266971Y-63963928D02*
X34371733Y-63911547D01*
X34424114Y-63806785D01*
X34424114Y-63649642D01*
X34371733Y-63544880D01*
X34266971Y-63492500D01*
X33690780Y-63492500D01*
X34843161Y-62182976D02*
X33428876Y-63125833D01*
X33743161Y-61868690D02*
X33690780Y-61763928D01*
X33690780Y-61554404D01*
X33743161Y-61449642D01*
X33847923Y-61397261D01*
X33900304Y-61397261D01*
X34005066Y-61449642D01*
X34057447Y-61554404D01*
X34057447Y-61711547D01*
X34109828Y-61816309D01*
X34214590Y-61868690D01*
X34266971Y-61868690D01*
X34371733Y-61816309D01*
X34424114Y-61711547D01*
X34424114Y-61554404D01*
X34371733Y-61449642D01*
X33690780Y-60925833D02*
X34790780Y-60925833D01*
X33690780Y-60454404D02*
X34266971Y-60454404D01*
X34371733Y-60506785D01*
X34424114Y-60611547D01*
X34424114Y-60768690D01*
X34371733Y-60873452D01*
X34319352Y-60925833D01*
X33690780Y-59930595D02*
X34424114Y-59930595D01*
X34790780Y-59930595D02*
X34738400Y-59982976D01*
X34686019Y-59930595D01*
X34738400Y-59878214D01*
X34790780Y-59930595D01*
X34686019Y-59930595D01*
X34424114Y-59406785D02*
X33690780Y-59406785D01*
X34319352Y-59406785D02*
X34371733Y-59354404D01*
X34424114Y-59249642D01*
X34424114Y-59092500D01*
X34371733Y-58987738D01*
X34266971Y-58935357D01*
X33690780Y-58935357D01*
X33690780Y-58411547D02*
X34424114Y-58411547D01*
X34790780Y-58411547D02*
X34738400Y-58463928D01*
X34686019Y-58411547D01*
X34738400Y-58359166D01*
X34790780Y-58411547D01*
X34686019Y-58411547D01*
X34424114Y-57887738D02*
X33690780Y-57887738D01*
X34319352Y-57887738D02*
X34371733Y-57835357D01*
X34424114Y-57730595D01*
X34424114Y-57573452D01*
X34371733Y-57468690D01*
X34266971Y-57416309D01*
X33690780Y-57416309D01*
X34424114Y-56421071D02*
X33533638Y-56421071D01*
X33428876Y-56473452D01*
X33376495Y-56525833D01*
X33324114Y-56630595D01*
X33324114Y-56787738D01*
X33376495Y-56892500D01*
X33743161Y-56421071D02*
X33690780Y-56525833D01*
X33690780Y-56735357D01*
X33743161Y-56840119D01*
X33795542Y-56892500D01*
X33900304Y-56944880D01*
X34214590Y-56944880D01*
X34319352Y-56892500D01*
X34371733Y-56840119D01*
X34424114Y-56735357D01*
X34424114Y-56525833D01*
X34371733Y-56421071D01*
X34109828Y-55897261D02*
X34109828Y-55059166D01*
X33690780Y-54535357D02*
X34424114Y-54535357D01*
X34319352Y-54535357D02*
X34371733Y-54482976D01*
X34424114Y-54378214D01*
X34424114Y-54221071D01*
X34371733Y-54116309D01*
X34266971Y-54063928D01*
X33690780Y-54063928D01*
X34266971Y-54063928D02*
X34371733Y-54011547D01*
X34424114Y-53906785D01*
X34424114Y-53749642D01*
X34371733Y-53644880D01*
X34266971Y-53592500D01*
X33690780Y-53592500D01*
X33690780Y-52597261D02*
X34266971Y-52597261D01*
X34371733Y-52649642D01*
X34424114Y-52754404D01*
X34424114Y-52963928D01*
X34371733Y-53068690D01*
X33743161Y-52597261D02*
X33690780Y-52702023D01*
X33690780Y-52963928D01*
X33743161Y-53068690D01*
X33847923Y-53121071D01*
X33952685Y-53121071D01*
X34057447Y-53068690D01*
X34109828Y-52963928D01*
X34109828Y-52702023D01*
X34162209Y-52597261D01*
X34424114Y-52073452D02*
X33690780Y-52073452D01*
X34319352Y-52073452D02*
X34371733Y-52021071D01*
X34424114Y-51916309D01*
X34424114Y-51759166D01*
X34371733Y-51654404D01*
X34266971Y-51602023D01*
X33690780Y-51602023D01*
X34843161Y-50292500D02*
X33428876Y-51235357D01*
X33690780Y-49925833D02*
X34790780Y-49925833D01*
X34371733Y-49925833D02*
X34424114Y-49821071D01*
X34424114Y-49611547D01*
X34371733Y-49506785D01*
X34319352Y-49454404D01*
X34214590Y-49402023D01*
X33900304Y-49402023D01*
X33795542Y-49454404D01*
X33743161Y-49506785D01*
X33690780Y-49611547D01*
X33690780Y-49821071D01*
X33743161Y-49925833D01*
X33743161Y-48982976D02*
X33690780Y-48878214D01*
X33690780Y-48668690D01*
X33743161Y-48563928D01*
X33847923Y-48511547D01*
X33900304Y-48511547D01*
X34005066Y-48563928D01*
X34057447Y-48668690D01*
X34057447Y-48825833D01*
X34109828Y-48930595D01*
X34214590Y-48982976D01*
X34266971Y-48982976D01*
X34371733Y-48930595D01*
X34424114Y-48825833D01*
X34424114Y-48668690D01*
X34371733Y-48563928D01*
X33743161Y-47568690D02*
X33690780Y-47673452D01*
X33690780Y-47882976D01*
X33743161Y-47987738D01*
X33795542Y-48040119D01*
X33900304Y-48092500D01*
X34214590Y-48092500D01*
X34319352Y-48040119D01*
X34371733Y-47987738D01*
X34424114Y-47882976D01*
X34424114Y-47673452D01*
X34371733Y-47568690D01*
X33586019Y-47359166D02*
X33586019Y-46521071D01*
X34424114Y-46416309D02*
X34424114Y-45997261D01*
X33690780Y-46259166D02*
X34633638Y-46259166D01*
X34738400Y-46206785D01*
X34790780Y-46102023D01*
X34790780Y-45997261D01*
X34424114Y-45735357D02*
X33690780Y-45525833D01*
X34214590Y-45316309D01*
X33690780Y-45106785D01*
X34424114Y-44897261D01*
X31972161Y-71559166D02*
X31919780Y-71663928D01*
X31919780Y-71873452D01*
X31972161Y-71978214D01*
X32024542Y-72030595D01*
X32129304Y-72082976D01*
X32443590Y-72082976D01*
X32548352Y-72030595D01*
X32600733Y-71978214D01*
X32653114Y-71873452D01*
X32653114Y-71663928D01*
X32600733Y-71559166D01*
X31919780Y-71087738D02*
X32653114Y-71087738D01*
X32443590Y-71087738D02*
X32548352Y-71035357D01*
X32600733Y-70982976D01*
X32653114Y-70878214D01*
X32653114Y-70773452D01*
X31972161Y-69987738D02*
X31919780Y-70092500D01*
X31919780Y-70302023D01*
X31972161Y-70406785D01*
X32076923Y-70459166D01*
X32495971Y-70459166D01*
X32600733Y-70406785D01*
X32653114Y-70302023D01*
X32653114Y-70092500D01*
X32600733Y-69987738D01*
X32495971Y-69935357D01*
X32391209Y-69935357D01*
X32286447Y-70459166D01*
X31919780Y-68992500D02*
X32495971Y-68992500D01*
X32600733Y-69044880D01*
X32653114Y-69149642D01*
X32653114Y-69359166D01*
X32600733Y-69463928D01*
X31972161Y-68992500D02*
X31919780Y-69097261D01*
X31919780Y-69359166D01*
X31972161Y-69463928D01*
X32076923Y-69516309D01*
X32181685Y-69516309D01*
X32286447Y-69463928D01*
X32338828Y-69359166D01*
X32338828Y-69097261D01*
X32391209Y-68992500D01*
X32653114Y-68625833D02*
X32653114Y-68206785D01*
X33019780Y-68468690D02*
X32076923Y-68468690D01*
X31972161Y-68416309D01*
X31919780Y-68311547D01*
X31919780Y-68206785D01*
X31972161Y-67421071D02*
X31919780Y-67525833D01*
X31919780Y-67735357D01*
X31972161Y-67840119D01*
X32076923Y-67892500D01*
X32495971Y-67892500D01*
X32600733Y-67840119D01*
X32653114Y-67735357D01*
X32653114Y-67525833D01*
X32600733Y-67421071D01*
X32495971Y-67368690D01*
X32391209Y-67368690D01*
X32286447Y-67892500D01*
X31919780Y-66425833D02*
X33019780Y-66425833D01*
X31972161Y-66425833D02*
X31919780Y-66530595D01*
X31919780Y-66740119D01*
X31972161Y-66844880D01*
X32024542Y-66897261D01*
X32129304Y-66949642D01*
X32443590Y-66949642D01*
X32548352Y-66897261D01*
X32600733Y-66844880D01*
X32653114Y-66740119D01*
X32653114Y-66530595D01*
X32600733Y-66425833D01*
X31919780Y-65063928D02*
X33019780Y-65063928D01*
X32600733Y-65063928D02*
X32653114Y-64959166D01*
X32653114Y-64749642D01*
X32600733Y-64644880D01*
X32548352Y-64592500D01*
X32443590Y-64540119D01*
X32129304Y-64540119D01*
X32024542Y-64592500D01*
X31972161Y-64644880D01*
X31919780Y-64749642D01*
X31919780Y-64959166D01*
X31972161Y-65063928D01*
X32653114Y-64173452D02*
X31919780Y-63911547D01*
X32653114Y-63649642D02*
X31919780Y-63911547D01*
X31657876Y-64016309D01*
X31605495Y-64068690D01*
X31553114Y-64173452D01*
X33019780Y-62549642D02*
X33019780Y-61921071D01*
X31919780Y-62235357D02*
X33019780Y-62235357D01*
X32024542Y-61554404D02*
X31972161Y-61502023D01*
X31919780Y-61554404D01*
X31972161Y-61606785D01*
X32024542Y-61554404D01*
X31919780Y-61554404D01*
X31919780Y-60192500D02*
X33019780Y-60192500D01*
X32495971Y-60192500D02*
X32495971Y-59563928D01*
X31919780Y-59563928D02*
X33019780Y-59563928D01*
X31919780Y-59040119D02*
X32653114Y-59040119D01*
X33019780Y-59040119D02*
X32967400Y-59092500D01*
X32915019Y-59040119D01*
X32967400Y-58987738D01*
X33019780Y-59040119D01*
X32915019Y-59040119D01*
X31919780Y-58516309D02*
X32653114Y-58516309D01*
X32548352Y-58516309D02*
X32600733Y-58463928D01*
X32653114Y-58359166D01*
X32653114Y-58202023D01*
X32600733Y-58097261D01*
X32495971Y-58044880D01*
X31919780Y-58044880D01*
X32495971Y-58044880D02*
X32600733Y-57992500D01*
X32653114Y-57887738D01*
X32653114Y-57730595D01*
X32600733Y-57625833D01*
X32495971Y-57573452D01*
X31919780Y-57573452D01*
X31919780Y-57049642D02*
X32653114Y-57049642D01*
X32548352Y-57049642D02*
X32600733Y-56997261D01*
X32653114Y-56892500D01*
X32653114Y-56735357D01*
X32600733Y-56630595D01*
X32495971Y-56578214D01*
X31919780Y-56578214D01*
X32495971Y-56578214D02*
X32600733Y-56525833D01*
X32653114Y-56421071D01*
X32653114Y-56263928D01*
X32600733Y-56159166D01*
X32495971Y-56106785D01*
X31919780Y-56106785D01*
X31919780Y-55425833D02*
X31972161Y-55530595D01*
X32076923Y-55582976D01*
X33019780Y-55582976D01*
X31972161Y-54587738D02*
X31919780Y-54692500D01*
X31919780Y-54902023D01*
X31972161Y-55006785D01*
X32076923Y-55059166D01*
X32495971Y-55059166D01*
X32600733Y-55006785D01*
X32653114Y-54902023D01*
X32653114Y-54692500D01*
X32600733Y-54587738D01*
X32495971Y-54535357D01*
X32391209Y-54535357D01*
X32286447Y-55059166D01*
X31919780Y-54063928D02*
X32653114Y-54063928D01*
X32443590Y-54063928D02*
X32548352Y-54011547D01*
X32600733Y-53959166D01*
X32653114Y-53854404D01*
X32653114Y-53749642D01*
X32915019Y-52597261D02*
X32967400Y-52544880D01*
X33019780Y-52440119D01*
X33019780Y-52178214D01*
X32967400Y-52073452D01*
X32915019Y-52021071D01*
X32810257Y-51968690D01*
X32705495Y-51968690D01*
X32548352Y-52021071D01*
X31919780Y-52649642D01*
X31919780Y-51968690D01*
X33019780Y-51287738D02*
X33019780Y-51182976D01*
X32967400Y-51078214D01*
X32915019Y-51025833D01*
X32810257Y-50973452D01*
X32600733Y-50921071D01*
X32338828Y-50921071D01*
X32129304Y-50973452D01*
X32024542Y-51025833D01*
X31972161Y-51078214D01*
X31919780Y-51182976D01*
X31919780Y-51287738D01*
X31972161Y-51392500D01*
X32024542Y-51444880D01*
X32129304Y-51497261D01*
X32338828Y-51549642D01*
X32600733Y-51549642D01*
X32810257Y-51497261D01*
X32915019Y-51444880D01*
X32967400Y-51392500D01*
X33019780Y-51287738D01*
X32915019Y-50502023D02*
X32967400Y-50449642D01*
X33019780Y-50344880D01*
X33019780Y-50082976D01*
X32967400Y-49978214D01*
X32915019Y-49925833D01*
X32810257Y-49873452D01*
X32705495Y-49873452D01*
X32548352Y-49925833D01*
X31919780Y-50554404D01*
X31919780Y-49873452D01*
X32915019Y-49454404D02*
X32967400Y-49402023D01*
X33019780Y-49297261D01*
X33019780Y-49035357D01*
X32967400Y-48930595D01*
X32915019Y-48878214D01*
X32810257Y-48825833D01*
X32705495Y-48825833D01*
X32548352Y-48878214D01*
X31919780Y-49506785D01*
X31919780Y-48825833D01*
X144444690Y-40680380D02*
X144444690Y-41489904D01*
X144397071Y-41585142D01*
X144349452Y-41632761D01*
X144254214Y-41680380D01*
X144063738Y-41680380D01*
X143968500Y-41632761D01*
X143920880Y-41585142D01*
X143873261Y-41489904D01*
X143873261Y-40680380D01*
X142873261Y-41680380D02*
X143444690Y-41680380D01*
X143158976Y-41680380D02*
X143158976Y-40680380D01*
X143254214Y-40823238D01*
X143349452Y-40918476D01*
X143444690Y-40966095D01*
X142206595Y-42013714D02*
X142206595Y-40585142D01*
X141492309Y-40680380D02*
X141492309Y-41489904D01*
X141444690Y-41585142D01*
X141397071Y-41632761D01*
X141301833Y-41680380D01*
X141111357Y-41680380D01*
X141016119Y-41632761D01*
X140968500Y-41585142D01*
X140920880Y-41489904D01*
X140920880Y-40680380D01*
X140492309Y-40775619D02*
X140444690Y-40728000D01*
X140349452Y-40680380D01*
X140111357Y-40680380D01*
X140016119Y-40728000D01*
X139968500Y-40775619D01*
X139920880Y-40870857D01*
X139920880Y-40966095D01*
X139968500Y-41108952D01*
X140539928Y-41680380D01*
X139920880Y-41680380D01*
X139254214Y-42013714D02*
X139254214Y-40585142D01*
X138539928Y-40680380D02*
X138539928Y-41489904D01*
X138492309Y-41585142D01*
X138444690Y-41632761D01*
X138349452Y-41680380D01*
X138158976Y-41680380D01*
X138063738Y-41632761D01*
X138016119Y-41585142D01*
X137968500Y-41489904D01*
X137968500Y-40680380D01*
X137587547Y-40680380D02*
X136968500Y-40680380D01*
X137301833Y-41061333D01*
X137158976Y-41061333D01*
X137063738Y-41108952D01*
X137016119Y-41156571D01*
X136968500Y-41251809D01*
X136968500Y-41489904D01*
X137016119Y-41585142D01*
X137063738Y-41632761D01*
X137158976Y-41680380D01*
X137444690Y-41680380D01*
X137539928Y-41632761D01*
X137587547Y-41585142D01*
X136301833Y-42013714D02*
X136301833Y-40585142D01*
X146444690Y-42290380D02*
X146444690Y-43004666D01*
X146492309Y-43147523D01*
X146587547Y-43242761D01*
X146730404Y-43290380D01*
X146825642Y-43290380D01*
X145968500Y-43290380D02*
X145968500Y-42290380D01*
X145587547Y-42290380D01*
X145492309Y-42338000D01*
X145444690Y-42385619D01*
X145397071Y-42480857D01*
X145397071Y-42623714D01*
X145444690Y-42718952D01*
X145492309Y-42766571D01*
X145587547Y-42814190D01*
X145968500Y-42814190D01*
X144016119Y-42290380D02*
X143920880Y-42290380D01*
X143825642Y-42338000D01*
X143778023Y-42385619D01*
X143730404Y-42480857D01*
X143682785Y-42671333D01*
X143682785Y-42909428D01*
X143730404Y-43099904D01*
X143778023Y-43195142D01*
X143825642Y-43242761D01*
X143920880Y-43290380D01*
X144016119Y-43290380D01*
X144111357Y-43242761D01*
X144158976Y-43195142D01*
X144206595Y-43099904D01*
X144254214Y-42909428D01*
X144254214Y-42671333D01*
X144206595Y-42480857D01*
X144158976Y-42385619D01*
X144111357Y-42338000D01*
X144016119Y-42290380D01*
X143349452Y-42290380D02*
X142682785Y-42290380D01*
X143111357Y-43290380D01*
X142063738Y-43623714D02*
X142063738Y-42195142D01*
X140825642Y-43290380D02*
X141397071Y-43290380D01*
X141111357Y-43290380D02*
X141111357Y-42290380D01*
X141206595Y-42433238D01*
X141301833Y-42528476D01*
X141397071Y-42576095D01*
X139968500Y-42623714D02*
X139968500Y-43290380D01*
X140206595Y-42242761D02*
X140444690Y-42957047D01*
X139825642Y-42957047D01*
X139206595Y-43623714D02*
X139206595Y-42195142D01*
X138539928Y-42385619D02*
X138492309Y-42338000D01*
X138397071Y-42290380D01*
X138158976Y-42290380D01*
X138063738Y-42338000D01*
X138016119Y-42385619D01*
X137968500Y-42480857D01*
X137968500Y-42576095D01*
X138016119Y-42718952D01*
X138587547Y-43290380D01*
X137968500Y-43290380D01*
X137016119Y-43290380D02*
X137587547Y-43290380D01*
X137301833Y-43290380D02*
X137301833Y-42290380D01*
X137397071Y-42433238D01*
X137492309Y-42528476D01*
X137587547Y-42576095D01*
X136349452Y-43623714D02*
X136349452Y-42195142D01*
X135730404Y-42290380D02*
X135111357Y-42290380D01*
X135444690Y-42671333D01*
X135301833Y-42671333D01*
X135206595Y-42718952D01*
X135158976Y-42766571D01*
X135111357Y-42861809D01*
X135111357Y-43099904D01*
X135158976Y-43195142D01*
X135206595Y-43242761D01*
X135301833Y-43290380D01*
X135587547Y-43290380D01*
X135682785Y-43242761D01*
X135730404Y-43195142D01*
X134825642Y-42290380D02*
X134492309Y-43290380D01*
X134158976Y-42290380D01*
X133920880Y-42290380D02*
X133301833Y-42290380D01*
X133635166Y-42671333D01*
X133492309Y-42671333D01*
X133397071Y-42718952D01*
X133349452Y-42766571D01*
X133301833Y-42861809D01*
X133301833Y-43099904D01*
X133349452Y-43195142D01*
X133397071Y-43242761D01*
X133492309Y-43290380D01*
X133778023Y-43290380D01*
X133873261Y-43242761D01*
X133920880Y-43195142D01*
X132873261Y-42909428D02*
X132111357Y-42909428D01*
X131635166Y-42623714D02*
X130873261Y-42909428D01*
X131635166Y-43195142D01*
X130397071Y-42290380D02*
X130397071Y-43099904D01*
X130349452Y-43195142D01*
X130301833Y-43242761D01*
X130206595Y-43290380D01*
X130016119Y-43290380D01*
X129920880Y-43242761D01*
X129873261Y-43195142D01*
X129825642Y-43099904D01*
X129825642Y-42290380D01*
X129444690Y-43290380D02*
X128920880Y-42623714D01*
X129444690Y-42623714D02*
X128920880Y-43290380D01*
X128778023Y-43385619D02*
X128016119Y-43385619D01*
X127920880Y-42290380D02*
X127587547Y-43290380D01*
X127254214Y-42290380D01*
X126349452Y-43195142D02*
X126397071Y-43242761D01*
X126539928Y-43290380D01*
X126635166Y-43290380D01*
X126778023Y-43242761D01*
X126873261Y-43147523D01*
X126920880Y-43052285D01*
X126968500Y-42861809D01*
X126968500Y-42718952D01*
X126920880Y-42528476D01*
X126873261Y-42433238D01*
X126778023Y-42338000D01*
X126635166Y-42290380D01*
X126539928Y-42290380D01*
X126397071Y-42338000D01*
X126349452Y-42385619D01*
X125349452Y-43195142D02*
X125397071Y-43242761D01*
X125539928Y-43290380D01*
X125635166Y-43290380D01*
X125778023Y-43242761D01*
X125873261Y-43147523D01*
X125920880Y-43052285D01*
X125968500Y-42861809D01*
X125968500Y-42718952D01*
X125920880Y-42528476D01*
X125873261Y-42433238D01*
X125778023Y-42338000D01*
X125635166Y-42290380D01*
X125539928Y-42290380D01*
X125397071Y-42338000D01*
X125349452Y-42385619D01*
X146444690Y-43900380D02*
X146444690Y-44614666D01*
X146492309Y-44757523D01*
X146587547Y-44852761D01*
X146730404Y-44900380D01*
X146825642Y-44900380D01*
X145968500Y-44900380D02*
X145968500Y-43900380D01*
X145587547Y-43900380D01*
X145492309Y-43948000D01*
X145444690Y-43995619D01*
X145397071Y-44090857D01*
X145397071Y-44233714D01*
X145444690Y-44328952D01*
X145492309Y-44376571D01*
X145587547Y-44424190D01*
X145968500Y-44424190D01*
X144016119Y-43900380D02*
X143920880Y-43900380D01*
X143825642Y-43948000D01*
X143778023Y-43995619D01*
X143730404Y-44090857D01*
X143682785Y-44281333D01*
X143682785Y-44519428D01*
X143730404Y-44709904D01*
X143778023Y-44805142D01*
X143825642Y-44852761D01*
X143920880Y-44900380D01*
X144016119Y-44900380D01*
X144111357Y-44852761D01*
X144158976Y-44805142D01*
X144206595Y-44709904D01*
X144254214Y-44519428D01*
X144254214Y-44281333D01*
X144206595Y-44090857D01*
X144158976Y-43995619D01*
X144111357Y-43948000D01*
X144016119Y-43900380D01*
X143111357Y-44328952D02*
X143206595Y-44281333D01*
X143254214Y-44233714D01*
X143301833Y-44138476D01*
X143301833Y-44090857D01*
X143254214Y-43995619D01*
X143206595Y-43948000D01*
X143111357Y-43900380D01*
X142920880Y-43900380D01*
X142825642Y-43948000D01*
X142778023Y-43995619D01*
X142730404Y-44090857D01*
X142730404Y-44138476D01*
X142778023Y-44233714D01*
X142825642Y-44281333D01*
X142920880Y-44328952D01*
X143111357Y-44328952D01*
X143206595Y-44376571D01*
X143254214Y-44424190D01*
X143301833Y-44519428D01*
X143301833Y-44709904D01*
X143254214Y-44805142D01*
X143206595Y-44852761D01*
X143111357Y-44900380D01*
X142920880Y-44900380D01*
X142825642Y-44852761D01*
X142778023Y-44805142D01*
X142730404Y-44709904D01*
X142730404Y-44519428D01*
X142778023Y-44424190D01*
X142825642Y-44376571D01*
X142920880Y-44328952D01*
X142063738Y-45233714D02*
X142063738Y-43805142D01*
X140825642Y-44900380D02*
X141397071Y-44900380D01*
X141111357Y-44900380D02*
X141111357Y-43900380D01*
X141206595Y-44043238D01*
X141301833Y-44138476D01*
X141397071Y-44186095D01*
X139920880Y-43900380D02*
X140397071Y-43900380D01*
X140444690Y-44376571D01*
X140397071Y-44328952D01*
X140301833Y-44281333D01*
X140063738Y-44281333D01*
X139968500Y-44328952D01*
X139920880Y-44376571D01*
X139873261Y-44471809D01*
X139873261Y-44709904D01*
X139920880Y-44805142D01*
X139968500Y-44852761D01*
X140063738Y-44900380D01*
X140301833Y-44900380D01*
X140397071Y-44852761D01*
X140444690Y-44805142D01*
X139206595Y-45233714D02*
X139206595Y-43805142D01*
X138539928Y-43995619D02*
X138492309Y-43948000D01*
X138397071Y-43900380D01*
X138158976Y-43900380D01*
X138063738Y-43948000D01*
X138016119Y-43995619D01*
X137968500Y-44090857D01*
X137968500Y-44186095D01*
X138016119Y-44328952D01*
X138587547Y-44900380D01*
X137968500Y-44900380D01*
X137587547Y-43995619D02*
X137539928Y-43948000D01*
X137444690Y-43900380D01*
X137206595Y-43900380D01*
X137111357Y-43948000D01*
X137063738Y-43995619D01*
X137016119Y-44090857D01*
X137016119Y-44186095D01*
X137063738Y-44328952D01*
X137635166Y-44900380D01*
X137016119Y-44900380D01*
X136349452Y-45233714D02*
X136349452Y-43805142D01*
X135111357Y-43948000D02*
X135206595Y-43900380D01*
X135349452Y-43900380D01*
X135492309Y-43948000D01*
X135587547Y-44043238D01*
X135635166Y-44138476D01*
X135682785Y-44328952D01*
X135682785Y-44471809D01*
X135635166Y-44662285D01*
X135587547Y-44757523D01*
X135492309Y-44852761D01*
X135349452Y-44900380D01*
X135254214Y-44900380D01*
X135111357Y-44852761D01*
X135063738Y-44805142D01*
X135063738Y-44471809D01*
X135254214Y-44471809D01*
X134635166Y-44900380D02*
X134635166Y-43900380D01*
X134063738Y-44900380D01*
X134063738Y-43900380D01*
X133587547Y-44900380D02*
X133587547Y-43900380D01*
X133349452Y-43900380D01*
X133206595Y-43948000D01*
X133111357Y-44043238D01*
X133063738Y-44138476D01*
X133016119Y-44328952D01*
X133016119Y-44471809D01*
X133063738Y-44662285D01*
X133111357Y-44757523D01*
X133206595Y-44852761D01*
X133349452Y-44900380D01*
X133587547Y-44900380D01*
X132587547Y-44519428D02*
X131825642Y-44519428D01*
X131349452Y-44233714D02*
X130587547Y-44519428D01*
X131349452Y-44805142D01*
X130111357Y-43900380D02*
X130111357Y-44709904D01*
X130063738Y-44805142D01*
X130016119Y-44852761D01*
X129920880Y-44900380D01*
X129730404Y-44900380D01*
X129635166Y-44852761D01*
X129587547Y-44805142D01*
X129539928Y-44709904D01*
X129539928Y-43900380D01*
X129158976Y-44900380D02*
X128635166Y-44233714D01*
X129158976Y-44233714D02*
X128635166Y-44900380D01*
X128492309Y-44995619D02*
X127730404Y-44995619D01*
X126968500Y-43948000D02*
X127063738Y-43900380D01*
X127206595Y-43900380D01*
X127349452Y-43948000D01*
X127444690Y-44043238D01*
X127492309Y-44138476D01*
X127539928Y-44328952D01*
X127539928Y-44471809D01*
X127492309Y-44662285D01*
X127444690Y-44757523D01*
X127349452Y-44852761D01*
X127206595Y-44900380D01*
X127111357Y-44900380D01*
X126968500Y-44852761D01*
X126920880Y-44805142D01*
X126920880Y-44471809D01*
X127111357Y-44471809D01*
X126492309Y-44900380D02*
X126492309Y-43900380D01*
X125920880Y-44900380D01*
X125920880Y-43900380D01*
X125444690Y-44900380D02*
X125444690Y-43900380D01*
X125206595Y-43900380D01*
X125063738Y-43948000D01*
X124968500Y-44043238D01*
X124920880Y-44138476D01*
X124873261Y-44328952D01*
X124873261Y-44471809D01*
X124920880Y-44662285D01*
X124968500Y-44757523D01*
X125063738Y-44852761D01*
X125206595Y-44900380D01*
X125444690Y-44900380D01*
X146444690Y-45510380D02*
X146444690Y-46224666D01*
X146492309Y-46367523D01*
X146587547Y-46462761D01*
X146730404Y-46510380D01*
X146825642Y-46510380D01*
X145968500Y-46510380D02*
X145968500Y-45510380D01*
X145587547Y-45510380D01*
X145492309Y-45558000D01*
X145444690Y-45605619D01*
X145397071Y-45700857D01*
X145397071Y-45843714D01*
X145444690Y-45938952D01*
X145492309Y-45986571D01*
X145587547Y-46034190D01*
X145968500Y-46034190D01*
X144016119Y-45510380D02*
X143920880Y-45510380D01*
X143825642Y-45558000D01*
X143778023Y-45605619D01*
X143730404Y-45700857D01*
X143682785Y-45891333D01*
X143682785Y-46129428D01*
X143730404Y-46319904D01*
X143778023Y-46415142D01*
X143825642Y-46462761D01*
X143920880Y-46510380D01*
X144016119Y-46510380D01*
X144111357Y-46462761D01*
X144158976Y-46415142D01*
X144206595Y-46319904D01*
X144254214Y-46129428D01*
X144254214Y-45891333D01*
X144206595Y-45700857D01*
X144158976Y-45605619D01*
X144111357Y-45558000D01*
X144016119Y-45510380D01*
X143206595Y-46510380D02*
X143016119Y-46510380D01*
X142920880Y-46462761D01*
X142873261Y-46415142D01*
X142778023Y-46272285D01*
X142730404Y-46081809D01*
X142730404Y-45700857D01*
X142778023Y-45605619D01*
X142825642Y-45558000D01*
X142920880Y-45510380D01*
X143111357Y-45510380D01*
X143206595Y-45558000D01*
X143254214Y-45605619D01*
X143301833Y-45700857D01*
X143301833Y-45938952D01*
X143254214Y-46034190D01*
X143206595Y-46081809D01*
X143111357Y-46129428D01*
X142920880Y-46129428D01*
X142825642Y-46081809D01*
X142778023Y-46034190D01*
X142730404Y-45938952D01*
X142063738Y-46843714D02*
X142063738Y-45415142D01*
X140825642Y-46510380D02*
X141397071Y-46510380D01*
X141111357Y-46510380D02*
X141111357Y-45510380D01*
X141206595Y-45653238D01*
X141301833Y-45748476D01*
X141397071Y-45796095D01*
X139968500Y-45510380D02*
X140158976Y-45510380D01*
X140254214Y-45558000D01*
X140301833Y-45605619D01*
X140397071Y-45748476D01*
X140444690Y-45938952D01*
X140444690Y-46319904D01*
X140397071Y-46415142D01*
X140349452Y-46462761D01*
X140254214Y-46510380D01*
X140063738Y-46510380D01*
X139968500Y-46462761D01*
X139920880Y-46415142D01*
X139873261Y-46319904D01*
X139873261Y-46081809D01*
X139920880Y-45986571D01*
X139968500Y-45938952D01*
X140063738Y-45891333D01*
X140254214Y-45891333D01*
X140349452Y-45938952D01*
X140397071Y-45986571D01*
X140444690Y-46081809D01*
X139206595Y-46843714D02*
X139206595Y-45415142D01*
X138539928Y-45605619D02*
X138492309Y-45558000D01*
X138397071Y-45510380D01*
X138158976Y-45510380D01*
X138063738Y-45558000D01*
X138016119Y-45605619D01*
X137968500Y-45700857D01*
X137968500Y-45796095D01*
X138016119Y-45938952D01*
X138587547Y-46510380D01*
X137968500Y-46510380D01*
X137635166Y-45510380D02*
X137016119Y-45510380D01*
X137349452Y-45891333D01*
X137206595Y-45891333D01*
X137111357Y-45938952D01*
X137063738Y-45986571D01*
X137016119Y-46081809D01*
X137016119Y-46319904D01*
X137063738Y-46415142D01*
X137111357Y-46462761D01*
X137206595Y-46510380D01*
X137492309Y-46510380D01*
X137587547Y-46462761D01*
X137635166Y-46415142D01*
X136349452Y-46843714D02*
X136349452Y-45415142D01*
X135635166Y-45510380D02*
X135635166Y-46319904D01*
X135587547Y-46415142D01*
X135539928Y-46462761D01*
X135444690Y-46510380D01*
X135254214Y-46510380D01*
X135158976Y-46462761D01*
X135111357Y-46415142D01*
X135063738Y-46319904D01*
X135063738Y-45510380D01*
X134682785Y-46510380D02*
X134158976Y-45843714D01*
X134682785Y-45843714D02*
X134158976Y-46510380D01*
X133206595Y-46510380D02*
X133539928Y-46034190D01*
X133778023Y-46510380D02*
X133778023Y-45510380D01*
X133397071Y-45510380D01*
X133301833Y-45558000D01*
X133254214Y-45605619D01*
X133206595Y-45700857D01*
X133206595Y-45843714D01*
X133254214Y-45938952D01*
X133301833Y-45986571D01*
X133397071Y-46034190D01*
X133778023Y-46034190D01*
X132873261Y-45510380D02*
X132206595Y-46510380D01*
X132206595Y-45510380D02*
X132873261Y-46510380D01*
X131825642Y-46129428D02*
X131063738Y-46129428D01*
X130587547Y-45843714D02*
X129825642Y-46129428D01*
X130587547Y-46415142D01*
X129349452Y-45510380D02*
X129349452Y-46319904D01*
X129301833Y-46415142D01*
X129254214Y-46462761D01*
X129158976Y-46510380D01*
X128968500Y-46510380D01*
X128873261Y-46462761D01*
X128825642Y-46415142D01*
X128778023Y-46319904D01*
X128778023Y-45510380D01*
X128397071Y-46510380D02*
X127873261Y-45843714D01*
X128397071Y-45843714D02*
X127873261Y-46510380D01*
X126920880Y-46510380D02*
X127254214Y-46034190D01*
X127492309Y-46510380D02*
X127492309Y-45510380D01*
X127111357Y-45510380D01*
X127016119Y-45558000D01*
X126968500Y-45605619D01*
X126920880Y-45700857D01*
X126920880Y-45843714D01*
X126968500Y-45938952D01*
X127016119Y-45986571D01*
X127111357Y-46034190D01*
X127492309Y-46034190D01*
X126587547Y-45510380D02*
X125920880Y-46510380D01*
X125920880Y-45510380D02*
X126587547Y-46510380D01*
X125778023Y-46605619D02*
X125016119Y-46605619D01*
X124825642Y-46462761D02*
X124682785Y-46510380D01*
X124444690Y-46510380D01*
X124349452Y-46462761D01*
X124301833Y-46415142D01*
X124254214Y-46319904D01*
X124254214Y-46224666D01*
X124301833Y-46129428D01*
X124349452Y-46081809D01*
X124444690Y-46034190D01*
X124635166Y-45986571D01*
X124730404Y-45938952D01*
X124778023Y-45891333D01*
X124825642Y-45796095D01*
X124825642Y-45700857D01*
X124778023Y-45605619D01*
X124730404Y-45558000D01*
X124635166Y-45510380D01*
X124397071Y-45510380D01*
X124254214Y-45558000D01*
X146444690Y-47120380D02*
X146444690Y-47834666D01*
X146492309Y-47977523D01*
X146587547Y-48072761D01*
X146730404Y-48120380D01*
X146825642Y-48120380D01*
X145968500Y-48120380D02*
X145968500Y-47120380D01*
X145587547Y-47120380D01*
X145492309Y-47168000D01*
X145444690Y-47215619D01*
X145397071Y-47310857D01*
X145397071Y-47453714D01*
X145444690Y-47548952D01*
X145492309Y-47596571D01*
X145587547Y-47644190D01*
X145968500Y-47644190D01*
X143682785Y-48120380D02*
X144254214Y-48120380D01*
X143968500Y-48120380D02*
X143968500Y-47120380D01*
X144063738Y-47263238D01*
X144158976Y-47358476D01*
X144254214Y-47406095D01*
X143063738Y-47120380D02*
X142968500Y-47120380D01*
X142873261Y-47168000D01*
X142825642Y-47215619D01*
X142778023Y-47310857D01*
X142730404Y-47501333D01*
X142730404Y-47739428D01*
X142778023Y-47929904D01*
X142825642Y-48025142D01*
X142873261Y-48072761D01*
X142968500Y-48120380D01*
X143063738Y-48120380D01*
X143158976Y-48072761D01*
X143206595Y-48025142D01*
X143254214Y-47929904D01*
X143301833Y-47739428D01*
X143301833Y-47501333D01*
X143254214Y-47310857D01*
X143206595Y-47215619D01*
X143158976Y-47168000D01*
X143063738Y-47120380D01*
X142063738Y-48453714D02*
X142063738Y-47025142D01*
X140825642Y-48120380D02*
X141397071Y-48120380D01*
X141111357Y-48120380D02*
X141111357Y-47120380D01*
X141206595Y-47263238D01*
X141301833Y-47358476D01*
X141397071Y-47406095D01*
X140492309Y-47120380D02*
X139825642Y-47120380D01*
X140254214Y-48120380D01*
X139206595Y-48453714D02*
X139206595Y-47025142D01*
X138539928Y-47215619D02*
X138492309Y-47168000D01*
X138397071Y-47120380D01*
X138158976Y-47120380D01*
X138063738Y-47168000D01*
X138016119Y-47215619D01*
X137968500Y-47310857D01*
X137968500Y-47406095D01*
X138016119Y-47548952D01*
X138587547Y-48120380D01*
X137968500Y-48120380D01*
X137111357Y-47453714D02*
X137111357Y-48120380D01*
X137349452Y-47072761D02*
X137587547Y-47787047D01*
X136968500Y-47787047D01*
X136349452Y-48453714D02*
X136349452Y-47025142D01*
X135635166Y-47120380D02*
X135635166Y-47929904D01*
X135587547Y-48025142D01*
X135539928Y-48072761D01*
X135444690Y-48120380D01*
X135254214Y-48120380D01*
X135158976Y-48072761D01*
X135111357Y-48025142D01*
X135063738Y-47929904D01*
X135063738Y-47120380D01*
X134682785Y-48120380D02*
X134158976Y-47453714D01*
X134682785Y-47453714D02*
X134158976Y-48120380D01*
X133920880Y-47120380D02*
X133349452Y-47120380D01*
X133635166Y-48120380D02*
X133635166Y-47120380D01*
X133111357Y-47120380D02*
X132444690Y-48120380D01*
X132444690Y-47120380D02*
X133111357Y-48120380D01*
X132063738Y-47739428D02*
X131301833Y-47739428D01*
X130825642Y-47453714D02*
X130063738Y-47739428D01*
X130825642Y-48025142D01*
X129587547Y-47120380D02*
X129587547Y-47929904D01*
X129539928Y-48025142D01*
X129492309Y-48072761D01*
X129397071Y-48120380D01*
X129206595Y-48120380D01*
X129111357Y-48072761D01*
X129063738Y-48025142D01*
X129016119Y-47929904D01*
X129016119Y-47120380D01*
X128635166Y-48120380D02*
X128111357Y-47453714D01*
X128635166Y-47453714D02*
X128111357Y-48120380D01*
X127873261Y-47120380D02*
X127301833Y-47120380D01*
X127587547Y-48120380D02*
X127587547Y-47120380D01*
X127063738Y-47120380D02*
X126397071Y-48120380D01*
X126397071Y-47120380D02*
X127063738Y-48120380D01*
X126254214Y-48215619D02*
X125492309Y-48215619D01*
X125301833Y-48072761D02*
X125158976Y-48120380D01*
X124920880Y-48120380D01*
X124825642Y-48072761D01*
X124778023Y-48025142D01*
X124730404Y-47929904D01*
X124730404Y-47834666D01*
X124778023Y-47739428D01*
X124825642Y-47691809D01*
X124920880Y-47644190D01*
X125111357Y-47596571D01*
X125206595Y-47548952D01*
X125254214Y-47501333D01*
X125301833Y-47406095D01*
X125301833Y-47310857D01*
X125254214Y-47215619D01*
X125206595Y-47168000D01*
X125111357Y-47120380D01*
X124873261Y-47120380D01*
X124730404Y-47168000D01*
X146444690Y-48730380D02*
X146444690Y-49444666D01*
X146492309Y-49587523D01*
X146587547Y-49682761D01*
X146730404Y-49730380D01*
X146825642Y-49730380D01*
X145968500Y-49730380D02*
X145968500Y-48730380D01*
X145587547Y-48730380D01*
X145492309Y-48778000D01*
X145444690Y-48825619D01*
X145397071Y-48920857D01*
X145397071Y-49063714D01*
X145444690Y-49158952D01*
X145492309Y-49206571D01*
X145587547Y-49254190D01*
X145968500Y-49254190D01*
X143682785Y-49730380D02*
X144254214Y-49730380D01*
X143968500Y-49730380D02*
X143968500Y-48730380D01*
X144063738Y-48873238D01*
X144158976Y-48968476D01*
X144254214Y-49016095D01*
X142730404Y-49730380D02*
X143301833Y-49730380D01*
X143016119Y-49730380D02*
X143016119Y-48730380D01*
X143111357Y-48873238D01*
X143206595Y-48968476D01*
X143301833Y-49016095D01*
X142063738Y-50063714D02*
X142063738Y-48635142D01*
X140825642Y-49730380D02*
X141397071Y-49730380D01*
X141111357Y-49730380D02*
X141111357Y-48730380D01*
X141206595Y-48873238D01*
X141301833Y-48968476D01*
X141397071Y-49016095D01*
X140254214Y-49158952D02*
X140349452Y-49111333D01*
X140397071Y-49063714D01*
X140444690Y-48968476D01*
X140444690Y-48920857D01*
X140397071Y-48825619D01*
X140349452Y-48778000D01*
X140254214Y-48730380D01*
X140063738Y-48730380D01*
X139968500Y-48778000D01*
X139920880Y-48825619D01*
X139873261Y-48920857D01*
X139873261Y-48968476D01*
X139920880Y-49063714D01*
X139968500Y-49111333D01*
X140063738Y-49158952D01*
X140254214Y-49158952D01*
X140349452Y-49206571D01*
X140397071Y-49254190D01*
X140444690Y-49349428D01*
X140444690Y-49539904D01*
X140397071Y-49635142D01*
X140349452Y-49682761D01*
X140254214Y-49730380D01*
X140063738Y-49730380D01*
X139968500Y-49682761D01*
X139920880Y-49635142D01*
X139873261Y-49539904D01*
X139873261Y-49349428D01*
X139920880Y-49254190D01*
X139968500Y-49206571D01*
X140063738Y-49158952D01*
X139206595Y-50063714D02*
X139206595Y-48635142D01*
X138539928Y-48825619D02*
X138492309Y-48778000D01*
X138397071Y-48730380D01*
X138158976Y-48730380D01*
X138063738Y-48778000D01*
X138016119Y-48825619D01*
X137968500Y-48920857D01*
X137968500Y-49016095D01*
X138016119Y-49158952D01*
X138587547Y-49730380D01*
X137968500Y-49730380D01*
X137063738Y-48730380D02*
X137539928Y-48730380D01*
X137587547Y-49206571D01*
X137539928Y-49158952D01*
X137444690Y-49111333D01*
X137206595Y-49111333D01*
X137111357Y-49158952D01*
X137063738Y-49206571D01*
X137016119Y-49301809D01*
X137016119Y-49539904D01*
X137063738Y-49635142D01*
X137111357Y-49682761D01*
X137206595Y-49730380D01*
X137444690Y-49730380D01*
X137539928Y-49682761D01*
X137587547Y-49635142D01*
X136349452Y-50063714D02*
X136349452Y-48635142D01*
X135635166Y-48730380D02*
X135635166Y-49539904D01*
X135587547Y-49635142D01*
X135539928Y-49682761D01*
X135444690Y-49730380D01*
X135254214Y-49730380D01*
X135158976Y-49682761D01*
X135111357Y-49635142D01*
X135063738Y-49539904D01*
X135063738Y-48730380D01*
X134682785Y-49730380D02*
X134158976Y-49063714D01*
X134682785Y-49063714D02*
X134158976Y-49730380D01*
X133206595Y-49730380D02*
X133539928Y-49254190D01*
X133778023Y-49730380D02*
X133778023Y-48730380D01*
X133397071Y-48730380D01*
X133301833Y-48778000D01*
X133254214Y-48825619D01*
X133206595Y-48920857D01*
X133206595Y-49063714D01*
X133254214Y-49158952D01*
X133301833Y-49206571D01*
X133397071Y-49254190D01*
X133778023Y-49254190D01*
X132873261Y-48730380D02*
X132206595Y-49730380D01*
X132206595Y-48730380D02*
X132873261Y-49730380D01*
X132063738Y-49825619D02*
X131301833Y-49825619D01*
X131111357Y-49682761D02*
X130968500Y-49730380D01*
X130730404Y-49730380D01*
X130635166Y-49682761D01*
X130587547Y-49635142D01*
X130539928Y-49539904D01*
X130539928Y-49444666D01*
X130587547Y-49349428D01*
X130635166Y-49301809D01*
X130730404Y-49254190D01*
X130920880Y-49206571D01*
X131016119Y-49158952D01*
X131063738Y-49111333D01*
X131111357Y-49016095D01*
X131111357Y-48920857D01*
X131063738Y-48825619D01*
X131016119Y-48778000D01*
X130920880Y-48730380D01*
X130682785Y-48730380D01*
X130539928Y-48778000D01*
X130111357Y-49349428D02*
X129349452Y-49349428D01*
X128873261Y-49063714D02*
X128111357Y-49349428D01*
X128873261Y-49635142D01*
X127635166Y-48730380D02*
X127635166Y-49539904D01*
X127587547Y-49635142D01*
X127539928Y-49682761D01*
X127444690Y-49730380D01*
X127254214Y-49730380D01*
X127158976Y-49682761D01*
X127111357Y-49635142D01*
X127063738Y-49539904D01*
X127063738Y-48730380D01*
X126682785Y-49730380D02*
X126158976Y-49063714D01*
X126682785Y-49063714D02*
X126158976Y-49730380D01*
X125206595Y-49730380D02*
X125539928Y-49254190D01*
X125778023Y-49730380D02*
X125778023Y-48730380D01*
X125397071Y-48730380D01*
X125301833Y-48778000D01*
X125254214Y-48825619D01*
X125206595Y-48920857D01*
X125206595Y-49063714D01*
X125254214Y-49158952D01*
X125301833Y-49206571D01*
X125397071Y-49254190D01*
X125778023Y-49254190D01*
X124873261Y-48730380D02*
X124206595Y-49730380D01*
X124206595Y-48730380D02*
X124873261Y-49730380D01*
X124063738Y-49825619D02*
X123301833Y-49825619D01*
X122873261Y-48730380D02*
X122682785Y-48730380D01*
X122587547Y-48778000D01*
X122492309Y-48873238D01*
X122444690Y-49063714D01*
X122444690Y-49397047D01*
X122492309Y-49587523D01*
X122587547Y-49682761D01*
X122682785Y-49730380D01*
X122873261Y-49730380D01*
X122968500Y-49682761D01*
X123063738Y-49587523D01*
X123111357Y-49397047D01*
X123111357Y-49063714D01*
X123063738Y-48873238D01*
X122968500Y-48778000D01*
X122873261Y-48730380D01*
X146444690Y-50340380D02*
X146444690Y-51054666D01*
X146492309Y-51197523D01*
X146587547Y-51292761D01*
X146730404Y-51340380D01*
X146825642Y-51340380D01*
X145968500Y-51340380D02*
X145968500Y-50340380D01*
X145587547Y-50340380D01*
X145492309Y-50388000D01*
X145444690Y-50435619D01*
X145397071Y-50530857D01*
X145397071Y-50673714D01*
X145444690Y-50768952D01*
X145492309Y-50816571D01*
X145587547Y-50864190D01*
X145968500Y-50864190D01*
X143682785Y-51340380D02*
X144254214Y-51340380D01*
X143968500Y-51340380D02*
X143968500Y-50340380D01*
X144063738Y-50483238D01*
X144158976Y-50578476D01*
X144254214Y-50626095D01*
X143301833Y-50435619D02*
X143254214Y-50388000D01*
X143158976Y-50340380D01*
X142920880Y-50340380D01*
X142825642Y-50388000D01*
X142778023Y-50435619D01*
X142730404Y-50530857D01*
X142730404Y-50626095D01*
X142778023Y-50768952D01*
X143349452Y-51340380D01*
X142730404Y-51340380D01*
X142063738Y-51673714D02*
X142063738Y-50245142D01*
X140825642Y-51340380D02*
X141397071Y-51340380D01*
X141111357Y-51340380D02*
X141111357Y-50340380D01*
X141206595Y-50483238D01*
X141301833Y-50578476D01*
X141397071Y-50626095D01*
X140349452Y-51340380D02*
X140158976Y-51340380D01*
X140063738Y-51292761D01*
X140016119Y-51245142D01*
X139920880Y-51102285D01*
X139873261Y-50911809D01*
X139873261Y-50530857D01*
X139920880Y-50435619D01*
X139968500Y-50388000D01*
X140063738Y-50340380D01*
X140254214Y-50340380D01*
X140349452Y-50388000D01*
X140397071Y-50435619D01*
X140444690Y-50530857D01*
X140444690Y-50768952D01*
X140397071Y-50864190D01*
X140349452Y-50911809D01*
X140254214Y-50959428D01*
X140063738Y-50959428D01*
X139968500Y-50911809D01*
X139920880Y-50864190D01*
X139873261Y-50768952D01*
X139206595Y-51673714D02*
X139206595Y-50245142D01*
X138539928Y-50435619D02*
X138492309Y-50388000D01*
X138397071Y-50340380D01*
X138158976Y-50340380D01*
X138063738Y-50388000D01*
X138016119Y-50435619D01*
X137968500Y-50530857D01*
X137968500Y-50626095D01*
X138016119Y-50768952D01*
X138587547Y-51340380D01*
X137968500Y-51340380D01*
X137111357Y-50340380D02*
X137301833Y-50340380D01*
X137397071Y-50388000D01*
X137444690Y-50435619D01*
X137539928Y-50578476D01*
X137587547Y-50768952D01*
X137587547Y-51149904D01*
X137539928Y-51245142D01*
X137492309Y-51292761D01*
X137397071Y-51340380D01*
X137206595Y-51340380D01*
X137111357Y-51292761D01*
X137063738Y-51245142D01*
X137016119Y-51149904D01*
X137016119Y-50911809D01*
X137063738Y-50816571D01*
X137111357Y-50768952D01*
X137206595Y-50721333D01*
X137397071Y-50721333D01*
X137492309Y-50768952D01*
X137539928Y-50816571D01*
X137587547Y-50911809D01*
X136349452Y-51673714D02*
X136349452Y-50245142D01*
X135635166Y-50340380D02*
X135635166Y-51149904D01*
X135587547Y-51245142D01*
X135539928Y-51292761D01*
X135444690Y-51340380D01*
X135254214Y-51340380D01*
X135158976Y-51292761D01*
X135111357Y-51245142D01*
X135063738Y-51149904D01*
X135063738Y-50340380D01*
X134682785Y-51340380D02*
X134158976Y-50673714D01*
X134682785Y-50673714D02*
X134158976Y-51340380D01*
X133920880Y-50340380D02*
X133349452Y-50340380D01*
X133635166Y-51340380D02*
X133635166Y-50340380D01*
X133111357Y-50340380D02*
X132444690Y-51340380D01*
X132444690Y-50340380D02*
X133111357Y-51340380D01*
X132301833Y-51435619D02*
X131539928Y-51435619D01*
X131349452Y-51292761D02*
X131206595Y-51340380D01*
X130968500Y-51340380D01*
X130873261Y-51292761D01*
X130825642Y-51245142D01*
X130778023Y-51149904D01*
X130778023Y-51054666D01*
X130825642Y-50959428D01*
X130873261Y-50911809D01*
X130968500Y-50864190D01*
X131158976Y-50816571D01*
X131254214Y-50768952D01*
X131301833Y-50721333D01*
X131349452Y-50626095D01*
X131349452Y-50530857D01*
X131301833Y-50435619D01*
X131254214Y-50388000D01*
X131158976Y-50340380D01*
X130920880Y-50340380D01*
X130778023Y-50388000D01*
X130349452Y-50959428D02*
X129587547Y-50959428D01*
X129111357Y-50673714D02*
X128349452Y-50959428D01*
X129111357Y-51245142D01*
X127873261Y-50340380D02*
X127873261Y-51149904D01*
X127825642Y-51245142D01*
X127778023Y-51292761D01*
X127682785Y-51340380D01*
X127492309Y-51340380D01*
X127397071Y-51292761D01*
X127349452Y-51245142D01*
X127301833Y-51149904D01*
X127301833Y-50340380D01*
X126920880Y-51340380D02*
X126397071Y-50673714D01*
X126920880Y-50673714D02*
X126397071Y-51340380D01*
X126158976Y-50340380D02*
X125587547Y-50340380D01*
X125873261Y-51340380D02*
X125873261Y-50340380D01*
X125349452Y-50340380D02*
X124682785Y-51340380D01*
X124682785Y-50340380D02*
X125349452Y-51340380D01*
X124539928Y-51435619D02*
X123778023Y-51435619D01*
X123349452Y-50340380D02*
X123158976Y-50340380D01*
X123063738Y-50388000D01*
X122968500Y-50483238D01*
X122920880Y-50673714D01*
X122920880Y-51007047D01*
X122968500Y-51197523D01*
X123063738Y-51292761D01*
X123158976Y-51340380D01*
X123349452Y-51340380D01*
X123444690Y-51292761D01*
X123539928Y-51197523D01*
X123587547Y-51007047D01*
X123587547Y-50673714D01*
X123539928Y-50483238D01*
X123444690Y-50388000D01*
X123349452Y-50340380D01*
X146444690Y-51950380D02*
X146444690Y-52664666D01*
X146492309Y-52807523D01*
X146587547Y-52902761D01*
X146730404Y-52950380D01*
X146825642Y-52950380D01*
X145968500Y-52950380D02*
X145968500Y-51950380D01*
X145587547Y-51950380D01*
X145492309Y-51998000D01*
X145444690Y-52045619D01*
X145397071Y-52140857D01*
X145397071Y-52283714D01*
X145444690Y-52378952D01*
X145492309Y-52426571D01*
X145587547Y-52474190D01*
X145968500Y-52474190D01*
X143682785Y-52950380D02*
X144254214Y-52950380D01*
X143968500Y-52950380D02*
X143968500Y-51950380D01*
X144063738Y-52093238D01*
X144158976Y-52188476D01*
X144254214Y-52236095D01*
X143349452Y-51950380D02*
X142730404Y-51950380D01*
X143063738Y-52331333D01*
X142920880Y-52331333D01*
X142825642Y-52378952D01*
X142778023Y-52426571D01*
X142730404Y-52521809D01*
X142730404Y-52759904D01*
X142778023Y-52855142D01*
X142825642Y-52902761D01*
X142920880Y-52950380D01*
X143206595Y-52950380D01*
X143301833Y-52902761D01*
X143349452Y-52855142D01*
X142063738Y-53283714D02*
X142063738Y-51855142D01*
X141397071Y-52045619D02*
X141349452Y-51998000D01*
X141254214Y-51950380D01*
X141016119Y-51950380D01*
X140920880Y-51998000D01*
X140873261Y-52045619D01*
X140825642Y-52140857D01*
X140825642Y-52236095D01*
X140873261Y-52378952D01*
X141444690Y-52950380D01*
X140825642Y-52950380D01*
X140206595Y-51950380D02*
X140111357Y-51950380D01*
X140016119Y-51998000D01*
X139968500Y-52045619D01*
X139920880Y-52140857D01*
X139873261Y-52331333D01*
X139873261Y-52569428D01*
X139920880Y-52759904D01*
X139968500Y-52855142D01*
X140016119Y-52902761D01*
X140111357Y-52950380D01*
X140206595Y-52950380D01*
X140301833Y-52902761D01*
X140349452Y-52855142D01*
X140397071Y-52759904D01*
X140444690Y-52569428D01*
X140444690Y-52331333D01*
X140397071Y-52140857D01*
X140349452Y-52045619D01*
X140301833Y-51998000D01*
X140206595Y-51950380D01*
X139206595Y-53283714D02*
X139206595Y-51855142D01*
X138539928Y-52045619D02*
X138492309Y-51998000D01*
X138397071Y-51950380D01*
X138158976Y-51950380D01*
X138063738Y-51998000D01*
X138016119Y-52045619D01*
X137968500Y-52140857D01*
X137968500Y-52236095D01*
X138016119Y-52378952D01*
X138587547Y-52950380D01*
X137968500Y-52950380D01*
X137635166Y-51950380D02*
X136968500Y-51950380D01*
X137397071Y-52950380D01*
X136349452Y-53283714D02*
X136349452Y-51855142D01*
X135635166Y-51950380D02*
X135635166Y-52759904D01*
X135587547Y-52855142D01*
X135539928Y-52902761D01*
X135444690Y-52950380D01*
X135254214Y-52950380D01*
X135158976Y-52902761D01*
X135111357Y-52855142D01*
X135063738Y-52759904D01*
X135063738Y-51950380D01*
X134682785Y-52950380D02*
X134158976Y-52283714D01*
X134682785Y-52283714D02*
X134158976Y-52950380D01*
X133206595Y-52950380D02*
X133539928Y-52474190D01*
X133778023Y-52950380D02*
X133778023Y-51950380D01*
X133397071Y-51950380D01*
X133301833Y-51998000D01*
X133254214Y-52045619D01*
X133206595Y-52140857D01*
X133206595Y-52283714D01*
X133254214Y-52378952D01*
X133301833Y-52426571D01*
X133397071Y-52474190D01*
X133778023Y-52474190D01*
X132873261Y-51950380D02*
X132206595Y-52950380D01*
X132206595Y-51950380D02*
X132873261Y-52950380D01*
X131968500Y-51950380D02*
X131397071Y-51950380D01*
X131682785Y-52950380D02*
X131682785Y-51950380D01*
X131158976Y-51950380D02*
X130492309Y-52950380D01*
X130492309Y-51950380D02*
X131158976Y-52950380D01*
X130349452Y-53045619D02*
X129587547Y-53045619D01*
X129349452Y-52426571D02*
X129016119Y-52426571D01*
X128873261Y-52950380D02*
X129349452Y-52950380D01*
X129349452Y-51950380D01*
X128873261Y-51950380D01*
X128444690Y-52950380D02*
X128444690Y-51950380D01*
X127873261Y-52950380D01*
X127873261Y-51950380D01*
X127397071Y-52569428D02*
X126635166Y-52569428D01*
X126158976Y-52283714D02*
X125397071Y-52569428D01*
X126158976Y-52855142D01*
X124920880Y-51950380D02*
X124920880Y-52759904D01*
X124873261Y-52855142D01*
X124825642Y-52902761D01*
X124730404Y-52950380D01*
X124539928Y-52950380D01*
X124444690Y-52902761D01*
X124397071Y-52855142D01*
X124349452Y-52759904D01*
X124349452Y-51950380D01*
X123968500Y-52950380D02*
X123444690Y-52283714D01*
X123968500Y-52283714D02*
X123444690Y-52950380D01*
X122492309Y-52950380D02*
X122825642Y-52474190D01*
X123063738Y-52950380D02*
X123063738Y-51950380D01*
X122682785Y-51950380D01*
X122587547Y-51998000D01*
X122539928Y-52045619D01*
X122492309Y-52140857D01*
X122492309Y-52283714D01*
X122539928Y-52378952D01*
X122587547Y-52426571D01*
X122682785Y-52474190D01*
X123063738Y-52474190D01*
X122158976Y-51950380D02*
X121492309Y-52950380D01*
X121492309Y-51950380D02*
X122158976Y-52950380D01*
X121254214Y-51950380D02*
X120682785Y-51950380D01*
X120968500Y-52950380D02*
X120968500Y-51950380D01*
X120444690Y-51950380D02*
X119778023Y-52950380D01*
X119778023Y-51950380D02*
X120444690Y-52950380D01*
X119635166Y-53045619D02*
X118873261Y-53045619D01*
X118635166Y-52426571D02*
X118301833Y-52426571D01*
X118158976Y-52950380D02*
X118635166Y-52950380D01*
X118635166Y-51950380D01*
X118158976Y-51950380D01*
X117730404Y-52950380D02*
X117730404Y-51950380D01*
X117158976Y-52950380D01*
X117158976Y-51950380D01*
X116730404Y-52902761D02*
X116635166Y-52950380D01*
X116444690Y-52950380D01*
X116349452Y-52902761D01*
X116301833Y-52807523D01*
X116301833Y-52759904D01*
X116349452Y-52664666D01*
X116444690Y-52617047D01*
X116587547Y-52617047D01*
X116682785Y-52569428D01*
X116730404Y-52474190D01*
X116730404Y-52426571D01*
X116682785Y-52331333D01*
X116587547Y-52283714D01*
X116444690Y-52283714D01*
X116349452Y-52331333D01*
X59556685Y-83053180D02*
X60128114Y-83053180D01*
X59842400Y-83053180D02*
X59842400Y-82053180D01*
X59937638Y-82196038D01*
X60032876Y-82291276D01*
X60128114Y-82338895D01*
X62370690Y-73696580D02*
X62370690Y-74410866D01*
X62418309Y-74553723D01*
X62513547Y-74648961D01*
X62656404Y-74696580D01*
X62751642Y-74696580D01*
X61894500Y-74696580D02*
X61894500Y-73696580D01*
X61513547Y-73696580D01*
X61418309Y-73744200D01*
X61370690Y-73791819D01*
X61323071Y-73887057D01*
X61323071Y-74029914D01*
X61370690Y-74125152D01*
X61418309Y-74172771D01*
X61513547Y-74220390D01*
X61894500Y-74220390D01*
X60942119Y-73791819D02*
X60894500Y-73744200D01*
X60799261Y-73696580D01*
X60561166Y-73696580D01*
X60465928Y-73744200D01*
X60418309Y-73791819D01*
X60370690Y-73887057D01*
X60370690Y-73982295D01*
X60418309Y-74125152D01*
X60989738Y-74696580D01*
X60370690Y-74696580D01*
X59799261Y-74125152D02*
X59894500Y-74077533D01*
X59942119Y-74029914D01*
X59989738Y-73934676D01*
X59989738Y-73887057D01*
X59942119Y-73791819D01*
X59894500Y-73744200D01*
X59799261Y-73696580D01*
X59608785Y-73696580D01*
X59513547Y-73744200D01*
X59465928Y-73791819D01*
X59418309Y-73887057D01*
X59418309Y-73934676D01*
X59465928Y-74029914D01*
X59513547Y-74077533D01*
X59608785Y-74125152D01*
X59799261Y-74125152D01*
X59894500Y-74172771D01*
X59942119Y-74220390D01*
X59989738Y-74315628D01*
X59989738Y-74506104D01*
X59942119Y-74601342D01*
X59894500Y-74648961D01*
X59799261Y-74696580D01*
X59608785Y-74696580D01*
X59513547Y-74648961D01*
X59465928Y-74601342D01*
X59418309Y-74506104D01*
X59418309Y-74315628D01*
X59465928Y-74220390D01*
X59513547Y-74172771D01*
X59608785Y-74125152D01*
X58989738Y-74601342D02*
X58942119Y-74648961D01*
X58989738Y-74696580D01*
X59037357Y-74648961D01*
X58989738Y-74601342D01*
X58989738Y-74696580D01*
X58989738Y-74077533D02*
X58942119Y-74125152D01*
X58989738Y-74172771D01*
X59037357Y-74125152D01*
X58989738Y-74077533D01*
X58989738Y-74172771D01*
X57894500Y-73696580D02*
X57561166Y-74696580D01*
X57227833Y-73696580D01*
X57132595Y-74791819D02*
X56370690Y-74791819D01*
X56132595Y-74696580D02*
X56132595Y-73696580D01*
X55656404Y-74696580D02*
X55656404Y-73696580D01*
X55084976Y-74696580D01*
X55084976Y-73696580D01*
X53846880Y-74315628D02*
X53084976Y-74315628D01*
X52608785Y-74029914D02*
X51846880Y-74315628D01*
X52608785Y-74601342D01*
X50608785Y-74315628D02*
X49846880Y-74315628D01*
X50227833Y-74696580D02*
X50227833Y-73934676D01*
X48894500Y-73696580D02*
X49370690Y-73696580D01*
X49418309Y-74172771D01*
X49370690Y-74125152D01*
X49275452Y-74077533D01*
X49037357Y-74077533D01*
X48942119Y-74125152D01*
X48894500Y-74172771D01*
X48846880Y-74268009D01*
X48846880Y-74506104D01*
X48894500Y-74601342D01*
X48942119Y-74648961D01*
X49037357Y-74696580D01*
X49275452Y-74696580D01*
X49370690Y-74648961D01*
X49418309Y-74601342D01*
X48561166Y-73696580D02*
X48227833Y-74696580D01*
X47894500Y-73696580D01*
%TO.C,JP14*%
X98337523Y-39177980D02*
X98337523Y-39892266D01*
X98385142Y-40035123D01*
X98480380Y-40130361D01*
X98623238Y-40177980D01*
X98718476Y-40177980D01*
X97861333Y-40177980D02*
X97861333Y-39177980D01*
X97480380Y-39177980D01*
X97385142Y-39225600D01*
X97337523Y-39273219D01*
X97289904Y-39368457D01*
X97289904Y-39511314D01*
X97337523Y-39606552D01*
X97385142Y-39654171D01*
X97480380Y-39701790D01*
X97861333Y-39701790D01*
X96337523Y-40177980D02*
X96908952Y-40177980D01*
X96623238Y-40177980D02*
X96623238Y-39177980D01*
X96718476Y-39320838D01*
X96813714Y-39416076D01*
X96908952Y-39463695D01*
X95480380Y-39511314D02*
X95480380Y-40177980D01*
X95718476Y-39130361D02*
X95956571Y-39844647D01*
X95337523Y-39844647D01*
%TO.C,JP25*%
X102576380Y-53910076D02*
X103290666Y-53910076D01*
X103433523Y-53862457D01*
X103528761Y-53767219D01*
X103576380Y-53624361D01*
X103576380Y-53529123D01*
X103576380Y-54386266D02*
X102576380Y-54386266D01*
X102576380Y-54767219D01*
X102624000Y-54862457D01*
X102671619Y-54910076D01*
X102766857Y-54957695D01*
X102909714Y-54957695D01*
X103004952Y-54910076D01*
X103052571Y-54862457D01*
X103100190Y-54767219D01*
X103100190Y-54386266D01*
X102671619Y-55338647D02*
X102624000Y-55386266D01*
X102576380Y-55481504D01*
X102576380Y-55719600D01*
X102624000Y-55814838D01*
X102671619Y-55862457D01*
X102766857Y-55910076D01*
X102862095Y-55910076D01*
X103004952Y-55862457D01*
X103576380Y-55291028D01*
X103576380Y-55910076D01*
X102576380Y-56814838D02*
X102576380Y-56338647D01*
X103052571Y-56291028D01*
X103004952Y-56338647D01*
X102957333Y-56433885D01*
X102957333Y-56671980D01*
X103004952Y-56767219D01*
X103052571Y-56814838D01*
X103147809Y-56862457D01*
X103385904Y-56862457D01*
X103481142Y-56814838D01*
X103528761Y-56767219D01*
X103576380Y-56671980D01*
X103576380Y-56433885D01*
X103528761Y-56338647D01*
X103481142Y-56291028D01*
%TO.C,JP11*%
X78090780Y-54392676D02*
X78805066Y-54392676D01*
X78947923Y-54345057D01*
X79043161Y-54249819D01*
X79090780Y-54106961D01*
X79090780Y-54011723D01*
X79090780Y-54868866D02*
X78090780Y-54868866D01*
X78090780Y-55249819D01*
X78138400Y-55345057D01*
X78186019Y-55392676D01*
X78281257Y-55440295D01*
X78424114Y-55440295D01*
X78519352Y-55392676D01*
X78566971Y-55345057D01*
X78614590Y-55249819D01*
X78614590Y-54868866D01*
X79090780Y-56392676D02*
X79090780Y-55821247D01*
X79090780Y-56106961D02*
X78090780Y-56106961D01*
X78233638Y-56011723D01*
X78328876Y-55916485D01*
X78376495Y-55821247D01*
X79090780Y-57345057D02*
X79090780Y-56773628D01*
X79090780Y-57059342D02*
X78090780Y-57059342D01*
X78233638Y-56964104D01*
X78328876Y-56868866D01*
X78376495Y-56773628D01*
%TO.C,JP9*%
X80081333Y-63739780D02*
X80081333Y-64454066D01*
X80128952Y-64596923D01*
X80224190Y-64692161D01*
X80367047Y-64739780D01*
X80462285Y-64739780D01*
X79605142Y-64739780D02*
X79605142Y-63739780D01*
X79224190Y-63739780D01*
X79128952Y-63787400D01*
X79081333Y-63835019D01*
X79033714Y-63930257D01*
X79033714Y-64073114D01*
X79081333Y-64168352D01*
X79128952Y-64215971D01*
X79224190Y-64263590D01*
X79605142Y-64263590D01*
X78557523Y-64739780D02*
X78367047Y-64739780D01*
X78271809Y-64692161D01*
X78224190Y-64644542D01*
X78128952Y-64501685D01*
X78081333Y-64311209D01*
X78081333Y-63930257D01*
X78128952Y-63835019D01*
X78176571Y-63787400D01*
X78271809Y-63739780D01*
X78462285Y-63739780D01*
X78557523Y-63787400D01*
X78605142Y-63835019D01*
X78652761Y-63930257D01*
X78652761Y-64168352D01*
X78605142Y-64263590D01*
X78557523Y-64311209D01*
X78462285Y-64358828D01*
X78271809Y-64358828D01*
X78176571Y-64311209D01*
X78128952Y-64263590D01*
X78081333Y-64168352D01*
%TO.C,TP5*%
X118152704Y-64628780D02*
X117581276Y-64628780D01*
X117866990Y-65628780D02*
X117866990Y-64628780D01*
X117247942Y-65628780D02*
X117247942Y-64628780D01*
X116866990Y-64628780D01*
X116771752Y-64676400D01*
X116724133Y-64724019D01*
X116676514Y-64819257D01*
X116676514Y-64962114D01*
X116724133Y-65057352D01*
X116771752Y-65104971D01*
X116866990Y-65152590D01*
X117247942Y-65152590D01*
X115771752Y-64628780D02*
X116247942Y-64628780D01*
X116295561Y-65104971D01*
X116247942Y-65057352D01*
X116152704Y-65009733D01*
X115914609Y-65009733D01*
X115819371Y-65057352D01*
X115771752Y-65104971D01*
X115724133Y-65200209D01*
X115724133Y-65438304D01*
X115771752Y-65533542D01*
X115819371Y-65581161D01*
X115914609Y-65628780D01*
X116152704Y-65628780D01*
X116247942Y-65581161D01*
X116295561Y-65533542D01*
%TO.C,JP19*%
X81268723Y-57618380D02*
X81268723Y-58332666D01*
X81316342Y-58475523D01*
X81411580Y-58570761D01*
X81554438Y-58618380D01*
X81649676Y-58618380D01*
X80792533Y-58618380D02*
X80792533Y-57618380D01*
X80411580Y-57618380D01*
X80316342Y-57666000D01*
X80268723Y-57713619D01*
X80221104Y-57808857D01*
X80221104Y-57951714D01*
X80268723Y-58046952D01*
X80316342Y-58094571D01*
X80411580Y-58142190D01*
X80792533Y-58142190D01*
X79268723Y-58618380D02*
X79840152Y-58618380D01*
X79554438Y-58618380D02*
X79554438Y-57618380D01*
X79649676Y-57761238D01*
X79744914Y-57856476D01*
X79840152Y-57904095D01*
X78792533Y-58618380D02*
X78602057Y-58618380D01*
X78506819Y-58570761D01*
X78459200Y-58523142D01*
X78363961Y-58380285D01*
X78316342Y-58189809D01*
X78316342Y-57808857D01*
X78363961Y-57713619D01*
X78411580Y-57666000D01*
X78506819Y-57618380D01*
X78697295Y-57618380D01*
X78792533Y-57666000D01*
X78840152Y-57713619D01*
X78887771Y-57808857D01*
X78887771Y-58046952D01*
X78840152Y-58142190D01*
X78792533Y-58189809D01*
X78697295Y-58237428D01*
X78506819Y-58237428D01*
X78411580Y-58189809D01*
X78363961Y-58142190D01*
X78316342Y-58046952D01*
%TO.C,D10*%
X80970285Y-76347580D02*
X80970285Y-75347580D01*
X80732190Y-75347580D01*
X80589333Y-75395200D01*
X80494095Y-75490438D01*
X80446476Y-75585676D01*
X80398857Y-75776152D01*
X80398857Y-75919009D01*
X80446476Y-76109485D01*
X80494095Y-76204723D01*
X80589333Y-76299961D01*
X80732190Y-76347580D01*
X80970285Y-76347580D01*
X79446476Y-76347580D02*
X80017904Y-76347580D01*
X79732190Y-76347580D02*
X79732190Y-75347580D01*
X79827428Y-75490438D01*
X79922666Y-75585676D01*
X80017904Y-75633295D01*
X78827428Y-75347580D02*
X78732190Y-75347580D01*
X78636952Y-75395200D01*
X78589333Y-75442819D01*
X78541714Y-75538057D01*
X78494095Y-75728533D01*
X78494095Y-75966628D01*
X78541714Y-76157104D01*
X78589333Y-76252342D01*
X78636952Y-76299961D01*
X78732190Y-76347580D01*
X78827428Y-76347580D01*
X78922666Y-76299961D01*
X78970285Y-76252342D01*
X79017904Y-76157104D01*
X79065523Y-75966628D01*
X79065523Y-75728533D01*
X79017904Y-75538057D01*
X78970285Y-75442819D01*
X78922666Y-75395200D01*
X78827428Y-75347580D01*
%TO.C,C44*%
X75776057Y-68683142D02*
X75823676Y-68730761D01*
X75966533Y-68778380D01*
X76061771Y-68778380D01*
X76204628Y-68730761D01*
X76299866Y-68635523D01*
X76347485Y-68540285D01*
X76395104Y-68349809D01*
X76395104Y-68206952D01*
X76347485Y-68016476D01*
X76299866Y-67921238D01*
X76204628Y-67826000D01*
X76061771Y-67778380D01*
X75966533Y-67778380D01*
X75823676Y-67826000D01*
X75776057Y-67873619D01*
X74918914Y-68111714D02*
X74918914Y-68778380D01*
X75157009Y-67730761D02*
X75395104Y-68445047D01*
X74776057Y-68445047D01*
X73966533Y-68111714D02*
X73966533Y-68778380D01*
X74204628Y-67730761D02*
X74442723Y-68445047D01*
X73823676Y-68445047D01*
%TO.C,U5*%
X104520904Y-64527180D02*
X104520904Y-65336704D01*
X104473285Y-65431942D01*
X104425666Y-65479561D01*
X104330428Y-65527180D01*
X104139952Y-65527180D01*
X104044714Y-65479561D01*
X103997095Y-65431942D01*
X103949476Y-65336704D01*
X103949476Y-64527180D01*
X102997095Y-64527180D02*
X103473285Y-64527180D01*
X103520904Y-65003371D01*
X103473285Y-64955752D01*
X103378047Y-64908133D01*
X103139952Y-64908133D01*
X103044714Y-64955752D01*
X102997095Y-65003371D01*
X102949476Y-65098609D01*
X102949476Y-65336704D01*
X102997095Y-65431942D01*
X103044714Y-65479561D01*
X103139952Y-65527180D01*
X103378047Y-65527180D01*
X103473285Y-65479561D01*
X103520904Y-65431942D01*
%TO.C,D9*%
X91263695Y-76347580D02*
X91263695Y-75347580D01*
X91025600Y-75347580D01*
X90882742Y-75395200D01*
X90787504Y-75490438D01*
X90739885Y-75585676D01*
X90692266Y-75776152D01*
X90692266Y-75919009D01*
X90739885Y-76109485D01*
X90787504Y-76204723D01*
X90882742Y-76299961D01*
X91025600Y-76347580D01*
X91263695Y-76347580D01*
X90216076Y-76347580D02*
X90025600Y-76347580D01*
X89930361Y-76299961D01*
X89882742Y-76252342D01*
X89787504Y-76109485D01*
X89739885Y-75919009D01*
X89739885Y-75538057D01*
X89787504Y-75442819D01*
X89835123Y-75395200D01*
X89930361Y-75347580D01*
X90120838Y-75347580D01*
X90216076Y-75395200D01*
X90263695Y-75442819D01*
X90311314Y-75538057D01*
X90311314Y-75776152D01*
X90263695Y-75871390D01*
X90216076Y-75919009D01*
X90120838Y-75966628D01*
X89930361Y-75966628D01*
X89835123Y-75919009D01*
X89787504Y-75871390D01*
X89739885Y-75776152D01*
%TO.C,JP3*%
X45943733Y-44511980D02*
X45943733Y-45226266D01*
X45991352Y-45369123D01*
X46086590Y-45464361D01*
X46229447Y-45511980D01*
X46324685Y-45511980D01*
X45467542Y-45511980D02*
X45467542Y-44511980D01*
X45086590Y-44511980D01*
X44991352Y-44559600D01*
X44943733Y-44607219D01*
X44896114Y-44702457D01*
X44896114Y-44845314D01*
X44943733Y-44940552D01*
X44991352Y-44988171D01*
X45086590Y-45035790D01*
X45467542Y-45035790D01*
X44562780Y-44511980D02*
X43943733Y-44511980D01*
X44277066Y-44892933D01*
X44134209Y-44892933D01*
X44038971Y-44940552D01*
X43991352Y-44988171D01*
X43943733Y-45083409D01*
X43943733Y-45321504D01*
X43991352Y-45416742D01*
X44038971Y-45464361D01*
X44134209Y-45511980D01*
X44419923Y-45511980D01*
X44515161Y-45464361D01*
X44562780Y-45416742D01*
%TO.C,JP30*%
X40527123Y-82662780D02*
X40527123Y-83377066D01*
X40574742Y-83519923D01*
X40669980Y-83615161D01*
X40812838Y-83662780D01*
X40908076Y-83662780D01*
X40050933Y-83662780D02*
X40050933Y-82662780D01*
X39669980Y-82662780D01*
X39574742Y-82710400D01*
X39527123Y-82758019D01*
X39479504Y-82853257D01*
X39479504Y-82996114D01*
X39527123Y-83091352D01*
X39574742Y-83138971D01*
X39669980Y-83186590D01*
X40050933Y-83186590D01*
X39146171Y-82662780D02*
X38527123Y-82662780D01*
X38860457Y-83043733D01*
X38717600Y-83043733D01*
X38622361Y-83091352D01*
X38574742Y-83138971D01*
X38527123Y-83234209D01*
X38527123Y-83472304D01*
X38574742Y-83567542D01*
X38622361Y-83615161D01*
X38717600Y-83662780D01*
X39003314Y-83662780D01*
X39098552Y-83615161D01*
X39146171Y-83567542D01*
X37908076Y-82662780D02*
X37812838Y-82662780D01*
X37717600Y-82710400D01*
X37669980Y-82758019D01*
X37622361Y-82853257D01*
X37574742Y-83043733D01*
X37574742Y-83281828D01*
X37622361Y-83472304D01*
X37669980Y-83567542D01*
X37717600Y-83615161D01*
X37812838Y-83662780D01*
X37908076Y-83662780D01*
X38003314Y-83615161D01*
X38050933Y-83567542D01*
X38098552Y-83472304D01*
X38146171Y-83281828D01*
X38146171Y-83043733D01*
X38098552Y-82853257D01*
X38050933Y-82758019D01*
X38003314Y-82710400D01*
X37908076Y-82662780D01*
%TO.C,U8*%
X69545104Y-57211980D02*
X69545104Y-58021504D01*
X69497485Y-58116742D01*
X69449866Y-58164361D01*
X69354628Y-58211980D01*
X69164152Y-58211980D01*
X69068914Y-58164361D01*
X69021295Y-58116742D01*
X68973676Y-58021504D01*
X68973676Y-57211980D01*
X68354628Y-57640552D02*
X68449866Y-57592933D01*
X68497485Y-57545314D01*
X68545104Y-57450076D01*
X68545104Y-57402457D01*
X68497485Y-57307219D01*
X68449866Y-57259600D01*
X68354628Y-57211980D01*
X68164152Y-57211980D01*
X68068914Y-57259600D01*
X68021295Y-57307219D01*
X67973676Y-57402457D01*
X67973676Y-57450076D01*
X68021295Y-57545314D01*
X68068914Y-57592933D01*
X68164152Y-57640552D01*
X68354628Y-57640552D01*
X68449866Y-57688171D01*
X68497485Y-57735790D01*
X68545104Y-57831028D01*
X68545104Y-58021504D01*
X68497485Y-58116742D01*
X68449866Y-58164361D01*
X68354628Y-58211980D01*
X68164152Y-58211980D01*
X68068914Y-58164361D01*
X68021295Y-58116742D01*
X67973676Y-58021504D01*
X67973676Y-57831028D01*
X68021295Y-57735790D01*
X68068914Y-57688171D01*
X68164152Y-57640552D01*
%TO.C,JP24*%
X95718380Y-61123676D02*
X96432666Y-61123676D01*
X96575523Y-61076057D01*
X96670761Y-60980819D01*
X96718380Y-60837961D01*
X96718380Y-60742723D01*
X96718380Y-61599866D02*
X95718380Y-61599866D01*
X95718380Y-61980819D01*
X95766000Y-62076057D01*
X95813619Y-62123676D01*
X95908857Y-62171295D01*
X96051714Y-62171295D01*
X96146952Y-62123676D01*
X96194571Y-62076057D01*
X96242190Y-61980819D01*
X96242190Y-61599866D01*
X95813619Y-62552247D02*
X95766000Y-62599866D01*
X95718380Y-62695104D01*
X95718380Y-62933200D01*
X95766000Y-63028438D01*
X95813619Y-63076057D01*
X95908857Y-63123676D01*
X96004095Y-63123676D01*
X96146952Y-63076057D01*
X96718380Y-62504628D01*
X96718380Y-63123676D01*
X96051714Y-63980819D02*
X96718380Y-63980819D01*
X95670761Y-63742723D02*
X96385047Y-63504628D01*
X96385047Y-64123676D01*
%TO.C,U16*%
X84804095Y-58481980D02*
X84804095Y-59291504D01*
X84756476Y-59386742D01*
X84708857Y-59434361D01*
X84613619Y-59481980D01*
X84423142Y-59481980D01*
X84327904Y-59434361D01*
X84280285Y-59386742D01*
X84232666Y-59291504D01*
X84232666Y-58481980D01*
X83232666Y-59481980D02*
X83804095Y-59481980D01*
X83518380Y-59481980D02*
X83518380Y-58481980D01*
X83613619Y-58624838D01*
X83708857Y-58720076D01*
X83804095Y-58767695D01*
X82375523Y-58481980D02*
X82566000Y-58481980D01*
X82661238Y-58529600D01*
X82708857Y-58577219D01*
X82804095Y-58720076D01*
X82851714Y-58910552D01*
X82851714Y-59291504D01*
X82804095Y-59386742D01*
X82756476Y-59434361D01*
X82661238Y-59481980D01*
X82470761Y-59481980D01*
X82375523Y-59434361D01*
X82327904Y-59386742D01*
X82280285Y-59291504D01*
X82280285Y-59053409D01*
X82327904Y-58958171D01*
X82375523Y-58910552D01*
X82470761Y-58862933D01*
X82661238Y-58862933D01*
X82756476Y-58910552D01*
X82804095Y-58958171D01*
X82851714Y-59053409D01*
%TO.C,R37*%
X139390857Y-60302380D02*
X139724190Y-59826190D01*
X139962285Y-60302380D02*
X139962285Y-59302380D01*
X139581333Y-59302380D01*
X139486095Y-59350000D01*
X139438476Y-59397619D01*
X139390857Y-59492857D01*
X139390857Y-59635714D01*
X139438476Y-59730952D01*
X139486095Y-59778571D01*
X139581333Y-59826190D01*
X139962285Y-59826190D01*
X139057523Y-59302380D02*
X138438476Y-59302380D01*
X138771809Y-59683333D01*
X138628952Y-59683333D01*
X138533714Y-59730952D01*
X138486095Y-59778571D01*
X138438476Y-59873809D01*
X138438476Y-60111904D01*
X138486095Y-60207142D01*
X138533714Y-60254761D01*
X138628952Y-60302380D01*
X138914666Y-60302380D01*
X139009904Y-60254761D01*
X139057523Y-60207142D01*
X138105142Y-59302380D02*
X137438476Y-59302380D01*
X137867047Y-60302380D01*
%TO.C,JP7*%
X84043733Y-39177980D02*
X84043733Y-39892266D01*
X84091352Y-40035123D01*
X84186590Y-40130361D01*
X84329447Y-40177980D01*
X84424685Y-40177980D01*
X83567542Y-40177980D02*
X83567542Y-39177980D01*
X83186590Y-39177980D01*
X83091352Y-39225600D01*
X83043733Y-39273219D01*
X82996114Y-39368457D01*
X82996114Y-39511314D01*
X83043733Y-39606552D01*
X83091352Y-39654171D01*
X83186590Y-39701790D01*
X83567542Y-39701790D01*
X82662780Y-39177980D02*
X81996114Y-39177980D01*
X82424685Y-40177980D01*
%TO.C,R39*%
X136088857Y-60302380D02*
X136422190Y-59826190D01*
X136660285Y-60302380D02*
X136660285Y-59302380D01*
X136279333Y-59302380D01*
X136184095Y-59350000D01*
X136136476Y-59397619D01*
X136088857Y-59492857D01*
X136088857Y-59635714D01*
X136136476Y-59730952D01*
X136184095Y-59778571D01*
X136279333Y-59826190D01*
X136660285Y-59826190D01*
X135755523Y-59302380D02*
X135136476Y-59302380D01*
X135469809Y-59683333D01*
X135326952Y-59683333D01*
X135231714Y-59730952D01*
X135184095Y-59778571D01*
X135136476Y-59873809D01*
X135136476Y-60111904D01*
X135184095Y-60207142D01*
X135231714Y-60254761D01*
X135326952Y-60302380D01*
X135612666Y-60302380D01*
X135707904Y-60254761D01*
X135755523Y-60207142D01*
X134660285Y-60302380D02*
X134469809Y-60302380D01*
X134374571Y-60254761D01*
X134326952Y-60207142D01*
X134231714Y-60064285D01*
X134184095Y-59873809D01*
X134184095Y-59492857D01*
X134231714Y-59397619D01*
X134279333Y-59350000D01*
X134374571Y-59302380D01*
X134565047Y-59302380D01*
X134660285Y-59350000D01*
X134707904Y-59397619D01*
X134755523Y-59492857D01*
X134755523Y-59730952D01*
X134707904Y-59826190D01*
X134660285Y-59873809D01*
X134565047Y-59921428D01*
X134374571Y-59921428D01*
X134279333Y-59873809D01*
X134231714Y-59826190D01*
X134184095Y-59730952D01*
%TO.C,JP31*%
X34954123Y-88784180D02*
X34954123Y-89498466D01*
X35001742Y-89641323D01*
X35096980Y-89736561D01*
X35239838Y-89784180D01*
X35335076Y-89784180D01*
X34477933Y-89784180D02*
X34477933Y-88784180D01*
X34096980Y-88784180D01*
X34001742Y-88831800D01*
X33954123Y-88879419D01*
X33906504Y-88974657D01*
X33906504Y-89117514D01*
X33954123Y-89212752D01*
X34001742Y-89260371D01*
X34096980Y-89307990D01*
X34477933Y-89307990D01*
X33573171Y-88784180D02*
X32954123Y-88784180D01*
X33287457Y-89165133D01*
X33144600Y-89165133D01*
X33049361Y-89212752D01*
X33001742Y-89260371D01*
X32954123Y-89355609D01*
X32954123Y-89593704D01*
X33001742Y-89688942D01*
X33049361Y-89736561D01*
X33144600Y-89784180D01*
X33430314Y-89784180D01*
X33525552Y-89736561D01*
X33573171Y-89688942D01*
X32001742Y-89784180D02*
X32573171Y-89784180D01*
X32287457Y-89784180D02*
X32287457Y-88784180D01*
X32382695Y-88927038D01*
X32477933Y-89022276D01*
X32573171Y-89069895D01*
%TO.C,R19*%
X63241180Y-43807142D02*
X62764990Y-43473809D01*
X63241180Y-43235714D02*
X62241180Y-43235714D01*
X62241180Y-43616666D01*
X62288800Y-43711904D01*
X62336419Y-43759523D01*
X62431657Y-43807142D01*
X62574514Y-43807142D01*
X62669752Y-43759523D01*
X62717371Y-43711904D01*
X62764990Y-43616666D01*
X62764990Y-43235714D01*
X63241180Y-44759523D02*
X63241180Y-44188095D01*
X63241180Y-44473809D02*
X62241180Y-44473809D01*
X62384038Y-44378571D01*
X62479276Y-44283333D01*
X62526895Y-44188095D01*
X63241180Y-45235714D02*
X63241180Y-45426190D01*
X63193561Y-45521428D01*
X63145942Y-45569047D01*
X63003085Y-45664285D01*
X62812609Y-45711904D01*
X62431657Y-45711904D01*
X62336419Y-45664285D01*
X62288800Y-45616666D01*
X62241180Y-45521428D01*
X62241180Y-45330952D01*
X62288800Y-45235714D01*
X62336419Y-45188095D01*
X62431657Y-45140476D01*
X62669752Y-45140476D01*
X62764990Y-45188095D01*
X62812609Y-45235714D01*
X62860228Y-45330952D01*
X62860228Y-45521428D01*
X62812609Y-45616666D01*
X62764990Y-45664285D01*
X62669752Y-45711904D01*
%TO.C,R41*%
X146883857Y-60302380D02*
X147217190Y-59826190D01*
X147455285Y-60302380D02*
X147455285Y-59302380D01*
X147074333Y-59302380D01*
X146979095Y-59350000D01*
X146931476Y-59397619D01*
X146883857Y-59492857D01*
X146883857Y-59635714D01*
X146931476Y-59730952D01*
X146979095Y-59778571D01*
X147074333Y-59826190D01*
X147455285Y-59826190D01*
X146026714Y-59635714D02*
X146026714Y-60302380D01*
X146264809Y-59254761D02*
X146502904Y-59969047D01*
X145883857Y-59969047D01*
X144979095Y-60302380D02*
X145550523Y-60302380D01*
X145264809Y-60302380D02*
X145264809Y-59302380D01*
X145360047Y-59445238D01*
X145455285Y-59540476D01*
X145550523Y-59588095D01*
%TO.C,C36*%
X70003942Y-45432742D02*
X70051561Y-45385123D01*
X70099180Y-45242266D01*
X70099180Y-45147028D01*
X70051561Y-45004171D01*
X69956323Y-44908933D01*
X69861085Y-44861314D01*
X69670609Y-44813695D01*
X69527752Y-44813695D01*
X69337276Y-44861314D01*
X69242038Y-44908933D01*
X69146800Y-45004171D01*
X69099180Y-45147028D01*
X69099180Y-45242266D01*
X69146800Y-45385123D01*
X69194419Y-45432742D01*
X69099180Y-45766076D02*
X69099180Y-46385123D01*
X69480133Y-46051790D01*
X69480133Y-46194647D01*
X69527752Y-46289885D01*
X69575371Y-46337504D01*
X69670609Y-46385123D01*
X69908704Y-46385123D01*
X70003942Y-46337504D01*
X70051561Y-46289885D01*
X70099180Y-46194647D01*
X70099180Y-45908933D01*
X70051561Y-45813695D01*
X70003942Y-45766076D01*
X69099180Y-47242266D02*
X69099180Y-47051790D01*
X69146800Y-46956552D01*
X69194419Y-46908933D01*
X69337276Y-46813695D01*
X69527752Y-46766076D01*
X69908704Y-46766076D01*
X70003942Y-46813695D01*
X70051561Y-46861314D01*
X70099180Y-46956552D01*
X70099180Y-47147028D01*
X70051561Y-47242266D01*
X70003942Y-47289885D01*
X69908704Y-47337504D01*
X69670609Y-47337504D01*
X69575371Y-47289885D01*
X69527752Y-47242266D01*
X69480133Y-47147028D01*
X69480133Y-46956552D01*
X69527752Y-46861314D01*
X69575371Y-46813695D01*
X69670609Y-46766076D01*
%TO.C,JP4*%
X45943733Y-42530780D02*
X45943733Y-43245066D01*
X45991352Y-43387923D01*
X46086590Y-43483161D01*
X46229447Y-43530780D01*
X46324685Y-43530780D01*
X45467542Y-43530780D02*
X45467542Y-42530780D01*
X45086590Y-42530780D01*
X44991352Y-42578400D01*
X44943733Y-42626019D01*
X44896114Y-42721257D01*
X44896114Y-42864114D01*
X44943733Y-42959352D01*
X44991352Y-43006971D01*
X45086590Y-43054590D01*
X45467542Y-43054590D01*
X44038971Y-42864114D02*
X44038971Y-43530780D01*
X44277066Y-42483161D02*
X44515161Y-43197447D01*
X43896114Y-43197447D01*
%TO.C,U9*%
X101752304Y-56703980D02*
X101752304Y-57513504D01*
X101704685Y-57608742D01*
X101657066Y-57656361D01*
X101561828Y-57703980D01*
X101371352Y-57703980D01*
X101276114Y-57656361D01*
X101228495Y-57608742D01*
X101180876Y-57513504D01*
X101180876Y-56703980D01*
X100657066Y-57703980D02*
X100466590Y-57703980D01*
X100371352Y-57656361D01*
X100323733Y-57608742D01*
X100228495Y-57465885D01*
X100180876Y-57275409D01*
X100180876Y-56894457D01*
X100228495Y-56799219D01*
X100276114Y-56751600D01*
X100371352Y-56703980D01*
X100561828Y-56703980D01*
X100657066Y-56751600D01*
X100704685Y-56799219D01*
X100752304Y-56894457D01*
X100752304Y-57132552D01*
X100704685Y-57227790D01*
X100657066Y-57275409D01*
X100561828Y-57323028D01*
X100371352Y-57323028D01*
X100276114Y-57275409D01*
X100228495Y-57227790D01*
X100180876Y-57132552D01*
%TO.C,D6*%
X128246095Y-76347580D02*
X128246095Y-75347580D01*
X128008000Y-75347580D01*
X127865142Y-75395200D01*
X127769904Y-75490438D01*
X127722285Y-75585676D01*
X127674666Y-75776152D01*
X127674666Y-75919009D01*
X127722285Y-76109485D01*
X127769904Y-76204723D01*
X127865142Y-76299961D01*
X128008000Y-76347580D01*
X128246095Y-76347580D01*
X126817523Y-75347580D02*
X127008000Y-75347580D01*
X127103238Y-75395200D01*
X127150857Y-75442819D01*
X127246095Y-75585676D01*
X127293714Y-75776152D01*
X127293714Y-76157104D01*
X127246095Y-76252342D01*
X127198476Y-76299961D01*
X127103238Y-76347580D01*
X126912761Y-76347580D01*
X126817523Y-76299961D01*
X126769904Y-76252342D01*
X126722285Y-76157104D01*
X126722285Y-75919009D01*
X126769904Y-75823771D01*
X126817523Y-75776152D01*
X126912761Y-75728533D01*
X127103238Y-75728533D01*
X127198476Y-75776152D01*
X127246095Y-75823771D01*
X127293714Y-75919009D01*
%TO.C,C47*%
X100363257Y-68886342D02*
X100410876Y-68933961D01*
X100553733Y-68981580D01*
X100648971Y-68981580D01*
X100791828Y-68933961D01*
X100887066Y-68838723D01*
X100934685Y-68743485D01*
X100982304Y-68553009D01*
X100982304Y-68410152D01*
X100934685Y-68219676D01*
X100887066Y-68124438D01*
X100791828Y-68029200D01*
X100648971Y-67981580D01*
X100553733Y-67981580D01*
X100410876Y-68029200D01*
X100363257Y-68076819D01*
X99506114Y-68314914D02*
X99506114Y-68981580D01*
X99744209Y-67933961D02*
X99982304Y-68648247D01*
X99363257Y-68648247D01*
X99077542Y-67981580D02*
X98410876Y-67981580D01*
X98839447Y-68981580D01*
%TO.C,U6*%
X90638380Y-64211295D02*
X91447904Y-64211295D01*
X91543142Y-64258914D01*
X91590761Y-64306533D01*
X91638380Y-64401771D01*
X91638380Y-64592247D01*
X91590761Y-64687485D01*
X91543142Y-64735104D01*
X91447904Y-64782723D01*
X90638380Y-64782723D01*
X90638380Y-65687485D02*
X90638380Y-65497009D01*
X90686000Y-65401771D01*
X90733619Y-65354152D01*
X90876476Y-65258914D01*
X91066952Y-65211295D01*
X91447904Y-65211295D01*
X91543142Y-65258914D01*
X91590761Y-65306533D01*
X91638380Y-65401771D01*
X91638380Y-65592247D01*
X91590761Y-65687485D01*
X91543142Y-65735104D01*
X91447904Y-65782723D01*
X91209809Y-65782723D01*
X91114571Y-65735104D01*
X91066952Y-65687485D01*
X91019333Y-65592247D01*
X91019333Y-65401771D01*
X91066952Y-65306533D01*
X91114571Y-65258914D01*
X91209809Y-65211295D01*
%TO.C,JP18*%
X91022323Y-57415180D02*
X91022323Y-58129466D01*
X91069942Y-58272323D01*
X91165180Y-58367561D01*
X91308038Y-58415180D01*
X91403276Y-58415180D01*
X90546133Y-58415180D02*
X90546133Y-57415180D01*
X90165180Y-57415180D01*
X90069942Y-57462800D01*
X90022323Y-57510419D01*
X89974704Y-57605657D01*
X89974704Y-57748514D01*
X90022323Y-57843752D01*
X90069942Y-57891371D01*
X90165180Y-57938990D01*
X90546133Y-57938990D01*
X89022323Y-58415180D02*
X89593752Y-58415180D01*
X89308038Y-58415180D02*
X89308038Y-57415180D01*
X89403276Y-57558038D01*
X89498514Y-57653276D01*
X89593752Y-57700895D01*
X88450895Y-57843752D02*
X88546133Y-57796133D01*
X88593752Y-57748514D01*
X88641371Y-57653276D01*
X88641371Y-57605657D01*
X88593752Y-57510419D01*
X88546133Y-57462800D01*
X88450895Y-57415180D01*
X88260419Y-57415180D01*
X88165180Y-57462800D01*
X88117561Y-57510419D01*
X88069942Y-57605657D01*
X88069942Y-57653276D01*
X88117561Y-57748514D01*
X88165180Y-57796133D01*
X88260419Y-57843752D01*
X88450895Y-57843752D01*
X88546133Y-57891371D01*
X88593752Y-57938990D01*
X88641371Y-58034228D01*
X88641371Y-58224704D01*
X88593752Y-58319942D01*
X88546133Y-58367561D01*
X88450895Y-58415180D01*
X88260419Y-58415180D01*
X88165180Y-58367561D01*
X88117561Y-58319942D01*
X88069942Y-58224704D01*
X88069942Y-58034228D01*
X88117561Y-57938990D01*
X88165180Y-57891371D01*
X88260419Y-57843752D01*
%TO.C,R43*%
X143707857Y-60302380D02*
X144041190Y-59826190D01*
X144279285Y-60302380D02*
X144279285Y-59302380D01*
X143898333Y-59302380D01*
X143803095Y-59350000D01*
X143755476Y-59397619D01*
X143707857Y-59492857D01*
X143707857Y-59635714D01*
X143755476Y-59730952D01*
X143803095Y-59778571D01*
X143898333Y-59826190D01*
X144279285Y-59826190D01*
X142850714Y-59635714D02*
X142850714Y-60302380D01*
X143088809Y-59254761D02*
X143326904Y-59969047D01*
X142707857Y-59969047D01*
X142422142Y-59302380D02*
X141803095Y-59302380D01*
X142136428Y-59683333D01*
X141993571Y-59683333D01*
X141898333Y-59730952D01*
X141850714Y-59778571D01*
X141803095Y-59873809D01*
X141803095Y-60111904D01*
X141850714Y-60207142D01*
X141898333Y-60254761D01*
X141993571Y-60302380D01*
X142279285Y-60302380D01*
X142374523Y-60254761D01*
X142422142Y-60207142D01*
%TO.C,JP28*%
X62498123Y-75931780D02*
X62498123Y-76646066D01*
X62545742Y-76788923D01*
X62640980Y-76884161D01*
X62783838Y-76931780D01*
X62879076Y-76931780D01*
X62021933Y-76931780D02*
X62021933Y-75931780D01*
X61640980Y-75931780D01*
X61545742Y-75979400D01*
X61498123Y-76027019D01*
X61450504Y-76122257D01*
X61450504Y-76265114D01*
X61498123Y-76360352D01*
X61545742Y-76407971D01*
X61640980Y-76455590D01*
X62021933Y-76455590D01*
X61069552Y-76027019D02*
X61021933Y-75979400D01*
X60926695Y-75931780D01*
X60688600Y-75931780D01*
X60593361Y-75979400D01*
X60545742Y-76027019D01*
X60498123Y-76122257D01*
X60498123Y-76217495D01*
X60545742Y-76360352D01*
X61117171Y-76931780D01*
X60498123Y-76931780D01*
X59926695Y-76360352D02*
X60021933Y-76312733D01*
X60069552Y-76265114D01*
X60117171Y-76169876D01*
X60117171Y-76122257D01*
X60069552Y-76027019D01*
X60021933Y-75979400D01*
X59926695Y-75931780D01*
X59736219Y-75931780D01*
X59640980Y-75979400D01*
X59593361Y-76027019D01*
X59545742Y-76122257D01*
X59545742Y-76169876D01*
X59593361Y-76265114D01*
X59640980Y-76312733D01*
X59736219Y-76360352D01*
X59926695Y-76360352D01*
X60021933Y-76407971D01*
X60069552Y-76455590D01*
X60117171Y-76550828D01*
X60117171Y-76741304D01*
X60069552Y-76836542D01*
X60021933Y-76884161D01*
X59926695Y-76931780D01*
X59736219Y-76931780D01*
X59640980Y-76884161D01*
X59593361Y-76836542D01*
X59545742Y-76741304D01*
X59545742Y-76550828D01*
X59593361Y-76455590D01*
X59640980Y-76407971D01*
X59736219Y-76360352D01*
%TO.C,JP29*%
X54217723Y-82154780D02*
X54217723Y-82869066D01*
X54265342Y-83011923D01*
X54360580Y-83107161D01*
X54503438Y-83154780D01*
X54598676Y-83154780D01*
X53741533Y-83154780D02*
X53741533Y-82154780D01*
X53360580Y-82154780D01*
X53265342Y-82202400D01*
X53217723Y-82250019D01*
X53170104Y-82345257D01*
X53170104Y-82488114D01*
X53217723Y-82583352D01*
X53265342Y-82630971D01*
X53360580Y-82678590D01*
X53741533Y-82678590D01*
X52789152Y-82250019D02*
X52741533Y-82202400D01*
X52646295Y-82154780D01*
X52408200Y-82154780D01*
X52312961Y-82202400D01*
X52265342Y-82250019D01*
X52217723Y-82345257D01*
X52217723Y-82440495D01*
X52265342Y-82583352D01*
X52836771Y-83154780D01*
X52217723Y-83154780D01*
X51741533Y-83154780D02*
X51551057Y-83154780D01*
X51455819Y-83107161D01*
X51408200Y-83059542D01*
X51312961Y-82916685D01*
X51265342Y-82726209D01*
X51265342Y-82345257D01*
X51312961Y-82250019D01*
X51360580Y-82202400D01*
X51455819Y-82154780D01*
X51646295Y-82154780D01*
X51741533Y-82202400D01*
X51789152Y-82250019D01*
X51836771Y-82345257D01*
X51836771Y-82583352D01*
X51789152Y-82678590D01*
X51741533Y-82726209D01*
X51646295Y-82773828D01*
X51455819Y-82773828D01*
X51360580Y-82726209D01*
X51312961Y-82678590D01*
X51265342Y-82583352D01*
%TO.C,JP1*%
X48432933Y-47305980D02*
X48432933Y-48020266D01*
X48480552Y-48163123D01*
X48575790Y-48258361D01*
X48718647Y-48305980D01*
X48813885Y-48305980D01*
X47956742Y-48305980D02*
X47956742Y-47305980D01*
X47575790Y-47305980D01*
X47480552Y-47353600D01*
X47432933Y-47401219D01*
X47385314Y-47496457D01*
X47385314Y-47639314D01*
X47432933Y-47734552D01*
X47480552Y-47782171D01*
X47575790Y-47829790D01*
X47956742Y-47829790D01*
X46432933Y-48305980D02*
X47004361Y-48305980D01*
X46718647Y-48305980D02*
X46718647Y-47305980D01*
X46813885Y-47448838D01*
X46909123Y-47544076D01*
X47004361Y-47591695D01*
%TO.C,U15*%
X101238095Y-43936380D02*
X101238095Y-44745904D01*
X101190476Y-44841142D01*
X101142857Y-44888761D01*
X101047619Y-44936380D01*
X100857142Y-44936380D01*
X100761904Y-44888761D01*
X100714285Y-44841142D01*
X100666666Y-44745904D01*
X100666666Y-43936380D01*
X99666666Y-44936380D02*
X100238095Y-44936380D01*
X99952380Y-44936380D02*
X99952380Y-43936380D01*
X100047619Y-44079238D01*
X100142857Y-44174476D01*
X100238095Y-44222095D01*
X98761904Y-43936380D02*
X99238095Y-43936380D01*
X99285714Y-44412571D01*
X99238095Y-44364952D01*
X99142857Y-44317333D01*
X98904761Y-44317333D01*
X98809523Y-44364952D01*
X98761904Y-44412571D01*
X98714285Y-44507809D01*
X98714285Y-44745904D01*
X98761904Y-44841142D01*
X98809523Y-44888761D01*
X98904761Y-44936380D01*
X99142857Y-44936380D01*
X99238095Y-44888761D01*
X99285714Y-44841142D01*
%TO.C,JP17*%
X84291323Y-63765180D02*
X84291323Y-64479466D01*
X84338942Y-64622323D01*
X84434180Y-64717561D01*
X84577038Y-64765180D01*
X84672276Y-64765180D01*
X83815133Y-64765180D02*
X83815133Y-63765180D01*
X83434180Y-63765180D01*
X83338942Y-63812800D01*
X83291323Y-63860419D01*
X83243704Y-63955657D01*
X83243704Y-64098514D01*
X83291323Y-64193752D01*
X83338942Y-64241371D01*
X83434180Y-64288990D01*
X83815133Y-64288990D01*
X82291323Y-64765180D02*
X82862752Y-64765180D01*
X82577038Y-64765180D02*
X82577038Y-63765180D01*
X82672276Y-63908038D01*
X82767514Y-64003276D01*
X82862752Y-64050895D01*
X81957990Y-63765180D02*
X81291323Y-63765180D01*
X81719895Y-64765180D01*
%TO.C,R63*%
X76944457Y-45638980D02*
X77277790Y-45162790D01*
X77515885Y-45638980D02*
X77515885Y-44638980D01*
X77134933Y-44638980D01*
X77039695Y-44686600D01*
X76992076Y-44734219D01*
X76944457Y-44829457D01*
X76944457Y-44972314D01*
X76992076Y-45067552D01*
X77039695Y-45115171D01*
X77134933Y-45162790D01*
X77515885Y-45162790D01*
X76087314Y-44638980D02*
X76277790Y-44638980D01*
X76373028Y-44686600D01*
X76420647Y-44734219D01*
X76515885Y-44877076D01*
X76563504Y-45067552D01*
X76563504Y-45448504D01*
X76515885Y-45543742D01*
X76468266Y-45591361D01*
X76373028Y-45638980D01*
X76182552Y-45638980D01*
X76087314Y-45591361D01*
X76039695Y-45543742D01*
X75992076Y-45448504D01*
X75992076Y-45210409D01*
X76039695Y-45115171D01*
X76087314Y-45067552D01*
X76182552Y-45019933D01*
X76373028Y-45019933D01*
X76468266Y-45067552D01*
X76515885Y-45115171D01*
X76563504Y-45210409D01*
X75658742Y-44638980D02*
X75039695Y-44638980D01*
X75373028Y-45019933D01*
X75230171Y-45019933D01*
X75134933Y-45067552D01*
X75087314Y-45115171D01*
X75039695Y-45210409D01*
X75039695Y-45448504D01*
X75087314Y-45543742D01*
X75134933Y-45591361D01*
X75230171Y-45638980D01*
X75515885Y-45638980D01*
X75611123Y-45591361D01*
X75658742Y-45543742D01*
%TO.C,R64*%
X109070380Y-43807142D02*
X108594190Y-43473809D01*
X109070380Y-43235714D02*
X108070380Y-43235714D01*
X108070380Y-43616666D01*
X108118000Y-43711904D01*
X108165619Y-43759523D01*
X108260857Y-43807142D01*
X108403714Y-43807142D01*
X108498952Y-43759523D01*
X108546571Y-43711904D01*
X108594190Y-43616666D01*
X108594190Y-43235714D01*
X108070380Y-44664285D02*
X108070380Y-44473809D01*
X108118000Y-44378571D01*
X108165619Y-44330952D01*
X108308476Y-44235714D01*
X108498952Y-44188095D01*
X108879904Y-44188095D01*
X108975142Y-44235714D01*
X109022761Y-44283333D01*
X109070380Y-44378571D01*
X109070380Y-44569047D01*
X109022761Y-44664285D01*
X108975142Y-44711904D01*
X108879904Y-44759523D01*
X108641809Y-44759523D01*
X108546571Y-44711904D01*
X108498952Y-44664285D01*
X108451333Y-44569047D01*
X108451333Y-44378571D01*
X108498952Y-44283333D01*
X108546571Y-44235714D01*
X108641809Y-44188095D01*
X108403714Y-45616666D02*
X109070380Y-45616666D01*
X108022761Y-45378571D02*
X108737047Y-45140476D01*
X108737047Y-45759523D01*
%TO.C,U13*%
X54468780Y-42703904D02*
X55278304Y-42703904D01*
X55373542Y-42751523D01*
X55421161Y-42799142D01*
X55468780Y-42894380D01*
X55468780Y-43084857D01*
X55421161Y-43180095D01*
X55373542Y-43227714D01*
X55278304Y-43275333D01*
X54468780Y-43275333D01*
X55468780Y-44275333D02*
X55468780Y-43703904D01*
X55468780Y-43989619D02*
X54468780Y-43989619D01*
X54611638Y-43894380D01*
X54706876Y-43799142D01*
X54754495Y-43703904D01*
X54468780Y-44608666D02*
X54468780Y-45227714D01*
X54849733Y-44894380D01*
X54849733Y-45037238D01*
X54897352Y-45132476D01*
X54944971Y-45180095D01*
X55040209Y-45227714D01*
X55278304Y-45227714D01*
X55373542Y-45180095D01*
X55421161Y-45132476D01*
X55468780Y-45037238D01*
X55468780Y-44751523D01*
X55421161Y-44656285D01*
X55373542Y-44608666D01*
%TO.C,JP16*%
X93203780Y-60448276D02*
X93918066Y-60448276D01*
X94060923Y-60400657D01*
X94156161Y-60305419D01*
X94203780Y-60162561D01*
X94203780Y-60067323D01*
X94203780Y-60924466D02*
X93203780Y-60924466D01*
X93203780Y-61305419D01*
X93251400Y-61400657D01*
X93299019Y-61448276D01*
X93394257Y-61495895D01*
X93537114Y-61495895D01*
X93632352Y-61448276D01*
X93679971Y-61400657D01*
X93727590Y-61305419D01*
X93727590Y-60924466D01*
X94203780Y-62448276D02*
X94203780Y-61876847D01*
X94203780Y-62162561D02*
X93203780Y-62162561D01*
X93346638Y-62067323D01*
X93441876Y-61972085D01*
X93489495Y-61876847D01*
X93203780Y-63305419D02*
X93203780Y-63114942D01*
X93251400Y-63019704D01*
X93299019Y-62972085D01*
X93441876Y-62876847D01*
X93632352Y-62829228D01*
X94013304Y-62829228D01*
X94108542Y-62876847D01*
X94156161Y-62924466D01*
X94203780Y-63019704D01*
X94203780Y-63210180D01*
X94156161Y-63305419D01*
X94108542Y-63353038D01*
X94013304Y-63400657D01*
X93775209Y-63400657D01*
X93679971Y-63353038D01*
X93632352Y-63305419D01*
X93584733Y-63210180D01*
X93584733Y-63019704D01*
X93632352Y-62924466D01*
X93679971Y-62876847D01*
X93775209Y-62829228D01*
%TO.C,D2*%
X95346780Y-43915104D02*
X94346780Y-43915104D01*
X94346780Y-44153200D01*
X94394400Y-44296057D01*
X94489638Y-44391295D01*
X94584876Y-44438914D01*
X94775352Y-44486533D01*
X94918209Y-44486533D01*
X95108685Y-44438914D01*
X95203923Y-44391295D01*
X95299161Y-44296057D01*
X95346780Y-44153200D01*
X95346780Y-43915104D01*
X94442019Y-44867485D02*
X94394400Y-44915104D01*
X94346780Y-45010342D01*
X94346780Y-45248438D01*
X94394400Y-45343676D01*
X94442019Y-45391295D01*
X94537257Y-45438914D01*
X94632495Y-45438914D01*
X94775352Y-45391295D01*
X95346780Y-44819866D01*
X95346780Y-45438914D01*
%TO.C,D3*%
X59056495Y-43429180D02*
X59056495Y-42429180D01*
X58818400Y-42429180D01*
X58675542Y-42476800D01*
X58580304Y-42572038D01*
X58532685Y-42667276D01*
X58485066Y-42857752D01*
X58485066Y-43000609D01*
X58532685Y-43191085D01*
X58580304Y-43286323D01*
X58675542Y-43381561D01*
X58818400Y-43429180D01*
X59056495Y-43429180D01*
X58151733Y-42429180D02*
X57532685Y-42429180D01*
X57866019Y-42810133D01*
X57723161Y-42810133D01*
X57627923Y-42857752D01*
X57580304Y-42905371D01*
X57532685Y-43000609D01*
X57532685Y-43238704D01*
X57580304Y-43333942D01*
X57627923Y-43381561D01*
X57723161Y-43429180D01*
X58008876Y-43429180D01*
X58104114Y-43381561D01*
X58151733Y-43333942D01*
%TO.C,JP10*%
X71692923Y-64603380D02*
X71692923Y-65317666D01*
X71740542Y-65460523D01*
X71835780Y-65555761D01*
X71978638Y-65603380D01*
X72073876Y-65603380D01*
X71216733Y-65603380D02*
X71216733Y-64603380D01*
X70835780Y-64603380D01*
X70740542Y-64651000D01*
X70692923Y-64698619D01*
X70645304Y-64793857D01*
X70645304Y-64936714D01*
X70692923Y-65031952D01*
X70740542Y-65079571D01*
X70835780Y-65127190D01*
X71216733Y-65127190D01*
X69692923Y-65603380D02*
X70264352Y-65603380D01*
X69978638Y-65603380D02*
X69978638Y-64603380D01*
X70073876Y-64746238D01*
X70169114Y-64841476D01*
X70264352Y-64889095D01*
X69073876Y-64603380D02*
X68978638Y-64603380D01*
X68883400Y-64651000D01*
X68835780Y-64698619D01*
X68788161Y-64793857D01*
X68740542Y-64984333D01*
X68740542Y-65222428D01*
X68788161Y-65412904D01*
X68835780Y-65508142D01*
X68883400Y-65555761D01*
X68978638Y-65603380D01*
X69073876Y-65603380D01*
X69169114Y-65555761D01*
X69216733Y-65508142D01*
X69264352Y-65412904D01*
X69311971Y-65222428D01*
X69311971Y-64984333D01*
X69264352Y-64793857D01*
X69216733Y-64698619D01*
X69169114Y-64651000D01*
X69073876Y-64603380D01*
%TO.C,J1*%
X39794380Y-59737666D02*
X40508666Y-59737666D01*
X40651523Y-59690047D01*
X40746761Y-59594809D01*
X40794380Y-59451952D01*
X40794380Y-59356714D01*
X40794380Y-60737666D02*
X40794380Y-60166238D01*
X40794380Y-60451952D02*
X39794380Y-60451952D01*
X39937238Y-60356714D01*
X40032476Y-60261476D01*
X40080095Y-60166238D01*
%TO.C,JP21*%
X110006523Y-40079380D02*
X110006523Y-40793666D01*
X110054142Y-40936523D01*
X110149380Y-41031761D01*
X110292238Y-41079380D01*
X110387476Y-41079380D01*
X109530333Y-41079380D02*
X109530333Y-40079380D01*
X109149380Y-40079380D01*
X109054142Y-40127000D01*
X109006523Y-40174619D01*
X108958904Y-40269857D01*
X108958904Y-40412714D01*
X109006523Y-40507952D01*
X109054142Y-40555571D01*
X109149380Y-40603190D01*
X109530333Y-40603190D01*
X108577952Y-40174619D02*
X108530333Y-40127000D01*
X108435095Y-40079380D01*
X108197000Y-40079380D01*
X108101761Y-40127000D01*
X108054142Y-40174619D01*
X108006523Y-40269857D01*
X108006523Y-40365095D01*
X108054142Y-40507952D01*
X108625571Y-41079380D01*
X108006523Y-41079380D01*
X107054142Y-41079380D02*
X107625571Y-41079380D01*
X107339857Y-41079380D02*
X107339857Y-40079380D01*
X107435095Y-40222238D01*
X107530333Y-40317476D01*
X107625571Y-40365095D01*
%TO.C,U17*%
X89528495Y-39152580D02*
X89528495Y-39962104D01*
X89480876Y-40057342D01*
X89433257Y-40104961D01*
X89338019Y-40152580D01*
X89147542Y-40152580D01*
X89052304Y-40104961D01*
X89004685Y-40057342D01*
X88957066Y-39962104D01*
X88957066Y-39152580D01*
X87957066Y-40152580D02*
X88528495Y-40152580D01*
X88242780Y-40152580D02*
X88242780Y-39152580D01*
X88338019Y-39295438D01*
X88433257Y-39390676D01*
X88528495Y-39438295D01*
X87623733Y-39152580D02*
X86957066Y-39152580D01*
X87385638Y-40152580D01*
%TO.C,C46*%
X88438257Y-68708542D02*
X88485876Y-68756161D01*
X88628733Y-68803780D01*
X88723971Y-68803780D01*
X88866828Y-68756161D01*
X88962066Y-68660923D01*
X89009685Y-68565685D01*
X89057304Y-68375209D01*
X89057304Y-68232352D01*
X89009685Y-68041876D01*
X88962066Y-67946638D01*
X88866828Y-67851400D01*
X88723971Y-67803780D01*
X88628733Y-67803780D01*
X88485876Y-67851400D01*
X88438257Y-67899019D01*
X87581114Y-68137114D02*
X87581114Y-68803780D01*
X87819209Y-67756161D02*
X88057304Y-68470447D01*
X87438257Y-68470447D01*
X86628733Y-67803780D02*
X86819209Y-67803780D01*
X86914447Y-67851400D01*
X86962066Y-67899019D01*
X87057304Y-68041876D01*
X87104923Y-68232352D01*
X87104923Y-68613304D01*
X87057304Y-68708542D01*
X87009685Y-68756161D01*
X86914447Y-68803780D01*
X86723971Y-68803780D01*
X86628733Y-68756161D01*
X86581114Y-68708542D01*
X86533495Y-68613304D01*
X86533495Y-68375209D01*
X86581114Y-68279971D01*
X86628733Y-68232352D01*
X86723971Y-68184733D01*
X86914447Y-68184733D01*
X87009685Y-68232352D01*
X87057304Y-68279971D01*
X87104923Y-68375209D01*
%TO.C,D5*%
X143740095Y-76144380D02*
X143740095Y-75144380D01*
X143502000Y-75144380D01*
X143359142Y-75192000D01*
X143263904Y-75287238D01*
X143216285Y-75382476D01*
X143168666Y-75572952D01*
X143168666Y-75715809D01*
X143216285Y-75906285D01*
X143263904Y-76001523D01*
X143359142Y-76096761D01*
X143502000Y-76144380D01*
X143740095Y-76144380D01*
X142263904Y-75144380D02*
X142740095Y-75144380D01*
X142787714Y-75620571D01*
X142740095Y-75572952D01*
X142644857Y-75525333D01*
X142406761Y-75525333D01*
X142311523Y-75572952D01*
X142263904Y-75620571D01*
X142216285Y-75715809D01*
X142216285Y-75953904D01*
X142263904Y-76049142D01*
X142311523Y-76096761D01*
X142406761Y-76144380D01*
X142644857Y-76144380D01*
X142740095Y-76096761D01*
X142787714Y-76049142D01*
%TO.C,D24*%
X70657980Y-36352314D02*
X69657980Y-36352314D01*
X69657980Y-36590409D01*
X69705600Y-36733266D01*
X69800838Y-36828504D01*
X69896076Y-36876123D01*
X70086552Y-36923742D01*
X70229409Y-36923742D01*
X70419885Y-36876123D01*
X70515123Y-36828504D01*
X70610361Y-36733266D01*
X70657980Y-36590409D01*
X70657980Y-36352314D01*
X69753219Y-37304695D02*
X69705600Y-37352314D01*
X69657980Y-37447552D01*
X69657980Y-37685647D01*
X69705600Y-37780885D01*
X69753219Y-37828504D01*
X69848457Y-37876123D01*
X69943695Y-37876123D01*
X70086552Y-37828504D01*
X70657980Y-37257076D01*
X70657980Y-37876123D01*
X69991314Y-38733266D02*
X70657980Y-38733266D01*
X69610361Y-38495171D02*
X70324647Y-38257076D01*
X70324647Y-38876123D01*
%TO.C,JP26*%
X95035523Y-58786780D02*
X95035523Y-59501066D01*
X95083142Y-59643923D01*
X95178380Y-59739161D01*
X95321238Y-59786780D01*
X95416476Y-59786780D01*
X94559333Y-59786780D02*
X94559333Y-58786780D01*
X94178380Y-58786780D01*
X94083142Y-58834400D01*
X94035523Y-58882019D01*
X93987904Y-58977257D01*
X93987904Y-59120114D01*
X94035523Y-59215352D01*
X94083142Y-59262971D01*
X94178380Y-59310590D01*
X94559333Y-59310590D01*
X93606952Y-58882019D02*
X93559333Y-58834400D01*
X93464095Y-58786780D01*
X93226000Y-58786780D01*
X93130761Y-58834400D01*
X93083142Y-58882019D01*
X93035523Y-58977257D01*
X93035523Y-59072495D01*
X93083142Y-59215352D01*
X93654571Y-59786780D01*
X93035523Y-59786780D01*
X92178380Y-58786780D02*
X92368857Y-58786780D01*
X92464095Y-58834400D01*
X92511714Y-58882019D01*
X92606952Y-59024876D01*
X92654571Y-59215352D01*
X92654571Y-59596304D01*
X92606952Y-59691542D01*
X92559333Y-59739161D01*
X92464095Y-59786780D01*
X92273619Y-59786780D01*
X92178380Y-59739161D01*
X92130761Y-59691542D01*
X92083142Y-59596304D01*
X92083142Y-59358209D01*
X92130761Y-59262971D01*
X92178380Y-59215352D01*
X92273619Y-59167733D01*
X92464095Y-59167733D01*
X92559333Y-59215352D01*
X92606952Y-59262971D01*
X92654571Y-59358209D01*
%TO.C,JP23*%
X103363780Y-59396476D02*
X104078066Y-59396476D01*
X104220923Y-59348857D01*
X104316161Y-59253619D01*
X104363780Y-59110761D01*
X104363780Y-59015523D01*
X104363780Y-59872666D02*
X103363780Y-59872666D01*
X103363780Y-60253619D01*
X103411400Y-60348857D01*
X103459019Y-60396476D01*
X103554257Y-60444095D01*
X103697114Y-60444095D01*
X103792352Y-60396476D01*
X103839971Y-60348857D01*
X103887590Y-60253619D01*
X103887590Y-59872666D01*
X103459019Y-60825047D02*
X103411400Y-60872666D01*
X103363780Y-60967904D01*
X103363780Y-61206000D01*
X103411400Y-61301238D01*
X103459019Y-61348857D01*
X103554257Y-61396476D01*
X103649495Y-61396476D01*
X103792352Y-61348857D01*
X104363780Y-60777428D01*
X104363780Y-61396476D01*
X103363780Y-61729809D02*
X103363780Y-62348857D01*
X103744733Y-62015523D01*
X103744733Y-62158380D01*
X103792352Y-62253619D01*
X103839971Y-62301238D01*
X103935209Y-62348857D01*
X104173304Y-62348857D01*
X104268542Y-62301238D01*
X104316161Y-62253619D01*
X104363780Y-62158380D01*
X104363780Y-61872666D01*
X104316161Y-61777428D01*
X104268542Y-61729809D01*
%TO.C,R65*%
X87853780Y-43730942D02*
X87377590Y-43397609D01*
X87853780Y-43159514D02*
X86853780Y-43159514D01*
X86853780Y-43540466D01*
X86901400Y-43635704D01*
X86949019Y-43683323D01*
X87044257Y-43730942D01*
X87187114Y-43730942D01*
X87282352Y-43683323D01*
X87329971Y-43635704D01*
X87377590Y-43540466D01*
X87377590Y-43159514D01*
X86853780Y-44588085D02*
X86853780Y-44397609D01*
X86901400Y-44302371D01*
X86949019Y-44254752D01*
X87091876Y-44159514D01*
X87282352Y-44111895D01*
X87663304Y-44111895D01*
X87758542Y-44159514D01*
X87806161Y-44207133D01*
X87853780Y-44302371D01*
X87853780Y-44492847D01*
X87806161Y-44588085D01*
X87758542Y-44635704D01*
X87663304Y-44683323D01*
X87425209Y-44683323D01*
X87329971Y-44635704D01*
X87282352Y-44588085D01*
X87234733Y-44492847D01*
X87234733Y-44302371D01*
X87282352Y-44207133D01*
X87329971Y-44159514D01*
X87425209Y-44111895D01*
X86853780Y-45588085D02*
X86853780Y-45111895D01*
X87329971Y-45064276D01*
X87282352Y-45111895D01*
X87234733Y-45207133D01*
X87234733Y-45445228D01*
X87282352Y-45540466D01*
X87329971Y-45588085D01*
X87425209Y-45635704D01*
X87663304Y-45635704D01*
X87758542Y-45588085D01*
X87806161Y-45540466D01*
X87853780Y-45445228D01*
X87853780Y-45207133D01*
X87806161Y-45111895D01*
X87758542Y-45064276D01*
%TO.C,JP12*%
X65695580Y-53249676D02*
X66409866Y-53249676D01*
X66552723Y-53202057D01*
X66647961Y-53106819D01*
X66695580Y-52963961D01*
X66695580Y-52868723D01*
X66695580Y-53725866D02*
X65695580Y-53725866D01*
X65695580Y-54106819D01*
X65743200Y-54202057D01*
X65790819Y-54249676D01*
X65886057Y-54297295D01*
X66028914Y-54297295D01*
X66124152Y-54249676D01*
X66171771Y-54202057D01*
X66219390Y-54106819D01*
X66219390Y-53725866D01*
X66695580Y-55249676D02*
X66695580Y-54678247D01*
X66695580Y-54963961D02*
X65695580Y-54963961D01*
X65838438Y-54868723D01*
X65933676Y-54773485D01*
X65981295Y-54678247D01*
X65790819Y-55630628D02*
X65743200Y-55678247D01*
X65695580Y-55773485D01*
X65695580Y-56011580D01*
X65743200Y-56106819D01*
X65790819Y-56154438D01*
X65886057Y-56202057D01*
X65981295Y-56202057D01*
X66124152Y-56154438D01*
X66695580Y-55583009D01*
X66695580Y-56202057D01*
%TO.C,JP15*%
X90587580Y-53808476D02*
X91301866Y-53808476D01*
X91444723Y-53760857D01*
X91539961Y-53665619D01*
X91587580Y-53522761D01*
X91587580Y-53427523D01*
X91587580Y-54284666D02*
X90587580Y-54284666D01*
X90587580Y-54665619D01*
X90635200Y-54760857D01*
X90682819Y-54808476D01*
X90778057Y-54856095D01*
X90920914Y-54856095D01*
X91016152Y-54808476D01*
X91063771Y-54760857D01*
X91111390Y-54665619D01*
X91111390Y-54284666D01*
X91587580Y-55808476D02*
X91587580Y-55237047D01*
X91587580Y-55522761D02*
X90587580Y-55522761D01*
X90730438Y-55427523D01*
X90825676Y-55332285D01*
X90873295Y-55237047D01*
X90587580Y-56713238D02*
X90587580Y-56237047D01*
X91063771Y-56189428D01*
X91016152Y-56237047D01*
X90968533Y-56332285D01*
X90968533Y-56570380D01*
X91016152Y-56665619D01*
X91063771Y-56713238D01*
X91159009Y-56760857D01*
X91397104Y-56760857D01*
X91492342Y-56713238D01*
X91539961Y-56665619D01*
X91587580Y-56570380D01*
X91587580Y-56332285D01*
X91539961Y-56237047D01*
X91492342Y-56189428D01*
%TO.C,U12*%
X123793095Y-54697380D02*
X123793095Y-55506904D01*
X123745476Y-55602142D01*
X123697857Y-55649761D01*
X123602619Y-55697380D01*
X123412142Y-55697380D01*
X123316904Y-55649761D01*
X123269285Y-55602142D01*
X123221666Y-55506904D01*
X123221666Y-54697380D01*
X122221666Y-55697380D02*
X122793095Y-55697380D01*
X122507380Y-55697380D02*
X122507380Y-54697380D01*
X122602619Y-54840238D01*
X122697857Y-54935476D01*
X122793095Y-54983095D01*
X121840714Y-54792619D02*
X121793095Y-54745000D01*
X121697857Y-54697380D01*
X121459761Y-54697380D01*
X121364523Y-54745000D01*
X121316904Y-54792619D01*
X121269285Y-54887857D01*
X121269285Y-54983095D01*
X121316904Y-55125952D01*
X121888333Y-55697380D01*
X121269285Y-55697380D01*
%TO.C,U4*%
X71181980Y-59004295D02*
X71991504Y-59004295D01*
X72086742Y-59051914D01*
X72134361Y-59099533D01*
X72181980Y-59194771D01*
X72181980Y-59385247D01*
X72134361Y-59480485D01*
X72086742Y-59528104D01*
X71991504Y-59575723D01*
X71181980Y-59575723D01*
X71515314Y-60480485D02*
X72181980Y-60480485D01*
X71134361Y-60242390D02*
X71848647Y-60004295D01*
X71848647Y-60623342D01*
%TO.C,U14*%
X69607180Y-41052904D02*
X70416704Y-41052904D01*
X70511942Y-41100523D01*
X70559561Y-41148142D01*
X70607180Y-41243380D01*
X70607180Y-41433857D01*
X70559561Y-41529095D01*
X70511942Y-41576714D01*
X70416704Y-41624333D01*
X69607180Y-41624333D01*
X70607180Y-42624333D02*
X70607180Y-42052904D01*
X70607180Y-42338619D02*
X69607180Y-42338619D01*
X69750038Y-42243380D01*
X69845276Y-42148142D01*
X69892895Y-42052904D01*
X69940514Y-43481476D02*
X70607180Y-43481476D01*
X69559561Y-43243380D02*
X70273847Y-43005285D01*
X70273847Y-43624333D01*
%TO.C,JP8*%
X78582733Y-52766980D02*
X78582733Y-53481266D01*
X78630352Y-53624123D01*
X78725590Y-53719361D01*
X78868447Y-53766980D01*
X78963685Y-53766980D01*
X78106542Y-53766980D02*
X78106542Y-52766980D01*
X77725590Y-52766980D01*
X77630352Y-52814600D01*
X77582733Y-52862219D01*
X77535114Y-52957457D01*
X77535114Y-53100314D01*
X77582733Y-53195552D01*
X77630352Y-53243171D01*
X77725590Y-53290790D01*
X78106542Y-53290790D01*
X76963685Y-53195552D02*
X77058923Y-53147933D01*
X77106542Y-53100314D01*
X77154161Y-53005076D01*
X77154161Y-52957457D01*
X77106542Y-52862219D01*
X77058923Y-52814600D01*
X76963685Y-52766980D01*
X76773209Y-52766980D01*
X76677971Y-52814600D01*
X76630352Y-52862219D01*
X76582733Y-52957457D01*
X76582733Y-53005076D01*
X76630352Y-53100314D01*
X76677971Y-53147933D01*
X76773209Y-53195552D01*
X76963685Y-53195552D01*
X77058923Y-53243171D01*
X77106542Y-53290790D01*
X77154161Y-53386028D01*
X77154161Y-53576504D01*
X77106542Y-53671742D01*
X77058923Y-53719361D01*
X76963685Y-53766980D01*
X76773209Y-53766980D01*
X76677971Y-53719361D01*
X76630352Y-53671742D01*
X76582733Y-53576504D01*
X76582733Y-53386028D01*
X76630352Y-53290790D01*
X76677971Y-53243171D01*
X76773209Y-53195552D01*
%TO.C,JP22*%
X107633923Y-52284380D02*
X107633923Y-52998666D01*
X107681542Y-53141523D01*
X107776780Y-53236761D01*
X107919638Y-53284380D01*
X108014876Y-53284380D01*
X107157733Y-53284380D02*
X107157733Y-52284380D01*
X106776780Y-52284380D01*
X106681542Y-52332000D01*
X106633923Y-52379619D01*
X106586304Y-52474857D01*
X106586304Y-52617714D01*
X106633923Y-52712952D01*
X106681542Y-52760571D01*
X106776780Y-52808190D01*
X107157733Y-52808190D01*
X106205352Y-52379619D02*
X106157733Y-52332000D01*
X106062495Y-52284380D01*
X105824400Y-52284380D01*
X105729161Y-52332000D01*
X105681542Y-52379619D01*
X105633923Y-52474857D01*
X105633923Y-52570095D01*
X105681542Y-52712952D01*
X106252971Y-53284380D01*
X105633923Y-53284380D01*
X105252971Y-52379619D02*
X105205352Y-52332000D01*
X105110114Y-52284380D01*
X104872019Y-52284380D01*
X104776780Y-52332000D01*
X104729161Y-52379619D01*
X104681542Y-52474857D01*
X104681542Y-52570095D01*
X104729161Y-52712952D01*
X105300590Y-53284380D01*
X104681542Y-53284380D01*
%TO.C,D8*%
X102820695Y-76372980D02*
X102820695Y-75372980D01*
X102582600Y-75372980D01*
X102439742Y-75420600D01*
X102344504Y-75515838D01*
X102296885Y-75611076D01*
X102249266Y-75801552D01*
X102249266Y-75944409D01*
X102296885Y-76134885D01*
X102344504Y-76230123D01*
X102439742Y-76325361D01*
X102582600Y-76372980D01*
X102820695Y-76372980D01*
X101677838Y-75801552D02*
X101773076Y-75753933D01*
X101820695Y-75706314D01*
X101868314Y-75611076D01*
X101868314Y-75563457D01*
X101820695Y-75468219D01*
X101773076Y-75420600D01*
X101677838Y-75372980D01*
X101487361Y-75372980D01*
X101392123Y-75420600D01*
X101344504Y-75468219D01*
X101296885Y-75563457D01*
X101296885Y-75611076D01*
X101344504Y-75706314D01*
X101392123Y-75753933D01*
X101487361Y-75801552D01*
X101677838Y-75801552D01*
X101773076Y-75849171D01*
X101820695Y-75896790D01*
X101868314Y-75992028D01*
X101868314Y-76182504D01*
X101820695Y-76277742D01*
X101773076Y-76325361D01*
X101677838Y-76372980D01*
X101487361Y-76372980D01*
X101392123Y-76325361D01*
X101344504Y-76277742D01*
X101296885Y-76182504D01*
X101296885Y-75992028D01*
X101344504Y-75896790D01*
X101392123Y-75849171D01*
X101487361Y-75801552D01*
%TO.C,JP2*%
X48382133Y-39711380D02*
X48382133Y-40425666D01*
X48429752Y-40568523D01*
X48524990Y-40663761D01*
X48667847Y-40711380D01*
X48763085Y-40711380D01*
X47905942Y-40711380D02*
X47905942Y-39711380D01*
X47524990Y-39711380D01*
X47429752Y-39759000D01*
X47382133Y-39806619D01*
X47334514Y-39901857D01*
X47334514Y-40044714D01*
X47382133Y-40139952D01*
X47429752Y-40187571D01*
X47524990Y-40235190D01*
X47905942Y-40235190D01*
X46953561Y-39806619D02*
X46905942Y-39759000D01*
X46810704Y-39711380D01*
X46572609Y-39711380D01*
X46477371Y-39759000D01*
X46429752Y-39806619D01*
X46382133Y-39901857D01*
X46382133Y-39997095D01*
X46429752Y-40139952D01*
X47001180Y-40711380D01*
X46382133Y-40711380D01*
%TO.C,D7*%
X117120895Y-76398380D02*
X117120895Y-75398380D01*
X116882800Y-75398380D01*
X116739942Y-75446000D01*
X116644704Y-75541238D01*
X116597085Y-75636476D01*
X116549466Y-75826952D01*
X116549466Y-75969809D01*
X116597085Y-76160285D01*
X116644704Y-76255523D01*
X116739942Y-76350761D01*
X116882800Y-76398380D01*
X117120895Y-76398380D01*
X116216133Y-75398380D02*
X115549466Y-75398380D01*
X115978038Y-76398380D01*
D12*
%TO.C,JP14*%
X93664000Y-39640000D02*
X92264000Y-39640000D01*
X94364000Y-40940000D02*
X94364000Y-40340000D01*
X92264000Y-41640000D02*
X93664000Y-41640000D01*
X91564000Y-40340000D02*
X91564000Y-40940000D01*
X94364000Y-40340000D02*
G75*
G03*
X93664000Y-39640000I-699999J1D01*
G01*
X92264000Y-39640000D02*
G75*
G03*
X91564000Y-40340000I0J-700000D01*
G01*
X93664000Y-41640000D02*
G75*
G03*
X94364000Y-40940000I1J699999D01*
G01*
X91564000Y-40940000D02*
G75*
G03*
X92264000Y-41640000I700000J0D01*
G01*
%TO.C,JP25*%
X100792000Y-56137000D02*
X101392000Y-56137000D01*
X102092000Y-55437000D02*
X102092000Y-54037000D01*
X101392000Y-53337000D02*
X100792000Y-53337000D01*
X100092000Y-54037000D02*
X100092000Y-55437000D01*
X100092000Y-55437000D02*
G75*
G03*
X100792000Y-56137000I699999J-1D01*
G01*
X100792000Y-53337000D02*
G75*
G03*
X100092000Y-54037000I0J-700000D01*
G01*
X102092000Y-54037000D02*
G75*
G03*
X101392000Y-53337000I-700000J0D01*
G01*
X101392000Y-56137000D02*
G75*
G03*
X102092000Y-55437000I1J699999D01*
G01*
%TO.C,JP11*%
X77631800Y-56336400D02*
X77631800Y-54936400D01*
X76331800Y-57036400D02*
X76931800Y-57036400D01*
X76931800Y-54236400D02*
X76331800Y-54236400D01*
X75631800Y-54936400D02*
X75631800Y-56336400D01*
X77631800Y-54936400D02*
G75*
G03*
X76931800Y-54236400I-700000J0D01*
G01*
X76931800Y-57036400D02*
G75*
G03*
X77631800Y-56336400I1J699999D01*
G01*
X75631800Y-56336400D02*
G75*
G03*
X76331800Y-57036400I699999J-1D01*
G01*
X76331800Y-54236400D02*
G75*
G03*
X75631800Y-54936400I0J-700000D01*
G01*
%TO.C,JP9*%
X78019400Y-61225200D02*
X78019400Y-62625200D01*
X79319400Y-60525200D02*
X78719400Y-60525200D01*
X78719400Y-63325200D02*
X79319400Y-63325200D01*
X80019400Y-62625200D02*
X80019400Y-61225200D01*
X78019400Y-62625200D02*
G75*
G03*
X78719400Y-63325200I699999J-1D01*
G01*
X80019400Y-61225200D02*
G75*
G03*
X79319400Y-60525200I-700000J0D01*
G01*
X79319400Y-63325200D02*
G75*
G03*
X80019400Y-62625200I1J699999D01*
G01*
X78719400Y-60525200D02*
G75*
G03*
X78019400Y-61225200I0J-700000D01*
G01*
%TO.C,TP5*%
X117921000Y-63946000D02*
X117921000Y-62546000D01*
X117921000Y-62546000D02*
X116521000Y-62546000D01*
X116521000Y-62546000D02*
X116521000Y-63946000D01*
X116521000Y-63946000D02*
X117921000Y-63946000D01*
%TO.C,JP19*%
X80026000Y-53768000D02*
X80026000Y-55168000D01*
X82026000Y-55168000D02*
X82026000Y-53768000D01*
X81326000Y-53068000D02*
X80726000Y-53068000D01*
X80726000Y-55868000D02*
X81326000Y-55868000D01*
X80026000Y-55168000D02*
G75*
G03*
X80726000Y-55868000I699999J-1D01*
G01*
X81326000Y-55868000D02*
G75*
G03*
X82026000Y-55168000I1J699999D01*
G01*
X82026000Y-53768000D02*
G75*
G03*
X81326000Y-53068000I-700000J0D01*
G01*
X80726000Y-53068000D02*
G75*
G03*
X80026000Y-53768000I0J-700000D01*
G01*
%TO.C,D10*%
X82181600Y-78800200D02*
X77881600Y-78800200D01*
X77881600Y-76800200D02*
X82181600Y-76800200D01*
X82181600Y-76800200D02*
X82181600Y-78800200D01*
%TO.C,C44*%
X75018020Y-67362800D02*
X75299180Y-67362800D01*
X75018020Y-66342800D02*
X75299180Y-66342800D01*
%TO.C,U5*%
X102382000Y-62357000D02*
X102382000Y-65807000D01*
X97262000Y-62357000D02*
X97262000Y-60407000D01*
X97262000Y-62357000D02*
X97262000Y-64307000D01*
X102382000Y-62357000D02*
X102382000Y-60407000D01*
%TO.C,D9*%
X92773400Y-76800200D02*
X92773400Y-78800200D01*
X92773400Y-78800200D02*
X88473400Y-78800200D01*
X88473400Y-76800200D02*
X92773400Y-76800200D01*
%TO.C,JP30*%
X39674000Y-83963000D02*
X38274000Y-83963000D01*
X40374000Y-85263000D02*
X40374000Y-84663000D01*
X38274000Y-85963000D02*
X39674000Y-85963000D01*
X37574000Y-84663000D02*
X37574000Y-85263000D01*
X37574000Y-85263000D02*
G75*
G03*
X38274000Y-85963000I700000J0D01*
G01*
X39674000Y-85963000D02*
G75*
G03*
X40374000Y-85263000I1J699999D01*
G01*
X38274000Y-83963000D02*
G75*
G03*
X37574000Y-84663000I0J-700000D01*
G01*
X40374000Y-84663000D02*
G75*
G03*
X39674000Y-83963000I-699999J1D01*
G01*
%TO.C,C41*%
X84988980Y-50446400D02*
X84707820Y-50446400D01*
X84988980Y-49426400D02*
X84707820Y-49426400D01*
%TO.C,U8*%
X69957000Y-54483000D02*
X69957000Y-56433000D01*
X75077000Y-54483000D02*
X75077000Y-52533000D01*
X69957000Y-54483000D02*
X69957000Y-52533000D01*
X75077000Y-54483000D02*
X75077000Y-57933000D01*
%TO.C,JP24*%
X98379000Y-63782400D02*
X98979000Y-63782400D01*
X98979000Y-60982400D02*
X98379000Y-60982400D01*
X97679000Y-61682400D02*
X97679000Y-63082400D01*
X99679000Y-63082400D02*
X99679000Y-61682400D01*
X99679000Y-61682400D02*
G75*
G03*
X98979000Y-60982400I-700000J0D01*
G01*
X98379000Y-60982400D02*
G75*
G03*
X97679000Y-61682400I0J-700000D01*
G01*
X97679000Y-63082400D02*
G75*
G03*
X98379000Y-63782400I699999J-1D01*
G01*
X98979000Y-63782400D02*
G75*
G03*
X99679000Y-63082400I1J699999D01*
G01*
%TO.C,U16*%
X87523000Y-54483000D02*
X87523000Y-52533000D01*
X82403000Y-54483000D02*
X82403000Y-56433000D01*
X87523000Y-54483000D02*
X87523000Y-57933000D01*
X82403000Y-54483000D02*
X82403000Y-52533000D01*
%TO.C,R37*%
X138510742Y-57897500D02*
X138985258Y-57897500D01*
X138510742Y-58942500D02*
X138985258Y-58942500D01*
%TO.C,JP7*%
X79183000Y-41640000D02*
X80583000Y-41640000D01*
X78483000Y-40340000D02*
X78483000Y-40940000D01*
X81283000Y-40940000D02*
X81283000Y-40340000D01*
X80583000Y-39640000D02*
X79183000Y-39640000D01*
X80583000Y-41640000D02*
G75*
G03*
X81283000Y-40940000I1J699999D01*
G01*
X79183000Y-39640000D02*
G75*
G03*
X78483000Y-40340000I0J-700000D01*
G01*
X81283000Y-40340000D02*
G75*
G03*
X80583000Y-39640000I-699999J1D01*
G01*
X78483000Y-40940000D02*
G75*
G03*
X79183000Y-41640000I700000J0D01*
G01*
%TO.C,C40*%
X72720780Y-49426400D02*
X72439620Y-49426400D01*
X72720780Y-50446400D02*
X72439620Y-50446400D01*
%TO.C,R39*%
X135208742Y-57897500D02*
X135683258Y-57897500D01*
X135208742Y-58942500D02*
X135683258Y-58942500D01*
%TO.C,JP31*%
X35029600Y-87599800D02*
X35029600Y-86999800D01*
X34329600Y-86299800D02*
X32929600Y-86299800D01*
X32229600Y-86999800D02*
X32229600Y-87599800D01*
X32929600Y-88299800D02*
X34329600Y-88299800D01*
X32929600Y-86299800D02*
G75*
G03*
X32229600Y-86999800I0J-700000D01*
G01*
X35029600Y-86999800D02*
G75*
G03*
X34329600Y-86299800I-699999J1D01*
G01*
X34329600Y-88299800D02*
G75*
G03*
X35029600Y-87599800I1J699999D01*
G01*
X32229600Y-87599800D02*
G75*
G03*
X32929600Y-88299800I700000J0D01*
G01*
%TO.C,R19*%
X64784500Y-44750258D02*
X64784500Y-44275742D01*
X63739500Y-44750258D02*
X63739500Y-44275742D01*
%TO.C,R41*%
X146003742Y-58942500D02*
X146478258Y-58942500D01*
X146003742Y-57897500D02*
X146478258Y-57897500D01*
%TO.C,C36*%
X69086000Y-48881420D02*
X69086000Y-49162580D01*
X70106000Y-48881420D02*
X70106000Y-49162580D01*
%TO.C,U9*%
X99715000Y-54483000D02*
X99715000Y-52533000D01*
X94595000Y-54483000D02*
X94595000Y-56433000D01*
X99715000Y-54483000D02*
X99715000Y-57933000D01*
X94595000Y-54483000D02*
X94595000Y-52533000D01*
%TO.C,C43*%
X97320980Y-49426400D02*
X97039820Y-49426400D01*
X97320980Y-50446400D02*
X97039820Y-50446400D01*
%TO.C,D6*%
X129908200Y-78800200D02*
X125608200Y-78800200D01*
X125608200Y-76800200D02*
X129908200Y-76800200D01*
X129908200Y-76800200D02*
X129908200Y-78800200D01*
%TO.C,C47*%
X99598820Y-66346800D02*
X99879980Y-66346800D01*
X99598820Y-67366800D02*
X99879980Y-67366800D01*
%TO.C,U6*%
X85070000Y-62357000D02*
X85070000Y-64307000D01*
X90190000Y-62357000D02*
X90190000Y-65807000D01*
X85070000Y-62357000D02*
X85070000Y-60407000D01*
X90190000Y-62357000D02*
X90190000Y-60407000D01*
%TO.C,JP18*%
X89900000Y-55168000D02*
X89900000Y-53768000D01*
X88600000Y-55868000D02*
X89200000Y-55868000D01*
X89200000Y-53068000D02*
X88600000Y-53068000D01*
X87900000Y-53768000D02*
X87900000Y-55168000D01*
X87900000Y-55168000D02*
G75*
G03*
X88600000Y-55868000I699999J-1D01*
G01*
X89900000Y-53768000D02*
G75*
G03*
X89200000Y-53068000I-700000J0D01*
G01*
X89200000Y-55868000D02*
G75*
G03*
X89900000Y-55168000I1J699999D01*
G01*
X88600000Y-53068000D02*
G75*
G03*
X87900000Y-53768000I0J-700000D01*
G01*
%TO.C,R43*%
X142827742Y-57897500D02*
X143302258Y-57897500D01*
X142827742Y-58942500D02*
X143302258Y-58942500D01*
%TO.C,JP28*%
X61133000Y-77452000D02*
X60533000Y-77452000D01*
X61833000Y-79552000D02*
X61833000Y-78152000D01*
X60533000Y-80252000D02*
X61133000Y-80252000D01*
X59833000Y-78152000D02*
X59833000Y-79552000D01*
X61833000Y-78152000D02*
G75*
G03*
X61133000Y-77452000I-700000J0D01*
G01*
X60533000Y-77452000D02*
G75*
G03*
X59833000Y-78152000I0J-700000D01*
G01*
X61133000Y-80252000D02*
G75*
G03*
X61833000Y-79552000I1J699999D01*
G01*
X59833000Y-79552000D02*
G75*
G03*
X60533000Y-80252000I699999J-1D01*
G01*
%TO.C,C45*%
X81659000Y-48881420D02*
X81659000Y-49162580D01*
X82679000Y-48881420D02*
X82679000Y-49162580D01*
%TO.C,JP29*%
X54922200Y-82224600D02*
X54922200Y-82824600D01*
X58372200Y-81524600D02*
X55572200Y-81524600D01*
X58172200Y-83724600D02*
X58472200Y-84024600D01*
X55572200Y-83524600D02*
X58372200Y-83524600D01*
X58472200Y-84024600D02*
X57872200Y-84024600D01*
X59022200Y-82824600D02*
X59022200Y-82224600D01*
X58172200Y-83724600D02*
X57872200Y-84024600D01*
X59022200Y-82224600D02*
G75*
G03*
X58322200Y-81524600I-699999J1D01*
G01*
X58322200Y-83524600D02*
G75*
G03*
X59022200Y-82824600I1J699999D01*
G01*
X55622200Y-81524600D02*
G75*
G03*
X54922200Y-82224600I0J-700000D01*
G01*
X54922200Y-82824600D02*
G75*
G03*
X55622200Y-83524600I700000J0D01*
G01*
%TO.C,JP1*%
X50100000Y-47990000D02*
X51500000Y-47990000D01*
X49400000Y-46690000D02*
X49400000Y-47290000D01*
X52200000Y-47290000D02*
X52200000Y-46690000D01*
X51500000Y-45990000D02*
X50100000Y-45990000D01*
X52200000Y-46690000D02*
G75*
G03*
X51500000Y-45990000I-700000J0D01*
G01*
X49400000Y-47290000D02*
G75*
G03*
X50100000Y-47990000I699999J-1D01*
G01*
X50100000Y-45990000D02*
G75*
G03*
X49400000Y-46690000I-1J-699999D01*
G01*
X51500000Y-47990000D02*
G75*
G03*
X52200000Y-47290000I0J700000D01*
G01*
%TO.C,U15*%
X96412000Y-42794000D02*
X97672000Y-42794000D01*
X96412000Y-46554000D02*
X96412000Y-42794000D01*
X103232000Y-42794000D02*
X101972000Y-42794000D01*
X103232000Y-48804000D02*
X103232000Y-42794000D01*
%TO.C,JP17*%
X82961200Y-63249000D02*
X83561200Y-63249000D01*
X83561200Y-60449000D02*
X82961200Y-60449000D01*
X82261200Y-61149000D02*
X82261200Y-62549000D01*
X84261200Y-62549000D02*
X84261200Y-61149000D01*
X82961200Y-60449000D02*
G75*
G03*
X82261200Y-61149000I0J-700000D01*
G01*
X84261200Y-61149000D02*
G75*
G03*
X83561200Y-60449000I-700000J0D01*
G01*
X82261200Y-62549000D02*
G75*
G03*
X82961200Y-63249000I699999J-1D01*
G01*
X83561200Y-63249000D02*
G75*
G03*
X84261200Y-62549000I1J699999D01*
G01*
%TO.C,R63*%
X76191342Y-44261300D02*
X76665858Y-44261300D01*
X76191342Y-43216300D02*
X76665858Y-43216300D01*
%TO.C,R64*%
X107710500Y-44687258D02*
X107710500Y-44212742D01*
X106665500Y-44687258D02*
X106665500Y-44212742D01*
%TO.C,U13*%
D13*
X48087803Y-46592000D02*
G75*
G03*
X48087803Y-46592000I-141803J0D01*
G01*
D12*
%TO.C,JP16*%
X91968600Y-60408600D02*
X91368600Y-60408600D01*
X90668600Y-61108600D02*
X90668600Y-62508600D01*
X91368600Y-63208600D02*
X91968600Y-63208600D01*
X92668600Y-62508600D02*
X92668600Y-61108600D01*
X91368600Y-60408600D02*
G75*
G03*
X90668600Y-61108600I0J-700000D01*
G01*
X92668600Y-61108600D02*
G75*
G03*
X91968600Y-60408600I-700000J0D01*
G01*
X90668600Y-62508600D02*
G75*
G03*
X91368600Y-63208600I699999J-1D01*
G01*
X91968600Y-63208600D02*
G75*
G03*
X92668600Y-62508600I1J699999D01*
G01*
%TO.C,D2*%
X95869000Y-47127000D02*
X93869000Y-47127000D01*
X95869000Y-42827000D02*
X95869000Y-47127000D01*
X93869000Y-47127000D02*
X93869000Y-42827000D01*
%TO.C,D3*%
X60716000Y-40148000D02*
X60716000Y-42148000D01*
X60716000Y-42148000D02*
X56416000Y-42148000D01*
X56416000Y-40148000D02*
X60716000Y-40148000D01*
%TO.C,JP10*%
X70120000Y-62038000D02*
X70120000Y-63438000D01*
X72120000Y-63438000D02*
X72120000Y-62038000D01*
X70820000Y-64138000D02*
X71420000Y-64138000D01*
X71420000Y-61338000D02*
X70820000Y-61338000D01*
X70820000Y-61338000D02*
G75*
G03*
X70120000Y-62038000I0J-700000D01*
G01*
X70120000Y-63438000D02*
G75*
G03*
X70820000Y-64138000I699999J-1D01*
G01*
X72120000Y-62038000D02*
G75*
G03*
X71420000Y-61338000I-700000J0D01*
G01*
X71420000Y-64138000D02*
G75*
G03*
X72120000Y-63438000I1J699999D01*
G01*
%TO.C,J1*%
X54162000Y-58306000D02*
X54162000Y-61836000D01*
X41342000Y-61836000D02*
X41407000Y-61836000D01*
X41342000Y-58306000D02*
X41342000Y-61836000D01*
X54097000Y-58306000D02*
X54162000Y-58306000D01*
X41342000Y-58306000D02*
X41407000Y-58306000D01*
X41407000Y-56981000D02*
X41407000Y-58306000D01*
X54097000Y-61836000D02*
X54162000Y-61836000D01*
%TO.C,JP21*%
X106683000Y-41067000D02*
X106683000Y-40467000D01*
X104583000Y-41767000D02*
X105983000Y-41767000D01*
X103883000Y-40467000D02*
X103883000Y-41067000D01*
X105983000Y-39767000D02*
X104583000Y-39767000D01*
X104583000Y-39767000D02*
G75*
G03*
X103883000Y-40467000I0J-700000D01*
G01*
X105983000Y-41767000D02*
G75*
G03*
X106683000Y-41067000I1J699999D01*
G01*
X103883000Y-41067000D02*
G75*
G03*
X104583000Y-41767000I700000J0D01*
G01*
X106683000Y-40467000D02*
G75*
G03*
X105983000Y-39767000I-699999J1D01*
G01*
%TO.C,U17*%
X83458000Y-42794000D02*
X84718000Y-42794000D01*
X83458000Y-46554000D02*
X83458000Y-42794000D01*
X90278000Y-42794000D02*
X89018000Y-42794000D01*
X90278000Y-48804000D02*
X90278000Y-42794000D01*
%TO.C,C46*%
X87477020Y-67337400D02*
X87758180Y-67337400D01*
X87477020Y-66317400D02*
X87758180Y-66317400D01*
%TO.C,C28*%
X124473580Y-68074000D02*
X124192420Y-68074000D01*
X124473580Y-67054000D02*
X124192420Y-67054000D01*
%TO.C,C37*%
X95379000Y-48881420D02*
X95379000Y-49162580D01*
X94359000Y-48881420D02*
X94359000Y-49162580D01*
%TO.C,D5*%
X145224400Y-78800200D02*
X140924400Y-78800200D01*
X145224400Y-76800200D02*
X145224400Y-78800200D01*
X140924400Y-76800200D02*
X145224400Y-76800200D01*
%TO.C,D24*%
X73136000Y-35715000D02*
X73136000Y-40015000D01*
X71136000Y-40015000D02*
X71136000Y-35715000D01*
X73136000Y-40015000D02*
X71136000Y-40015000D01*
%TO.C,JP26*%
X93518000Y-53337000D02*
X92918000Y-53337000D01*
X92918000Y-56137000D02*
X93518000Y-56137000D01*
X92218000Y-54037000D02*
X92218000Y-55437000D01*
X94218000Y-55437000D02*
X94218000Y-54037000D01*
X92918000Y-53337000D02*
G75*
G03*
X92218000Y-54037000I0J-700000D01*
G01*
X92218000Y-55437000D02*
G75*
G03*
X92918000Y-56137000I699999J-1D01*
G01*
X93518000Y-56137000D02*
G75*
G03*
X94218000Y-55437000I1J699999D01*
G01*
X94218000Y-54037000D02*
G75*
G03*
X93518000Y-53337000I-700000J0D01*
G01*
%TO.C,JP23*%
X100168200Y-61682400D02*
X100168200Y-63082400D01*
X100868200Y-63782400D02*
X101468200Y-63782400D01*
X101468200Y-60982400D02*
X100868200Y-60982400D01*
X102168200Y-63082400D02*
X102168200Y-61682400D01*
X100168200Y-63082400D02*
G75*
G03*
X100868200Y-63782400I699999J-1D01*
G01*
X102168200Y-61682400D02*
G75*
G03*
X101468200Y-60982400I-700000J0D01*
G01*
X101468200Y-63782400D02*
G75*
G03*
X102168200Y-63082400I1J699999D01*
G01*
X100868200Y-60982400D02*
G75*
G03*
X100168200Y-61682400I0J-700000D01*
G01*
%TO.C,R65*%
X89447900Y-44585658D02*
X89447900Y-44111142D01*
X88402900Y-44585658D02*
X88402900Y-44111142D01*
%TO.C,JP12*%
X68280000Y-55898000D02*
X68880000Y-55898000D01*
X68880000Y-53098000D02*
X68280000Y-53098000D01*
X69580000Y-55198000D02*
X69580000Y-53798000D01*
X67580000Y-53798000D02*
X67580000Y-55198000D01*
X68280000Y-53098000D02*
G75*
G03*
X67580000Y-53798000I0J-700000D01*
G01*
X68880000Y-55898000D02*
G75*
G03*
X69580000Y-55198000I1J699999D01*
G01*
X69580000Y-53798000D02*
G75*
G03*
X68880000Y-53098000I-700000J0D01*
G01*
X67580000Y-55198000D02*
G75*
G03*
X68280000Y-55898000I699999J-1D01*
G01*
%TO.C,JP15*%
X88008000Y-51008000D02*
X88008000Y-51608000D01*
X88708000Y-52308000D02*
X90108000Y-52308000D01*
X90108000Y-50308000D02*
X88708000Y-50308000D01*
X90808000Y-51608000D02*
X90808000Y-51008000D01*
X88708000Y-50308000D02*
G75*
G03*
X88008000Y-51008000I0J-700000D01*
G01*
X88008000Y-51608000D02*
G75*
G03*
X88708000Y-52308000I700000J0D01*
G01*
X90108000Y-52308000D02*
G75*
G03*
X90808000Y-51608000I1J699999D01*
G01*
X90808000Y-51008000D02*
G75*
G03*
X90108000Y-50308000I-699999J1D01*
G01*
%TO.C,U12*%
X122555000Y-56281000D02*
X124505000Y-56281000D01*
X122555000Y-66401000D02*
X119105000Y-66401000D01*
X122555000Y-66401000D02*
X124505000Y-66401000D01*
X122555000Y-56281000D02*
X120605000Y-56281000D01*
%TO.C,U4*%
X72497000Y-62357000D02*
X72497000Y-64307000D01*
X77617000Y-62357000D02*
X77617000Y-60407000D01*
X72497000Y-62357000D02*
X72497000Y-60407000D01*
X77617000Y-62357000D02*
X77617000Y-65807000D01*
%TO.C,U14*%
X77832000Y-48804000D02*
X77832000Y-42794000D01*
X71012000Y-42794000D02*
X72272000Y-42794000D01*
X77832000Y-42794000D02*
X76572000Y-42794000D01*
X71012000Y-46554000D02*
X71012000Y-42794000D01*
%TO.C,JP8*%
X75631800Y-50212000D02*
X75631800Y-51612000D01*
X77631800Y-51612000D02*
X77631800Y-50212000D01*
X76931800Y-49512000D02*
X76331800Y-49512000D01*
X76331800Y-52312000D02*
X76931800Y-52312000D01*
X76931800Y-52312000D02*
G75*
G03*
X77631800Y-51612000I1J699999D01*
G01*
X75631800Y-51612000D02*
G75*
G03*
X76331800Y-52312000I699999J-1D01*
G01*
X76331800Y-49512000D02*
G75*
G03*
X75631800Y-50212000I0J-700000D01*
G01*
X77631800Y-50212000D02*
G75*
G03*
X76931800Y-49512000I-700000J0D01*
G01*
%TO.C,JP22*%
X102823000Y-50562000D02*
X101423000Y-50562000D01*
X100723000Y-51262000D02*
X100723000Y-51862000D01*
X101423000Y-52562000D02*
X102823000Y-52562000D01*
X103523000Y-51862000D02*
X103523000Y-51262000D01*
X100723000Y-51862000D02*
G75*
G03*
X101423000Y-52562000I700000J0D01*
G01*
X103523000Y-51262000D02*
G75*
G03*
X102823000Y-50562000I-699999J1D01*
G01*
X101423000Y-50562000D02*
G75*
G03*
X100723000Y-51262000I0J-700000D01*
G01*
X102823000Y-52562000D02*
G75*
G03*
X103523000Y-51862000I1J699999D01*
G01*
%TO.C,D8*%
X104480200Y-78800200D02*
X100180200Y-78800200D01*
X100180200Y-76800200D02*
X104480200Y-76800200D01*
X104480200Y-76800200D02*
X104480200Y-78800200D01*
%TO.C,JP2*%
X49288000Y-40721000D02*
X49288000Y-41321000D01*
X49988000Y-42021000D02*
X51388000Y-42021000D01*
X52088000Y-41321000D02*
X52088000Y-40721000D01*
X51388000Y-40021000D02*
X49988000Y-40021000D01*
X51388000Y-42021000D02*
G75*
G03*
X52088000Y-41321000I0J700000D01*
G01*
X52088000Y-40721000D02*
G75*
G03*
X51388000Y-40021000I-700000J0D01*
G01*
X49288000Y-41321000D02*
G75*
G03*
X49988000Y-42021000I699999J-1D01*
G01*
X49988000Y-40021000D02*
G75*
G03*
X49288000Y-40721000I-1J-699999D01*
G01*
%TO.C,D7*%
X118960800Y-76800200D02*
X118960800Y-78800200D01*
X118960800Y-78800200D02*
X114660800Y-78800200D01*
X114660800Y-76800200D02*
X118960800Y-76800200D01*
%TD*%
%LPC*%
D14*
%TO.C,J14*%
X135432800Y-81584800D03*
D15*
X135432800Y-79044800D03*
X135432800Y-76504800D03*
%TD*%
D16*
%TO.C,mouse-bite-3mm-slot*%
X142500000Y-27000000D03*
X141738000Y-30000000D03*
X140988000Y-27000000D03*
X144024000Y-27000000D03*
X142500000Y-30000000D03*
X144024000Y-30000000D03*
X143250000Y-30000000D03*
X140988000Y-30000000D03*
X143250000Y-27000000D03*
X141750000Y-27000000D03*
%TD*%
D17*
%TO.C,H1*%
X35000000Y-21000000D03*
%TD*%
D14*
%TO.C,J9*%
X74422000Y-89154000D03*
D15*
X76962000Y-89154000D03*
%TD*%
D17*
%TO.C,H4*%
X35000000Y-111000000D03*
%TD*%
D18*
%TO.C,K4*%
X120142000Y-85852000D03*
X120142000Y-75692000D03*
X120142000Y-73152000D03*
X112522000Y-73152000D03*
X112522000Y-75692000D03*
X112522000Y-85852000D03*
%TD*%
D19*
%TO.C,PS2*%
X111570500Y-65583500D03*
D20*
X111570500Y-63043500D03*
X111570500Y-60503500D03*
X111570500Y-57963500D03*
%TD*%
D16*
%TO.C,mouse-bite-3mm-slot*%
X142500000Y-105000000D03*
X141750000Y-102000000D03*
X144024000Y-102000000D03*
X143250000Y-105000000D03*
X140988000Y-105000000D03*
X140988000Y-102000000D03*
X144024000Y-105000000D03*
X142500000Y-102000000D03*
X141738000Y-105000000D03*
X143250000Y-102000000D03*
%TD*%
D14*
%TO.C,J5*%
X99822000Y-89154000D03*
D15*
X97282000Y-89154000D03*
%TD*%
D14*
%TO.C,J10*%
X140512800Y-89154000D03*
D15*
X137972800Y-89154000D03*
%TD*%
D16*
%TO.C,mouse-bite-3mm-slot*%
X38250000Y-105000000D03*
X35988000Y-102000000D03*
X37500000Y-105000000D03*
X36738000Y-105000000D03*
X38250000Y-102000000D03*
X35988000Y-105000000D03*
X39024000Y-105000000D03*
X37500000Y-102000000D03*
X39024000Y-102000000D03*
X36750000Y-102000000D03*
%TD*%
D14*
%TO.C,J16*%
X108305600Y-81584800D03*
D15*
X108305600Y-79044800D03*
X108305600Y-76504800D03*
%TD*%
D14*
%TO.C,J13*%
X112517000Y-89154000D03*
D15*
X115057000Y-89154000D03*
%TD*%
D17*
%TO.C,H3*%
X145000000Y-111000000D03*
%TD*%
D19*
%TO.C,PS5*%
X92137500Y-50800000D03*
D20*
X92137500Y-48260000D03*
X92137500Y-45720000D03*
X92137500Y-43180000D03*
%TD*%
D21*
%TO.C,X2*%
X75055000Y-37000000D03*
D22*
X78865000Y-37000000D03*
X82675000Y-37000000D03*
X86485000Y-37000000D03*
X90295000Y-37000000D03*
X94105000Y-37000000D03*
X97915000Y-37000000D03*
X101725000Y-37000000D03*
X105535000Y-37000000D03*
%TD*%
D23*
%TO.C,U1*%
X69688500Y-70032500D03*
D24*
X67148500Y-70032500D03*
X64608500Y-70032500D03*
%TD*%
D18*
%TO.C,K3*%
X131318000Y-85852000D03*
X131318000Y-75692000D03*
X131318000Y-73152000D03*
X123698000Y-73152000D03*
X123698000Y-75692000D03*
X123698000Y-85852000D03*
%TD*%
D21*
%TO.C,X1*%
X35560000Y-36957000D03*
D22*
X39370000Y-36957000D03*
X43180000Y-36957000D03*
X46990000Y-36957000D03*
X50800000Y-36957000D03*
X54610000Y-36957000D03*
X58420000Y-36957000D03*
X62230000Y-36957000D03*
X66040000Y-36957000D03*
%TD*%
D16*
%TO.C,mouse-bite-3mm-slot*%
X37500000Y-30000000D03*
X35988000Y-27000000D03*
X39024000Y-30000000D03*
X36750000Y-27000000D03*
X38250000Y-30000000D03*
X36738000Y-30000000D03*
X37500000Y-27000000D03*
X39024000Y-27000000D03*
X38250000Y-27000000D03*
X35988000Y-30000000D03*
%TD*%
D18*
%TO.C,K7*%
X83058000Y-85852000D03*
X83058000Y-75692000D03*
X83058000Y-73152000D03*
X75438000Y-73152000D03*
X75438000Y-75692000D03*
X75438000Y-85852000D03*
%TD*%
D16*
%TO.C,mouse-bite-3mm-slot*%
X89250000Y-102000000D03*
X90000000Y-105000000D03*
X90000000Y-102000000D03*
X88488000Y-105000000D03*
X91524000Y-102000000D03*
X89238000Y-105000000D03*
X90750000Y-105000000D03*
X91524000Y-105000000D03*
X90750000Y-102000000D03*
X88488000Y-102000000D03*
%TD*%
D25*
%TO.C,X5*%
X105500000Y-95000000D03*
D22*
X101690000Y-95000000D03*
X97880000Y-95000000D03*
X94070000Y-95000000D03*
X90260000Y-95000000D03*
X86450000Y-95000000D03*
X82640000Y-95000000D03*
X78830000Y-95000000D03*
X75020000Y-95000000D03*
%TD*%
D16*
%TO.C,mouse-bite-3mm-slot*%
X91524000Y-30000000D03*
X90000000Y-30000000D03*
X90000000Y-27000000D03*
X90750000Y-27000000D03*
X88488000Y-27000000D03*
X91524000Y-27000000D03*
X89238000Y-30000000D03*
X90750000Y-30000000D03*
X89250000Y-27000000D03*
X88488000Y-30000000D03*
%TD*%
D14*
%TO.C,J11*%
X33065800Y-79796400D03*
D15*
X35605800Y-79796400D03*
X33065800Y-82336400D03*
X35605800Y-82336400D03*
X33065800Y-84876400D03*
X35605800Y-84876400D03*
%TD*%
D17*
%TO.C,H2*%
X145000000Y-21000000D03*
%TD*%
D21*
%TO.C,X3*%
X114554000Y-37000000D03*
D22*
X118364000Y-37000000D03*
X122174000Y-37000000D03*
X125984000Y-37000000D03*
X129794000Y-37000000D03*
X133604000Y-37000000D03*
X137414000Y-37000000D03*
X141224000Y-37000000D03*
X145034000Y-37000000D03*
%TD*%
D18*
%TO.C,K2*%
X146558000Y-85852000D03*
X146558000Y-75692000D03*
X146558000Y-73152000D03*
X138938000Y-73152000D03*
X138938000Y-75692000D03*
X138938000Y-85852000D03*
%TD*%
%TO.C,K6*%
X93980000Y-85852000D03*
X93980000Y-75692000D03*
X93980000Y-73152000D03*
X86360000Y-73152000D03*
X86360000Y-75692000D03*
X86360000Y-85852000D03*
%TD*%
D25*
%TO.C,X4*%
X66000000Y-95000000D03*
D22*
X62190000Y-95000000D03*
X58380000Y-95000000D03*
X54570000Y-95000000D03*
X50760000Y-95000000D03*
X46950000Y-95000000D03*
X43140000Y-95000000D03*
X39330000Y-95000000D03*
X35520000Y-95000000D03*
%TD*%
D14*
%TO.C,J2*%
X60553600Y-49697400D03*
D15*
X60553600Y-52237400D03*
X60553600Y-54777400D03*
%TD*%
D25*
%TO.C,X6*%
X145000000Y-95000000D03*
D22*
X141190000Y-95000000D03*
X137380000Y-95000000D03*
X133570000Y-95000000D03*
X129760000Y-95000000D03*
X125950000Y-95000000D03*
X122140000Y-95000000D03*
X118330000Y-95000000D03*
X114520000Y-95000000D03*
%TD*%
D14*
%TO.C,J4*%
X60553600Y-58618200D03*
D15*
X60553600Y-61158200D03*
%TD*%
D14*
%TO.C,J12*%
X122275600Y-89154000D03*
D15*
X119735600Y-89154000D03*
%TD*%
D19*
%TO.C,PS3*%
X79437500Y-50800000D03*
D20*
X79437500Y-48260000D03*
X79437500Y-45720000D03*
X79437500Y-43180000D03*
%TD*%
D14*
%TO.C,J15*%
X131176000Y-89154000D03*
D15*
X128636000Y-89154000D03*
X126096000Y-89154000D03*
%TD*%
D18*
%TO.C,K5*%
X104902000Y-85852000D03*
X104902000Y-75692000D03*
X104902000Y-73152000D03*
X97282000Y-73152000D03*
X97282000Y-75692000D03*
X97282000Y-85852000D03*
%TD*%
D19*
%TO.C,PS4*%
X104837500Y-50800000D03*
D20*
X104837500Y-48260000D03*
X104837500Y-45720000D03*
X104837500Y-43180000D03*
%TD*%
D14*
%TO.C,J8*%
X87117000Y-89154000D03*
D15*
X89657000Y-89154000D03*
%TD*%
D23*
%TO.C,U19*%
X53755500Y-78303500D03*
D24*
X56295500Y-78303500D03*
X58835500Y-78303500D03*
%TD*%
D19*
%TO.C,PS1*%
X66864500Y-50851500D03*
D20*
X66864500Y-48311500D03*
X66864500Y-45771500D03*
X66864500Y-43231500D03*
%TD*%
D26*
%TO.C,JP14*%
X93614000Y-40640000D03*
D27*
X92314000Y-40640000D03*
%TD*%
D28*
%TO.C,JP25*%
X101092000Y-55387000D03*
D29*
X101092000Y-54087000D03*
%TD*%
D28*
%TO.C,JP11*%
X76631800Y-56286400D03*
D29*
X76631800Y-54986400D03*
%TD*%
D28*
%TO.C,JP9*%
X79019400Y-62575200D03*
D29*
X79019400Y-61275200D03*
%TD*%
D30*
%TO.C,TP5*%
X117221000Y-63246000D03*
%TD*%
D28*
%TO.C,JP19*%
X81026000Y-55118000D03*
D29*
X81026000Y-53818000D03*
%TD*%
D31*
%TO.C,D10*%
X81381600Y-77800200D03*
X77881600Y-77800200D03*
%TD*%
D32*
%TO.C,C44*%
X74383600Y-66852800D03*
X75933600Y-66852800D03*
%TD*%
D33*
%TO.C,U5*%
X101727000Y-64832000D03*
X100457000Y-64832000D03*
X99187000Y-64832000D03*
X97917000Y-64832000D03*
X97917000Y-59882000D03*
X99187000Y-59882000D03*
X100457000Y-59882000D03*
X101727000Y-59882000D03*
%TD*%
D31*
%TO.C,D9*%
X91973400Y-77800200D03*
X88473400Y-77800200D03*
%TD*%
D34*
%TO.C,JP3*%
X50038000Y-45008800D03*
D35*
X51338000Y-45008800D03*
%TD*%
D26*
%TO.C,JP30*%
X39624000Y-84963000D03*
D27*
X38324000Y-84963000D03*
%TD*%
D36*
%TO.C,C41*%
X85623400Y-49936400D03*
X84073400Y-49936400D03*
%TD*%
D33*
%TO.C,U8*%
X74422000Y-56958000D03*
X73152000Y-56958000D03*
X71882000Y-56958000D03*
X70612000Y-56958000D03*
X70612000Y-52008000D03*
X71882000Y-52008000D03*
X73152000Y-52008000D03*
X74422000Y-52008000D03*
%TD*%
D28*
%TO.C,JP24*%
X98679000Y-63032400D03*
D29*
X98679000Y-61732400D03*
%TD*%
D33*
%TO.C,U16*%
X86868000Y-56958000D03*
X85598000Y-56958000D03*
X84328000Y-56958000D03*
X83058000Y-56958000D03*
X83058000Y-52008000D03*
X84328000Y-52008000D03*
X85598000Y-52008000D03*
X86868000Y-52008000D03*
%TD*%
D37*
%TO.C,R37*%
X137923000Y-58420000D03*
X139573000Y-58420000D03*
%TD*%
D26*
%TO.C,JP7*%
X80533000Y-40640000D03*
D27*
X79233000Y-40640000D03*
%TD*%
D36*
%TO.C,C40*%
X73355200Y-49936400D03*
X71805200Y-49936400D03*
%TD*%
D37*
%TO.C,R39*%
X134621000Y-58420000D03*
X136271000Y-58420000D03*
%TD*%
D26*
%TO.C,JP31*%
X34279600Y-87299800D03*
D27*
X32979600Y-87299800D03*
%TD*%
D38*
%TO.C,R19*%
X64262000Y-45338000D03*
X64262000Y-43688000D03*
%TD*%
D37*
%TO.C,R41*%
X145416000Y-58420000D03*
X147066000Y-58420000D03*
%TD*%
D39*
%TO.C,C36*%
X69596000Y-48247000D03*
X69596000Y-49797000D03*
%TD*%
D34*
%TO.C,JP4*%
X50038000Y-43027600D03*
D35*
X51338000Y-43027600D03*
%TD*%
D33*
%TO.C,U9*%
X99060000Y-56958000D03*
X97790000Y-56958000D03*
X96520000Y-56958000D03*
X95250000Y-56958000D03*
X95250000Y-52008000D03*
X96520000Y-52008000D03*
X97790000Y-52008000D03*
X99060000Y-52008000D03*
%TD*%
D36*
%TO.C,C43*%
X97955400Y-49936400D03*
X96405400Y-49936400D03*
%TD*%
D31*
%TO.C,D6*%
X129108200Y-77800200D03*
X125608200Y-77800200D03*
%TD*%
D32*
%TO.C,C47*%
X98964400Y-66856800D03*
X100514400Y-66856800D03*
%TD*%
D33*
%TO.C,U6*%
X89535000Y-64832000D03*
X88265000Y-64832000D03*
X86995000Y-64832000D03*
X85725000Y-64832000D03*
X85725000Y-59882000D03*
X86995000Y-59882000D03*
X88265000Y-59882000D03*
X89535000Y-59882000D03*
%TD*%
D28*
%TO.C,JP18*%
X88900000Y-55118000D03*
D29*
X88900000Y-53818000D03*
%TD*%
D37*
%TO.C,R43*%
X142240000Y-58420000D03*
X143890000Y-58420000D03*
%TD*%
D28*
%TO.C,JP28*%
X60833000Y-79502000D03*
D29*
X60833000Y-78202000D03*
%TD*%
D39*
%TO.C,C45*%
X82169000Y-48247000D03*
X82169000Y-49797000D03*
%TD*%
D40*
%TO.C,JP29*%
X58272200Y-82524600D03*
D41*
X56972200Y-82524600D03*
D42*
X55672200Y-82524600D03*
%TD*%
D34*
%TO.C,JP1*%
X50150000Y-46990000D03*
D35*
X51450000Y-46990000D03*
%TD*%
D43*
%TO.C,U15*%
X102122000Y-47854000D03*
X99822000Y-47854000D03*
D44*
X99822000Y-41554000D03*
D43*
X97522000Y-47854000D03*
%TD*%
D28*
%TO.C,JP17*%
X83261200Y-62499000D03*
D29*
X83261200Y-61199000D03*
%TD*%
D37*
%TO.C,R63*%
X75603600Y-43738800D03*
X77253600Y-43738800D03*
%TD*%
D38*
%TO.C,R64*%
X107188000Y-45275000D03*
X107188000Y-43625000D03*
%TD*%
D45*
%TO.C,U13*%
X48071000Y-45847000D03*
X48071000Y-44577000D03*
X48071000Y-43307000D03*
X48071000Y-42037000D03*
X53021000Y-42037000D03*
X53021000Y-43307000D03*
X53021000Y-44577000D03*
X53021000Y-45847000D03*
%TD*%
D28*
%TO.C,JP16*%
X91668600Y-62458600D03*
D29*
X91668600Y-61158600D03*
%TD*%
D46*
%TO.C,D2*%
X94869000Y-46327000D03*
X94869000Y-42827000D03*
%TD*%
D31*
%TO.C,D3*%
X59916000Y-41148000D03*
X56416000Y-41148000D03*
%TD*%
D28*
%TO.C,JP10*%
X71120000Y-63388000D03*
D29*
X71120000Y-62088000D03*
%TD*%
D47*
%TO.C,J1*%
X42037000Y-58121000D03*
X42037000Y-62021000D03*
X43307000Y-58121000D03*
X43307000Y-62021000D03*
X44577000Y-58121000D03*
X44577000Y-62021000D03*
X45847000Y-58121000D03*
X45847000Y-62021000D03*
X47117000Y-58121000D03*
X47117000Y-62021000D03*
X48387000Y-58121000D03*
X48387000Y-62021000D03*
X49657000Y-58121000D03*
X49657000Y-62021000D03*
X50927000Y-58121000D03*
X50927000Y-62021000D03*
X52197000Y-58121000D03*
X52197000Y-62021000D03*
X53467000Y-58121000D03*
X53467000Y-62021000D03*
%TD*%
D26*
%TO.C,JP21*%
X105933000Y-40767000D03*
D27*
X104633000Y-40767000D03*
%TD*%
D43*
%TO.C,U17*%
X89168000Y-47854000D03*
X86868000Y-47854000D03*
D44*
X86868000Y-41554000D03*
D43*
X84568000Y-47854000D03*
%TD*%
D32*
%TO.C,C46*%
X86842600Y-66827400D03*
X88392600Y-66827400D03*
%TD*%
D36*
%TO.C,C28*%
X125108000Y-67564000D03*
X123558000Y-67564000D03*
%TD*%
D39*
%TO.C,C37*%
X94869000Y-48247000D03*
X94869000Y-49797000D03*
%TD*%
D31*
%TO.C,D5*%
X144424400Y-77800200D03*
X140924400Y-77800200D03*
%TD*%
D46*
%TO.C,D24*%
X72136000Y-39215000D03*
X72136000Y-35715000D03*
%TD*%
D28*
%TO.C,JP26*%
X93218000Y-55387000D03*
D29*
X93218000Y-54087000D03*
%TD*%
D28*
%TO.C,JP23*%
X101168200Y-63032400D03*
D29*
X101168200Y-61732400D03*
%TD*%
D38*
%TO.C,R65*%
X88925400Y-45173400D03*
X88925400Y-43523400D03*
%TD*%
D28*
%TO.C,JP12*%
X68580000Y-55148000D03*
D29*
X68580000Y-53848000D03*
%TD*%
D26*
%TO.C,JP15*%
X90058000Y-51308000D03*
D27*
X88758000Y-51308000D03*
%TD*%
D45*
%TO.C,U12*%
X120080000Y-65786000D03*
X120080000Y-64516000D03*
X120080000Y-63246000D03*
X120080000Y-61976000D03*
X120080000Y-60706000D03*
X120080000Y-59436000D03*
X120080000Y-58166000D03*
X120080000Y-56896000D03*
X125030000Y-56896000D03*
X125030000Y-58166000D03*
X125030000Y-59436000D03*
X125030000Y-60706000D03*
X125030000Y-61976000D03*
X125030000Y-63246000D03*
X125030000Y-64516000D03*
X125030000Y-65786000D03*
%TD*%
D33*
%TO.C,U4*%
X76962000Y-64832000D03*
X75692000Y-64832000D03*
X74422000Y-64832000D03*
X73152000Y-64832000D03*
X73152000Y-59882000D03*
X74422000Y-59882000D03*
X75692000Y-59882000D03*
X76962000Y-59882000D03*
%TD*%
D43*
%TO.C,U14*%
X76722000Y-47854000D03*
X74422000Y-47854000D03*
D44*
X74422000Y-41554000D03*
D43*
X72122000Y-47854000D03*
%TD*%
D28*
%TO.C,JP8*%
X76631800Y-51562000D03*
D29*
X76631800Y-50262000D03*
%TD*%
D26*
%TO.C,JP22*%
X102773000Y-51562000D03*
D27*
X101473000Y-51562000D03*
%TD*%
D31*
%TO.C,D8*%
X103680200Y-77800200D03*
X100180200Y-77800200D03*
%TD*%
D34*
%TO.C,JP2*%
X50038000Y-41021000D03*
D35*
X51338000Y-41021000D03*
%TD*%
D31*
%TO.C,D7*%
X118160800Y-77800200D03*
X114660800Y-77800200D03*
%TD*%
M02*
