%TF.GenerationSoftware,KiCad,Pcbnew,(6.0.4)*%
%TF.CreationDate,2022-12-17T19:50:05+01:00*%
%TF.ProjectId,bsc,6273632e-6b69-4636-9164-5f7063625858,rev?*%
%TF.SameCoordinates,Original*%
%TF.FileFunction,Copper,L1,Top*%
%TF.FilePolarity,Positive*%
%FSLAX46Y46*%
G04 Gerber Fmt 4.6, Leading zero omitted, Abs format (unit mm)*
G04 Created by KiCad (PCBNEW (6.0.4)) date 2022-12-17 19:50:05*
%MOMM*%
%LPD*%
G01*
G04 APERTURE LIST*
G04 Aperture macros list*
%AMRoundRect*
0 Rectangle with rounded corners*
0 $1 Rounding radius*
0 $2 $3 $4 $5 $6 $7 $8 $9 X,Y pos of 4 corners*
0 Add a 4 corners polygon primitive as box body*
4,1,4,$2,$3,$4,$5,$6,$7,$8,$9,$2,$3,0*
0 Add four circle primitives for the rounded corners*
1,1,$1+$1,$2,$3*
1,1,$1+$1,$4,$5*
1,1,$1+$1,$6,$7*
1,1,$1+$1,$8,$9*
0 Add four rect primitives between the rounded corners*
20,1,$1+$1,$2,$3,$4,$5,0*
20,1,$1+$1,$4,$5,$6,$7,0*
20,1,$1+$1,$6,$7,$8,$9,0*
20,1,$1+$1,$8,$9,$2,$3,0*%
%AMFreePoly0*
4,1,22,0.500000,-0.750000,0.000000,-0.750000,0.000000,-0.745033,-0.079941,-0.743568,-0.215256,-0.701293,-0.333266,-0.622738,-0.424486,-0.514219,-0.481581,-0.384460,-0.499164,-0.250000,-0.500000,-0.250000,-0.500000,0.250000,-0.499164,0.250000,-0.499963,0.256109,-0.478152,0.396186,-0.417904,0.524511,-0.324060,0.630769,-0.204165,0.706417,-0.067858,0.745374,0.000000,0.744959,0.000000,0.750000,
0.500000,0.750000,0.500000,-0.750000,0.500000,-0.750000,$1*%
%AMFreePoly1*
4,1,20,0.000000,0.744959,0.073905,0.744508,0.209726,0.703889,0.328688,0.626782,0.421226,0.519385,0.479903,0.390333,0.500000,0.250000,0.500000,-0.250000,0.499851,-0.262216,0.476331,-0.402017,0.414519,-0.529596,0.319384,-0.634700,0.198574,-0.708877,0.061801,-0.746166,0.000000,-0.745033,0.000000,-0.750000,-0.500000,-0.750000,-0.500000,0.750000,0.000000,0.750000,0.000000,0.744959,
0.000000,0.744959,$1*%
G04 Aperture macros list end*
%TA.AperFunction,ComponentPad*%
%ADD10R,1.700000X1.700000*%
%TD*%
%TA.AperFunction,ComponentPad*%
%ADD11O,1.700000X1.700000*%
%TD*%
%TA.AperFunction,SMDPad,CuDef*%
%ADD12RoundRect,0.250000X0.650000X-0.325000X0.650000X0.325000X-0.650000X0.325000X-0.650000X-0.325000X0*%
%TD*%
%TA.AperFunction,SMDPad,CuDef*%
%ADD13RoundRect,0.225000X-0.250000X0.225000X-0.250000X-0.225000X0.250000X-0.225000X0.250000X0.225000X0*%
%TD*%
%TA.AperFunction,SMDPad,CuDef*%
%ADD14RoundRect,0.250000X-0.475000X0.250000X-0.475000X-0.250000X0.475000X-0.250000X0.475000X0.250000X0*%
%TD*%
%TA.AperFunction,SMDPad,CuDef*%
%ADD15RoundRect,0.200000X0.275000X-0.200000X0.275000X0.200000X-0.275000X0.200000X-0.275000X-0.200000X0*%
%TD*%
%TA.AperFunction,SMDPad,CuDef*%
%ADD16R,1.300000X1.700000*%
%TD*%
%TA.AperFunction,SMDPad,CuDef*%
%ADD17RoundRect,0.150000X-0.825000X-0.150000X0.825000X-0.150000X0.825000X0.150000X-0.825000X0.150000X0*%
%TD*%
%TA.AperFunction,SMDPad,CuDef*%
%ADD18RoundRect,0.150000X0.150000X-0.587500X0.150000X0.587500X-0.150000X0.587500X-0.150000X-0.587500X0*%
%TD*%
%TA.AperFunction,SMDPad,CuDef*%
%ADD19RoundRect,0.225000X-0.225000X-0.250000X0.225000X-0.250000X0.225000X0.250000X-0.225000X0.250000X0*%
%TD*%
%TA.AperFunction,SMDPad,CuDef*%
%ADD20RoundRect,0.200000X0.200000X0.275000X-0.200000X0.275000X-0.200000X-0.275000X0.200000X-0.275000X0*%
%TD*%
%TA.AperFunction,SMDPad,CuDef*%
%ADD21RoundRect,0.200000X-0.275000X0.200000X-0.275000X-0.200000X0.275000X-0.200000X0.275000X0.200000X0*%
%TD*%
%TA.AperFunction,SMDPad,CuDef*%
%ADD22R,1.000000X1.000000*%
%TD*%
%TA.AperFunction,ComponentPad*%
%ADD23O,2.300000X1.600000*%
%TD*%
%TA.AperFunction,SMDPad,CuDef*%
%ADD24RoundRect,0.150000X0.825000X0.150000X-0.825000X0.150000X-0.825000X-0.150000X0.825000X-0.150000X0*%
%TD*%
%TA.AperFunction,SMDPad,CuDef*%
%ADD25RoundRect,0.150000X0.587500X0.150000X-0.587500X0.150000X-0.587500X-0.150000X0.587500X-0.150000X0*%
%TD*%
%TA.AperFunction,ComponentPad*%
%ADD26R,2.250000X1.750000*%
%TD*%
%TA.AperFunction,ComponentPad*%
%ADD27O,2.250000X1.750000*%
%TD*%
%TA.AperFunction,SMDPad,CuDef*%
%ADD28RoundRect,0.225000X0.225000X0.250000X-0.225000X0.250000X-0.225000X-0.250000X0.225000X-0.250000X0*%
%TD*%
%TA.AperFunction,SMDPad,CuDef*%
%ADD29RoundRect,0.250000X-0.325000X-0.650000X0.325000X-0.650000X0.325000X0.650000X-0.325000X0.650000X0*%
%TD*%
%TA.AperFunction,SMDPad,CuDef*%
%ADD30FreePoly0,0.000000*%
%TD*%
%TA.AperFunction,SMDPad,CuDef*%
%ADD31FreePoly1,0.000000*%
%TD*%
%TA.AperFunction,SMDPad,CuDef*%
%ADD32RoundRect,0.200000X-0.200000X-0.275000X0.200000X-0.275000X0.200000X0.275000X-0.200000X0.275000X0*%
%TD*%
%TA.AperFunction,SMDPad,CuDef*%
%ADD33RoundRect,0.250000X-0.650000X0.325000X-0.650000X-0.325000X0.650000X-0.325000X0.650000X0.325000X0*%
%TD*%
%TA.AperFunction,ComponentPad*%
%ADD34RoundRect,0.250000X-0.650000X-1.550000X0.650000X-1.550000X0.650000X1.550000X-0.650000X1.550000X0*%
%TD*%
%TA.AperFunction,ComponentPad*%
%ADD35O,1.800000X3.600000*%
%TD*%
%TA.AperFunction,SMDPad,CuDef*%
%ADD36RoundRect,0.218750X-0.256250X0.218750X-0.256250X-0.218750X0.256250X-0.218750X0.256250X0.218750X0*%
%TD*%
%TA.AperFunction,ComponentPad*%
%ADD37R,1.500000X2.300000*%
%TD*%
%TA.AperFunction,ComponentPad*%
%ADD38O,1.500000X2.300000*%
%TD*%
%TA.AperFunction,SMDPad,CuDef*%
%ADD39R,0.400000X0.650000*%
%TD*%
%TA.AperFunction,SMDPad,CuDef*%
%ADD40RoundRect,0.150000X0.150000X-0.650000X0.150000X0.650000X-0.150000X0.650000X-0.150000X-0.650000X0*%
%TD*%
%TA.AperFunction,ComponentPad*%
%ADD41RoundRect,0.250000X0.650000X1.550000X-0.650000X1.550000X-0.650000X-1.550000X0.650000X-1.550000X0*%
%TD*%
%TA.AperFunction,SMDPad,CuDef*%
%ADD42RoundRect,0.225000X0.250000X-0.225000X0.250000X0.225000X-0.250000X0.225000X-0.250000X-0.225000X0*%
%TD*%
%TA.AperFunction,SMDPad,CuDef*%
%ADD43RoundRect,0.218750X-0.218750X-0.256250X0.218750X-0.256250X0.218750X0.256250X-0.218750X0.256250X0*%
%TD*%
%TA.AperFunction,SMDPad,CuDef*%
%ADD44RoundRect,0.250000X-0.250000X-0.475000X0.250000X-0.475000X0.250000X0.475000X-0.250000X0.475000X0*%
%TD*%
%TA.AperFunction,SMDPad,CuDef*%
%ADD45RoundRect,0.218750X0.256250X-0.218750X0.256250X0.218750X-0.256250X0.218750X-0.256250X-0.218750X0*%
%TD*%
%TA.AperFunction,SMDPad,CuDef*%
%ADD46R,0.900000X2.000000*%
%TD*%
%TA.AperFunction,SMDPad,CuDef*%
%ADD47R,2.000000X0.900000*%
%TD*%
%TA.AperFunction,SMDPad,CuDef*%
%ADD48R,5.000000X5.000000*%
%TD*%
%TA.AperFunction,SMDPad,CuDef*%
%ADD49FreePoly0,90.000000*%
%TD*%
%TA.AperFunction,SMDPad,CuDef*%
%ADD50FreePoly1,90.000000*%
%TD*%
%TA.AperFunction,SMDPad,CuDef*%
%ADD51RoundRect,0.150000X-0.150000X0.587500X-0.150000X-0.587500X0.150000X-0.587500X0.150000X0.587500X0*%
%TD*%
%TA.AperFunction,SMDPad,CuDef*%
%ADD52RoundRect,0.150000X-0.150000X0.650000X-0.150000X-0.650000X0.150000X-0.650000X0.150000X0.650000X0*%
%TD*%
%TA.AperFunction,SMDPad,CuDef*%
%ADD53RoundRect,0.250000X-1.500000X-0.550000X1.500000X-0.550000X1.500000X0.550000X-1.500000X0.550000X0*%
%TD*%
%TA.AperFunction,SMDPad,CuDef*%
%ADD54RoundRect,0.218750X0.218750X0.256250X-0.218750X0.256250X-0.218750X-0.256250X0.218750X-0.256250X0*%
%TD*%
%TA.AperFunction,SMDPad,CuDef*%
%ADD55RoundRect,0.250000X-0.712500X-2.475000X0.712500X-2.475000X0.712500X2.475000X-0.712500X2.475000X0*%
%TD*%
%TA.AperFunction,SMDPad,CuDef*%
%ADD56RoundRect,0.250000X0.325000X0.650000X-0.325000X0.650000X-0.325000X-0.650000X0.325000X-0.650000X0*%
%TD*%
%TA.AperFunction,SMDPad,CuDef*%
%ADD57RoundRect,0.250000X0.475000X-0.250000X0.475000X0.250000X-0.475000X0.250000X-0.475000X-0.250000X0*%
%TD*%
%TA.AperFunction,ViaPad*%
%ADD58C,0.800000*%
%TD*%
%TA.AperFunction,ViaPad*%
%ADD59C,1.200000*%
%TD*%
%TA.AperFunction,Conductor*%
%ADD60C,0.250000*%
%TD*%
%TA.AperFunction,Conductor*%
%ADD61C,0.500000*%
%TD*%
%TA.AperFunction,Conductor*%
%ADD62C,0.350000*%
%TD*%
%TA.AperFunction,Conductor*%
%ADD63C,1.000000*%
%TD*%
%TA.AperFunction,Conductor*%
%ADD64C,0.400000*%
%TD*%
G04 APERTURE END LIST*
D10*
%TO.P,J14,1,Pin_1*%
%TO.N,/OUTPUT/TACHO1*%
X135432800Y-81584800D03*
D11*
%TO.P,J14,2,Pin_2*%
%TO.N,/OUTPUT/REL1_NC_TACHO*%
X135432800Y-79044800D03*
%TO.P,J14,3,Pin_3*%
%TO.N,/OUTPUT/REL1_NC*%
X135432800Y-76504800D03*
%TD*%
D12*
%TO.P,C50,1*%
%TO.N,V_IN*%
X56515000Y-74119000D03*
%TO.P,C50,2*%
%TO.N,GND*%
X56515000Y-71169000D03*
%TD*%
D13*
%TO.P,C11,1*%
%TO.N,/CAN_VCC*%
X69469000Y-43294000D03*
%TO.P,C11,2*%
%TO.N,/CAN_GND*%
X69469000Y-44844000D03*
%TD*%
D14*
%TO.P,C54,1*%
%TO.N,/CAN_VCC*%
X61214000Y-43246000D03*
%TO.P,C54,2*%
%TO.N,/CAN_GND*%
X61214000Y-45146000D03*
%TD*%
D15*
%TO.P,R40,1*%
%TO.N,GND1*%
X128115000Y-43751000D03*
%TO.P,R40,2*%
%TO.N,Net-(Q9-Pad2)*%
X128115000Y-42101000D03*
%TD*%
D16*
%TO.P,D15,1,K*%
%TO.N,GND1*%
X127861000Y-49911000D03*
%TO.P,D15,2,A*%
%TO.N,Net-(D14-Pad1)*%
X124361000Y-49911000D03*
%TD*%
D10*
%TO.P,J9,1,Pin_1*%
%TO.N,/OUTPUT/REL6_COM*%
X74422000Y-89154000D03*
D11*
%TO.P,J9,2,Pin_2*%
%TO.N,V_IN*%
X76962000Y-89154000D03*
%TD*%
D17*
%TO.P,U11,1*%
%TO.N,Net-(C23-Pad1)*%
X125287000Y-59309000D03*
%TO.P,U11,2*%
%TO.N,/INPUT/DI1s*%
X125287000Y-60579000D03*
%TO.P,U11,3*%
%TO.N,Net-(C25-Pad1)*%
X125287000Y-61849000D03*
%TO.P,U11,4*%
%TO.N,/INPUT/DI2s*%
X125287000Y-63119000D03*
%TO.P,U11,5*%
%TO.N,Net-(C24-Pad1)*%
X125287000Y-64389000D03*
%TO.P,U11,6*%
%TO.N,/INPUT/DI3s*%
X125287000Y-65659000D03*
%TO.P,U11,7,GND*%
%TO.N,GND*%
X125287000Y-66929000D03*
%TO.P,U11,8*%
%TO.N,/INPUT/DI4s*%
X130237000Y-66929000D03*
%TO.P,U11,9*%
%TO.N,Net-(C26-Pad1)*%
X130237000Y-65659000D03*
%TO.P,U11,10*%
%TO.N,unconnected-(U11-Pad10)*%
X130237000Y-64389000D03*
%TO.P,U11,11*%
%TO.N,GND*%
X130237000Y-63119000D03*
%TO.P,U11,12*%
%TO.N,unconnected-(U11-Pad12)*%
X130237000Y-61849000D03*
%TO.P,U11,13*%
%TO.N,GND*%
X130237000Y-60579000D03*
%TO.P,U11,14,VCC*%
%TO.N,+3V3*%
X130237000Y-59309000D03*
%TD*%
D18*
%TO.P,Q8,1,B*%
%TO.N,Net-(Q8-Pad1)*%
X111826000Y-43990500D03*
%TO.P,Q8,2,E*%
%TO.N,Net-(Q8-Pad2)*%
X113726000Y-43990500D03*
%TO.P,Q8,3,C*%
%TO.N,Net-(IC1-Pad2)*%
X112776000Y-42115500D03*
%TD*%
D13*
%TO.P,C25,1*%
%TO.N,Net-(C25-Pad1)*%
X118872000Y-59156000D03*
%TO.P,C25,2*%
%TO.N,GND*%
X118872000Y-60706000D03*
%TD*%
D19*
%TO.P,C60,1*%
%TO.N,+3V3*%
X63995000Y-88900000D03*
%TO.P,C60,2*%
%TO.N,GND*%
X65545000Y-88900000D03*
%TD*%
D20*
%TO.P,R79,1*%
%TO.N,/OUTPUT/TACHO6*%
X61658000Y-85725000D03*
%TO.P,R79,2*%
%TO.N,+3V3*%
X60008000Y-85725000D03*
%TD*%
%TO.P,R67,1*%
%TO.N,/AI1*%
X65976000Y-90551000D03*
%TO.P,R67,2*%
%TO.N,Net-(R66-Pad2)*%
X64326000Y-90551000D03*
%TD*%
D13*
%TO.P,C21,1*%
%TO.N,Net-(C21-Pad1)*%
X138021000Y-45440000D03*
%TO.P,C21,2*%
%TO.N,GND1*%
X138021000Y-46990000D03*
%TD*%
D16*
%TO.P,D14,1,K*%
%TO.N,Net-(D14-Pad1)*%
X125956000Y-46863000D03*
%TO.P,D14,2,A*%
%TO.N,Net-(C20-Pad1)*%
X122456000Y-46863000D03*
%TD*%
D13*
%TO.P,C32,1*%
%TO.N,/serial/U1_VCC*%
X82169000Y-43294000D03*
%TO.P,C32,2*%
%TO.N,/U1_GND*%
X82169000Y-44844000D03*
%TD*%
D21*
%TO.P,R30,1*%
%TO.N,Net-(C20-Pad1)*%
X122273000Y-49467000D03*
%TO.P,R30,2*%
%TO.N,Net-(D21-Pad3)*%
X122273000Y-51117000D03*
%TD*%
D15*
%TO.P,R6,1*%
%TO.N,Net-(Q1-Pad3)*%
X44170600Y-79260200D03*
%TO.P,R6,2*%
%TO.N,GND*%
X44170600Y-77610200D03*
%TD*%
D22*
%TO.P,TP3,1,1*%
%TO.N,+3V3*%
X105232200Y-60858400D03*
%TD*%
D19*
%TO.P,C51,1*%
%TO.N,V_IN*%
X54470000Y-75946000D03*
%TO.P,C51,2*%
%TO.N,GND*%
X56020000Y-75946000D03*
%TD*%
D17*
%TO.P,U10,1,QB*%
%TO.N,/OUTPUT/REL2*%
X93664000Y-60960000D03*
%TO.P,U10,2,QC*%
%TO.N,/OUTPUT/REL3*%
X93664000Y-62230000D03*
%TO.P,U10,3,QD*%
%TO.N,/OUTPUT/REL4*%
X93664000Y-63500000D03*
%TO.P,U10,4,QE*%
%TO.N,/OUTPUT/REL5*%
X93664000Y-64770000D03*
%TO.P,U10,5,QF*%
%TO.N,/OUTPUT/REL6*%
X93664000Y-66040000D03*
%TO.P,U10,6,QG*%
%TO.N,/OUTPUT/T_ADDR0*%
X93664000Y-67310000D03*
%TO.P,U10,7,QH*%
%TO.N,/OUTPUT/T_ADDR1*%
X93664000Y-68580000D03*
%TO.P,U10,8,GND*%
%TO.N,GND*%
X93664000Y-69850000D03*
%TO.P,U10,9,QH'*%
%TO.N,/OUTPUT/IO_DATA_IN*%
X98614000Y-69850000D03*
%TO.P,U10,10,~{SRCLR}*%
%TO.N,Net-(C18-Pad1)*%
X98614000Y-68580000D03*
%TO.P,U10,11,SRCLK*%
%TO.N,/H_CLK*%
X98614000Y-67310000D03*
%TO.P,U10,12,RCLK*%
%TO.N,/INPUT/IO_DI_PL*%
X98614000Y-66040000D03*
%TO.P,U10,13,~{OE}*%
%TO.N,Net-(R23-Pad2)*%
X98614000Y-64770000D03*
%TO.P,U10,14,SER*%
%TO.N,/H_MOSI*%
X98614000Y-63500000D03*
%TO.P,U10,15,QA*%
%TO.N,/OUTPUT/REL1*%
X98614000Y-62230000D03*
%TO.P,U10,16,VCC*%
%TO.N,+3V3*%
X98614000Y-60960000D03*
%TD*%
D23*
%TO.P,K4,1*%
%TO.N,N/C*%
X120142000Y-85852000D03*
%TO.P,K4,5*%
%TO.N,/OUTPUT/VCC_REL*%
X120142000Y-75692000D03*
%TO.P,K4,6*%
%TO.N,/OUTPUT/REL3_NO*%
X120142000Y-73152000D03*
%TO.P,K4,7*%
%TO.N,/OUTPUT/REL3_NC*%
X112522000Y-73152000D03*
%TO.P,K4,8*%
%TO.N,Net-(D7-Pad2)*%
X112522000Y-75692000D03*
%TO.P,K4,12*%
%TO.N,/OUTPUT/REL3_COM*%
X112522000Y-85852000D03*
%TD*%
D24*
%TO.P,U7,1,D*%
%TO.N,/CAN_Tx_s*%
X56958000Y-45847000D03*
%TO.P,U7,2,GND*%
%TO.N,/CAN_GND*%
X56958000Y-44577000D03*
%TO.P,U7,3,VCC*%
%TO.N,/CAN_VCC*%
X56958000Y-43307000D03*
%TO.P,U7,4,R*%
%TO.N,/CAN_Rx_s*%
X56958000Y-42037000D03*
%TO.P,U7,5,EN*%
%TO.N,Net-(R11-Pad2)*%
X52008000Y-42037000D03*
%TO.P,U7,6,CANL*%
%TO.N,/CAN_L*%
X52008000Y-43307000D03*
%TO.P,U7,7,CANH*%
%TO.N,/CAN_H*%
X52008000Y-44577000D03*
%TO.P,U7,8,Rs*%
%TO.N,Net-(R12-Pad2)*%
X52008000Y-45847000D03*
%TD*%
D21*
%TO.P,R25,1*%
%TO.N,Net-(D20-Pad3)*%
X113157000Y-53023000D03*
%TO.P,R25,2*%
%TO.N,/INPUT/DI1_P*%
X113157000Y-54673000D03*
%TD*%
D20*
%TO.P,R12,1*%
%TO.N,/CAN_GND*%
X60896000Y-46863000D03*
%TO.P,R12,2*%
%TO.N,Net-(R12-Pad2)*%
X59246000Y-46863000D03*
%TD*%
D25*
%TO.P,Q2,1,G*%
%TO.N,Net-(Q2-Pad1)*%
X145031700Y-70774600D03*
%TO.P,Q2,2,S*%
%TO.N,GND*%
X145031700Y-68874600D03*
%TO.P,Q2,3,D*%
%TO.N,Net-(D5-Pad2)*%
X143156700Y-69824600D03*
%TD*%
%TO.P,D21,1,A*%
%TO.N,GND1*%
X127401500Y-53782000D03*
%TO.P,D21,2,NC*%
%TO.N,unconnected-(D21-Pad2)*%
X127401500Y-51882000D03*
%TO.P,D21,3,K*%
%TO.N,Net-(D21-Pad3)*%
X125526500Y-52832000D03*
%TD*%
D15*
%TO.P,R62,1*%
%TO.N,/serial/U2RXTX_ENs*%
X71628000Y-54800000D03*
%TO.P,R62,2*%
%TO.N,/serial/U2_GND*%
X71628000Y-53150000D03*
%TD*%
D26*
%TO.P,PS2,1,-Vin*%
%TO.N,GND*%
X111570500Y-65583500D03*
D27*
%TO.P,PS2,2,+Vin*%
%TO.N,+5V*%
X111570500Y-63043500D03*
%TO.P,PS2,3,-Vout*%
%TO.N,GND1*%
X111570500Y-60503500D03*
%TO.P,PS2,4,+Vout*%
%TO.N,/INPUT/5V_1*%
X111570500Y-57963500D03*
%TD*%
D28*
%TO.P,C2,1*%
%TO.N,/RST_ESP*%
X41034000Y-72644000D03*
%TO.P,C2,2*%
%TO.N,GND*%
X39484000Y-72644000D03*
%TD*%
D13*
%TO.P,C19,1*%
%TO.N,Net-(C19-Pad1)*%
X118999000Y-45834000D03*
%TO.P,C19,2*%
%TO.N,GND1*%
X118999000Y-47384000D03*
%TD*%
D18*
%TO.P,Q10,1,B*%
%TO.N,Net-(Q10-Pad1)*%
X130213000Y-43736500D03*
%TO.P,Q10,2,E*%
%TO.N,Net-(Q10-Pad2)*%
X132113000Y-43736500D03*
%TO.P,Q10,3,C*%
%TO.N,Net-(IC2-Pad2)*%
X131163000Y-41861500D03*
%TD*%
D25*
%TO.P,Q7,1,G*%
%TO.N,Net-(Q7-Pad1)*%
X89304100Y-70698400D03*
%TO.P,Q7,2,S*%
%TO.N,GND*%
X89304100Y-68798400D03*
%TO.P,Q7,3,D*%
%TO.N,Net-(D9-Pad2)*%
X87429100Y-69748400D03*
%TD*%
D29*
%TO.P,C6,1*%
%TO.N,+3V3*%
X63422000Y-74485500D03*
%TO.P,C6,2*%
%TO.N,GND*%
X66372000Y-74485500D03*
%TD*%
D10*
%TO.P,J5,1,Pin_1*%
%TO.N,/OUTPUT/REL4_COM*%
X99822000Y-89154000D03*
D11*
%TO.P,J5,2,Pin_2*%
%TO.N,V_IN*%
X97282000Y-89154000D03*
%TD*%
D30*
%TO.P,JP13,1,A*%
%TO.N,/U1RXTX_EN*%
X66406000Y-57150000D03*
D31*
%TO.P,JP13,2,B*%
%TO.N,/serial/U1RXTX_ENs*%
X67706000Y-57150000D03*
%TD*%
D32*
%TO.P,R47,1*%
%TO.N,+3V3*%
X134811000Y-65913000D03*
%TO.P,R47,2*%
%TO.N,Net-(IC1-Pad6)*%
X136461000Y-65913000D03*
%TD*%
D10*
%TO.P,J10,1,Pin_1*%
%TO.N,/OUTPUT/REL1_COM*%
X140512800Y-89154000D03*
D11*
%TO.P,J10,2,Pin_2*%
%TO.N,V_IN*%
X137972800Y-89154000D03*
%TD*%
D19*
%TO.P,C18,1*%
%TO.N,Net-(C18-Pad1)*%
X104101600Y-69088000D03*
%TO.P,C18,2*%
%TO.N,GND*%
X105651600Y-69088000D03*
%TD*%
D21*
%TO.P,R60,1*%
%TO.N,/serial/U1RXTX_ENs*%
X73152000Y-57595000D03*
%TO.P,R60,2*%
%TO.N,/U1_GND*%
X73152000Y-59245000D03*
%TD*%
D32*
%TO.P,R49,1*%
%TO.N,Net-(C23-Pad1)*%
X123381000Y-57404000D03*
%TO.P,R49,2*%
%TO.N,Net-(IC1-Pad8)*%
X125031000Y-57404000D03*
%TD*%
D15*
%TO.P,R70,1*%
%TO.N,Net-(R68-Pad2)*%
X59436000Y-90614000D03*
%TO.P,R70,2*%
%TO.N,+3V3*%
X59436000Y-88964000D03*
%TD*%
D10*
%TO.P,J16,1,Pin_1*%
%TO.N,/OUTPUT/TACHO3*%
X108305600Y-81584800D03*
D11*
%TO.P,J16,2,Pin_2*%
%TO.N,/OUTPUT/REL3_NC_TACHO*%
X108305600Y-79044800D03*
%TO.P,J16,3,Pin_3*%
%TO.N,/OUTPUT/REL3_NC*%
X108305600Y-76504800D03*
%TD*%
D32*
%TO.P,R33,1*%
%TO.N,Net-(Q8-Pad1)*%
X115507000Y-44069000D03*
%TO.P,R33,2*%
%TO.N,Net-(C19-Pad1)*%
X117157000Y-44069000D03*
%TD*%
D10*
%TO.P,J13,1,Pin_1*%
%TO.N,/OUTPUT/REL3_COM*%
X112517000Y-89154000D03*
D11*
%TO.P,J13,2,Pin_2*%
%TO.N,V_IN*%
X115057000Y-89154000D03*
%TD*%
D33*
%TO.P,C35,1*%
%TO.N,/serial/U3_VCC*%
X109601000Y-42897000D03*
%TO.P,C35,2*%
%TO.N,/serial/U3_GND*%
X109601000Y-45847000D03*
%TD*%
D16*
%TO.P,D18,1,K*%
%TO.N,Net-(D18-Pad1)*%
X145260000Y-46863000D03*
%TO.P,D18,2,A*%
%TO.N,Net-(C22-Pad1)*%
X141760000Y-46863000D03*
%TD*%
D26*
%TO.P,PS5,1,-Vin*%
%TO.N,GND*%
X92137500Y-50800000D03*
D27*
%TO.P,PS5,2,+Vin*%
%TO.N,+5V*%
X92137500Y-48260000D03*
%TO.P,PS5,3,-Vout*%
%TO.N,/serial/U2_GND*%
X92137500Y-45720000D03*
%TO.P,PS5,4,+Vout*%
%TO.N,/serial/U2_VCC*%
X92137500Y-43180000D03*
%TD*%
D13*
%TO.P,C22,1*%
%TO.N,Net-(C22-Pad1)*%
X147447000Y-45580000D03*
%TO.P,C22,2*%
%TO.N,GND1*%
X147447000Y-47130000D03*
%TD*%
D16*
%TO.P,D12,1,K*%
%TO.N,Net-(D12-Pad1)*%
X116812000Y-46990000D03*
%TO.P,D12,2,A*%
%TO.N,Net-(C19-Pad1)*%
X113312000Y-46990000D03*
%TD*%
D28*
%TO.P,C17,1*%
%TO.N,+3V3*%
X98615800Y-59182000D03*
%TO.P,C17,2*%
%TO.N,GND*%
X97065800Y-59182000D03*
%TD*%
D15*
%TO.P,R8,1*%
%TO.N,Net-(Q13-Pad3)*%
X49483400Y-79502000D03*
%TO.P,R8,2*%
%TO.N,GND*%
X49483400Y-77852000D03*
%TD*%
D19*
%TO.P,C9,1*%
%TO.N,GND*%
X45580000Y-45212000D03*
%TO.P,C9,2*%
%TO.N,+3V3*%
X47130000Y-45212000D03*
%TD*%
D34*
%TO.P,X2,1,Pin_1*%
%TO.N,/serial/U2_VCC_e*%
X75055000Y-37000000D03*
D35*
%TO.P,X2,2,Pin_2*%
%TO.N,/serial/U2_GND*%
X78865000Y-37000000D03*
%TO.P,X2,3,Pin_3*%
%TO.N,/serial/U2TX_O*%
X82675000Y-37000000D03*
%TO.P,X2,4,Pin_4*%
%TO.N,/serial/U2RX_O*%
X86485000Y-37000000D03*
%TO.P,X2,5,Pin_5*%
%TO.N,/serial/U3_VCC_e*%
X90295000Y-37000000D03*
%TO.P,X2,6,Pin_6*%
%TO.N,/serial/U3_GND*%
X94105000Y-37000000D03*
%TO.P,X2,7,Pin_7*%
%TO.N,/serial/U3TX_O*%
X97915000Y-37000000D03*
%TO.P,X2,8,Pin_8*%
%TO.N,/serial/U3RX_O*%
X101725000Y-37000000D03*
%TO.P,X2,9,Pin_9*%
%TO.N,GND*%
X105535000Y-37000000D03*
%TD*%
D36*
%TO.P,D25,1,K*%
%TO.N,GND*%
X139420600Y-69062500D03*
%TO.P,D25,2,A*%
%TO.N,Net-(D25-Pad2)*%
X139420600Y-70637500D03*
%TD*%
D33*
%TO.P,C34,1*%
%TO.N,/serial/U1_VCC*%
X84455000Y-42897000D03*
%TO.P,C34,2*%
%TO.N,/U1_GND*%
X84455000Y-45847000D03*
%TD*%
D21*
%TO.P,R77,1*%
%TO.N,/OUTPUT/TACHO4*%
X71374000Y-87059000D03*
%TO.P,R77,2*%
%TO.N,+3V3*%
X71374000Y-88709000D03*
%TD*%
D19*
%TO.P,C15,1*%
%TO.N,Net-(C15-Pad1)*%
X41871600Y-43332400D03*
%TO.P,C15,2*%
%TO.N,/CAN_GND*%
X43421600Y-43332400D03*
%TD*%
D21*
%TO.P,R31,1*%
%TO.N,Net-(C21-Pad1)*%
X131798000Y-49086000D03*
%TO.P,R31,2*%
%TO.N,Net-(D22-Pad3)*%
X131798000Y-50736000D03*
%TD*%
D15*
%TO.P,R80,1*%
%TO.N,Net-(Q4-Pad1)*%
X81457800Y-70725800D03*
%TO.P,R80,2*%
%TO.N,/OUTPUT/REL6*%
X81457800Y-69075800D03*
%TD*%
D37*
%TO.P,U1,1,IN*%
%TO.N,V_IN*%
X69688500Y-70032500D03*
D38*
%TO.P,U1,2,GND*%
%TO.N,GND*%
X67148500Y-70032500D03*
%TO.P,U1,3,OUT*%
%TO.N,+3V3*%
X64608500Y-70032500D03*
%TD*%
D15*
%TO.P,R56,1*%
%TO.N,GND1*%
X120777000Y-57975000D03*
%TO.P,R56,2*%
%TO.N,/INPUT/5V_1*%
X120777000Y-56325000D03*
%TD*%
D23*
%TO.P,K3,1*%
%TO.N,N/C*%
X131318000Y-85852000D03*
%TO.P,K3,5*%
%TO.N,/OUTPUT/VCC_REL*%
X131318000Y-75692000D03*
%TO.P,K3,6*%
%TO.N,/OUTPUT/REL2_NO*%
X131318000Y-73152000D03*
%TO.P,K3,7*%
%TO.N,/OUTPUT/REL2_NC*%
X123698000Y-73152000D03*
%TO.P,K3,8*%
%TO.N,Net-(D6-Pad2)*%
X123698000Y-75692000D03*
%TO.P,K3,12*%
%TO.N,/OUTPUT/REL2_COM*%
X123698000Y-85852000D03*
%TD*%
D34*
%TO.P,X1,1,Pin_1*%
%TO.N,GND*%
X35560000Y-36957000D03*
D35*
%TO.P,X1,2,Pin_2*%
%TO.N,+3V3*%
X39370000Y-36957000D03*
%TO.P,X1,3,Pin_3*%
%TO.N,/onewire*%
X43180000Y-36957000D03*
%TO.P,X1,4,Pin_4*%
%TO.N,/CAN_H*%
X46990000Y-36957000D03*
%TO.P,X1,5,Pin_5*%
%TO.N,/CAN_L*%
X50800000Y-36957000D03*
%TO.P,X1,6,Pin_6*%
%TO.N,/U1_VCC_e*%
X54610000Y-36957000D03*
%TO.P,X1,7,Pin_7*%
%TO.N,/U1_GND*%
X58420000Y-36957000D03*
%TO.P,X1,8,Pin_8*%
%TO.N,/U1TX_O*%
X62230000Y-36957000D03*
%TO.P,X1,9,Pin_9*%
%TO.N,/U1RX_O*%
X66040000Y-36957000D03*
%TD*%
D15*
%TO.P,R54,1*%
%TO.N,Net-(Q5-Pad1)*%
X122148600Y-70827400D03*
%TO.P,R54,2*%
%TO.N,/OUTPUT/REL3*%
X122148600Y-69177400D03*
%TD*%
D28*
%TO.P,C53,1*%
%TO.N,+5V*%
X59322000Y-75946000D03*
%TO.P,C53,2*%
%TO.N,GND*%
X57772000Y-75946000D03*
%TD*%
D15*
%TO.P,R38,1*%
%TO.N,GND1*%
X118999000Y-43687000D03*
%TO.P,R38,2*%
%TO.N,Net-(Q8-Pad2)*%
X118999000Y-42037000D03*
%TD*%
%TO.P,R71,1*%
%TO.N,/OUTPUT/REL1*%
X137693400Y-70675000D03*
%TO.P,R71,2*%
%TO.N,Net-(D25-Pad2)*%
X137693400Y-69025000D03*
%TD*%
D39*
%TO.P,Q13,1,E1*%
%TO.N,Net-(Q13-Pad1)*%
X46420400Y-79500000D03*
%TO.P,Q13,2,B1*%
%TO.N,Net-(Q13-Pad2)*%
X47070400Y-79500000D03*
%TO.P,Q13,3,C2*%
%TO.N,Net-(Q13-Pad3)*%
X47720400Y-79500000D03*
%TO.P,Q13,4,E2*%
%TO.N,V_IN*%
X47720400Y-77600000D03*
%TO.P,Q13,5,B2*%
%TO.N,Net-(Q13-Pad2)*%
X47070400Y-77600000D03*
%TO.P,Q13,6,C1*%
X46420400Y-77600000D03*
%TD*%
D13*
%TO.P,C49,1*%
%TO.N,/AI1d*%
X44831000Y-68567000D03*
%TO.P,C49,2*%
%TO.N,GND*%
X44831000Y-70117000D03*
%TD*%
%TO.P,C39,1*%
%TO.N,/serial/U2_VCC*%
X94919800Y-43294000D03*
%TO.P,C39,2*%
%TO.N,/serial/U2_GND*%
X94919800Y-44844000D03*
%TD*%
D15*
%TO.P,R3,1*%
%TO.N,/SCL*%
X40132000Y-46849800D03*
%TO.P,R3,2*%
%TO.N,+3V3*%
X40132000Y-45199800D03*
%TD*%
%TO.P,R50,1*%
%TO.N,Net-(C25-Pad1)*%
X120777000Y-61277000D03*
%TO.P,R50,2*%
%TO.N,Net-(IC1-Pad6)*%
X120777000Y-59627000D03*
%TD*%
D20*
%TO.P,R5,1*%
%TO.N,Net-(Q1-Pad2)*%
X41719000Y-75959200D03*
%TO.P,R5,2*%
%TO.N,GND*%
X40069000Y-75959200D03*
%TD*%
D40*
%TO.P,IC3,1,A1*%
%TO.N,Net-(IC3-Pad1)*%
X65786000Y-62020000D03*
%TO.P,IC3,2,C1*%
%TO.N,GND*%
X67056000Y-62020000D03*
%TO.P,IC3,3,A2*%
%TO.N,Net-(IC3-Pad3)*%
X68326000Y-62020000D03*
%TO.P,IC3,4,C2*%
%TO.N,GND*%
X69596000Y-62020000D03*
%TO.P,IC3,5,E2*%
%TO.N,/serial/U2RXTX_ENs*%
X69596000Y-54820000D03*
%TO.P,IC3,6,C2*%
%TO.N,/serial/U2_VCC*%
X68326000Y-54820000D03*
%TO.P,IC3,7,E1*%
%TO.N,/serial/U1RXTX_ENs*%
X67056000Y-54820000D03*
%TO.P,IC3,8,C1*%
%TO.N,/serial/U1_VCC*%
X65786000Y-54820000D03*
%TD*%
D23*
%TO.P,K7,1*%
%TO.N,N/C*%
X83058000Y-85852000D03*
%TO.P,K7,5*%
%TO.N,/OUTPUT/VCC_REL*%
X83058000Y-75692000D03*
%TO.P,K7,6*%
%TO.N,/OUTPUT/REL6_NO*%
X83058000Y-73152000D03*
%TO.P,K7,7*%
%TO.N,/OUTPUT/REL6_NC*%
X75438000Y-73152000D03*
%TO.P,K7,8*%
%TO.N,Net-(D10-Pad2)*%
X75438000Y-75692000D03*
%TO.P,K7,12*%
%TO.N,/OUTPUT/REL6_COM*%
X75438000Y-85852000D03*
%TD*%
D41*
%TO.P,X5,1,Pin_1*%
%TO.N,/OUTPUT/REL4_NO*%
X105500000Y-95000000D03*
D35*
%TO.P,X5,2,Pin_2*%
%TO.N,/OUTPUT/REL4_COM*%
X101690000Y-95000000D03*
%TO.P,X5,3,Pin_3*%
%TO.N,/OUTPUT/TACHO4*%
X97880000Y-95000000D03*
%TO.P,X5,4,Pin_4*%
%TO.N,/OUTPUT/REL5_NO*%
X94070000Y-95000000D03*
%TO.P,X5,5,Pin_5*%
%TO.N,/OUTPUT/REL5_COM*%
X90260000Y-95000000D03*
%TO.P,X5,6,Pin_6*%
%TO.N,/OUTPUT/TACHO5*%
X86450000Y-95000000D03*
%TO.P,X5,7,Pin_7*%
%TO.N,/OUTPUT/REL6_NO*%
X82640000Y-95000000D03*
%TO.P,X5,8,Pin_8*%
%TO.N,/OUTPUT/REL6_COM*%
X78830000Y-95000000D03*
%TO.P,X5,9,Pin_9*%
%TO.N,/OUTPUT/TACHO6*%
X75020000Y-95000000D03*
%TD*%
D21*
%TO.P,R10,1*%
%TO.N,Net-(D1-Pad1)*%
X101803200Y-58471800D03*
%TO.P,R10,2*%
%TO.N,GND*%
X101803200Y-60121800D03*
%TD*%
D32*
%TO.P,R35,1*%
%TO.N,Net-(Q10-Pad1)*%
X134021000Y-43942000D03*
%TO.P,R35,2*%
%TO.N,Net-(C21-Pad1)*%
X135671000Y-43942000D03*
%TD*%
D10*
%TO.P,J11,1,Pin_1*%
%TO.N,/SCL*%
X33065800Y-79796400D03*
D11*
%TO.P,J11,2,Pin_2*%
%TO.N,GND*%
X35605800Y-79796400D03*
%TO.P,J11,3,Pin_3*%
%TO.N,/SDA*%
X33065800Y-82336400D03*
%TO.P,J11,4,Pin_4*%
%TO.N,GND*%
X35605800Y-82336400D03*
%TO.P,J11,5,Pin_5*%
%TO.N,Net-(J11-Pad5)*%
X33065800Y-84876400D03*
%TO.P,J11,6,Pin_6*%
%TO.N,Net-(J11-Pad6)*%
X35605800Y-84876400D03*
%TD*%
D40*
%TO.P,IC4,1,A1*%
%TO.N,Net-(IC4-Pad1)*%
X86741000Y-62020000D03*
%TO.P,IC4,2,C1*%
%TO.N,GND*%
X88011000Y-62020000D03*
%TO.P,IC4,3,A2*%
%TO.N,unconnected-(IC4-Pad3)*%
X89281000Y-62020000D03*
%TO.P,IC4,4,C2*%
%TO.N,unconnected-(IC4-Pad4)*%
X90551000Y-62020000D03*
%TO.P,IC4,5,E2*%
%TO.N,unconnected-(IC4-Pad5)*%
X90551000Y-54820000D03*
%TO.P,IC4,6,C2*%
%TO.N,unconnected-(IC4-Pad6)*%
X89281000Y-54820000D03*
%TO.P,IC4,7,E1*%
%TO.N,/serial/U3RXTX_ENs*%
X88011000Y-54820000D03*
%TO.P,IC4,8,C1*%
%TO.N,/serial/U3_VCC*%
X86741000Y-54820000D03*
%TD*%
D42*
%TO.P,C24,1*%
%TO.N,Net-(C24-Pad1)*%
X118872000Y-63881000D03*
%TO.P,C24,2*%
%TO.N,GND*%
X118872000Y-62331000D03*
%TD*%
D13*
%TO.P,C10,1*%
%TO.N,+5V*%
X69596000Y-48882000D03*
%TO.P,C10,2*%
%TO.N,GND*%
X69596000Y-50432000D03*
%TD*%
%TO.P,C16,1*%
%TO.N,/CAN_VCC*%
X59309000Y-43294000D03*
%TO.P,C16,2*%
%TO.N,/CAN_GND*%
X59309000Y-44844000D03*
%TD*%
D20*
%TO.P,R11,1*%
%TO.N,/CAN_VCC*%
X60833000Y-41529000D03*
%TO.P,R11,2*%
%TO.N,Net-(R11-Pad2)*%
X59183000Y-41529000D03*
%TD*%
D15*
%TO.P,R32,1*%
%TO.N,Net-(C22-Pad1)*%
X141605000Y-50863000D03*
%TO.P,R32,2*%
%TO.N,Net-(D23-Pad3)*%
X141605000Y-49213000D03*
%TD*%
D13*
%TO.P,C30,1*%
%TO.N,+5V*%
X82169000Y-48628000D03*
%TO.P,C30,2*%
%TO.N,GND*%
X82169000Y-50178000D03*
%TD*%
D32*
%TO.P,R61,1*%
%TO.N,/serial/U3RXTX_ENs*%
X95060000Y-52705000D03*
%TO.P,R61,2*%
%TO.N,/serial/U3_GND*%
X96710000Y-52705000D03*
%TD*%
D20*
%TO.P,R26,1*%
%TO.N,Net-(D21-Pad3)*%
X123380000Y-52959000D03*
%TO.P,R26,2*%
%TO.N,/INPUT/DI2_P*%
X121730000Y-52959000D03*
%TD*%
%TO.P,R72,1*%
%TO.N,Net-(Q6-Pad1)*%
X105701600Y-70993000D03*
%TO.P,R72,2*%
%TO.N,/OUTPUT/REL4*%
X104051600Y-70993000D03*
%TD*%
D18*
%TO.P,Q9,1,B*%
%TO.N,Net-(Q9-Pad1)*%
X121097000Y-43990500D03*
%TO.P,Q9,2,E*%
%TO.N,Net-(Q9-Pad2)*%
X122997000Y-43990500D03*
%TO.P,Q9,3,C*%
%TO.N,Net-(IC1-Pad4)*%
X122047000Y-42115500D03*
%TD*%
D25*
%TO.P,Q3,1,G*%
%TO.N,Net-(Q3-Pad1)*%
X131597400Y-70800000D03*
%TO.P,Q3,2,S*%
%TO.N,GND*%
X131597400Y-68900000D03*
%TO.P,Q3,3,D*%
%TO.N,Net-(D6-Pad2)*%
X129722400Y-69850000D03*
%TD*%
D13*
%TO.P,C14,1*%
%TO.N,/INPUT/5V_1*%
X118872000Y-55981000D03*
%TO.P,C14,2*%
%TO.N,GND1*%
X118872000Y-57531000D03*
%TD*%
D32*
%TO.P,R85,1*%
%TO.N,/OUTPUT/REL6*%
X71121000Y-72339200D03*
%TO.P,R85,2*%
%TO.N,Net-(D30-Pad2)*%
X72771000Y-72339200D03*
%TD*%
D15*
%TO.P,R21,1*%
%TO.N,Net-(Q4-Pad1)*%
X79679800Y-70725800D03*
%TO.P,R21,2*%
%TO.N,GND*%
X79679800Y-69075800D03*
%TD*%
D21*
%TO.P,R20,1*%
%TO.N,Net-(Q7-Pad1)*%
X91211400Y-68923400D03*
%TO.P,R20,2*%
%TO.N,GND*%
X91211400Y-70573400D03*
%TD*%
D34*
%TO.P,X3,1,Pin_1*%
%TO.N,/INPUT/DI1_P*%
X114554000Y-37000000D03*
D35*
%TO.P,X3,2,Pin_2*%
%TO.N,/INPUT/5V_1*%
X118364000Y-37000000D03*
%TO.P,X3,3,Pin_3*%
%TO.N,/INPUT/DI2_P*%
X122174000Y-37000000D03*
%TO.P,X3,4,Pin_4*%
%TO.N,/INPUT/5V_1*%
X125984000Y-37000000D03*
%TO.P,X3,5,Pin_5*%
%TO.N,/INPUT/DI3_P*%
X129794000Y-37000000D03*
%TO.P,X3,6,Pin_6*%
%TO.N,/INPUT/5V_1*%
X133604000Y-37000000D03*
%TO.P,X3,7,Pin_7*%
%TO.N,/INPUT/DI4_P*%
X137414000Y-37000000D03*
%TO.P,X3,8,Pin_8*%
%TO.N,/INPUT/5V_1*%
X141224000Y-37000000D03*
%TO.P,X3,9,Pin_9*%
%TO.N,GND1*%
X145034000Y-37000000D03*
%TD*%
D23*
%TO.P,K2,1*%
%TO.N,N/C*%
X146558000Y-85852000D03*
%TO.P,K2,5*%
%TO.N,/OUTPUT/VCC_REL*%
X146558000Y-75692000D03*
%TO.P,K2,6*%
%TO.N,/OUTPUT/REL1_NO*%
X146558000Y-73152000D03*
%TO.P,K2,7*%
%TO.N,/OUTPUT/REL1_NC*%
X138938000Y-73152000D03*
%TO.P,K2,8*%
%TO.N,Net-(D5-Pad2)*%
X138938000Y-75692000D03*
%TO.P,K2,12*%
%TO.N,/OUTPUT/REL1_COM*%
X138938000Y-85852000D03*
%TD*%
D20*
%TO.P,R46,1*%
%TO.N,+3V3*%
X147256000Y-65913000D03*
%TO.P,R46,2*%
%TO.N,Net-(IC2-Pad8)*%
X145606000Y-65913000D03*
%TD*%
D32*
%TO.P,R1,1*%
%TO.N,/RST_ESP*%
X39434000Y-74295000D03*
%TO.P,R1,2*%
%TO.N,+3V3*%
X41084000Y-74295000D03*
%TD*%
D23*
%TO.P,K6,1*%
%TO.N,N/C*%
X93980000Y-85852000D03*
%TO.P,K6,5*%
%TO.N,/OUTPUT/VCC_REL*%
X93980000Y-75692000D03*
%TO.P,K6,6*%
%TO.N,/OUTPUT/REL5_NO*%
X93980000Y-73152000D03*
%TO.P,K6,7*%
%TO.N,/OUTPUT/REL5_NC*%
X86360000Y-73152000D03*
%TO.P,K6,8*%
%TO.N,Net-(D9-Pad2)*%
X86360000Y-75692000D03*
%TO.P,K6,12*%
%TO.N,/OUTPUT/REL5_COM*%
X86360000Y-85852000D03*
%TD*%
D43*
%TO.P,D1,1,K*%
%TO.N,Net-(D1-Pad1)*%
X102233500Y-55626000D03*
%TO.P,D1,2,A*%
%TO.N,+3V3*%
X103808500Y-55626000D03*
%TD*%
D41*
%TO.P,X4,1,Pin_1*%
%TO.N,/AI1*%
X66000000Y-95000000D03*
D35*
%TO.P,X4,2,Pin_2*%
%TO.N,V_IN*%
X62190000Y-95000000D03*
%TO.P,X4,3,Pin_3*%
%TO.N,+5V*%
X58380000Y-95000000D03*
%TO.P,X4,4,Pin_4*%
%TO.N,+3V3*%
X54570000Y-95000000D03*
%TO.P,X4,5,Pin_5*%
%TO.N,GND*%
X50760000Y-95000000D03*
%TO.P,X4,6,Pin_6*%
X46950000Y-95000000D03*
%TO.P,X4,7,Pin_7*%
X43140000Y-95000000D03*
%TO.P,X4,8,Pin_8*%
%TO.N,V_IN2*%
X39330000Y-95000000D03*
%TO.P,X4,9,Pin_9*%
%TO.N,V_IN1*%
X35520000Y-95000000D03*
%TD*%
D13*
%TO.P,C20,1*%
%TO.N,Net-(C20-Pad1)*%
X128115000Y-45707000D03*
%TO.P,C20,2*%
%TO.N,GND1*%
X128115000Y-47257000D03*
%TD*%
D12*
%TO.P,C52,1*%
%TO.N,+5V*%
X59690000Y-74119000D03*
%TO.P,C52,2*%
%TO.N,GND*%
X59690000Y-71169000D03*
%TD*%
D15*
%TO.P,R57,1*%
%TO.N,Net-(IC3-Pad1)*%
X63779400Y-58864000D03*
%TO.P,R57,2*%
%TO.N,/U1RXTX_EN*%
X63779400Y-57214000D03*
%TD*%
%TO.P,R69,1*%
%TO.N,Net-(R68-Pad2)*%
X57785000Y-90614000D03*
%TO.P,R69,2*%
%TO.N,GND*%
X57785000Y-88964000D03*
%TD*%
D18*
%TO.P,Q11,1,B*%
%TO.N,Net-(Q11-Pad1)*%
X140147000Y-43863500D03*
%TO.P,Q11,2,E*%
%TO.N,Net-(Q11-Pad2)*%
X142047000Y-43863500D03*
%TO.P,Q11,3,C*%
%TO.N,Net-(IC2-Pad4)*%
X141097000Y-41988500D03*
%TD*%
D16*
%TO.P,D19,1,K*%
%TO.N,GND1*%
X147292000Y-50038000D03*
%TO.P,D19,2,A*%
%TO.N,Net-(D18-Pad1)*%
X143792000Y-50038000D03*
%TD*%
D33*
%TO.P,C12,1*%
%TO.N,/CAN_VCC*%
X71628000Y-42897000D03*
%TO.P,C12,2*%
%TO.N,/CAN_GND*%
X71628000Y-45847000D03*
%TD*%
D32*
%TO.P,R73,1*%
%TO.N,Net-(Q7-Pad1)*%
X89421200Y-67157600D03*
%TO.P,R73,2*%
%TO.N,/OUTPUT/REL5*%
X91071200Y-67157600D03*
%TD*%
D30*
%TO.P,JP27,1,A*%
%TO.N,/U3RXTX_EN*%
X86726000Y-57658000D03*
D31*
%TO.P,JP27,2,B*%
%TO.N,/serial/U3RXTX_ENs*%
X88026000Y-57658000D03*
%TD*%
D20*
%TO.P,R22,1*%
%TO.N,+3V3*%
X102806000Y-67310000D03*
%TO.P,R22,2*%
%TO.N,Net-(C18-Pad1)*%
X101156000Y-67310000D03*
%TD*%
D13*
%TO.P,C31,1*%
%TO.N,+5V*%
X107442000Y-48755000D03*
%TO.P,C31,2*%
%TO.N,GND*%
X107442000Y-50305000D03*
%TD*%
D20*
%TO.P,R78,1*%
%TO.N,/OUTPUT/TACHO5*%
X61658000Y-87376000D03*
%TO.P,R78,2*%
%TO.N,+3V3*%
X60008000Y-87376000D03*
%TD*%
%TO.P,R14,1*%
%TO.N,/CAN_L*%
X43471600Y-41656000D03*
%TO.P,R14,2*%
%TO.N,Net-(C15-Pad1)*%
X41821600Y-41656000D03*
%TD*%
D28*
%TO.P,C7,1*%
%TO.N,V_IN*%
X69609000Y-72326500D03*
%TO.P,C7,2*%
%TO.N,GND*%
X68059000Y-72326500D03*
%TD*%
D10*
%TO.P,J2,1,Pin_1*%
%TO.N,/U0RXD*%
X60553600Y-49697400D03*
D11*
%TO.P,J2,2,Pin_2*%
%TO.N,/U0TXD*%
X60553600Y-52237400D03*
%TO.P,J2,3,Pin_3*%
%TO.N,GND*%
X60553600Y-54777400D03*
%TD*%
D41*
%TO.P,X6,1,Pin_1*%
%TO.N,/OUTPUT/REL1_NO*%
X145000000Y-95000000D03*
D35*
%TO.P,X6,2,Pin_2*%
%TO.N,/OUTPUT/REL1_COM*%
X141190000Y-95000000D03*
%TO.P,X6,3,Pin_3*%
%TO.N,/OUTPUT/REL1_NC_TACHO*%
X137380000Y-95000000D03*
%TO.P,X6,4,Pin_4*%
%TO.N,/OUTPUT/REL2_NO*%
X133570000Y-95000000D03*
%TO.P,X6,5,Pin_5*%
%TO.N,/OUTPUT/REL2_COM*%
X129760000Y-95000000D03*
%TO.P,X6,6,Pin_6*%
%TO.N,/OUTPUT/REL2_NC_TACHO*%
X125950000Y-95000000D03*
%TO.P,X6,7,Pin_7*%
%TO.N,/OUTPUT/REL3_NO*%
X122140000Y-95000000D03*
%TO.P,X6,8,Pin_8*%
%TO.N,/OUTPUT/REL3_COM*%
X118330000Y-95000000D03*
%TO.P,X6,9,Pin_9*%
%TO.N,/OUTPUT/REL3_NC_TACHO*%
X114520000Y-95000000D03*
%TD*%
D10*
%TO.P,J4,1,Pin_1*%
%TO.N,/LED1*%
X60553600Y-58618200D03*
D11*
%TO.P,J4,2,Pin_2*%
%TO.N,GND*%
X60553600Y-61158200D03*
%TD*%
D21*
%TO.P,R82,1*%
%TO.N,/OUTPUT/REL3*%
X113106200Y-69216000D03*
%TO.P,R82,2*%
%TO.N,Net-(D27-Pad2)*%
X113106200Y-70866000D03*
%TD*%
%TO.P,R28,1*%
%TO.N,Net-(D23-Pad3)*%
X141605000Y-52769000D03*
%TO.P,R28,2*%
%TO.N,/INPUT/DI4_P*%
X141605000Y-54419000D03*
%TD*%
%TO.P,R27,1*%
%TO.N,Net-(D22-Pad3)*%
X131798000Y-52261000D03*
%TO.P,R27,2*%
%TO.N,/INPUT/DI3_P*%
X131798000Y-53911000D03*
%TD*%
D15*
%TO.P,R83,1*%
%TO.N,/OUTPUT/REL4*%
X102438200Y-71081400D03*
%TO.P,R83,2*%
%TO.N,Net-(D28-Pad2)*%
X102438200Y-69431400D03*
%TD*%
D33*
%TO.P,C29,1*%
%TO.N,/INPUT/5V_1*%
X114300000Y-57910200D03*
%TO.P,C29,2*%
%TO.N,GND1*%
X114300000Y-60860200D03*
%TD*%
D25*
%TO.P,D4,1,K*%
%TO.N,/CAN_H*%
X47419500Y-43495000D03*
%TO.P,D4,2,K*%
%TO.N,/CAN_L*%
X47419500Y-41595000D03*
%TO.P,D4,3,A*%
%TO.N,/CAN_GND*%
X45544500Y-42545000D03*
%TD*%
D21*
%TO.P,R53,1*%
%TO.N,Net-(Q3-Pad1)*%
X127611900Y-69089000D03*
%TO.P,R53,2*%
%TO.N,/OUTPUT/REL2*%
X127611900Y-70739000D03*
%TD*%
D10*
%TO.P,J12,1,Pin_1*%
%TO.N,/OUTPUT/REL2_COM*%
X122275600Y-89154000D03*
D11*
%TO.P,J12,2,Pin_2*%
%TO.N,V_IN*%
X119735600Y-89154000D03*
%TD*%
D32*
%TO.P,R4,1*%
%TO.N,/SDA*%
X42329600Y-46863000D03*
%TO.P,R4,2*%
%TO.N,+3V3*%
X43979600Y-46863000D03*
%TD*%
D26*
%TO.P,PS3,1,-Vin*%
%TO.N,GND*%
X79437500Y-50800000D03*
D27*
%TO.P,PS3,2,+Vin*%
%TO.N,+5V*%
X79437500Y-48260000D03*
%TO.P,PS3,3,-Vout*%
%TO.N,/U1_GND*%
X79437500Y-45720000D03*
%TO.P,PS3,4,+Vout*%
%TO.N,/serial/U1_VCC*%
X79437500Y-43180000D03*
%TD*%
D44*
%TO.P,C5,1*%
%TO.N,GND*%
X39182000Y-70739000D03*
%TO.P,C5,2*%
%TO.N,+3V3*%
X41082000Y-70739000D03*
%TD*%
D36*
%TO.P,D29,1,K*%
%TO.N,GND*%
X85471000Y-69113300D03*
%TO.P,D29,2,A*%
%TO.N,Net-(D29-Pad2)*%
X85471000Y-70688300D03*
%TD*%
D45*
%TO.P,D30,1,K*%
%TO.N,GND*%
X73888600Y-70688300D03*
%TO.P,D30,2,A*%
%TO.N,Net-(D30-Pad2)*%
X73888600Y-69113300D03*
%TD*%
D25*
%TO.P,Q5,1,G*%
%TO.N,Net-(Q5-Pad1)*%
X118615700Y-70901600D03*
%TO.P,Q5,2,S*%
%TO.N,GND*%
X118615700Y-69001600D03*
%TO.P,Q5,3,D*%
%TO.N,Net-(D7-Pad2)*%
X116740700Y-69951600D03*
%TD*%
D46*
%TO.P,U2,1,GND*%
%TO.N,GND*%
X39745000Y-66285000D03*
%TO.P,U2,2,VDD*%
%TO.N,+3V3*%
X41015000Y-66285000D03*
%TO.P,U2,3,EN*%
%TO.N,/RST_ESP*%
X42285000Y-66285000D03*
%TO.P,U2,4,SENSOR_VP*%
%TO.N,unconnected-(U2-Pad4)*%
X43555000Y-66285000D03*
%TO.P,U2,5,SENSOR_VN*%
%TO.N,unconnected-(U2-Pad5)*%
X44825000Y-66285000D03*
%TO.P,U2,6,IO34*%
%TO.N,/AI1d*%
X46095000Y-66285000D03*
%TO.P,U2,7,IO35*%
%TO.N,/U3RX*%
X47365000Y-66285000D03*
%TO.P,U2,8,IO32*%
%TO.N,/U3RXTX_EN*%
X48635000Y-66285000D03*
%TO.P,U2,9,IO33*%
%TO.N,/U3TX*%
X49905000Y-66285000D03*
%TO.P,U2,10,IO25*%
%TO.N,/U2TX*%
X51175000Y-66285000D03*
%TO.P,U2,11,IO26*%
%TO.N,/INPUT/IO_DI_PL*%
X52445000Y-66285000D03*
%TO.P,U2,12,IO27*%
%TO.N,/TACHO*%
X53715000Y-66285000D03*
%TO.P,U2,13,IO14*%
%TO.N,/H_CLK*%
X54985000Y-66285000D03*
%TO.P,U2,14,IO12*%
%TO.N,/H_MISO*%
X56255000Y-66285000D03*
D47*
%TO.P,U2,15,GND*%
%TO.N,GND*%
X57255000Y-63500000D03*
%TO.P,U2,16,IO13*%
%TO.N,/H_MOSI*%
X57255000Y-62230000D03*
%TO.P,U2,17,SHD/SD2*%
%TO.N,unconnected-(U2-Pad17)*%
X57255000Y-60960000D03*
%TO.P,U2,18,SWP/SD3*%
%TO.N,unconnected-(U2-Pad18)*%
X57255000Y-59690000D03*
%TO.P,U2,19,SCS/CMD*%
%TO.N,unconnected-(U2-Pad19)*%
X57255000Y-58420000D03*
%TO.P,U2,20,SCK/CLK*%
%TO.N,unconnected-(U2-Pad20)*%
X57255000Y-57150000D03*
%TO.P,U2,21,SDO/SD0*%
%TO.N,unconnected-(U2-Pad21)*%
X57255000Y-55880000D03*
%TO.P,U2,22,SDI/SD1*%
%TO.N,unconnected-(U2-Pad22)*%
X57255000Y-54610000D03*
%TO.P,U2,23,IO15*%
%TO.N,/T_ADDR2*%
X57255000Y-53340000D03*
%TO.P,U2,24,IO2*%
%TO.N,/U2RXTX_EN*%
X57255000Y-52070000D03*
D46*
%TO.P,U2,25,IO0*%
%TO.N,/LED1*%
X56255000Y-49285000D03*
%TO.P,U2,26,IO4*%
%TO.N,/CAN_Tx*%
X54985000Y-49285000D03*
%TO.P,U2,27,IO16*%
%TO.N,/U1RX*%
X53715000Y-49285000D03*
%TO.P,U2,28,IO17*%
%TO.N,/U1TX*%
X52445000Y-49285000D03*
%TO.P,U2,29,IO5*%
%TO.N,/CAN_Rx*%
X51175000Y-49285000D03*
%TO.P,U2,30,IO18*%
%TO.N,/U1RXTX_EN*%
X49905000Y-49285000D03*
%TO.P,U2,31,IO19*%
%TO.N,/onewire*%
X48635000Y-49285000D03*
%TO.P,U2,32,NC*%
%TO.N,unconnected-(U2-Pad32)*%
X47365000Y-49285000D03*
%TO.P,U2,33,IO21*%
%TO.N,/SDA*%
X46095000Y-49285000D03*
%TO.P,U2,34,RXD0/IO3*%
%TO.N,/U0RXD*%
X44825000Y-49285000D03*
%TO.P,U2,35,TXD0/IO1*%
%TO.N,/U0TXD*%
X43555000Y-49285000D03*
%TO.P,U2,36,IO22*%
%TO.N,/SCL*%
X42285000Y-49285000D03*
%TO.P,U2,37,IO23*%
%TO.N,/U2RX*%
X41015000Y-49285000D03*
%TO.P,U2,38,GND*%
%TO.N,GND*%
X39745000Y-49285000D03*
D48*
%TO.P,U2,39,GND*%
X47245000Y-58785000D03*
%TD*%
D39*
%TO.P,Q1,1,E1*%
%TO.N,Net-(Q1-Pad1)*%
X41107600Y-79512200D03*
%TO.P,Q1,2,B1*%
%TO.N,Net-(Q1-Pad2)*%
X41757600Y-79512200D03*
%TO.P,Q1,3,C2*%
%TO.N,Net-(Q1-Pad3)*%
X42407600Y-79512200D03*
%TO.P,Q1,4,E2*%
%TO.N,V_IN*%
X42407600Y-77612200D03*
%TO.P,Q1,5,B2*%
%TO.N,Net-(Q1-Pad2)*%
X41757600Y-77612200D03*
%TO.P,Q1,6,C1*%
X41107600Y-77612200D03*
%TD*%
D30*
%TO.P,JP20,1,A*%
%TO.N,/U2RXTX_EN*%
X66406000Y-59690000D03*
D31*
%TO.P,JP20,2,B*%
%TO.N,/serial/U2RXTX_ENs*%
X67706000Y-59690000D03*
%TD*%
D49*
%TO.P,JP5,1,A*%
%TO.N,+5V*%
X116789200Y-59222400D03*
D50*
%TO.P,JP5,2,B*%
%TO.N,/INPUT/5V_1*%
X116789200Y-57922400D03*
%TD*%
D10*
%TO.P,J15,1,Pin_1*%
%TO.N,/OUTPUT/TACHO2*%
X131176000Y-89154000D03*
D11*
%TO.P,J15,2,Pin_2*%
%TO.N,/OUTPUT/REL2_NC_TACHO*%
X128636000Y-89154000D03*
%TO.P,J15,3,Pin_3*%
%TO.N,/OUTPUT/REL2_NC*%
X126096000Y-89154000D03*
%TD*%
D22*
%TO.P,TP1,1,1*%
%TO.N,GND*%
X105232200Y-58648600D03*
%TD*%
D15*
%TO.P,R17,1*%
%TO.N,Net-(Q5-Pad1)*%
X120523000Y-70827400D03*
%TO.P,R17,2*%
%TO.N,GND*%
X120523000Y-69177400D03*
%TD*%
D51*
%TO.P,Q12,1,G*%
%TO.N,Net-(Q1-Pad3)*%
X41412200Y-81752700D03*
%TO.P,Q12,2,S*%
%TO.N,V_IN*%
X39512200Y-81752700D03*
%TO.P,Q12,3,D*%
%TO.N,Net-(Q1-Pad1)*%
X40462200Y-83627700D03*
%TD*%
D15*
%TO.P,R16,1*%
%TO.N,Net-(Q3-Pad1)*%
X133707900Y-70739000D03*
%TO.P,R16,2*%
%TO.N,GND*%
X133707900Y-69089000D03*
%TD*%
D21*
%TO.P,R29,1*%
%TO.N,Net-(C19-Pad1)*%
X113157000Y-49403000D03*
%TO.P,R29,2*%
%TO.N,Net-(D20-Pad3)*%
X113157000Y-51053000D03*
%TD*%
D15*
%TO.P,R76,1*%
%TO.N,/OUTPUT/TACHO3*%
X72898000Y-85026000D03*
%TO.P,R76,2*%
%TO.N,+3V3*%
X72898000Y-83376000D03*
%TD*%
%TO.P,R15,1*%
%TO.N,Net-(Q2-Pad1)*%
X147142200Y-70649600D03*
%TO.P,R15,2*%
%TO.N,GND*%
X147142200Y-68999600D03*
%TD*%
D21*
%TO.P,R68,1*%
%TO.N,Net-(R66-Pad2)*%
X61087000Y-88964000D03*
%TO.P,R68,2*%
%TO.N,Net-(R68-Pad2)*%
X61087000Y-90614000D03*
%TD*%
D25*
%TO.P,Q6,1,G*%
%TO.N,Net-(Q6-Pad1)*%
X109420900Y-71006500D03*
%TO.P,Q6,2,S*%
%TO.N,GND*%
X109420900Y-69106500D03*
%TO.P,Q6,3,D*%
%TO.N,Net-(D8-Pad2)*%
X107545900Y-70056500D03*
%TD*%
D24*
%TO.P,U20,1,I3*%
%TO.N,/OUTPUT/TACHO4*%
X68896000Y-87249000D03*
%TO.P,U20,2,I2*%
%TO.N,/OUTPUT/TACHO3*%
X68896000Y-85979000D03*
%TO.P,U20,3,I1*%
%TO.N,/OUTPUT/TACHO2*%
X68896000Y-84709000D03*
%TO.P,U20,4,I0*%
%TO.N,/OUTPUT/TACHO1*%
X68896000Y-83439000D03*
%TO.P,U20,5,Q*%
%TO.N,/TACHO*%
X68896000Y-82169000D03*
%TO.P,U20,6,~{Q}*%
%TO.N,unconnected-(U20-Pad6)*%
X68896000Y-80899000D03*
%TO.P,U20,7,~{E}*%
%TO.N,GND*%
X68896000Y-79629000D03*
%TO.P,U20,8,GND*%
X68896000Y-78359000D03*
%TO.P,U20,9,S2*%
%TO.N,/T_ADDR2*%
X63946000Y-78359000D03*
%TO.P,U20,10,S1*%
%TO.N,/OUTPUT/T_ADDR1*%
X63946000Y-79629000D03*
%TO.P,U20,11,S0*%
%TO.N,/OUTPUT/T_ADDR0*%
X63946000Y-80899000D03*
%TO.P,U20,12,I7*%
%TO.N,unconnected-(U20-Pad12)*%
X63946000Y-82169000D03*
%TO.P,U20,13,I6*%
%TO.N,unconnected-(U20-Pad13)*%
X63946000Y-83439000D03*
%TO.P,U20,14,I5*%
%TO.N,/OUTPUT/TACHO6*%
X63946000Y-84709000D03*
%TO.P,U20,15,I4*%
%TO.N,/OUTPUT/TACHO5*%
X63946000Y-85979000D03*
%TO.P,U20,16,VCC*%
%TO.N,+3V3*%
X63946000Y-87249000D03*
%TD*%
D20*
%TO.P,R55,1*%
%TO.N,GND*%
X56996600Y-68580000D03*
%TO.P,R55,2*%
%TO.N,/H_CLK*%
X55346600Y-68580000D03*
%TD*%
D23*
%TO.P,K5,1*%
%TO.N,N/C*%
X104902000Y-85852000D03*
%TO.P,K5,5*%
%TO.N,/OUTPUT/VCC_REL*%
X104902000Y-75692000D03*
%TO.P,K5,6*%
%TO.N,/OUTPUT/REL4_NO*%
X104902000Y-73152000D03*
%TO.P,K5,7*%
%TO.N,/OUTPUT/REL4_NC*%
X97282000Y-73152000D03*
%TO.P,K5,8*%
%TO.N,Net-(D8-Pad2)*%
X97282000Y-75692000D03*
%TO.P,K5,12*%
%TO.N,/OUTPUT/REL4_COM*%
X97282000Y-85852000D03*
%TD*%
D13*
%TO.P,C38,1*%
%TO.N,+5V*%
X94869000Y-48641000D03*
%TO.P,C38,2*%
%TO.N,GND*%
X94869000Y-50191000D03*
%TD*%
D51*
%TO.P,Q14,1,G*%
%TO.N,Net-(Q13-Pad3)*%
X48401400Y-81676500D03*
%TO.P,Q14,2,S*%
%TO.N,V_IN*%
X46501400Y-81676500D03*
%TO.P,Q14,3,D*%
%TO.N,Net-(Q13-Pad1)*%
X47451400Y-83551500D03*
%TD*%
D20*
%TO.P,R2,1*%
%TO.N,/onewire*%
X47180000Y-46863000D03*
%TO.P,R2,2*%
%TO.N,+3V3*%
X45530000Y-46863000D03*
%TD*%
D19*
%TO.P,C8,1*%
%TO.N,+3V3*%
X64617000Y-72326500D03*
%TO.P,C8,2*%
%TO.N,GND*%
X66167000Y-72326500D03*
%TD*%
D25*
%TO.P,Q4,1,G*%
%TO.N,Net-(Q4-Pad1)*%
X77696300Y-70850800D03*
%TO.P,Q4,2,S*%
%TO.N,GND*%
X77696300Y-68950800D03*
%TO.P,Q4,3,D*%
%TO.N,Net-(D10-Pad2)*%
X75821300Y-69900800D03*
%TD*%
D13*
%TO.P,C26,1*%
%TO.N,Net-(C26-Pad1)*%
X132461000Y-65392000D03*
%TO.P,C26,2*%
%TO.N,GND*%
X132461000Y-66942000D03*
%TD*%
D15*
%TO.P,R42,1*%
%TO.N,GND1*%
X138021000Y-43243000D03*
%TO.P,R42,2*%
%TO.N,Net-(Q10-Pad2)*%
X138021000Y-41593000D03*
%TD*%
%TO.P,R74,1*%
%TO.N,/OUTPUT/TACHO1*%
X71120000Y-79057000D03*
%TO.P,R74,2*%
%TO.N,+3V3*%
X71120000Y-77407000D03*
%TD*%
D21*
%TO.P,R24,1*%
%TO.N,Net-(D11-Pad2)*%
X63779400Y-54013600D03*
%TO.P,R24,2*%
%TO.N,/LED1*%
X63779400Y-55663600D03*
%TD*%
D16*
%TO.P,D16,1,K*%
%TO.N,Net-(D16-Pad1)*%
X131925000Y-46863000D03*
%TO.P,D16,2,A*%
%TO.N,Net-(C21-Pad1)*%
X135425000Y-46863000D03*
%TD*%
D19*
%TO.P,C3,1*%
%TO.N,GND*%
X39484000Y-68834000D03*
%TO.P,C3,2*%
%TO.N,+3V3*%
X41034000Y-68834000D03*
%TD*%
D15*
%TO.P,R18,1*%
%TO.N,Net-(Q6-Pad1)*%
X111404400Y-70866000D03*
%TO.P,R18,2*%
%TO.N,GND*%
X111404400Y-69216000D03*
%TD*%
%TO.P,R59,1*%
%TO.N,Net-(IC4-Pad1)*%
X84582000Y-59563000D03*
%TO.P,R59,2*%
%TO.N,/U3RXTX_EN*%
X84582000Y-57913000D03*
%TD*%
D45*
%TO.P,D28,1,K*%
%TO.N,GND*%
X100761800Y-71043900D03*
%TO.P,D28,2,A*%
%TO.N,Net-(D28-Pad2)*%
X100761800Y-69468900D03*
%TD*%
D19*
%TO.P,C23,1*%
%TO.N,Net-(C23-Pad1)*%
X123431000Y-55626000D03*
%TO.P,C23,2*%
%TO.N,GND*%
X124981000Y-55626000D03*
%TD*%
D32*
%TO.P,R34,1*%
%TO.N,Net-(Q9-Pad1)*%
X124750000Y-44069000D03*
%TO.P,R34,2*%
%TO.N,Net-(C20-Pad1)*%
X126400000Y-44069000D03*
%TD*%
D26*
%TO.P,PS4,1,-Vin*%
%TO.N,GND*%
X104837500Y-50800000D03*
D27*
%TO.P,PS4,2,+Vin*%
%TO.N,+5V*%
X104837500Y-48260000D03*
%TO.P,PS4,3,-Vout*%
%TO.N,/serial/U3_GND*%
X104837500Y-45720000D03*
%TO.P,PS4,4,+Vout*%
%TO.N,/serial/U3_VCC*%
X104837500Y-43180000D03*
%TD*%
D16*
%TO.P,D13,1,K*%
%TO.N,GND1*%
X118844000Y-49911000D03*
%TO.P,D13,2,A*%
%TO.N,Net-(D12-Pad1)*%
X115344000Y-49911000D03*
%TD*%
D10*
%TO.P,J8,1,Pin_1*%
%TO.N,/OUTPUT/REL5_COM*%
X87117000Y-89154000D03*
D11*
%TO.P,J8,2,Pin_2*%
%TO.N,V_IN*%
X89657000Y-89154000D03*
%TD*%
D21*
%TO.P,R81,1*%
%TO.N,/OUTPUT/REL2*%
X124180600Y-69075800D03*
%TO.P,R81,2*%
%TO.N,Net-(D26-Pad2)*%
X124180600Y-70725800D03*
%TD*%
D52*
%TO.P,IC2,1,A1*%
%TO.N,Net-(D22-Pad3)*%
X146558000Y-56598000D03*
%TO.P,IC2,2,C1*%
%TO.N,Net-(IC2-Pad2)*%
X145288000Y-56598000D03*
%TO.P,IC2,3,A2*%
%TO.N,Net-(D23-Pad3)*%
X144018000Y-56598000D03*
%TO.P,IC2,4,C2*%
%TO.N,Net-(IC2-Pad4)*%
X142748000Y-56598000D03*
%TO.P,IC2,5,E2*%
%TO.N,GND*%
X142748000Y-63798000D03*
%TO.P,IC2,6,C2*%
%TO.N,Net-(IC2-Pad6)*%
X144018000Y-63798000D03*
%TO.P,IC2,7,E1*%
%TO.N,GND*%
X145288000Y-63798000D03*
%TO.P,IC2,8,C1*%
%TO.N,Net-(IC2-Pad8)*%
X146558000Y-63798000D03*
%TD*%
D32*
%TO.P,R36,1*%
%TO.N,Net-(Q11-Pad1)*%
X143828000Y-44069000D03*
%TO.P,R36,2*%
%TO.N,Net-(C22-Pad1)*%
X145478000Y-44069000D03*
%TD*%
D21*
%TO.P,R51,1*%
%TO.N,Net-(C24-Pad1)*%
X120777000Y-63691000D03*
%TO.P,R51,2*%
%TO.N,Net-(IC2-Pad8)*%
X120777000Y-65341000D03*
%TD*%
D13*
%TO.P,C13,1*%
%TO.N,+5V*%
X118872000Y-65506000D03*
%TO.P,C13,2*%
%TO.N,GND*%
X118872000Y-67056000D03*
%TD*%
D21*
%TO.P,R23,1*%
%TO.N,GND*%
X101092000Y-62675000D03*
%TO.P,R23,2*%
%TO.N,Net-(R23-Pad2)*%
X101092000Y-64325000D03*
%TD*%
D49*
%TO.P,JP6,1,A*%
%TO.N,GND*%
X108839000Y-64404000D03*
D50*
%TO.P,JP6,2,B*%
%TO.N,GND1*%
X108839000Y-63104000D03*
%TD*%
D53*
%TO.P,C48,1*%
%TO.N,+3V3*%
X46857000Y-73152000D03*
%TO.P,C48,2*%
%TO.N,GND*%
X52457000Y-73152000D03*
%TD*%
D25*
%TO.P,D20,1,A*%
%TO.N,GND1*%
X118031500Y-53909000D03*
%TO.P,D20,2,NC*%
%TO.N,unconnected-(D20-Pad2)*%
X118031500Y-52009000D03*
%TO.P,D20,3,K*%
%TO.N,Net-(D20-Pad3)*%
X116156500Y-52959000D03*
%TD*%
D32*
%TO.P,R66,1*%
%TO.N,/AI1d*%
X46419000Y-68580000D03*
%TO.P,R66,2*%
%TO.N,Net-(R66-Pad2)*%
X48069000Y-68580000D03*
%TD*%
D20*
%TO.P,R13,1*%
%TO.N,/CAN_H*%
X43471600Y-44932600D03*
%TO.P,R13,2*%
%TO.N,Net-(C15-Pad1)*%
X41821600Y-44932600D03*
%TD*%
%TO.P,R7,1*%
%TO.N,Net-(Q13-Pad2)*%
X45148000Y-75946000D03*
%TO.P,R7,2*%
%TO.N,GND*%
X43498000Y-75946000D03*
%TD*%
D15*
%TO.P,R44,1*%
%TO.N,GND1*%
X147447000Y-43624000D03*
%TO.P,R44,2*%
%TO.N,Net-(Q11-Pad2)*%
X147447000Y-41974000D03*
%TD*%
%TO.P,R75,1*%
%TO.N,/OUTPUT/TACHO2*%
X72898000Y-81661000D03*
%TO.P,R75,2*%
%TO.N,+3V3*%
X72898000Y-80011000D03*
%TD*%
D54*
%TO.P,D11,1,K*%
%TO.N,GND*%
X97966500Y-55626000D03*
%TO.P,D11,2,A*%
%TO.N,Net-(D11-Pad2)*%
X96391500Y-55626000D03*
%TD*%
D25*
%TO.P,D23,1,A*%
%TO.N,GND1*%
X145844500Y-54163000D03*
%TO.P,D23,2,NC*%
%TO.N,unconnected-(D23-Pad2)*%
X145844500Y-52263000D03*
%TO.P,D23,3,K*%
%TO.N,Net-(D23-Pad3)*%
X143969500Y-53213000D03*
%TD*%
D55*
%TO.P,TH1,1*%
%TO.N,V_IN1*%
X39030500Y-88138000D03*
%TO.P,TH1,2*%
%TO.N,Net-(Q1-Pad1)*%
X45805500Y-88138000D03*
%TD*%
D16*
%TO.P,D17,1,K*%
%TO.N,GND1*%
X137739000Y-49911000D03*
%TO.P,D17,2,A*%
%TO.N,Net-(D16-Pad1)*%
X134239000Y-49911000D03*
%TD*%
D20*
%TO.P,R45,1*%
%TO.N,+3V3*%
X140779000Y-65913000D03*
%TO.P,R45,2*%
%TO.N,Net-(IC1-Pad8)*%
X139129000Y-65913000D03*
%TD*%
D55*
%TO.P,TH2,1*%
%TO.N,V_IN2*%
X48936500Y-88138000D03*
%TO.P,TH2,2*%
%TO.N,Net-(Q13-Pad1)*%
X55711500Y-88138000D03*
%TD*%
D56*
%TO.P,C1,1*%
%TO.N,V_IN*%
X71198000Y-74866500D03*
%TO.P,C1,2*%
%TO.N,GND*%
X68248000Y-74866500D03*
%TD*%
D15*
%TO.P,R52,1*%
%TO.N,Net-(C26-Pad1)*%
X132461000Y-63690000D03*
%TO.P,R52,2*%
%TO.N,Net-(IC2-Pad6)*%
X132461000Y-62040000D03*
%TD*%
D13*
%TO.P,C33,1*%
%TO.N,/serial/U3_VCC*%
X107442000Y-43294000D03*
%TO.P,C33,2*%
%TO.N,/serial/U3_GND*%
X107442000Y-44844000D03*
%TD*%
D57*
%TO.P,C4,1*%
%TO.N,GND*%
X42900600Y-71155600D03*
%TO.P,C4,2*%
%TO.N,+3V3*%
X42900600Y-69255600D03*
%TD*%
D25*
%TO.P,D22,1,A*%
%TO.N,GND1*%
X136037500Y-53909000D03*
%TO.P,D22,2,NC*%
%TO.N,unconnected-(D22-Pad2)*%
X136037500Y-52009000D03*
%TO.P,D22,3,K*%
%TO.N,Net-(D22-Pad3)*%
X134162500Y-52959000D03*
%TD*%
D36*
%TO.P,D27,1,K*%
%TO.N,GND*%
X114782600Y-69240200D03*
%TO.P,D27,2,A*%
%TO.N,Net-(D27-Pad2)*%
X114782600Y-70815200D03*
%TD*%
D33*
%TO.P,C42,1*%
%TO.N,/serial/U2_VCC*%
X97282000Y-42897000D03*
%TO.P,C42,2*%
%TO.N,/serial/U2_GND*%
X97282000Y-45847000D03*
%TD*%
D15*
%TO.P,R58,1*%
%TO.N,Net-(IC3-Pad3)*%
X63830200Y-62178200D03*
%TO.P,R58,2*%
%TO.N,/U2RXTX_EN*%
X63830200Y-60528200D03*
%TD*%
D36*
%TO.P,D26,1,K*%
%TO.N,GND*%
X125907800Y-69113300D03*
%TO.P,D26,2,A*%
%TO.N,Net-(D26-Pad2)*%
X125907800Y-70688300D03*
%TD*%
D37*
%TO.P,U19,1,IN*%
%TO.N,V_IN*%
X53755500Y-78303500D03*
D38*
%TO.P,U19,2,GND*%
%TO.N,GND*%
X56295500Y-78303500D03*
%TO.P,U19,3,OUT*%
%TO.N,+5V*%
X58835500Y-78303500D03*
%TD*%
D21*
%TO.P,R84,1*%
%TO.N,/OUTPUT/REL5*%
X83845400Y-69075800D03*
%TO.P,R84,2*%
%TO.N,Net-(D29-Pad2)*%
X83845400Y-70725800D03*
%TD*%
D28*
%TO.P,C27,1*%
%TO.N,+3V3*%
X130188000Y-57531000D03*
%TO.P,C27,2*%
%TO.N,GND*%
X128638000Y-57531000D03*
%TD*%
D32*
%TO.P,R48,1*%
%TO.N,+3V3*%
X142431000Y-65913000D03*
%TO.P,R48,2*%
%TO.N,Net-(IC2-Pad6)*%
X144081000Y-65913000D03*
%TD*%
D21*
%TO.P,R9,1*%
%TO.N,Net-(Q2-Pad1)*%
X141046200Y-69025000D03*
%TO.P,R9,2*%
%TO.N,/OUTPUT/REL1*%
X141046200Y-70675000D03*
%TD*%
D52*
%TO.P,IC1,1,A1*%
%TO.N,Net-(D20-Pad3)*%
X138938000Y-56598000D03*
%TO.P,IC1,2,C1*%
%TO.N,Net-(IC1-Pad2)*%
X137668000Y-56598000D03*
%TO.P,IC1,3,A2*%
%TO.N,Net-(D21-Pad3)*%
X136398000Y-56598000D03*
%TO.P,IC1,4,C2*%
%TO.N,Net-(IC1-Pad4)*%
X135128000Y-56598000D03*
%TO.P,IC1,5,E2*%
%TO.N,GND*%
X135128000Y-63798000D03*
%TO.P,IC1,6,C2*%
%TO.N,Net-(IC1-Pad6)*%
X136398000Y-63798000D03*
%TO.P,IC1,7,E1*%
%TO.N,GND*%
X137668000Y-63798000D03*
%TO.P,IC1,8,C1*%
%TO.N,Net-(IC1-Pad8)*%
X138938000Y-63798000D03*
%TD*%
D26*
%TO.P,PS1,1,-Vin*%
%TO.N,GND*%
X66864500Y-50851500D03*
D27*
%TO.P,PS1,2,+Vin*%
%TO.N,+5V*%
X66864500Y-48311500D03*
%TO.P,PS1,3,-Vout*%
%TO.N,/CAN_GND*%
X66864500Y-45771500D03*
%TO.P,PS1,4,+Vout*%
%TO.N,/CAN_VCC*%
X66864500Y-43231500D03*
%TD*%
D58*
%TO.N,+5V*%
X62534800Y-61772800D03*
X60960001Y-73094177D03*
%TO.N,/CAN_VCC*%
X62635700Y-43231500D03*
X55425564Y-42877966D03*
X53282650Y-46596638D03*
%TO.N,/CAN_GND*%
X62585600Y-45161200D03*
X42722800Y-42519600D03*
X61976000Y-46583600D03*
X45516800Y-41605200D03*
X52527200Y-41046400D03*
X71577200Y-44602400D03*
X70104000Y-45770800D03*
%TO.N,Net-(D5-Pad2)*%
X141388300Y-73495700D03*
%TO.N,Net-(D6-Pad2)*%
X125628400Y-76301600D03*
%TO.N,Net-(D7-Pad2)*%
X114960400Y-75590400D03*
%TO.N,V_IN*%
X69748400Y-74853800D03*
X43154600Y-78689200D03*
D59*
X38354000Y-81788000D03*
D58*
X60858400Y-81584800D03*
X48340400Y-78511400D03*
D59*
X45593000Y-81686400D03*
D58*
%TO.N,GND1*%
X119024400Y-48412400D03*
X119284000Y-53842400D03*
X119024400Y-44704000D03*
X138023600Y-48260000D03*
X128815500Y-44586800D03*
X126187200Y-53797200D03*
X138023600Y-44348400D03*
X128117600Y-48361600D03*
X134823200Y-53898800D03*
X147421600Y-48412400D03*
X117906800Y-56845200D03*
X146405600Y-42926000D03*
X147167600Y-54152800D03*
%TO.N,/CAN_H*%
X44583100Y-43821100D03*
%TO.N,Net-(D20-Pad3)*%
X140033100Y-57222100D03*
X121666000Y-54660800D03*
%TO.N,/INPUT/5V_1*%
X116789200Y-55956200D03*
%TO.N,GND*%
X120015000Y-67056000D03*
X85801200Y-66852800D03*
X126949200Y-64566800D03*
X40005000Y-77089000D03*
X107188000Y-58089800D03*
X127000000Y-66929000D03*
X96175909Y-59083310D03*
X68986400Y-60756800D03*
X137795000Y-65278000D03*
X119557800Y-69900800D03*
X56515000Y-72517000D03*
X39751000Y-50800000D03*
X90312750Y-69928413D03*
X145034000Y-67868800D03*
X93659400Y-70905500D03*
X86690200Y-68847300D03*
X44323000Y-71247000D03*
X43434000Y-74803000D03*
X45339000Y-77597000D03*
X97078800Y-64312800D03*
X38354000Y-72644000D03*
X76276200Y-68999700D03*
X69589400Y-77326800D03*
X59690000Y-72517000D03*
X126111000Y-55753000D03*
X57353200Y-87934800D03*
X73888600Y-71918700D03*
X103186800Y-62674200D03*
X102997000Y-60071000D03*
X38658800Y-49225200D03*
X66802000Y-88900000D03*
X128651000Y-61417200D03*
X122402600Y-66954400D03*
X43942000Y-60198000D03*
X49377600Y-76962000D03*
X85801200Y-62179200D03*
X38735000Y-67945000D03*
X80924400Y-61976000D03*
X133731000Y-67093500D03*
X65136361Y-74469211D03*
X97070307Y-68217323D03*
X58039000Y-68580000D03*
X73408815Y-67099998D03*
X134226900Y-63804800D03*
X117805200Y-60706000D03*
X134977900Y-69088000D03*
X54356000Y-62103000D03*
X144018000Y-62357000D03*
X52451000Y-71628000D03*
X100761800Y-72186800D03*
X107975400Y-69088000D03*
X122390500Y-56817000D03*
X45586981Y-44245940D03*
X38506400Y-78714600D03*
X127508000Y-57531000D03*
%TO.N,/serial/U1_VCC*%
X82269764Y-42288672D03*
X75438000Y-53035200D03*
X74396600Y-43205400D03*
X74422000Y-46177200D03*
X69286901Y-52370501D03*
X76962000Y-58064400D03*
%TO.N,+3V3*%
X63384300Y-72327100D03*
X43561000Y-68072000D03*
X123444000Y-65786000D03*
X104509119Y-59857810D03*
X103950729Y-67945829D03*
X74168000Y-83439000D03*
X94615000Y-41122600D03*
X48260000Y-46736000D03*
X72390000Y-77559500D03*
X41034300Y-64389000D03*
X82804000Y-40741600D03*
X39370000Y-39420800D03*
X131953000Y-59219500D03*
X134315200Y-64820800D03*
X72644000Y-88773000D03*
X107061000Y-40767000D03*
X140843000Y-64643000D03*
X62872300Y-88900000D03*
X100199400Y-67855500D03*
X96964665Y-60860020D03*
X35737800Y-87274400D03*
X90246200Y-66294000D03*
X147320000Y-67183000D03*
X131318000Y-57531000D03*
X44450000Y-73152000D03*
X121564400Y-62280800D03*
X59045500Y-87382075D03*
X41034300Y-67874800D03*
X74168000Y-80010000D03*
X38506400Y-80162400D03*
X77090581Y-67018500D03*
X104521000Y-57404000D03*
X42164000Y-74295000D03*
%TO.N,/U1RX*%
X53721000Y-51041900D03*
X59283600Y-63500000D03*
X75692000Y-62484000D03*
%TO.N,/RST_ESP*%
X42291000Y-72644000D03*
X42049500Y-60177419D03*
X42316400Y-67995800D03*
%TO.N,/serial/U3_VCC*%
X107492800Y-42240200D03*
X99822000Y-44069000D03*
X99720400Y-50546000D03*
X102489000Y-57581800D03*
%TO.N,/U1TX*%
X54610000Y-51726500D03*
%TO.N,/U1TX_O*%
X70612000Y-53873400D03*
X73152000Y-53594000D03*
X64770000Y-41910000D03*
%TO.N,/U3RX*%
X47371000Y-64643000D03*
%TO.N,/serial/U3_GND*%
X101752400Y-50342800D03*
X95148400Y-59893200D03*
X109220000Y-44704000D03*
X94386400Y-58039000D03*
X94326409Y-51197209D03*
X95850996Y-53521427D03*
%TO.N,/H_CLK*%
X105142100Y-66974100D03*
X54495178Y-64777615D03*
%TO.N,/H_MISO*%
X57784100Y-65477989D03*
X103962200Y-65201800D03*
%TO.N,/H_MOSI*%
X55118000Y-59944000D03*
%TO.N,Net-(D21-Pad3)*%
X136228100Y-55173600D03*
%TO.N,Net-(D22-Pad3)*%
X147468900Y-57055300D03*
%TO.N,/serial/U3_VCC_e*%
X95194200Y-39992500D03*
%TO.N,/CAN_Tx*%
X54483000Y-47625000D03*
%TO.N,/U3TX*%
X51054000Y-68122800D03*
%TO.N,/serial/U2_VCC*%
X86868000Y-43891200D03*
X90119200Y-43205400D03*
X95986600Y-44018200D03*
X89560400Y-58013600D03*
X86817200Y-49936400D03*
X86742212Y-46353788D03*
%TO.N,/CAN_Rx*%
X49049962Y-47483988D03*
%TO.N,/U2RX*%
X83820000Y-63931800D03*
%TO.N,/onewire*%
X48641000Y-50927000D03*
%TO.N,/serial/U2_GND*%
X83464400Y-59842400D03*
X97447700Y-44805600D03*
X93980000Y-44805600D03*
X82143600Y-51257200D03*
X89204800Y-46228000D03*
%TO.N,/SDA*%
X42570398Y-54813200D03*
%TO.N,/U0RXD*%
X44825000Y-50800000D03*
%TO.N,/U0TXD*%
X43561000Y-50774600D03*
%TO.N,/SCL*%
X42205400Y-50897800D03*
%TO.N,/U2TX*%
X83058000Y-64795400D03*
%TO.N,/OUTPUT/VCC_REL*%
X130556000Y-79197200D03*
X105119400Y-79266800D03*
X145745200Y-79146400D03*
X82677000Y-79171800D03*
X78181200Y-79615700D03*
X61909736Y-80553336D03*
X119579400Y-79206800D03*
X56972200Y-80543400D03*
X93349400Y-79246800D03*
%TO.N,/OUTPUT/TACHO3*%
X103149400Y-84480400D03*
%TO.N,/U3RXTX_EN*%
X49599836Y-68150434D03*
X82219800Y-58724800D03*
%TO.N,/U1RXTX_EN*%
X55482000Y-52451000D03*
X62636400Y-57226200D03*
%TO.N,/U1_GND*%
X72237600Y-59232800D03*
X70713600Y-48107600D03*
X76733400Y-46228000D03*
X81785671Y-46029249D03*
%TO.N,/OUTPUT/TACHO6*%
X65786000Y-84709000D03*
%TO.N,Net-(D8-Pad2)*%
X100634800Y-76250800D03*
%TO.N,Net-(D9-Pad2)*%
X88265000Y-73025000D03*
%TO.N,Net-(D10-Pad2)*%
X77876400Y-73507600D03*
%TO.N,Net-(IC1-Pad2)*%
X137578800Y-55179400D03*
X119253000Y-40868600D03*
%TO.N,/INPUT/DI4_P*%
X140282400Y-49293200D03*
%TO.N,/INPUT/IO_DI_PL*%
X97282000Y-66294000D03*
X52451000Y-68072000D03*
X106537220Y-67559600D03*
%TO.N,/serial/U2RXTX_ENs*%
X83908400Y-54800000D03*
%TO.N,/OUTPUT/REL1*%
X108610400Y-68148200D03*
X104419400Y-62865000D03*
X135864600Y-70815200D03*
X105003600Y-64439800D03*
%TO.N,Net-(D23-Pad3)*%
X143727000Y-55171600D03*
%TO.N,/OUTPUT/REL4*%
X95359400Y-67066800D03*
X96111262Y-63658661D03*
%TO.N,/serial/U1RXTX_ENs*%
X73787000Y-55549800D03*
X66958300Y-53417000D03*
X69469000Y-57023000D03*
%TO.N,/OUTPUT/REL5*%
X95758000Y-65405000D03*
X82575400Y-69088000D03*
X91948000Y-67691000D03*
%TO.N,/serial/U3RXTX_ENs*%
X94056200Y-56362600D03*
%TO.N,Net-(IC1-Pad4)*%
X123737800Y-42116600D03*
X133531258Y-56019500D03*
%TO.N,/INPUT/DI1s*%
X126975000Y-59436000D03*
%TO.N,/INPUT/DI2s*%
X127000000Y-61112400D03*
%TO.N,Net-(IC1-Pad6)*%
X123085400Y-60742600D03*
X131907100Y-60678500D03*
%TO.N,/INPUT/DI3s*%
X127406400Y-62026800D03*
%TO.N,Net-(D11-Pad2)*%
X69342000Y-59436000D03*
X65229300Y-53359700D03*
%TO.N,/T_ADDR2*%
X49403000Y-69723000D03*
X53390800Y-56210200D03*
%TO.N,/INPUT/DI4s*%
X128389941Y-64975994D03*
%TO.N,/CAN_Rx_s*%
X54495100Y-44084698D03*
%TO.N,/CAN_Tx_s*%
X55319664Y-45827957D03*
%TO.N,/serial/U3RX_O*%
X99161600Y-54457600D03*
X97044732Y-53768066D03*
%TO.N,/serial/U3TX_O*%
X96062800Y-47879000D03*
X93370400Y-46990000D03*
%TO.N,/serial/U2TX_O*%
X83062600Y-53818000D03*
X81762600Y-41427400D03*
X85902800Y-53517800D03*
%TO.N,Net-(IC2-Pad2)*%
X133276300Y-42158000D03*
X145231100Y-55187400D03*
%TO.N,Net-(IC2-Pad4)*%
X141859000Y-56642000D03*
%TO.N,/OUTPUT/T_ADDR1*%
X72898001Y-74421999D03*
X66040002Y-79629000D03*
%TO.N,/OUTPUT/T_ADDR0*%
X73406000Y-76835000D03*
X66040000Y-80899000D03*
%TO.N,Net-(C45-Pad1)*%
X84582000Y-47117000D03*
X82169000Y-46990000D03*
%TD*%
D60*
%TO.N,/OUTPUT/TACHO5*%
X86450000Y-93993800D02*
X86450000Y-95000000D01*
X66497200Y-87884000D02*
X80340200Y-87884000D01*
X64592200Y-85979000D02*
X66497200Y-87884000D01*
X63946000Y-85979000D02*
X64592200Y-85979000D01*
X80340200Y-87884000D02*
X86450000Y-93993800D01*
D61*
%TO.N,+5V*%
X73634918Y-48260000D02*
X79437500Y-48260000D01*
X104368999Y-48728501D02*
X104837500Y-48260000D01*
X111570500Y-63043500D02*
X113335500Y-63043500D01*
X59690000Y-74119000D02*
X59935178Y-74119000D01*
X68935100Y-48882000D02*
X68364600Y-48311500D01*
X107442000Y-48755000D02*
X105332500Y-48755000D01*
X59322000Y-75946000D02*
X59322000Y-74487000D01*
X59935178Y-74119000D02*
X60960001Y-73094177D01*
X92606001Y-48728501D02*
X104368999Y-48728501D01*
X72937817Y-48957101D02*
X73634918Y-48260000D01*
X115086800Y-65506000D02*
X113335500Y-63754700D01*
X69288900Y-48882000D02*
X68935100Y-48882000D01*
X69364001Y-48957101D02*
X72937817Y-48957101D01*
X79437500Y-48260000D02*
X92137500Y-48260000D01*
X69288900Y-48882000D02*
X69364001Y-48957101D01*
X113335500Y-63754700D02*
X113335500Y-63043500D01*
X116789200Y-60655200D02*
X116789200Y-59222400D01*
X59322000Y-74487000D02*
X59690000Y-74119000D01*
X113335500Y-63043500D02*
X114400900Y-63043500D01*
X118872000Y-65506000D02*
X115086800Y-65506000D01*
X69596000Y-48882000D02*
X69288900Y-48882000D01*
X105332500Y-48755000D02*
X104837500Y-48260000D01*
X58835500Y-78303500D02*
X59283600Y-77855400D01*
X59283600Y-77855400D02*
X59283600Y-75984400D01*
X66864500Y-48311500D02*
X68364600Y-48311500D01*
X92137500Y-48260000D02*
X92606001Y-48728501D01*
X59283600Y-75984400D02*
X59322000Y-75946000D01*
X114400900Y-63043500D02*
X116789200Y-60655200D01*
D60*
%TO.N,/CAN_VCC*%
X71231000Y-43294000D02*
X71628000Y-42897000D01*
X61228500Y-43231500D02*
X62635700Y-43231500D01*
X60833000Y-42865000D02*
X61214000Y-43246000D01*
X66864500Y-43231500D02*
X69406500Y-43231500D01*
X69406500Y-43231500D02*
X69469000Y-43294000D01*
X61214000Y-43246000D02*
X61228500Y-43231500D01*
X59309000Y-43421000D02*
X61039000Y-43421000D01*
X55854598Y-43307000D02*
X56958000Y-43307000D01*
X61039000Y-43421000D02*
X61214000Y-43246000D01*
X59195000Y-43307000D02*
X59309000Y-43421000D01*
X56958000Y-43307000D02*
X59195000Y-43307000D01*
X60833000Y-41529000D02*
X60833000Y-42865000D01*
X55425564Y-42877966D02*
X55854598Y-43307000D01*
X69469000Y-43294000D02*
X71231000Y-43294000D01*
%TO.N,/CAN_GND*%
X62570400Y-45146000D02*
X62585600Y-45161200D01*
X61214000Y-45146000D02*
X62570400Y-45146000D01*
X69469000Y-44844000D02*
X69469000Y-45720000D01*
X42722800Y-42519600D02*
X43421600Y-43218400D01*
X69520500Y-45771500D02*
X66864500Y-45771500D01*
X61976000Y-46583600D02*
X61175400Y-46583600D01*
X69469000Y-45720000D02*
X69520500Y-45771500D01*
X45544500Y-42545000D02*
X45516800Y-42517300D01*
X71552500Y-45771500D02*
X69520500Y-45771500D01*
X59042000Y-44577000D02*
X59309000Y-44844000D01*
X71577200Y-45796200D02*
X71628000Y-45847000D01*
X71628000Y-45847000D02*
X71552500Y-45771500D01*
X61175400Y-46583600D02*
X60896000Y-46863000D01*
X59309000Y-44844000D02*
X60912000Y-44844000D01*
X60912000Y-44844000D02*
X61214000Y-45146000D01*
X56958000Y-44577000D02*
X59042000Y-44577000D01*
X71577200Y-44602400D02*
X71577200Y-45796200D01*
X45516800Y-42517300D02*
X45516800Y-41605200D01*
X43421600Y-43218400D02*
X43421600Y-43332400D01*
%TO.N,Net-(D5-Pad2)*%
X143156700Y-71727300D02*
X143156700Y-69824600D01*
X141388300Y-73495700D02*
X143156700Y-71727300D01*
%TO.N,Net-(C15-Pad1)*%
X41821600Y-44932600D02*
X41821600Y-43382400D01*
X41821600Y-43382400D02*
X41871600Y-43332400D01*
X41821600Y-41656000D02*
X41821600Y-43282400D01*
X41821600Y-43282400D02*
X41871600Y-43332400D01*
%TO.N,Net-(D6-Pad2)*%
X125628400Y-76301600D02*
X125628400Y-75361800D01*
X125628400Y-75361800D02*
X129722400Y-71267800D01*
X129722400Y-71267800D02*
X129722400Y-69850000D01*
%TO.N,Net-(D7-Pad2)*%
X114960400Y-75590400D02*
X114960400Y-73253600D01*
X114960400Y-73253600D02*
X116763800Y-71450200D01*
X116763800Y-71450200D02*
X116763800Y-69974700D01*
X116763800Y-69974700D02*
X116740700Y-69951600D01*
D62*
%TO.N,V_IN*%
X56233800Y-74119000D02*
X56515000Y-74119000D01*
X69609000Y-72326500D02*
X69609000Y-74714400D01*
X47720400Y-77600000D02*
X47720400Y-77891400D01*
X71186145Y-74854645D02*
X71198000Y-74866500D01*
X69789758Y-74854645D02*
X71186145Y-74854645D01*
D63*
X46501400Y-81676500D02*
X45607100Y-81676500D01*
D62*
X54470000Y-75946000D02*
X54470000Y-75882800D01*
X54305200Y-76110800D02*
X54305200Y-77753800D01*
X47720400Y-77891400D02*
X48340400Y-78511400D01*
D63*
X39512200Y-81752700D02*
X38389300Y-81752700D01*
D62*
X42407600Y-77942200D02*
X43154600Y-78689200D01*
X69609000Y-70175500D02*
X69688500Y-70096000D01*
X54470000Y-75946000D02*
X54305200Y-76110800D01*
X54305200Y-77753800D02*
X53755500Y-78303500D01*
X69609000Y-74714400D02*
X69748400Y-74853800D01*
X69609000Y-72326500D02*
X69609000Y-70175500D01*
X54470000Y-75882800D02*
X56233800Y-74119000D01*
X42407600Y-77612200D02*
X42407600Y-77942200D01*
D63*
%TO.N,V_IN1*%
X35520000Y-95000000D02*
X35520000Y-93461200D01*
X35520000Y-93461200D02*
X39030500Y-89950700D01*
X39030500Y-89950700D02*
X39030500Y-88138000D01*
D60*
%TO.N,Net-(C18-Pad1)*%
X103593600Y-68580000D02*
X104101600Y-69088000D01*
X101168200Y-68580000D02*
X103593600Y-68580000D01*
X98614000Y-68580000D02*
X101168200Y-68580000D01*
X101156000Y-67310000D02*
X101156000Y-68567800D01*
X101156000Y-68567800D02*
X101168200Y-68580000D01*
%TO.N,Net-(C19-Pad1)*%
X117157000Y-45261100D02*
X117157000Y-44069000D01*
X114339200Y-46990000D02*
X116068100Y-45261100D01*
X116068100Y-45261100D02*
X117157000Y-45261100D01*
X118426100Y-45261100D02*
X118999000Y-45834000D01*
X117157000Y-45261100D02*
X118426100Y-45261100D01*
X113157000Y-47145000D02*
X113312000Y-46990000D01*
X113312000Y-46990000D02*
X114339200Y-46990000D01*
X113157000Y-49403000D02*
X113157000Y-47145000D01*
%TO.N,GND1*%
X111570000Y-60503500D02*
X111570500Y-60503500D01*
X118872000Y-57531000D02*
X118872000Y-57708800D01*
X108969500Y-63104000D02*
X111570000Y-60503500D01*
X108839000Y-63104000D02*
X108969500Y-63104000D01*
X119039400Y-44689000D02*
X119024400Y-44704000D01*
X136027300Y-53898800D02*
X136037500Y-53909000D01*
X120510800Y-57708800D02*
X120777000Y-57975000D01*
X138023600Y-46992600D02*
X138021000Y-46990000D01*
X119024400Y-48412400D02*
X119024400Y-47409400D01*
X146749000Y-42926000D02*
X146405600Y-42926000D01*
X119024400Y-49730600D02*
X118844000Y-49911000D01*
X119024400Y-48412400D02*
X119024400Y-49730600D01*
X128117600Y-49654400D02*
X127861000Y-49911000D01*
X111570500Y-60503500D02*
X114527500Y-60503500D01*
X147421600Y-48412400D02*
X147421600Y-49908400D01*
X118872000Y-57708800D02*
X120510800Y-57708800D01*
X118999000Y-43687000D02*
X118999000Y-43736400D01*
X147421600Y-49908400D02*
X147292000Y-50038000D01*
X128115000Y-43886300D02*
X128115000Y-43751000D01*
X138023600Y-48260000D02*
X138023600Y-49626400D01*
X128117600Y-47259600D02*
X128115000Y-47257000D01*
X134823200Y-53898800D02*
X136027300Y-53898800D01*
X128815500Y-44586800D02*
X128115000Y-43886300D01*
X145844500Y-54163000D02*
X147157400Y-54163000D01*
X119024400Y-47409400D02*
X118999000Y-47384000D01*
X118186200Y-56845200D02*
X118872000Y-57531000D01*
X138023600Y-48260000D02*
X138023600Y-46992600D01*
X117906800Y-56845200D02*
X118186200Y-56845200D01*
X128117600Y-48361600D02*
X128117600Y-47259600D01*
X138023600Y-43245600D02*
X138021000Y-43243000D01*
X138023600Y-44348400D02*
X138023600Y-43245600D01*
X127386300Y-53797200D02*
X127401500Y-53782000D01*
X147447000Y-43624000D02*
X146749000Y-42926000D01*
X138023600Y-49626400D02*
X137739000Y-49911000D01*
X126187200Y-53797200D02*
X127386300Y-53797200D01*
X119284000Y-53842400D02*
X118098100Y-53842400D01*
X118999000Y-43736400D02*
X119039400Y-43776800D01*
X118098100Y-53842400D02*
X118031500Y-53909000D01*
X147447000Y-47130000D02*
X147447000Y-48387000D01*
X119039400Y-43776800D02*
X119039400Y-44689000D01*
X114527500Y-60503500D02*
X114554000Y-60530000D01*
X147447000Y-48387000D02*
X147421600Y-48412400D01*
X147157400Y-54163000D02*
X147167600Y-54152800D01*
X128117600Y-48361600D02*
X128117600Y-49654400D01*
%TO.N,Net-(C20-Pad1)*%
X122456000Y-46863000D02*
X122456000Y-46708000D01*
X123475511Y-45688489D02*
X126460489Y-45688489D01*
X126400000Y-45628000D02*
X126460489Y-45688489D01*
X122273000Y-49467000D02*
X122273000Y-47446400D01*
X122456000Y-46708000D02*
X123475511Y-45688489D01*
X126460489Y-45688489D02*
X128096489Y-45688489D01*
X126400000Y-44069000D02*
X126400000Y-45628000D01*
X122456000Y-46863000D02*
X122856400Y-46863000D01*
X122856400Y-46863000D02*
X122856400Y-46462600D01*
X122273000Y-47446400D02*
X122856400Y-46863000D01*
X128096489Y-45688489D02*
X128115000Y-45707000D01*
%TO.N,Net-(C21-Pad1)*%
X131798000Y-49086000D02*
X131863600Y-49086000D01*
X135890000Y-46398000D02*
X135425000Y-46863000D01*
X134086600Y-46863000D02*
X135425000Y-46863000D01*
X137995000Y-45466000D02*
X135890000Y-45466000D01*
X135890000Y-45466000D02*
X135890000Y-46398000D01*
X138021000Y-45440000D02*
X137995000Y-45466000D01*
X135671000Y-43942000D02*
X135890000Y-44161000D01*
X135890000Y-44161000D02*
X135890000Y-45466000D01*
X131863600Y-49086000D02*
X134086600Y-46863000D01*
%TO.N,/CAN_H*%
X44583100Y-43821100D02*
X44909200Y-43495000D01*
X49210000Y-43495000D02*
X47419500Y-43495000D01*
X52008000Y-44577000D02*
X50292000Y-44577000D01*
X43471600Y-44932600D02*
X44583100Y-43821100D01*
X50292000Y-44577000D02*
X49210000Y-43495000D01*
X44909200Y-43495000D02*
X47419500Y-43495000D01*
%TO.N,/CAN_L*%
X43471600Y-41656000D02*
X43471600Y-41554600D01*
X46309400Y-40846800D02*
X47057600Y-41595000D01*
X43471600Y-41554600D02*
X44179400Y-40846800D01*
X50673000Y-43307000D02*
X52008000Y-43307000D01*
X48961000Y-41595000D02*
X50673000Y-43307000D01*
X47419500Y-41595000D02*
X48961000Y-41595000D01*
X50800000Y-39736200D02*
X50800000Y-36957000D01*
X48941200Y-41595000D02*
X50800000Y-39736200D01*
X44179400Y-40846800D02*
X46309400Y-40846800D01*
X47057600Y-41595000D02*
X47419500Y-41595000D01*
%TO.N,Net-(C22-Pad1)*%
X142431100Y-47534100D02*
X141760000Y-46863000D01*
X146989000Y-45580000D02*
X145503550Y-44094550D01*
X141760000Y-46863000D02*
X142684000Y-46863000D01*
X147447000Y-45580000D02*
X146989000Y-45580000D01*
X141605000Y-50863000D02*
X142431100Y-50036900D01*
X142684000Y-46863000D02*
X145478000Y-44069000D01*
X142431100Y-50036900D02*
X142431100Y-47534100D01*
%TO.N,Net-(D20-Pad3)*%
X113157000Y-51053000D02*
X113157000Y-52895000D01*
X113221000Y-52959000D02*
X113157000Y-53023000D01*
X139010100Y-57222100D02*
X140033100Y-57222100D01*
X113157000Y-52895000D02*
X113221000Y-52959000D01*
X116156500Y-52959000D02*
X113221000Y-52959000D01*
X138938000Y-56598000D02*
X138938000Y-57150000D01*
X119964200Y-52959000D02*
X116156500Y-52959000D01*
X138938000Y-57150000D02*
X139010100Y-57222100D01*
X121666000Y-54660800D02*
X119964200Y-52959000D01*
%TO.N,Net-(C23-Pad1)*%
X124028000Y-59309000D02*
X125287000Y-59309000D01*
X123431000Y-57354000D02*
X123381000Y-57404000D01*
X123431000Y-55626000D02*
X123431000Y-57354000D01*
X123381000Y-57404000D02*
X123381000Y-58661800D01*
X123381000Y-58661800D02*
X124028000Y-59309000D01*
%TO.N,Net-(C25-Pad1)*%
X123139000Y-61849000D02*
X122567000Y-61277000D01*
X122567000Y-61277000D02*
X120777000Y-61277000D01*
X118872000Y-59156000D02*
X118872000Y-59372000D01*
X125287000Y-61849000D02*
X123139000Y-61849000D01*
X118872000Y-59372000D02*
X120777000Y-61277000D01*
%TO.N,Net-(C26-Pad1)*%
X130237000Y-65659000D02*
X132194000Y-65659000D01*
X132194000Y-65659000D02*
X132461000Y-65392000D01*
X132461000Y-63690000D02*
X132461000Y-65392000D01*
%TO.N,Net-(D12-Pad1)*%
X115344000Y-49911000D02*
X116205000Y-49911000D01*
X116205000Y-49911000D02*
X116812000Y-49304000D01*
X116812000Y-49304000D02*
X116812000Y-46990000D01*
%TO.N,/INPUT/5V_1*%
X114246700Y-57963500D02*
X114300000Y-57910200D01*
X116814000Y-55981000D02*
X116789200Y-55956200D01*
X116789200Y-57922400D02*
X116789200Y-56794400D01*
X118872000Y-55981000D02*
X118872000Y-55981600D01*
X118872000Y-55981000D02*
X116814000Y-55981000D01*
X111570500Y-57963500D02*
X114246700Y-57963500D01*
X120535200Y-56083200D02*
X118974200Y-56083200D01*
X118974200Y-56083200D02*
X118872000Y-55981000D01*
X116789200Y-56794400D02*
X116789200Y-55956200D01*
X118872000Y-55981000D02*
X118973000Y-55981000D01*
X120777000Y-56325000D02*
X120535200Y-56083200D01*
%TO.N,Net-(D14-Pad1)*%
X125956000Y-48110200D02*
X125956000Y-46863000D01*
X124361000Y-49705200D02*
X125956000Y-48110200D01*
X124361000Y-49911000D02*
X124361000Y-49705200D01*
%TO.N,Net-(D16-Pad1)*%
X130937000Y-47851000D02*
X131925000Y-46863000D01*
X134239000Y-49911000D02*
X131384600Y-49911000D01*
X131384600Y-49911000D02*
X130937000Y-49463400D01*
X130937000Y-49463400D02*
X130937000Y-47851000D01*
D62*
%TO.N,GND*%
X35605800Y-79796400D02*
X37424600Y-79796400D01*
X96274599Y-59182000D02*
X96175909Y-59083310D01*
X145034000Y-68872300D02*
X145031700Y-68874600D01*
X68059000Y-74677500D02*
X68248000Y-74866500D01*
X35605800Y-79796400D02*
X35605800Y-82336400D01*
X67056000Y-61518800D02*
X67729320Y-60845480D01*
D60*
X107993900Y-69106500D02*
X107975400Y-69088000D01*
D62*
X44323000Y-71247000D02*
X42992000Y-71247000D01*
X66372000Y-74485500D02*
X67867000Y-74485500D01*
D60*
X100761800Y-71043900D02*
X100761800Y-72186800D01*
D62*
X88011000Y-62534800D02*
X88011000Y-62020000D01*
X120347200Y-69001600D02*
X120523000Y-69177400D01*
X97065800Y-59182000D02*
X96274599Y-59182000D01*
X45580000Y-45212000D02*
X45580000Y-44252921D01*
X103186000Y-62675000D02*
X101092000Y-62675000D01*
X77696300Y-68950800D02*
X76325100Y-68950800D01*
X57772000Y-75946000D02*
X56388000Y-75946000D01*
X67310000Y-72326500D02*
X66167000Y-72326500D01*
X142748000Y-62992000D02*
X143383000Y-62357000D01*
X56295500Y-76038500D02*
X56388000Y-75946000D01*
X105232200Y-58648600D02*
X106629200Y-58648600D01*
X85801200Y-62179200D02*
X85801200Y-62687200D01*
X56295500Y-78303500D02*
X56295500Y-76038500D01*
X117805200Y-60706000D02*
X118872000Y-60706000D01*
X52451000Y-73146000D02*
X52457000Y-73152000D01*
X59690000Y-71169000D02*
X56515000Y-71169000D01*
X143383000Y-62357000D02*
X144018000Y-62357000D01*
X45832000Y-60198000D02*
X43942000Y-60198000D01*
X133579500Y-66942000D02*
X133731000Y-67093500D01*
X142748000Y-63798000D02*
X142748000Y-62992000D01*
X87351280Y-63194520D02*
X88011000Y-62534800D01*
X123749480Y-68301280D02*
X125095780Y-68301280D01*
X67284000Y-50432000D02*
X66864500Y-50851500D01*
X77696300Y-68950800D02*
X79554800Y-68950800D01*
D60*
X89918213Y-69928413D02*
X89304100Y-69314300D01*
D62*
X107162600Y-50584400D02*
X107442000Y-50305000D01*
X107442000Y-50305000D02*
X105332500Y-50305000D01*
X67148500Y-70096000D02*
X67148500Y-72165000D01*
D60*
X86424200Y-69113300D02*
X86690200Y-68847300D01*
D62*
X144018000Y-62357000D02*
X144653000Y-62357000D01*
X39751000Y-50800000D02*
X39751000Y-49291000D01*
D60*
X138658580Y-68300480D02*
X135765420Y-68300480D01*
D62*
X132461000Y-66942000D02*
X133579500Y-66942000D01*
X65136361Y-74469211D02*
X66355711Y-74469211D01*
X130237000Y-60579000D02*
X129565400Y-60579000D01*
X49381800Y-76962000D02*
X49381800Y-77750400D01*
X69589400Y-77326800D02*
X69589400Y-77665600D01*
X57785000Y-88964000D02*
X57785000Y-88366600D01*
D60*
X73888600Y-70688300D02*
X73888600Y-71918700D01*
D62*
X93659400Y-70905500D02*
X93659400Y-69854600D01*
X69589400Y-77665600D02*
X68896000Y-78359000D01*
X134226900Y-63804800D02*
X134233700Y-63798000D01*
X67056000Y-62020000D02*
X67056000Y-61518800D01*
X85801200Y-62687200D02*
X86308520Y-63194520D01*
X105332500Y-50305000D02*
X104837500Y-50800000D01*
D60*
X85471000Y-69113300D02*
X86424200Y-69113300D01*
D62*
X128651000Y-61417200D02*
X128651000Y-62255400D01*
X125984000Y-55626000D02*
X126111000Y-55753000D01*
X54483000Y-62103000D02*
X54356000Y-62103000D01*
X146319200Y-68874600D02*
X147017200Y-68874600D01*
X52451000Y-71628000D02*
X52451000Y-73146000D01*
X145031700Y-68874600D02*
X146319200Y-68874600D01*
X144653000Y-62357000D02*
X145288000Y-62992000D01*
X69596000Y-61366400D02*
X68986400Y-60756800D01*
X110018500Y-65583500D02*
X108839000Y-64404000D01*
X101803200Y-60121800D02*
X102946200Y-60121800D01*
D60*
X135765420Y-68300480D02*
X134977900Y-69088000D01*
D62*
X82169000Y-50178000D02*
X80059500Y-50178000D01*
D60*
X139420600Y-69062500D02*
X138658580Y-68300480D01*
D62*
X119674600Y-69001600D02*
X120347200Y-69001600D01*
X38354000Y-72644000D02*
X39484000Y-72644000D01*
X47245000Y-58785000D02*
X45832000Y-60198000D01*
X59690000Y-72517000D02*
X59690000Y-71169000D01*
X65545000Y-88900000D02*
X66802000Y-88900000D01*
D60*
X107975400Y-69088000D02*
X105461400Y-69088000D01*
D62*
X102946200Y-60121800D02*
X102997000Y-60071000D01*
X127508000Y-57531000D02*
X128638000Y-57531000D01*
X69596000Y-50432000D02*
X67284000Y-50432000D01*
X67729320Y-60845480D02*
X68897720Y-60845480D01*
X133708900Y-69088000D02*
X133707900Y-69089000D01*
X39739000Y-67945000D02*
X39745000Y-67939000D01*
D60*
X109420900Y-69106500D02*
X111294900Y-69106500D01*
D62*
X79554800Y-68950800D02*
X79679800Y-69075800D01*
X127000000Y-66929000D02*
X125287000Y-66929000D01*
X80059500Y-50178000D02*
X79437500Y-50800000D01*
X68059000Y-72326500D02*
X67310000Y-72326500D01*
X86308520Y-63194520D02*
X87351280Y-63194520D01*
X97942400Y-58305400D02*
X97942400Y-55650100D01*
X118872000Y-62331000D02*
X118872000Y-60706000D01*
X103186800Y-62674200D02*
X103186000Y-62675000D01*
X57255000Y-63500000D02*
X55880000Y-63500000D01*
X67148500Y-72165000D02*
X67310000Y-72326500D01*
X44183800Y-77597000D02*
X44170600Y-77610200D01*
D60*
X119557800Y-69900800D02*
X119557800Y-69118400D01*
D62*
X39745000Y-49285000D02*
X38718600Y-49285000D01*
X39484000Y-68961000D02*
X39484000Y-70612000D01*
X66167000Y-72326500D02*
X66167000Y-74280500D01*
X38735000Y-67945000D02*
X39739000Y-67945000D01*
X45339000Y-77597000D02*
X44183800Y-77597000D01*
X134977900Y-69088000D02*
X133708900Y-69088000D01*
D60*
X119557800Y-69118400D02*
X119674600Y-69001600D01*
D62*
X107162600Y-54508400D02*
X107162600Y-50584400D01*
D60*
X90566413Y-69928413D02*
X91211400Y-70573400D01*
D62*
X131597400Y-68900000D02*
X133518900Y-68900000D01*
X68897720Y-60845480D02*
X68986400Y-60756800D01*
X115021200Y-69001600D02*
X114782600Y-69240200D01*
X129565400Y-60579000D02*
X128727200Y-61417200D01*
X38718600Y-49285000D02*
X38658800Y-49225200D01*
X97942400Y-55650100D02*
X97966500Y-55626000D01*
X107162600Y-58064400D02*
X107162600Y-54508400D01*
X56996600Y-68580000D02*
X58039000Y-68580000D01*
X43434000Y-74803000D02*
X43434000Y-75882000D01*
X118615700Y-69001600D02*
X119674600Y-69001600D01*
X128727200Y-61417200D02*
X128651000Y-61417200D01*
X106629200Y-58648600D02*
X107188000Y-58089800D01*
X39745000Y-66285000D02*
X39745000Y-67939000D01*
X134233700Y-63798000D02*
X135128000Y-63798000D01*
X92514792Y-50422708D02*
X92137500Y-50800000D01*
X57785000Y-88366600D02*
X57353200Y-87934800D01*
X145034000Y-67868800D02*
X145034000Y-68872300D01*
X147017200Y-68874600D02*
X147142200Y-68999600D01*
D60*
X109420900Y-69106500D02*
X107993900Y-69106500D01*
D62*
X94859708Y-50422708D02*
X92514792Y-50422708D01*
X39484000Y-70612000D02*
X39484000Y-72263000D01*
X118615700Y-69001600D02*
X115021200Y-69001600D01*
X125095780Y-68301280D02*
X125907800Y-69113300D01*
X43434000Y-75882000D02*
X43498000Y-75946000D01*
X39745000Y-67939000D02*
X39745000Y-68700000D01*
X44831000Y-70739000D02*
X44323000Y-71247000D01*
X68059000Y-72326500D02*
X68059000Y-74677500D01*
X129514600Y-63119000D02*
X130237000Y-63119000D01*
X122402600Y-66954400D02*
X123749480Y-68301280D01*
X97065800Y-59182000D02*
X97942400Y-58305400D01*
X40005000Y-76023200D02*
X40069000Y-75959200D01*
X145288000Y-62992000D02*
X145288000Y-63798000D01*
X49381800Y-77750400D02*
X49483400Y-77852000D01*
X40005000Y-77089000D02*
X40005000Y-76023200D01*
D60*
X111294900Y-69106500D02*
X111404400Y-69216000D01*
D62*
X56388000Y-75946000D02*
X56020000Y-75946000D01*
D60*
X89304100Y-69314300D02*
X89304100Y-68798400D01*
D62*
X39751000Y-49291000D02*
X39745000Y-49285000D01*
X137668000Y-63798000D02*
X137668000Y-65151000D01*
X55880000Y-63500000D02*
X54483000Y-62103000D01*
X45580000Y-44252921D02*
X45586981Y-44245940D01*
X128651000Y-62255400D02*
X129514600Y-63119000D01*
X107188000Y-58089800D02*
X107162600Y-58064400D01*
X68896000Y-78359000D02*
X68896000Y-79629000D01*
X111570000Y-65583500D02*
X110018500Y-65583500D01*
X66167000Y-74280500D02*
X66372000Y-74485500D01*
X69596000Y-62020000D02*
X69596000Y-61366400D01*
X137668000Y-65151000D02*
X137795000Y-65278000D01*
D60*
X90312750Y-69928413D02*
X89918213Y-69928413D01*
X90312750Y-69928413D02*
X90566413Y-69928413D01*
D62*
X44831000Y-70117000D02*
X44831000Y-70739000D01*
X66355711Y-74469211D02*
X66372000Y-74485500D01*
X67867000Y-74485500D02*
X68248000Y-74866500D01*
X76325100Y-68950800D02*
X76276200Y-68999700D01*
X120015000Y-67056000D02*
X118872000Y-67056000D01*
X124981000Y-55626000D02*
X125984000Y-55626000D01*
X37424600Y-79796400D02*
X38506400Y-78714600D01*
X133518900Y-68900000D02*
X133707900Y-69089000D01*
X93659400Y-69854600D02*
X93664000Y-69850000D01*
X56515000Y-72517000D02*
X56515000Y-71169000D01*
D60*
%TO.N,/serial/U1_VCC*%
X79437500Y-43180000D02*
X82055000Y-43180000D01*
X65954400Y-54651600D02*
X65954400Y-53377000D01*
X82169000Y-43294000D02*
X84058000Y-43294000D01*
X69249502Y-52407900D02*
X69286901Y-52370501D01*
X65954400Y-53377000D02*
X66923500Y-52407900D01*
X82055000Y-43180000D02*
X82169000Y-43294000D01*
X82169000Y-43294000D02*
X82169000Y-42389436D01*
X66923500Y-52407900D02*
X69249502Y-52407900D01*
X65786000Y-54820000D02*
X65954400Y-54651600D01*
X84058000Y-43294000D02*
X84455000Y-42897000D01*
X82169000Y-42389436D02*
X82269764Y-42288672D01*
D62*
%TO.N,+3V3*%
X46857000Y-73152000D02*
X44450000Y-73152000D01*
X104509119Y-60135319D02*
X104509119Y-59857810D01*
X98614000Y-60960000D02*
X97213330Y-60960000D01*
X63384300Y-74447800D02*
X63384300Y-72327100D01*
X40132000Y-40182800D02*
X39370000Y-39420800D01*
X74168000Y-83439000D02*
X72961000Y-83439000D01*
X130188000Y-59260000D02*
X130237000Y-59309000D01*
X83159600Y-41097200D02*
X82804000Y-40741600D01*
X64617000Y-72326500D02*
X64617000Y-70104500D01*
X60008000Y-87376000D02*
X59051575Y-87376000D01*
D61*
X41015000Y-66285000D02*
X41015000Y-67855500D01*
D62*
X134315200Y-65417200D02*
X134315200Y-64820800D01*
X71120000Y-77407000D02*
X71272500Y-77559500D01*
X72961000Y-83439000D02*
X72898000Y-83376000D01*
X63995000Y-87298000D02*
X63946000Y-87249000D01*
X140779000Y-65913000D02*
X142431000Y-65913000D01*
D61*
X41015000Y-68688000D02*
X41015000Y-67894100D01*
D62*
X41084000Y-74295000D02*
X42164000Y-74295000D01*
X40132000Y-45199800D02*
X40132000Y-40182800D01*
X63995000Y-88900000D02*
X63995000Y-87298000D01*
D61*
X41015000Y-67894100D02*
X41034300Y-67874800D01*
D62*
X74168000Y-80010000D02*
X72899000Y-80010000D01*
X41034000Y-68961000D02*
X41034000Y-70612000D01*
X131318000Y-57531000D02*
X130188000Y-57531000D01*
X130237000Y-59309000D02*
X131863500Y-59309000D01*
X98615800Y-59182000D02*
X98615800Y-60958200D01*
X39370000Y-36957000D02*
X39370000Y-39420800D01*
X48260000Y-46736000D02*
X48260000Y-46342000D01*
X43561000Y-68072000D02*
X43561000Y-68595200D01*
X59045500Y-88573500D02*
X59045500Y-87382075D01*
X43561000Y-68595200D02*
X42900600Y-69255600D01*
X64617000Y-70104500D02*
X64608500Y-70096000D01*
X63384900Y-72326500D02*
X63384300Y-72327100D01*
X104546400Y-57404000D02*
X104546400Y-56413400D01*
X103950729Y-67945829D02*
X103441829Y-67945829D01*
X42733000Y-69088000D02*
X41161000Y-69088000D01*
X147320000Y-67183000D02*
X147320000Y-65977000D01*
X41015000Y-66285000D02*
X41015000Y-64408300D01*
X45530000Y-46863000D02*
X45530000Y-46812000D01*
D61*
X41015000Y-67855500D02*
X41034300Y-67874800D01*
D62*
X71272500Y-77559500D02*
X72390000Y-77559500D01*
X104546400Y-56413400D02*
X103808500Y-55675500D01*
X60008000Y-85725000D02*
X60008000Y-87376000D01*
X45530000Y-46812000D02*
X47130000Y-45212000D01*
X41015000Y-64408300D02*
X41034300Y-64389000D01*
X48260000Y-46342000D02*
X47130000Y-45212000D01*
X71374000Y-88709000D02*
X72580000Y-88709000D01*
X59436000Y-88964000D02*
X59045500Y-88573500D01*
X106730800Y-41097200D02*
X83159600Y-41097200D01*
X72580000Y-88709000D02*
X72644000Y-88773000D01*
X103808500Y-55675500D02*
X103808500Y-55626000D01*
X43979600Y-46863000D02*
X45530000Y-46863000D01*
X98615800Y-60958200D02*
X98614000Y-60960000D01*
X140843000Y-65849000D02*
X140779000Y-65913000D01*
X107061000Y-40767000D02*
X106730800Y-41097200D01*
X131863500Y-59309000D02*
X131953000Y-59219500D01*
X130188000Y-57531000D02*
X130188000Y-59260000D01*
X59051575Y-87376000D02*
X59045500Y-87382075D01*
X103441829Y-67945829D02*
X102806000Y-67310000D01*
X64617000Y-72326500D02*
X63384900Y-72326500D01*
X63422000Y-74485500D02*
X63384300Y-74447800D01*
X140843000Y-64643000D02*
X140843000Y-65849000D01*
X134811000Y-65913000D02*
X134315200Y-65417200D01*
X63995000Y-88900000D02*
X62872300Y-88900000D01*
X105232200Y-60858400D02*
X104509119Y-60135319D01*
X72899000Y-80010000D02*
X72898000Y-80011000D01*
X147320000Y-65977000D02*
X147256000Y-65913000D01*
D60*
%TO.N,/U1RX*%
X53715000Y-49285000D02*
X53715000Y-51035900D01*
X72720200Y-62484000D02*
X70866000Y-64338200D01*
X70866000Y-64338200D02*
X60121800Y-64338200D01*
X60121800Y-64338200D02*
X59283600Y-63500000D01*
X53715000Y-51035900D02*
X53721000Y-51041900D01*
X75692000Y-62484000D02*
X72720200Y-62484000D01*
%TO.N,/RST_ESP*%
X42285000Y-66285000D02*
X42285000Y-67964400D01*
X41034000Y-72644000D02*
X42291000Y-72644000D01*
X42285000Y-66285000D02*
X42119400Y-66119400D01*
X42285000Y-67964400D02*
X42316400Y-67995800D01*
X42119400Y-60247319D02*
X42049500Y-60177419D01*
X42119400Y-66119400D02*
X42119400Y-60247319D01*
X40780000Y-72946200D02*
X40780000Y-72568000D01*
X39434000Y-74295000D02*
X39434000Y-74292200D01*
X39434000Y-74292200D02*
X40780000Y-72946200D01*
%TO.N,Net-(D18-Pad1)*%
X143792000Y-49824200D02*
X145260000Y-48356200D01*
X143792000Y-50038000D02*
X143792000Y-49824200D01*
X145260000Y-48356200D02*
X145260000Y-46863000D01*
%TO.N,/serial/U3_VCC*%
X107442000Y-43294000D02*
X107328000Y-43180000D01*
X86741000Y-54820000D02*
X86741000Y-54587900D01*
X94884617Y-51663600D02*
X98602800Y-51663600D01*
X89309700Y-52019200D02*
X94529017Y-52019200D01*
X109204000Y-43294000D02*
X109601000Y-42897000D01*
X94529017Y-52019200D02*
X94884617Y-51663600D01*
X107492800Y-43243200D02*
X107442000Y-43294000D01*
X98602800Y-51663600D02*
X99720400Y-50546000D01*
X107442000Y-43294000D02*
X109204000Y-43294000D01*
X107492800Y-42240200D02*
X107492800Y-43243200D01*
X86741000Y-54587900D02*
X89309700Y-52019200D01*
X107328000Y-43180000D02*
X104837500Y-43180000D01*
%TO.N,/U1TX*%
X54570099Y-51766401D02*
X54610000Y-51726500D01*
X52445000Y-49285000D02*
X52445000Y-50790500D01*
X52445000Y-50790500D02*
X53420901Y-51766401D01*
X53420901Y-51766401D02*
X54570099Y-51766401D01*
%TO.N,/U1TX_O*%
X70613120Y-53874520D02*
X72871480Y-53874520D01*
X62230000Y-39370000D02*
X64770000Y-41910000D01*
X70612000Y-53873400D02*
X70613120Y-53874520D01*
X62230000Y-36957000D02*
X62230000Y-39370000D01*
X72871480Y-53874520D02*
X73152000Y-53594000D01*
%TO.N,/U3RX*%
X47365000Y-66285000D02*
X47365000Y-64649000D01*
X47365000Y-64649000D02*
X47371000Y-64643000D01*
%TO.N,/serial/U3_GND*%
X106032000Y-44844000D02*
X105156000Y-45720000D01*
X96710000Y-52705000D02*
X95893573Y-53521427D01*
X105156000Y-45720000D02*
X104837500Y-45720000D01*
X109220000Y-44704000D02*
X109220000Y-45466000D01*
X109220000Y-45466000D02*
X109601000Y-45847000D01*
X95893573Y-53521427D02*
X95850996Y-53521427D01*
X107442000Y-44844000D02*
X106032000Y-44844000D01*
%TO.N,/H_CLK*%
X55219600Y-66519600D02*
X55219600Y-68580000D01*
X91956600Y-65405000D02*
X94733400Y-65405000D01*
X54495178Y-64777615D02*
X54495178Y-65061578D01*
X54985000Y-66285000D02*
X55219600Y-66519600D01*
X55219600Y-68580000D02*
X55346600Y-68580000D01*
X73023797Y-67759682D02*
X73089804Y-67825689D01*
X54985000Y-65551400D02*
X54985000Y-66285000D01*
X56166918Y-67759682D02*
X73023797Y-67759682D01*
X94733400Y-65405000D02*
X96638400Y-67310000D01*
X55346600Y-68580000D02*
X56166918Y-67759682D01*
X105142100Y-66974100D02*
X104606700Y-66438700D01*
X99314000Y-67310000D02*
X98614000Y-67310000D01*
X86563200Y-64973200D02*
X91516200Y-64973200D01*
X100185300Y-66438700D02*
X99314000Y-67310000D01*
X54495178Y-65061578D02*
X54985000Y-65551400D01*
X73089804Y-67825689D02*
X83710711Y-67825689D01*
X91516200Y-64973200D02*
X91948000Y-65405000D01*
X83710711Y-67825689D02*
X86563200Y-64973200D01*
X104606700Y-66438700D02*
X100185300Y-66438700D01*
X96638400Y-67310000D02*
X98614000Y-67310000D01*
%TO.N,/H_MISO*%
X56255000Y-66285000D02*
X56264000Y-66294000D01*
X103769480Y-65394520D02*
X96822521Y-65394520D01*
X57803000Y-66294000D02*
X57794000Y-66285000D01*
X95573501Y-64145500D02*
X85993900Y-64145500D01*
X96822521Y-65394520D02*
X95573501Y-64145500D01*
X103962200Y-65201800D02*
X103769480Y-65394520D01*
X57784100Y-66275100D02*
X57794000Y-66285000D01*
X83845400Y-66294000D02*
X57803000Y-66294000D01*
X56264000Y-66294000D02*
X57785000Y-66294000D01*
X57785000Y-66294000D02*
X57794000Y-66285000D01*
X57784100Y-65477989D02*
X57784100Y-66275100D01*
X85993900Y-64145500D02*
X83845400Y-66294000D01*
%TO.N,/H_MOSI*%
X70401563Y-63613699D02*
X73563262Y-60452000D01*
X59038200Y-62230000D02*
X60421899Y-63613699D01*
X73563262Y-60452000D02*
X81364800Y-60452000D01*
X57255000Y-62230000D02*
X56005000Y-62230000D01*
X84606831Y-63694031D02*
X90864969Y-63694031D01*
X56005000Y-62230000D02*
X55118000Y-61343000D01*
X91683500Y-62875500D02*
X96352700Y-62875500D01*
X96977200Y-63500000D02*
X98614000Y-63500000D01*
X81364800Y-60452000D02*
X84606831Y-63694031D01*
X96352700Y-62875500D02*
X96977200Y-63500000D01*
X90864969Y-63694031D02*
X91683500Y-62875500D01*
X55118000Y-61343000D02*
X55118000Y-59944000D01*
X57255000Y-62230000D02*
X59038200Y-62230000D01*
X60421899Y-63613699D02*
X70401563Y-63613699D01*
%TO.N,Net-(D21-Pad3)*%
X130662400Y-55173600D02*
X136228100Y-55173600D01*
X125526500Y-52959000D02*
X125526500Y-52832000D01*
X123380000Y-52224000D02*
X122273000Y-51117000D01*
X125526500Y-52832000D02*
X128320800Y-52832000D01*
X125526500Y-52959000D02*
X123380000Y-52959000D01*
X128320800Y-52832000D02*
X130662400Y-55173600D01*
X136398000Y-55343500D02*
X136398000Y-56598000D01*
X123380000Y-52959000D02*
X123380000Y-52224000D01*
X136228100Y-55173600D02*
X136398000Y-55343500D01*
%TO.N,Net-(D22-Pad3)*%
X146558000Y-57098200D02*
X146558000Y-56598000D01*
X134162500Y-52959000D02*
X136809400Y-52959000D01*
X147302200Y-56888600D02*
X147468900Y-57055300D01*
X136809400Y-52959000D02*
X141666800Y-57816400D01*
X145839800Y-57816400D02*
X146558000Y-57098200D01*
X133223000Y-52959000D02*
X134162500Y-52959000D01*
X131798000Y-50736000D02*
X131798000Y-52261000D01*
X131798000Y-52261000D02*
X132525000Y-52261000D01*
X141666800Y-57816400D02*
X145839800Y-57816400D01*
X146558000Y-56888600D02*
X147302200Y-56888600D01*
X132525000Y-52261000D02*
X133223000Y-52959000D01*
X146558000Y-56598000D02*
X146558000Y-56888600D01*
%TO.N,/serial/U3_VCC_e*%
X94934900Y-40251800D02*
X95194200Y-39992500D01*
X90295000Y-37000000D02*
X90295000Y-37900000D01*
X90295000Y-37900000D02*
X92646800Y-40251800D01*
X92646800Y-40251800D02*
X94934900Y-40251800D01*
%TO.N,/CAN_Tx*%
X54985000Y-48127000D02*
X54483000Y-47625000D01*
X54985000Y-49285000D02*
X54985000Y-48127000D01*
%TO.N,/U3TX*%
X51003200Y-68122800D02*
X49905000Y-67024600D01*
X49905000Y-67024600D02*
X49905000Y-66285000D01*
X51054000Y-68122800D02*
X51003200Y-68122800D01*
%TO.N,/serial/U2_VCC*%
X89916000Y-43180000D02*
X92137500Y-43180000D01*
X96885000Y-43294000D02*
X97282000Y-42897000D01*
X86283320Y-49402520D02*
X86817200Y-49936400D01*
X96050400Y-43294000D02*
X96885000Y-43294000D01*
X94919800Y-43294000D02*
X96050400Y-43294000D01*
X68326000Y-54820000D02*
X68326000Y-54356000D01*
X80113877Y-49530000D02*
X80241357Y-49402520D01*
X94805800Y-43180000D02*
X94919800Y-43294000D01*
X73152000Y-49530000D02*
X80113877Y-49530000D01*
X80241357Y-49402520D02*
X86283320Y-49402520D01*
X95986600Y-44018200D02*
X95986600Y-43357800D01*
X92137500Y-43180000D02*
X94805800Y-43180000D01*
X68326000Y-54356000D02*
X73152000Y-49530000D01*
X95986600Y-43357800D02*
X96050400Y-43294000D01*
%TO.N,/CAN_Rx*%
X50623988Y-47483988D02*
X49049962Y-47483988D01*
X51175000Y-48035000D02*
X50623988Y-47483988D01*
X51175000Y-49285000D02*
X51175000Y-48035000D01*
%TO.N,/U2RX*%
X59240288Y-64303488D02*
X59935400Y-64998600D01*
X41015000Y-49285000D02*
X41015000Y-56001000D01*
X45567600Y-63601600D02*
X55275184Y-63601600D01*
X55977072Y-64303488D02*
X59240288Y-64303488D01*
X55275184Y-63601600D02*
X55977072Y-64303488D01*
X59935400Y-64998600D02*
X71729600Y-64998600D01*
X71729600Y-64998600D02*
X72796400Y-63931800D01*
X43180000Y-58166000D02*
X43180000Y-61214000D01*
X72796400Y-63931800D02*
X83820000Y-63931800D01*
X43180000Y-61214000D02*
X45567600Y-63601600D01*
X41015000Y-56001000D02*
X43180000Y-58166000D01*
%TO.N,/onewire*%
X48635000Y-50921000D02*
X48641000Y-50927000D01*
X48635000Y-49285000D02*
X48635000Y-48318000D01*
X48635000Y-49285000D02*
X48635000Y-50921000D01*
X47999400Y-47682400D02*
X47180000Y-46863000D01*
X48635000Y-48318000D02*
X47999400Y-47682400D01*
%TO.N,/serial/U2_GND*%
X93980000Y-44805600D02*
X94881400Y-44805600D01*
X81401289Y-51999511D02*
X82143600Y-51257200D01*
X72784200Y-51993800D02*
X73101200Y-51993800D01*
X71628000Y-53150000D02*
X72784200Y-51993800D01*
X94881400Y-44805600D02*
X94919800Y-44844000D01*
X97282000Y-45847000D02*
X97447700Y-45681300D01*
X73106911Y-51999511D02*
X81401289Y-51999511D01*
X73101200Y-51993800D02*
X73106911Y-51999511D01*
X97447700Y-45681300D02*
X97447700Y-44805600D01*
%TO.N,/SDA*%
X46095000Y-49285000D02*
X46095000Y-51288598D01*
X42329600Y-46863000D02*
X43129100Y-47662500D01*
X45122500Y-47662500D02*
X46095000Y-48635000D01*
X46095000Y-48635000D02*
X46095000Y-49285000D01*
X43129100Y-47662500D02*
X45122500Y-47662500D01*
X46095000Y-51288598D02*
X42570398Y-54813200D01*
%TO.N,/U0RXD*%
X44825000Y-49285000D02*
X44825000Y-50800000D01*
%TO.N,/U0TXD*%
X43555000Y-50768600D02*
X43561000Y-50774600D01*
X43555000Y-49285000D02*
X43555000Y-50768600D01*
%TO.N,/SCL*%
X42285000Y-48012000D02*
X42025000Y-47752000D01*
X42285000Y-49285000D02*
X42285000Y-48012000D01*
X42025000Y-47752000D02*
X40487600Y-47752000D01*
X42205400Y-50897800D02*
X42285000Y-50818200D01*
X42285000Y-50818200D02*
X42285000Y-49285000D01*
X40487600Y-47752000D02*
X40132000Y-47396400D01*
X40132000Y-47396400D02*
X40132000Y-46849800D01*
%TO.N,/U2TX*%
X51175000Y-66285000D02*
X51175000Y-65035000D01*
X55608784Y-64753488D02*
X58784488Y-64753488D01*
X82296000Y-65557400D02*
X83058000Y-64795400D01*
X58784488Y-64753488D02*
X59588400Y-65557400D01*
X52158889Y-64051111D02*
X54906407Y-64051111D01*
X59588400Y-65557400D02*
X82296000Y-65557400D01*
X51175000Y-65035000D02*
X52158889Y-64051111D01*
X54906407Y-64051111D02*
X55608784Y-64753488D01*
%TO.N,Net-(D1-Pad1)*%
X102233500Y-55626000D02*
X102233500Y-55627500D01*
X101600000Y-58268600D02*
X101803200Y-58471800D01*
X102233500Y-55627500D02*
X101625400Y-56235600D01*
X101625400Y-58294000D02*
X101803200Y-58471800D01*
X101625400Y-56235600D02*
X101625400Y-58294000D01*
%TO.N,/OUTPUT/TACHO1*%
X69621400Y-83439000D02*
X68896000Y-83439000D01*
X71043800Y-79133200D02*
X71043800Y-82016600D01*
X71120000Y-79057000D02*
X71043800Y-79133200D01*
X74789800Y-79057000D02*
X76073000Y-80340200D01*
X71120000Y-79057000D02*
X74789800Y-79057000D01*
X112293400Y-81584800D02*
X135432800Y-81584800D01*
X71043800Y-82016600D02*
X69621400Y-83439000D01*
X111048800Y-80340200D02*
X112293400Y-81584800D01*
X76073000Y-80340200D02*
X111048800Y-80340200D01*
D63*
%TO.N,Net-(Q1-Pad1)*%
X45805500Y-88138000D02*
X45805500Y-86597900D01*
D60*
X40447200Y-83612700D02*
X40447200Y-80172600D01*
X40462200Y-83627700D02*
X40447200Y-83612700D01*
X40447200Y-80172600D02*
X41107600Y-79512200D01*
D63*
X42976800Y-83769200D02*
X40741600Y-83769200D01*
X45805500Y-86597900D02*
X42976800Y-83769200D01*
D64*
%TO.N,/OUTPUT/VCC_REL*%
X82677000Y-79171800D02*
X82651600Y-79197200D01*
X106611400Y-77774800D02*
X110998000Y-77774800D01*
X112430000Y-79206800D02*
X119579400Y-79206800D01*
X105119400Y-79266800D02*
X106611400Y-77774800D01*
X137419311Y-77780111D02*
X135255790Y-77780111D01*
X135250479Y-77774800D02*
X131978400Y-77774800D01*
X131978400Y-77774800D02*
X130556000Y-79197200D01*
X135255790Y-77780111D02*
X135250479Y-77774800D01*
X82753200Y-79248000D02*
X82677000Y-79171800D01*
X93349400Y-79246800D02*
X93369400Y-79266800D01*
X93369400Y-79266800D02*
X105119400Y-79266800D01*
X138836400Y-79197200D02*
X137419311Y-77780111D01*
X119589000Y-79197200D02*
X119579400Y-79206800D01*
X93349400Y-79246800D02*
X93348200Y-79248000D01*
X145745200Y-79146400D02*
X145694400Y-79197200D01*
X82651600Y-79197200D02*
X78599700Y-79197200D01*
X57007536Y-80553336D02*
X56972200Y-80518000D01*
X130556000Y-79197200D02*
X119589000Y-79197200D01*
X110998000Y-77774800D02*
X112430000Y-79206800D01*
X61909736Y-80553336D02*
X57007536Y-80553336D01*
X78599700Y-79197200D02*
X78181200Y-79615700D01*
X93348200Y-79248000D02*
X82753200Y-79248000D01*
X145694400Y-79197200D02*
X138836400Y-79197200D01*
D60*
%TO.N,Net-(Q2-Pad1)*%
X145031700Y-70291028D02*
X145031700Y-70774600D01*
X145031700Y-70774600D02*
X147017200Y-70774600D01*
X143740272Y-68999600D02*
X145031700Y-70291028D01*
X147017200Y-70774600D02*
X147142200Y-70649600D01*
X141046200Y-68999600D02*
X143740272Y-68999600D01*
%TO.N,/OUTPUT/TACHO2*%
X69723000Y-84709000D02*
X68896000Y-84709000D01*
X131176000Y-89154000D02*
X124927600Y-82905600D01*
X72898000Y-81661000D02*
X72771000Y-81661000D01*
X74980800Y-81661000D02*
X72898000Y-81661000D01*
X72771000Y-81661000D02*
X69723000Y-84709000D01*
X124927600Y-82905600D02*
X76225400Y-82905600D01*
X76225400Y-82905600D02*
X74980800Y-81661000D01*
%TO.N,/OUTPUT/TACHO3*%
X73660000Y-84328000D02*
X72962000Y-85026000D01*
X68896000Y-85979000D02*
X69570600Y-85979000D01*
X102997000Y-84328000D02*
X73660000Y-84328000D01*
X103149400Y-84480400D02*
X102997000Y-84328000D01*
X69570600Y-85979000D02*
X70523600Y-85026000D01*
X72962000Y-85026000D02*
X72898000Y-85026000D01*
X70523600Y-85026000D02*
X72898000Y-85026000D01*
%TO.N,/U3RXTX_EN*%
X84582000Y-57913000D02*
X83031600Y-57913000D01*
X84582000Y-57913000D02*
X86471000Y-57913000D01*
X86471000Y-57913000D02*
X86726000Y-57658000D01*
X49227434Y-68150434D02*
X49599836Y-68150434D01*
X48635000Y-66285000D02*
X48635000Y-67558000D01*
X48635000Y-67558000D02*
X49227434Y-68150434D01*
X83031600Y-57913000D02*
X82219800Y-58724800D01*
%TO.N,/U1RXTX_EN*%
X55482000Y-52451000D02*
X51821000Y-52451000D01*
X66342000Y-57214000D02*
X66406000Y-57150000D01*
X51821000Y-52451000D02*
X49905000Y-50535000D01*
X62648600Y-57214000D02*
X62636400Y-57226200D01*
X49905000Y-50535000D02*
X49905000Y-49285000D01*
X63779400Y-57214000D02*
X66342000Y-57214000D01*
X63779400Y-57214000D02*
X62648600Y-57214000D01*
%TO.N,/OUTPUT/TACHO4*%
X71184000Y-87249000D02*
X71374000Y-87059000D01*
X68896000Y-87249000D02*
X71184000Y-87249000D01*
X71374000Y-87059000D02*
X91351600Y-87059000D01*
X91351600Y-87059000D02*
X97880000Y-93587400D01*
X97880000Y-93587400D02*
X97880000Y-95000000D01*
%TO.N,/U1_GND*%
X73139800Y-59232800D02*
X72237600Y-59232800D01*
X81785671Y-45227329D02*
X82169000Y-44844000D01*
X81785671Y-46029249D02*
X84272751Y-46029249D01*
X84272751Y-46029249D02*
X84455000Y-45847000D01*
X81785671Y-46029249D02*
X81785671Y-45227329D01*
X73152000Y-59245000D02*
X73139800Y-59232800D01*
%TO.N,/OUTPUT/TACHO5*%
X61658000Y-87376000D02*
X61823600Y-87376000D01*
X61823600Y-87376000D02*
X63220600Y-85979000D01*
X63220600Y-85979000D02*
X63946000Y-85979000D01*
%TO.N,/OUTPUT/TACHO6*%
X62647200Y-84709000D02*
X63946000Y-84709000D01*
X61658000Y-85698200D02*
X62647200Y-84709000D01*
X61658000Y-85725000D02*
X61658000Y-85698200D01*
X63946000Y-84709000D02*
X65786000Y-84709000D01*
%TO.N,Net-(D8-Pad2)*%
X105096508Y-70056500D02*
X107545900Y-70056500D01*
X103505000Y-71932800D02*
X104419400Y-71932800D01*
X104876600Y-71475600D02*
X104876600Y-70276408D01*
X104419400Y-71932800D02*
X104876600Y-71475600D01*
X104876600Y-70276408D02*
X105096508Y-70056500D01*
X100634800Y-76250800D02*
X100634800Y-74803000D01*
X100634800Y-74803000D02*
X103505000Y-71932800D01*
%TO.N,Net-(D9-Pad2)*%
X87429100Y-72125600D02*
X88265000Y-72961500D01*
X88265000Y-72961500D02*
X88265000Y-73025000D01*
X87429100Y-69748400D02*
X87429100Y-72125600D01*
%TO.N,Net-(D10-Pad2)*%
X75821300Y-71452500D02*
X75821300Y-69900800D01*
X77876400Y-73507600D02*
X75821300Y-71452500D01*
%TO.N,/INPUT/DI1_P*%
X113093000Y-54673000D02*
X111179100Y-52759100D01*
X113157000Y-54673000D02*
X113093000Y-54673000D01*
X111179100Y-52759100D02*
X111179100Y-41417100D01*
X111179100Y-41417100D02*
X114554000Y-38042200D01*
X114554000Y-38042200D02*
X114554000Y-37000000D01*
%TO.N,/INPUT/DI2_P*%
X120396000Y-51625000D02*
X120396000Y-39928800D01*
X120396000Y-39928800D02*
X122174000Y-38150800D01*
X122174000Y-38150800D02*
X122174000Y-37000000D01*
X121730000Y-52959000D02*
X120396000Y-51625000D01*
%TO.N,/INPUT/DI3_P*%
X129540000Y-37254000D02*
X129540000Y-51653000D01*
X129794000Y-37000000D02*
X129540000Y-37254000D01*
X129540000Y-51653000D02*
X131798000Y-53911000D01*
%TO.N,Net-(IC1-Pad2)*%
X114827600Y-40868600D02*
X119253000Y-40868600D01*
X112776000Y-42115500D02*
X113580700Y-42115500D01*
X137668000Y-56598000D02*
X137668000Y-55268600D01*
X113580700Y-42115500D02*
X114827600Y-40868600D01*
X137668000Y-55268600D02*
X137578800Y-55179400D01*
%TO.N,Net-(IC3-Pad1)*%
X63030700Y-60945500D02*
X63030700Y-59612700D01*
X63030700Y-59612700D02*
X63779400Y-58864000D01*
X65786000Y-62020000D02*
X65081600Y-61315600D01*
X63400800Y-61315600D02*
X63030700Y-60945500D01*
X65081600Y-61315600D02*
X63400800Y-61315600D01*
%TO.N,/INPUT/DI4_P*%
X141605000Y-54419000D02*
X140282400Y-53096400D01*
X140282400Y-53096400D02*
X140282400Y-49293200D01*
%TO.N,Net-(C24-Pad1)*%
X120587000Y-63881000D02*
X120777000Y-63691000D01*
X121857000Y-63691000D02*
X122555000Y-64389000D01*
X122555000Y-64389000D02*
X125287000Y-64389000D01*
X118872000Y-63881000D02*
X120587000Y-63881000D01*
X120777000Y-63691000D02*
X121857000Y-63691000D01*
%TO.N,/INPUT/IO_DI_PL*%
X106537220Y-67091020D02*
X105398400Y-65952200D01*
X106537220Y-67559600D02*
X106537220Y-67091020D01*
X52445000Y-66285000D02*
X52445000Y-68066000D01*
X105398400Y-65952200D02*
X98701800Y-65952200D01*
X98701800Y-65952200D02*
X98614000Y-66040000D01*
X97536000Y-66040000D02*
X97282000Y-66294000D01*
X52445000Y-68066000D02*
X52451000Y-68072000D01*
X98614000Y-66040000D02*
X97536000Y-66040000D01*
%TO.N,Net-(IC3-Pad3)*%
X68326000Y-62221100D02*
X67402600Y-63144500D01*
X64796500Y-63144500D02*
X63830200Y-62178200D01*
X68326000Y-62020000D02*
X68326000Y-62221100D01*
X67402600Y-63144500D02*
X64796500Y-63144500D01*
%TO.N,/serial/U2RXTX_ENs*%
X67706000Y-59690000D02*
X68744499Y-58651501D01*
X71646811Y-54818811D02*
X83889589Y-54818811D01*
X69596000Y-55871400D02*
X69596000Y-54820000D01*
X68744499Y-56722901D02*
X69596000Y-55871400D01*
X71608000Y-54820000D02*
X71628000Y-54800000D01*
X69596000Y-54820000D02*
X71608000Y-54820000D01*
X71628000Y-54800000D02*
X71646811Y-54818811D01*
X83889589Y-54818811D02*
X83908400Y-54800000D01*
X68744499Y-58651501D02*
X68744499Y-56722901D01*
%TO.N,/OUTPUT/REL1*%
X103395711Y-61841311D02*
X104419400Y-62865000D01*
X141046200Y-70675000D02*
X140296400Y-71424800D01*
X138480800Y-71424800D02*
X137731000Y-70675000D01*
X108610400Y-68097400D02*
X105003600Y-64490600D01*
X98614000Y-62230000D02*
X99949000Y-62230000D01*
X105003600Y-64490600D02*
X105003600Y-64439800D01*
X137731000Y-70675000D02*
X137693400Y-70675000D01*
X100337689Y-61841311D02*
X103395711Y-61841311D01*
X99949000Y-62230000D02*
X100337689Y-61841311D01*
X137553200Y-70815200D02*
X137693400Y-70675000D01*
X140296400Y-71424800D02*
X138480800Y-71424800D01*
X108610400Y-68148200D02*
X108610400Y-68097400D01*
X135864600Y-70815200D02*
X137553200Y-70815200D01*
%TO.N,Net-(D23-Pad3)*%
X140804000Y-50014000D02*
X141605000Y-49213000D01*
X143727000Y-55171600D02*
X143969500Y-54929100D01*
X143969500Y-53213000D02*
X142189200Y-53213000D01*
X143891000Y-56471000D02*
X144018000Y-56598000D01*
X140804000Y-51968000D02*
X140804000Y-50014000D01*
X143891000Y-55335600D02*
X143891000Y-56471000D01*
X142189200Y-53213000D02*
X141745200Y-52769000D01*
X141605000Y-52769000D02*
X140804000Y-51968000D01*
X143727000Y-55171600D02*
X143891000Y-55335600D01*
X143969500Y-54929100D02*
X143969500Y-53213000D01*
X141745200Y-52769000D02*
X141605000Y-52769000D01*
%TO.N,/OUTPUT/REL2*%
X104203500Y-61341000D02*
X100076000Y-61341000D01*
X124180600Y-69075800D02*
X124180600Y-69088000D01*
X99832480Y-61584520D02*
X94288520Y-61584520D01*
X100076000Y-61341000D02*
X99832480Y-61584520D01*
X110693020Y-67830520D02*
X104203500Y-61341000D01*
X126748220Y-69875320D02*
X127611900Y-70739000D01*
X124180600Y-69088000D02*
X124967920Y-69875320D01*
X123406400Y-69075800D02*
X122161120Y-67830520D01*
X124180600Y-69075800D02*
X123406400Y-69075800D01*
X124967920Y-69875320D02*
X126748220Y-69875320D01*
X94288520Y-61584520D02*
X93664000Y-60960000D01*
X122161120Y-67830520D02*
X110693020Y-67830520D01*
%TO.N,/OUTPUT/REL3*%
X113055400Y-68376800D02*
X121310400Y-68376800D01*
X100546501Y-63589501D02*
X105347101Y-63589501D01*
X121310400Y-68376800D02*
X122111000Y-69177400D01*
X113106200Y-68427600D02*
X113055400Y-68376800D01*
X96967928Y-62230000D02*
X97602928Y-62865000D01*
X110134400Y-68376800D02*
X113055400Y-68376800D01*
X97602928Y-62865000D02*
X99822000Y-62865000D01*
X122111000Y-69177400D02*
X122148600Y-69177400D01*
X99822000Y-62865000D02*
X100546501Y-63589501D01*
X93664000Y-62230000D02*
X96967928Y-62230000D01*
X113106200Y-69216000D02*
X113106200Y-68427600D01*
X105347101Y-63589501D02*
X110134400Y-68376800D01*
%TO.N,/OUTPUT/REL4*%
X96164400Y-69711800D02*
X97013800Y-70561200D01*
X96164400Y-67871800D02*
X96164400Y-69711800D01*
X99745800Y-70561200D02*
X100050600Y-70256400D01*
X103963200Y-71081400D02*
X104051600Y-70993000D01*
X95359400Y-67066800D02*
X96164400Y-67871800D01*
X97013800Y-70561200D02*
X99745800Y-70561200D01*
X102438200Y-71081400D02*
X103963200Y-71081400D01*
X101613200Y-70256400D02*
X102438200Y-71081400D01*
X100050600Y-70256400D02*
X101613200Y-70256400D01*
X93664000Y-63500000D02*
X95952601Y-63500000D01*
X95952601Y-63500000D02*
X96111262Y-63658661D01*
%TO.N,/serial/U1RXTX_ENs*%
X73152000Y-57595000D02*
X73152000Y-56184800D01*
X73152000Y-56184800D02*
X73787000Y-55549800D01*
X67230500Y-56674500D02*
X67706000Y-57150000D01*
X67230500Y-54994500D02*
X67230500Y-56674500D01*
X70041000Y-57595000D02*
X69469000Y-57023000D01*
X73152000Y-57595000D02*
X70041000Y-57595000D01*
X66958300Y-53417000D02*
X67056000Y-53514700D01*
X67056000Y-53514700D02*
X67056000Y-54820000D01*
X67056000Y-54820000D02*
X67230500Y-54994500D01*
%TO.N,/OUTPUT/REL5*%
X95123000Y-64770000D02*
X95758000Y-65405000D01*
X82575400Y-69088000D02*
X83833200Y-69088000D01*
X83833200Y-69088000D02*
X83845400Y-69075800D01*
X91604600Y-67691000D02*
X91071200Y-67157600D01*
X91948000Y-67691000D02*
X91604600Y-67691000D01*
X93664000Y-64770000D02*
X95123000Y-64770000D01*
%TO.N,Net-(IC4-Pad1)*%
X86741000Y-61544200D02*
X86741000Y-62020000D01*
X84759800Y-59563000D02*
X86741000Y-61544200D01*
X84582000Y-59563000D02*
X84759800Y-59563000D01*
%TO.N,/OUTPUT/REL6*%
X85674200Y-68275200D02*
X81508600Y-68275200D01*
X93664000Y-66040000D02*
X91287600Y-66040000D01*
X71121000Y-70484000D02*
X71121000Y-72339200D01*
X91287600Y-66040000D02*
X90817099Y-65569499D01*
X81457800Y-68326000D02*
X81508600Y-68275200D01*
X88379901Y-65569499D02*
X85674200Y-68275200D01*
X81457800Y-69075800D02*
X81457800Y-68326000D01*
X90817099Y-65569499D02*
X88379901Y-65569499D01*
X81508600Y-68275200D02*
X73329800Y-68275200D01*
X73329800Y-68275200D02*
X71121000Y-70484000D01*
%TO.N,/serial/U3RXTX_ENs*%
X95060000Y-52705000D02*
X94056200Y-53708800D01*
X88112600Y-56362600D02*
X88011000Y-56464200D01*
X88011000Y-54820000D02*
X88011000Y-56464200D01*
X88011000Y-57643000D02*
X88026000Y-57658000D01*
X94056200Y-56362600D02*
X88112600Y-56362600D01*
X94056200Y-53708800D02*
X94056200Y-56362600D01*
X88011000Y-56464200D02*
X88011000Y-57643000D01*
%TO.N,Net-(R11-Pad2)*%
X59183000Y-41529000D02*
X59050388Y-41396388D01*
X54158412Y-41396388D02*
X53517800Y-42037000D01*
X53517800Y-42037000D02*
X52008000Y-42037000D01*
X59050388Y-41396388D02*
X54158412Y-41396388D01*
%TO.N,Net-(IC1-Pad4)*%
X135128000Y-56598000D02*
X134109758Y-56598000D01*
X123737800Y-42116600D02*
X122048100Y-42116600D01*
X122048100Y-42116600D02*
X122047000Y-42115500D01*
X134109758Y-56598000D02*
X133531258Y-56019500D01*
%TO.N,/INPUT/DI1s*%
X126975000Y-59436000D02*
X126975000Y-59581200D01*
X125977200Y-60579000D02*
X125287000Y-60579000D01*
X126975000Y-59581200D02*
X125977200Y-60579000D01*
%TO.N,/INPUT/DI2s*%
X126681889Y-62395711D02*
X126681889Y-61430511D01*
X125958600Y-63119000D02*
X126681889Y-62395711D01*
X125287000Y-63119000D02*
X125958600Y-63119000D01*
X126681889Y-61430511D02*
X127000000Y-61112400D01*
%TO.N,Net-(IC1-Pad6)*%
X121892600Y-60742600D02*
X120777000Y-59627000D01*
X136461000Y-63861000D02*
X136398000Y-63798000D01*
X136398000Y-63246000D02*
X136398000Y-63798000D01*
X123085400Y-60742600D02*
X121892600Y-60742600D01*
X133830500Y-60678500D02*
X136398000Y-63246000D01*
X136461000Y-65913000D02*
X136461000Y-63861000D01*
X131907100Y-60678500D02*
X133830500Y-60678500D01*
%TO.N,/INPUT/DI3s*%
X126881600Y-65659000D02*
X125287000Y-65659000D01*
X127673701Y-62294101D02*
X127673701Y-64866899D01*
X127406400Y-62026800D02*
X127673701Y-62294101D01*
X127673701Y-64866899D02*
X126881600Y-65659000D01*
%TO.N,Net-(R12-Pad2)*%
X52008000Y-45847000D02*
X54305200Y-45847000D01*
X54305200Y-45847000D02*
X55321200Y-46863000D01*
X55321200Y-46863000D02*
X59246000Y-46863000D01*
%TO.N,Net-(R23-Pad2)*%
X100647000Y-64770000D02*
X98614000Y-64770000D01*
X101092000Y-64325000D02*
X100647000Y-64770000D01*
%TO.N,Net-(D11-Pad2)*%
X69342000Y-59436000D02*
X69890200Y-59984200D01*
X94703001Y-57314499D02*
X96391500Y-55626000D01*
X82118017Y-59984200D02*
X83364116Y-58738101D01*
X64433300Y-53359700D02*
X63779400Y-54013600D01*
X83364116Y-58738101D02*
X92662699Y-58738101D01*
X92662699Y-58738101D02*
X94086301Y-57314499D01*
X65229300Y-53359700D02*
X64433300Y-53359700D01*
X94086301Y-57314499D02*
X94703001Y-57314499D01*
X69890200Y-59984200D02*
X82118017Y-59984200D01*
%TO.N,/LED1*%
X63779400Y-55663600D02*
X62573400Y-55663600D01*
X58928000Y-52374800D02*
X60045600Y-53492400D01*
X56255000Y-49285000D02*
X57133600Y-49285000D01*
X57133600Y-49285000D02*
X58928000Y-51079400D01*
X60045600Y-53492400D02*
X60960000Y-53492400D01*
X62573400Y-55105800D02*
X62573400Y-55663600D01*
X62179700Y-55663600D02*
X60553600Y-57289700D01*
X58928000Y-51079400D02*
X58928000Y-52374800D01*
X60553600Y-57289700D02*
X60553600Y-58618200D01*
X62573400Y-55663600D02*
X62179700Y-55663600D01*
X60960000Y-53492400D02*
X62573400Y-55105800D01*
%TO.N,/T_ADDR2*%
X49784000Y-70104000D02*
X49403000Y-69723000D01*
X57255000Y-53340000D02*
X56540400Y-53340000D01*
X62738000Y-78359000D02*
X61684501Y-77305501D01*
X61684501Y-73951181D02*
X61686911Y-73948770D01*
X61684501Y-73216420D02*
X61684501Y-71376008D01*
X61684501Y-71376008D02*
X60412493Y-70104000D01*
X61686911Y-73948770D02*
X61686911Y-73218830D01*
X61684501Y-77305501D02*
X61684501Y-73951181D01*
X61686911Y-73218830D02*
X61684501Y-73216420D01*
X53670200Y-56210200D02*
X53390800Y-56210200D01*
X56540400Y-53340000D02*
X53670200Y-56210200D01*
X60412493Y-70104000D02*
X49784000Y-70104000D01*
X63946000Y-78359000D02*
X62738000Y-78359000D01*
%TO.N,/INPUT/DI4s*%
X128389941Y-65753541D02*
X128389941Y-64975994D01*
X129565400Y-66929000D02*
X128389941Y-65753541D01*
X130237000Y-66929000D02*
X129514600Y-66929000D01*
X130237000Y-66929000D02*
X129565400Y-66929000D01*
%TO.N,Net-(Q8-Pad1)*%
X112495600Y-45053000D02*
X111826000Y-44383400D01*
X111826000Y-44383400D02*
X111826000Y-43990500D01*
X115507000Y-44069000D02*
X115507000Y-44159200D01*
X114613200Y-45053000D02*
X112495600Y-45053000D01*
X115507000Y-44159200D02*
X114613200Y-45053000D01*
%TO.N,Net-(Q8-Pad2)*%
X118999000Y-42037000D02*
X115279200Y-42037000D01*
X115279200Y-42037000D02*
X113726000Y-43590200D01*
X113726000Y-43590200D02*
X113726000Y-43990500D01*
%TO.N,Net-(Q9-Pad1)*%
X121097000Y-44389000D02*
X121797000Y-45089000D01*
X121797000Y-45089000D02*
X123730000Y-45089000D01*
X123730000Y-45089000D02*
X124750000Y-44069000D01*
X121097000Y-43990500D02*
X121097000Y-44389000D01*
%TO.N,Net-(Q9-Pad2)*%
X122997000Y-43990500D02*
X124886500Y-42101000D01*
X124886500Y-42101000D02*
X128115000Y-42101000D01*
%TO.N,Net-(Q10-Pad1)*%
X130900700Y-44845500D02*
X133117500Y-44845500D01*
X130213000Y-43736500D02*
X130213000Y-44157800D01*
X130213000Y-44157800D02*
X130900700Y-44845500D01*
X133117500Y-44845500D02*
X134021000Y-43942000D01*
%TO.N,Net-(Q10-Pad2)*%
X135064000Y-41593000D02*
X132920500Y-43736500D01*
X138021000Y-41593000D02*
X135064000Y-41593000D01*
X132920500Y-43736500D02*
X132113000Y-43736500D01*
%TO.N,Net-(Q11-Pad1)*%
X142939600Y-44957400D02*
X143828000Y-44069000D01*
X140147000Y-43863500D02*
X141240900Y-44957400D01*
X141240900Y-44957400D02*
X142939600Y-44957400D01*
%TO.N,Net-(Q11-Pad2)*%
X147447000Y-41974000D02*
X143936500Y-41974000D01*
X143936500Y-41974000D02*
X142047000Y-43863500D01*
%TO.N,/CAN_Rx_s*%
X56958000Y-42037000D02*
X56820002Y-41899002D01*
X54919501Y-41899003D02*
X54495099Y-42323405D01*
X56820002Y-41899002D02*
X54919501Y-41899003D01*
X54495099Y-42323405D02*
X54495100Y-44084698D01*
%TO.N,/CAN_Tx_s*%
X56958000Y-45847000D02*
X55338707Y-45847000D01*
X55338707Y-45847000D02*
X55319664Y-45827957D01*
%TO.N,/serial/U3RX_O*%
X97734266Y-54457600D02*
X99161600Y-54457600D01*
X97044732Y-53768066D02*
X97734266Y-54457600D01*
%TO.N,/serial/U3TX_O*%
X93370400Y-46990000D02*
X95173800Y-46990000D01*
X95173800Y-46990000D02*
X96062800Y-47879000D01*
%TO.N,/serial/U2TX_O*%
X83062600Y-53818000D02*
X85602600Y-53818000D01*
X81762600Y-39243000D02*
X81762600Y-41427400D01*
X82675000Y-38330600D02*
X81762600Y-39243000D01*
X85602600Y-53818000D02*
X85902800Y-53517800D01*
X82675000Y-37000000D02*
X82675000Y-38330600D01*
%TO.N,Net-(Q1-Pad2)*%
X41107600Y-77612200D02*
X41757600Y-77612200D01*
X41757600Y-79512200D02*
X41757600Y-77612200D01*
X41757600Y-75997800D02*
X41719000Y-75959200D01*
X41757600Y-77612200D02*
X41757600Y-75997800D01*
%TO.N,Net-(Q1-Pad3)*%
X44170600Y-79260200D02*
X43918600Y-79512200D01*
X41412200Y-81752700D02*
X42407600Y-80757300D01*
X43918600Y-79512200D02*
X42407600Y-79512200D01*
X42407600Y-80757300D02*
X42407600Y-79512200D01*
%TO.N,Net-(Q13-Pad2)*%
X46420400Y-77600000D02*
X47070400Y-77600000D01*
X46420400Y-77600000D02*
X46420400Y-77417800D01*
X45148000Y-76145400D02*
X45148000Y-75946000D01*
X46420400Y-77417800D02*
X45148000Y-76145400D01*
X47070400Y-79500000D02*
X47070400Y-77600000D01*
%TO.N,Net-(Q13-Pad3)*%
X47722400Y-79502000D02*
X47720400Y-79500000D01*
X48289600Y-79502000D02*
X47722400Y-79502000D01*
X48401400Y-81676500D02*
X48401400Y-79613800D01*
X49483400Y-79502000D02*
X48289600Y-79502000D01*
%TO.N,Net-(IC1-Pad8)*%
X139017500Y-63877500D02*
X138938000Y-63798000D01*
X139017500Y-63198500D02*
X135763000Y-59944000D01*
X135763000Y-59944000D02*
X128574800Y-59944000D01*
X139017500Y-63877500D02*
X139017500Y-63198500D01*
X138938000Y-63798000D02*
X138938000Y-65722000D01*
X128574800Y-59944000D02*
X126034800Y-57404000D01*
X126034800Y-57404000D02*
X125031000Y-57404000D01*
X138938000Y-65722000D02*
X139129000Y-65913000D01*
%TO.N,Net-(IC2-Pad2)*%
X131459500Y-42158000D02*
X131163000Y-41861500D01*
X145288000Y-55244300D02*
X145231100Y-55187400D01*
X133276300Y-42158000D02*
X131459500Y-42158000D01*
X145288000Y-56598000D02*
X145288000Y-55244300D01*
%TO.N,/AI1*%
X65976000Y-94976000D02*
X66000000Y-95000000D01*
X65976000Y-90551000D02*
X65976000Y-94976000D01*
%TO.N,Net-(R68-Pad2)*%
X61087000Y-90614000D02*
X59436000Y-90614000D01*
X57785000Y-90614000D02*
X59436000Y-90614000D01*
%TO.N,Net-(R66-Pad2)*%
X54813200Y-82397600D02*
X58039000Y-82397600D01*
X60933480Y-85292080D02*
X60933480Y-88810480D01*
X49733200Y-72034400D02*
X49733200Y-74498200D01*
X61087000Y-89535000D02*
X61341000Y-89789000D01*
X60933480Y-88810480D02*
X61087000Y-88964000D01*
X63500000Y-90551000D02*
X64326000Y-90551000D01*
X61341000Y-89789000D02*
X62738000Y-89789000D01*
X61087000Y-88964000D02*
X61087000Y-89535000D01*
X48069000Y-68580000D02*
X48069000Y-70370200D01*
X51409600Y-76174600D02*
X51409600Y-78994000D01*
X48069000Y-70370200D02*
X49733200Y-72034400D01*
X51409600Y-78994000D02*
X54813200Y-82397600D01*
X49733200Y-74498200D02*
X51409600Y-76174600D01*
X58039000Y-82397600D02*
X60933480Y-85292080D01*
X62738000Y-89789000D02*
X63500000Y-90551000D01*
%TO.N,/AI1d*%
X46419000Y-68580000D02*
X46419000Y-66609000D01*
X44844000Y-68580000D02*
X44831000Y-68567000D01*
X46419000Y-68580000D02*
X44844000Y-68580000D01*
X46419000Y-66609000D02*
X46095000Y-66285000D01*
%TO.N,Net-(IC2-Pad4)*%
X139485000Y-43097100D02*
X139485000Y-54268000D01*
X141097000Y-41988500D02*
X140593600Y-41988500D01*
X140593600Y-41988500D02*
X139485000Y-43097100D01*
X139485000Y-54268000D02*
X141859000Y-56642000D01*
X141859000Y-56642000D02*
X142704000Y-56642000D01*
X142704000Y-56642000D02*
X142748000Y-56598000D01*
%TO.N,Net-(IC2-Pad6)*%
X133502400Y-63081400D02*
X133502400Y-65840300D01*
X132461000Y-62040000D02*
X133502400Y-63081400D01*
X134929500Y-67267400D02*
X142726600Y-67267400D01*
X144081000Y-65913000D02*
X144081000Y-63861000D01*
X144081000Y-63861000D02*
X144018000Y-63798000D01*
X142726600Y-67267400D02*
X144081000Y-65913000D01*
X133502400Y-65840300D02*
X134929500Y-67267400D01*
%TO.N,Net-(IC2-Pad8)*%
X145606000Y-65913000D02*
X143700989Y-67818011D01*
X132084873Y-67818011D02*
X131983262Y-67716400D01*
X121856000Y-65341000D02*
X120777000Y-65341000D01*
X124231400Y-67716400D02*
X121856000Y-65341000D01*
X145606000Y-65913000D02*
X146558000Y-64961000D01*
X143700989Y-67818011D02*
X132084873Y-67818011D01*
X146558000Y-64961000D02*
X146558000Y-63798000D01*
X131983262Y-67716400D02*
X124231400Y-67716400D01*
%TO.N,/U2RXTX_EN*%
X61544200Y-59867800D02*
X63296800Y-58115200D01*
X59044200Y-59457822D02*
X59454178Y-59867800D01*
X63296800Y-58115200D02*
X64831200Y-58115200D01*
X57912000Y-52070000D02*
X59044200Y-53202200D01*
X65567800Y-60528200D02*
X66406000Y-59690000D01*
X57255000Y-52070000D02*
X57912000Y-52070000D01*
X59454178Y-59867800D02*
X61544200Y-59867800D01*
X63830200Y-60528200D02*
X65567800Y-60528200D01*
X59044200Y-53202200D02*
X59044200Y-59457822D01*
X64831200Y-58115200D02*
X66406000Y-59690000D01*
%TO.N,/TACHO*%
X60833000Y-69596000D02*
X54294100Y-69596000D01*
X68896000Y-82169000D02*
X68199000Y-82169000D01*
X62136421Y-76106421D02*
X62136421Y-70899421D01*
X63246000Y-77216000D02*
X62136421Y-76106421D01*
X67056000Y-81026000D02*
X67056000Y-78359000D01*
X53715000Y-69016900D02*
X53715000Y-66285000D01*
X68199000Y-82169000D02*
X67056000Y-81026000D01*
X65913000Y-77216000D02*
X63246000Y-77216000D01*
X62136421Y-70899421D02*
X60833000Y-69596000D01*
X54294100Y-69596000D02*
X53715000Y-69016900D01*
X67056000Y-78359000D02*
X65913000Y-77216000D01*
%TO.N,/OUTPUT/T_ADDR1*%
X89535000Y-74396600D02*
X72923400Y-74396600D01*
X92176600Y-68986400D02*
X92176600Y-71755000D01*
X93664000Y-68580000D02*
X92583000Y-68580000D01*
X92176600Y-71755000D02*
X89535000Y-74396600D01*
X92583000Y-68580000D02*
X92176600Y-68986400D01*
X63946000Y-79629000D02*
X66040002Y-79629000D01*
X72923400Y-74396600D02*
X72898001Y-74421999D01*
%TO.N,/OUTPUT/T_ADDR0*%
X94777311Y-76835000D02*
X73406000Y-76835000D01*
X95478600Y-68406000D02*
X95478600Y-76133711D01*
X95478600Y-76133711D02*
X94777311Y-76835000D01*
X93664000Y-67310000D02*
X94382600Y-67310000D01*
X63946000Y-80899000D02*
X66040000Y-80899000D01*
X94382600Y-67310000D02*
X95478600Y-68406000D01*
D63*
%TO.N,/OUTPUT/REL2_NC_TACHO*%
X125950000Y-93963200D02*
X125950000Y-95000000D01*
X128636000Y-89154000D02*
X128636000Y-91277200D01*
X128636000Y-91277200D02*
X125950000Y-93963200D01*
%TO.N,V_IN2*%
X39330000Y-95000000D02*
X39330000Y-93867600D01*
X41249600Y-91948000D02*
X46837600Y-91948000D01*
X39330000Y-93867600D02*
X41249600Y-91948000D01*
X46837600Y-91948000D02*
X48936500Y-89849100D01*
X48936500Y-89849100D02*
X48936500Y-88138000D01*
D60*
%TO.N,Net-(C45-Pad1)*%
X84582000Y-47117000D02*
X82296000Y-47117000D01*
X82296000Y-47117000D02*
X82169000Y-46990000D01*
%TO.N,Net-(Q4-Pad1)*%
X79554800Y-70850800D02*
X79679800Y-70725800D01*
X81457800Y-70725800D02*
X79679800Y-70725800D01*
X77696300Y-70850800D02*
X79554800Y-70850800D01*
%TO.N,Net-(Q3-Pad1)*%
X131597400Y-70800000D02*
X133646900Y-70800000D01*
X127611900Y-69089000D02*
X130369972Y-69089000D01*
X130369972Y-69089000D02*
X131597400Y-70316428D01*
X131597400Y-70316428D02*
X131597400Y-70800000D01*
X133646900Y-70800000D02*
X133707900Y-70739000D01*
D63*
%TO.N,Net-(Q13-Pad1)*%
X52919100Y-83551500D02*
X47451400Y-83551500D01*
D60*
X46420400Y-79500000D02*
X46420400Y-80186900D01*
D63*
X55711500Y-88138000D02*
X55711500Y-86343900D01*
D60*
X46420400Y-80186900D02*
X47451400Y-81217900D01*
X47451400Y-81217900D02*
X47451400Y-83551500D01*
D63*
X55711500Y-86343900D02*
X52919100Y-83551500D01*
D60*
%TO.N,Net-(Q5-Pad1)*%
X120448800Y-70901600D02*
X120523000Y-70827400D01*
X118615700Y-70901600D02*
X120448800Y-70901600D01*
X120523000Y-70827400D02*
X122148600Y-70827400D01*
%TO.N,Net-(Q6-Pad1)*%
X111263900Y-71006500D02*
X111404400Y-70866000D01*
X109420900Y-71006500D02*
X111263900Y-71006500D01*
X105498400Y-70993000D02*
X109407400Y-70993000D01*
X109407400Y-70993000D02*
X109420900Y-71006500D01*
%TO.N,Net-(Q7-Pad1)*%
X89304100Y-70206972D02*
X89304100Y-70698400D01*
X91187000Y-68923400D02*
X89421200Y-67157600D01*
X91211400Y-68923400D02*
X91187000Y-68923400D01*
X89421200Y-67157600D02*
X88214200Y-68364600D01*
X88214200Y-69117072D02*
X89304100Y-70206972D01*
X88214200Y-68364600D02*
X88214200Y-69117072D01*
%TO.N,Net-(D25-Pad2)*%
X137693400Y-69025000D02*
X137808100Y-69025000D01*
X137808100Y-69025000D02*
X139420600Y-70637500D01*
%TO.N,Net-(D26-Pad2)*%
X125870300Y-70725800D02*
X125907800Y-70688300D01*
X124180600Y-70725800D02*
X125870300Y-70725800D01*
%TO.N,Net-(D27-Pad2)*%
X114782600Y-70815200D02*
X113157000Y-70815200D01*
X113157000Y-70815200D02*
X113106200Y-70866000D01*
%TO.N,Net-(D28-Pad2)*%
X100799300Y-69431400D02*
X100761800Y-69468900D01*
X102438200Y-69431400D02*
X100799300Y-69431400D01*
%TO.N,Net-(D29-Pad2)*%
X83845400Y-70725800D02*
X85433500Y-70725800D01*
X85433500Y-70725800D02*
X85471000Y-70688300D01*
%TO.N,Net-(D30-Pad2)*%
X72771000Y-69494400D02*
X73152100Y-69113300D01*
X73152100Y-69113300D02*
X73888600Y-69113300D01*
X72771000Y-72339200D02*
X72771000Y-69494400D01*
%TD*%
%TA.AperFunction,Conductor*%
%TO.N,Net-(Q1-Pad1)*%
G36*
X43409377Y-82823289D02*
G01*
X43417706Y-82828786D01*
X46046935Y-84717387D01*
X46090592Y-84773373D01*
X46097050Y-84844075D01*
X46068651Y-84902233D01*
X46061171Y-84910865D01*
X46059500Y-84918548D01*
X46059500Y-88266000D01*
X46039498Y-88334121D01*
X45985842Y-88380614D01*
X45933500Y-88392000D01*
X44353116Y-88392000D01*
X44337877Y-88396475D01*
X44336672Y-88397865D01*
X44335001Y-88405548D01*
X44335001Y-90660095D01*
X44335338Y-90666614D01*
X44345257Y-90762206D01*
X44348150Y-90775603D01*
X44395831Y-90918525D01*
X44398415Y-90989474D01*
X44362231Y-91050558D01*
X44298767Y-91082382D01*
X44276307Y-91084400D01*
X40512000Y-91084400D01*
X40443879Y-91064398D01*
X40397386Y-91010742D01*
X40386000Y-90958400D01*
X40386000Y-87865885D01*
X44335000Y-87865885D01*
X44339475Y-87881124D01*
X44340865Y-87882329D01*
X44348548Y-87884000D01*
X45533385Y-87884000D01*
X45548624Y-87879525D01*
X45549829Y-87878135D01*
X45551500Y-87870452D01*
X45551500Y-84923116D01*
X45547025Y-84907877D01*
X45545635Y-84906672D01*
X45537952Y-84905001D01*
X45045905Y-84905001D01*
X45039386Y-84905338D01*
X44943794Y-84915257D01*
X44930400Y-84918149D01*
X44776216Y-84969588D01*
X44763038Y-84975761D01*
X44625193Y-85061063D01*
X44613792Y-85070099D01*
X44499261Y-85184829D01*
X44490249Y-85196240D01*
X44405184Y-85334243D01*
X44399037Y-85347424D01*
X44347862Y-85501710D01*
X44344995Y-85515086D01*
X44335328Y-85609438D01*
X44335000Y-85615855D01*
X44335000Y-87865885D01*
X40386000Y-87865885D01*
X40386000Y-84852078D01*
X40716200Y-84852078D01*
X40720173Y-84865609D01*
X40728071Y-84866744D01*
X40867990Y-84826093D01*
X40882421Y-84819848D01*
X41011878Y-84743289D01*
X41024304Y-84733649D01*
X41130649Y-84627304D01*
X41140289Y-84614878D01*
X41216848Y-84485421D01*
X41223093Y-84470990D01*
X41265469Y-84325135D01*
X41267770Y-84312533D01*
X41270007Y-84284116D01*
X41270200Y-84279186D01*
X41270200Y-83899815D01*
X41265725Y-83884576D01*
X41264335Y-83883371D01*
X41256652Y-83881700D01*
X40734315Y-83881700D01*
X40719076Y-83886175D01*
X40717871Y-83887565D01*
X40716200Y-83895248D01*
X40716200Y-84852078D01*
X40386000Y-84852078D01*
X40386000Y-84734400D01*
X40208200Y-84734400D01*
X40208200Y-83899815D01*
X40203725Y-83884576D01*
X40202335Y-83883371D01*
X40194652Y-83881700D01*
X39672316Y-83881700D01*
X39657077Y-83886175D01*
X39655872Y-83887565D01*
X39654201Y-83895248D01*
X39654201Y-84279184D01*
X39654395Y-84284120D01*
X39656630Y-84312536D01*
X39658930Y-84325131D01*
X39701307Y-84470990D01*
X39707554Y-84485425D01*
X39742349Y-84544262D01*
X39759808Y-84613078D01*
X39737291Y-84680409D01*
X39681946Y-84724878D01*
X39633895Y-84734400D01*
X38198231Y-84734400D01*
X38130110Y-84714398D01*
X38083617Y-84660742D01*
X38072231Y-84608626D01*
X38069474Y-83073053D01*
X38089354Y-83004898D01*
X38142926Y-82958309D01*
X38192003Y-82946877D01*
X39524734Y-82910196D01*
X39593379Y-82928316D01*
X39641330Y-82980672D01*
X39654200Y-83036148D01*
X39654200Y-83355585D01*
X39658675Y-83370824D01*
X39660065Y-83372029D01*
X39667748Y-83373700D01*
X41252084Y-83373700D01*
X41267323Y-83369225D01*
X41268528Y-83367835D01*
X41270199Y-83360152D01*
X41270199Y-82984735D01*
X41290201Y-82916614D01*
X41343857Y-82870121D01*
X41392729Y-82858784D01*
X42956619Y-82815741D01*
X43340731Y-82805169D01*
X43409377Y-82823289D01*
G37*
%TD.AperFunction*%
%TD*%
%TA.AperFunction,Conductor*%
%TO.N,Net-(Q13-Pad1)*%
G36*
X46585521Y-82824002D02*
G01*
X46632014Y-82877658D01*
X46643400Y-82930000D01*
X46643400Y-83279385D01*
X46647875Y-83294624D01*
X46649265Y-83295829D01*
X46656948Y-83297500D01*
X48241284Y-83297500D01*
X48256523Y-83293025D01*
X48257728Y-83291635D01*
X48259399Y-83283952D01*
X48259399Y-82930000D01*
X48279401Y-82861879D01*
X48333057Y-82815386D01*
X48385399Y-82804000D01*
X56566800Y-82804000D01*
X56634921Y-82824002D01*
X56681414Y-82877658D01*
X56692800Y-82930000D01*
X56692800Y-84787811D01*
X56672798Y-84855932D01*
X56619142Y-84902425D01*
X56553958Y-84913155D01*
X56477562Y-84905328D01*
X56471145Y-84905000D01*
X55983615Y-84905000D01*
X55968376Y-84909475D01*
X55967171Y-84910865D01*
X55965500Y-84918548D01*
X55965500Y-91352884D01*
X55969975Y-91368123D01*
X55971365Y-91369328D01*
X55979048Y-91370999D01*
X56471095Y-91370999D01*
X56477612Y-91370662D01*
X56553796Y-91362757D01*
X56623618Y-91375622D01*
X56675400Y-91424193D01*
X56692800Y-91488084D01*
X56692800Y-92533200D01*
X56672798Y-92601321D01*
X56619142Y-92647814D01*
X56566800Y-92659200D01*
X53618400Y-92659200D01*
X53550279Y-92639198D01*
X53503786Y-92585542D01*
X53492400Y-92533200D01*
X53492400Y-90660095D01*
X54241001Y-90660095D01*
X54241338Y-90666614D01*
X54251257Y-90762206D01*
X54254149Y-90775600D01*
X54305588Y-90929784D01*
X54311761Y-90942962D01*
X54397063Y-91080807D01*
X54406099Y-91092208D01*
X54520829Y-91206739D01*
X54532240Y-91215751D01*
X54670243Y-91300816D01*
X54683424Y-91306963D01*
X54837710Y-91358138D01*
X54851086Y-91361005D01*
X54945438Y-91370672D01*
X54951854Y-91371000D01*
X55439385Y-91371000D01*
X55454624Y-91366525D01*
X55455829Y-91365135D01*
X55457500Y-91357452D01*
X55457500Y-88410115D01*
X55453025Y-88394876D01*
X55451635Y-88393671D01*
X55443952Y-88392000D01*
X54259116Y-88392000D01*
X54243877Y-88396475D01*
X54242672Y-88397865D01*
X54241001Y-88405548D01*
X54241001Y-90660095D01*
X53492400Y-90660095D01*
X53492400Y-87865885D01*
X54241000Y-87865885D01*
X54245475Y-87881124D01*
X54246865Y-87882329D01*
X54254548Y-87884000D01*
X55439385Y-87884000D01*
X55454624Y-87879525D01*
X55455829Y-87878135D01*
X55457500Y-87870452D01*
X55457500Y-84923116D01*
X55453025Y-84907877D01*
X55451635Y-84906672D01*
X55443952Y-84905001D01*
X54951905Y-84905001D01*
X54945386Y-84905338D01*
X54849794Y-84915257D01*
X54836400Y-84918149D01*
X54682216Y-84969588D01*
X54669038Y-84975761D01*
X54531193Y-85061063D01*
X54519792Y-85070099D01*
X54405261Y-85184829D01*
X54396249Y-85196240D01*
X54311184Y-85334243D01*
X54305037Y-85347424D01*
X54253862Y-85501710D01*
X54250995Y-85515086D01*
X54241328Y-85609438D01*
X54241000Y-85615855D01*
X54241000Y-87865885D01*
X53492400Y-87865885D01*
X53492400Y-85699600D01*
X52578000Y-84988400D01*
X47914464Y-84988400D01*
X47846343Y-84968398D01*
X47799850Y-84914742D01*
X47789746Y-84844468D01*
X47819240Y-84779888D01*
X47864423Y-84746763D01*
X47871621Y-84743648D01*
X48001078Y-84667089D01*
X48013504Y-84657449D01*
X48119849Y-84551104D01*
X48129489Y-84538678D01*
X48206048Y-84409221D01*
X48212293Y-84394790D01*
X48254669Y-84248935D01*
X48256970Y-84236333D01*
X48259207Y-84207916D01*
X48259400Y-84202986D01*
X48259400Y-83823615D01*
X48254925Y-83808376D01*
X48253535Y-83807171D01*
X48245852Y-83805500D01*
X46661516Y-83805500D01*
X46646277Y-83809975D01*
X46645072Y-83811365D01*
X46643401Y-83819048D01*
X46643401Y-84202984D01*
X46643595Y-84207920D01*
X46645830Y-84236336D01*
X46648131Y-84248934D01*
X46690075Y-84393305D01*
X46689872Y-84464301D01*
X46651319Y-84523917D01*
X46586654Y-84553226D01*
X46516409Y-84542922D01*
X46494476Y-84529999D01*
X46308421Y-84393305D01*
X45474692Y-83780770D01*
X44454909Y-83031541D01*
X44411855Y-82975089D01*
X44406155Y-82904322D01*
X44439620Y-82841707D01*
X44501625Y-82807125D01*
X44529511Y-82804000D01*
X46517400Y-82804000D01*
X46585521Y-82824002D01*
G37*
%TD.AperFunction*%
%TD*%
%TA.AperFunction,Conductor*%
%TO.N,V_IN2*%
G36*
X51476331Y-85414802D02*
G01*
X51497305Y-85431705D01*
X52947495Y-86881895D01*
X52981521Y-86944207D01*
X52984400Y-86970990D01*
X52984400Y-92533200D01*
X52964398Y-92601321D01*
X52910742Y-92647814D01*
X52858400Y-92659200D01*
X41656000Y-92659200D01*
X41656000Y-100864400D01*
X41635998Y-100932521D01*
X41582342Y-100979014D01*
X41530000Y-100990400D01*
X37565600Y-100990400D01*
X37497479Y-100970398D01*
X37450986Y-100916742D01*
X37439600Y-100864400D01*
X37439600Y-95957340D01*
X37922000Y-95957340D01*
X37922225Y-95962649D01*
X37936660Y-96132771D01*
X37938452Y-96143259D01*
X37995801Y-96364211D01*
X37999333Y-96374239D01*
X38093085Y-96582363D01*
X38098265Y-96591669D01*
X38225747Y-96781024D01*
X38232406Y-96789307D01*
X38389971Y-96954478D01*
X38397942Y-96961530D01*
X38581082Y-97097790D01*
X38590119Y-97103394D01*
X38793606Y-97206851D01*
X38803459Y-97210852D01*
X39021461Y-97278544D01*
X39031848Y-97280828D01*
X39058043Y-97284300D01*
X39072207Y-97282104D01*
X39076000Y-97268919D01*
X39076000Y-97267282D01*
X39584000Y-97267282D01*
X39587973Y-97280813D01*
X39598580Y-97282338D01*
X39730840Y-97254587D01*
X39741037Y-97251527D01*
X39953340Y-97167685D01*
X39962876Y-97162951D01*
X40158025Y-97044532D01*
X40166618Y-97038266D01*
X40339027Y-96888658D01*
X40346447Y-96881028D01*
X40491180Y-96704512D01*
X40497206Y-96695745D01*
X40610129Y-96497367D01*
X40614595Y-96487703D01*
X40692481Y-96273132D01*
X40695251Y-96262865D01*
X40736081Y-96037068D01*
X40737016Y-96028838D01*
X40737930Y-96009450D01*
X40738000Y-96006474D01*
X40738000Y-95272115D01*
X40733525Y-95256876D01*
X40732135Y-95255671D01*
X40724452Y-95254000D01*
X39602115Y-95254000D01*
X39586876Y-95258475D01*
X39585671Y-95259865D01*
X39584000Y-95267548D01*
X39584000Y-97267282D01*
X39076000Y-97267282D01*
X39076000Y-95272115D01*
X39071525Y-95256876D01*
X39070135Y-95255671D01*
X39062452Y-95254000D01*
X37940115Y-95254000D01*
X37924876Y-95258475D01*
X37923671Y-95259865D01*
X37922000Y-95267548D01*
X37922000Y-95957340D01*
X37439600Y-95957340D01*
X37439600Y-94727885D01*
X37922000Y-94727885D01*
X37926475Y-94743124D01*
X37927865Y-94744329D01*
X37935548Y-94746000D01*
X39057885Y-94746000D01*
X39073124Y-94741525D01*
X39074329Y-94740135D01*
X39076000Y-94732452D01*
X39076000Y-94727885D01*
X39584000Y-94727885D01*
X39588475Y-94743124D01*
X39589865Y-94744329D01*
X39597548Y-94746000D01*
X40719885Y-94746000D01*
X40735124Y-94741525D01*
X40736329Y-94740135D01*
X40738000Y-94732452D01*
X40738000Y-94042660D01*
X40737775Y-94037351D01*
X40723340Y-93867229D01*
X40721548Y-93856741D01*
X40664199Y-93635789D01*
X40660667Y-93625761D01*
X40566915Y-93417637D01*
X40561735Y-93408331D01*
X40434253Y-93218976D01*
X40427594Y-93210693D01*
X40270029Y-93045522D01*
X40262058Y-93038470D01*
X40078918Y-92902210D01*
X40069881Y-92896606D01*
X39866394Y-92793149D01*
X39856541Y-92789148D01*
X39638539Y-92721456D01*
X39628152Y-92719172D01*
X39601957Y-92715700D01*
X39587793Y-92717896D01*
X39584000Y-92731081D01*
X39584000Y-94727885D01*
X39076000Y-94727885D01*
X39076000Y-92732718D01*
X39072027Y-92719187D01*
X39061420Y-92717662D01*
X38929160Y-92745413D01*
X38918963Y-92748473D01*
X38706660Y-92832315D01*
X38697124Y-92837049D01*
X38501975Y-92955468D01*
X38493382Y-92961734D01*
X38320973Y-93111342D01*
X38313553Y-93118972D01*
X38168820Y-93295488D01*
X38162794Y-93304255D01*
X38049871Y-93502633D01*
X38045405Y-93512297D01*
X37967519Y-93726868D01*
X37964749Y-93737135D01*
X37923919Y-93962932D01*
X37922984Y-93971162D01*
X37922070Y-93990550D01*
X37922000Y-93993526D01*
X37922000Y-94727885D01*
X37439600Y-94727885D01*
X37439600Y-92698715D01*
X37462166Y-92626761D01*
X37723352Y-92251306D01*
X37737685Y-92234172D01*
X38444153Y-91527704D01*
X38506465Y-91493679D01*
X38533248Y-91490800D01*
X47345600Y-91490800D01*
X47345600Y-91077108D01*
X47365602Y-91008987D01*
X47419258Y-90962494D01*
X47489532Y-90952390D01*
X47554112Y-90981884D01*
X47578744Y-91010805D01*
X47622063Y-91080807D01*
X47631099Y-91092208D01*
X47745829Y-91206739D01*
X47757240Y-91215751D01*
X47895243Y-91300816D01*
X47908424Y-91306963D01*
X48062710Y-91358138D01*
X48076086Y-91361005D01*
X48170438Y-91370672D01*
X48176854Y-91371000D01*
X48664385Y-91371000D01*
X48679624Y-91366525D01*
X48680829Y-91365135D01*
X48682500Y-91357452D01*
X48682500Y-91352884D01*
X49190500Y-91352884D01*
X49194975Y-91368123D01*
X49196365Y-91369328D01*
X49204048Y-91370999D01*
X49696095Y-91370999D01*
X49702614Y-91370662D01*
X49798206Y-91360743D01*
X49811600Y-91357851D01*
X49965784Y-91306412D01*
X49978962Y-91300239D01*
X50116807Y-91214937D01*
X50128208Y-91205901D01*
X50242739Y-91091171D01*
X50251751Y-91079760D01*
X50336816Y-90941757D01*
X50342963Y-90928576D01*
X50394138Y-90774290D01*
X50397005Y-90760914D01*
X50406672Y-90666562D01*
X50407000Y-90660146D01*
X50407000Y-88410115D01*
X50402525Y-88394876D01*
X50401135Y-88393671D01*
X50393452Y-88392000D01*
X49208615Y-88392000D01*
X49193376Y-88396475D01*
X49192171Y-88397865D01*
X49190500Y-88405548D01*
X49190500Y-91352884D01*
X48682500Y-91352884D01*
X48682500Y-88010000D01*
X48702502Y-87941879D01*
X48756158Y-87895386D01*
X48808500Y-87884000D01*
X50388884Y-87884000D01*
X50404123Y-87879525D01*
X50405328Y-87878135D01*
X50406999Y-87870452D01*
X50406999Y-85615905D01*
X50406662Y-85609388D01*
X50398819Y-85533804D01*
X50411684Y-85463983D01*
X50460254Y-85412201D01*
X50524146Y-85394800D01*
X51408210Y-85394800D01*
X51476331Y-85414802D01*
G37*
%TD.AperFunction*%
%TD*%
%TA.AperFunction,Conductor*%
%TO.N,V_IN1*%
G36*
X37501760Y-85950150D02*
G01*
X37548435Y-86003647D01*
X37560000Y-86056379D01*
X37560000Y-87865885D01*
X37564475Y-87881124D01*
X37565865Y-87882329D01*
X37573548Y-87884000D01*
X39158500Y-87884000D01*
X39226621Y-87904002D01*
X39273114Y-87957658D01*
X39284500Y-88010000D01*
X39284500Y-88266000D01*
X39264498Y-88334121D01*
X39210842Y-88380614D01*
X39158500Y-88392000D01*
X37578116Y-88392000D01*
X37562877Y-88396475D01*
X37561672Y-88397865D01*
X37560001Y-88405548D01*
X37560001Y-90660095D01*
X37560338Y-90666614D01*
X37570257Y-90762206D01*
X37573149Y-90775600D01*
X37624588Y-90929784D01*
X37630761Y-90942962D01*
X37716063Y-91080807D01*
X37725103Y-91092213D01*
X37802180Y-91169157D01*
X37836259Y-91231439D01*
X37831256Y-91302259D01*
X37814488Y-91333222D01*
X37134800Y-92252800D01*
X37134800Y-93729897D01*
X37114798Y-93798018D01*
X37061142Y-93844511D01*
X36990868Y-93854615D01*
X36926288Y-93825121D01*
X36886841Y-93761552D01*
X36854199Y-93635789D01*
X36850667Y-93625761D01*
X36756915Y-93417637D01*
X36751735Y-93408331D01*
X36624253Y-93218976D01*
X36617594Y-93210693D01*
X36460029Y-93045522D01*
X36452058Y-93038470D01*
X36268918Y-92902210D01*
X36259881Y-92896606D01*
X36056394Y-92793149D01*
X36046541Y-92789148D01*
X35828539Y-92721456D01*
X35818152Y-92719172D01*
X35791957Y-92715700D01*
X35777793Y-92717896D01*
X35774000Y-92731081D01*
X35774000Y-97267282D01*
X35777973Y-97280813D01*
X35788580Y-97282338D01*
X35920840Y-97254587D01*
X35931037Y-97251527D01*
X36143340Y-97167685D01*
X36152876Y-97162951D01*
X36348025Y-97044532D01*
X36356618Y-97038266D01*
X36529027Y-96888658D01*
X36536447Y-96881028D01*
X36681180Y-96704512D01*
X36687206Y-96695745D01*
X36800129Y-96497367D01*
X36804595Y-96487703D01*
X36882481Y-96273132D01*
X36886640Y-96257716D01*
X36888374Y-96258184D01*
X36916617Y-96201821D01*
X36977690Y-96165619D01*
X37048641Y-96168183D01*
X37106942Y-96208698D01*
X37134084Y-96274302D01*
X37134800Y-96287718D01*
X37134800Y-100913100D01*
X37114798Y-100981221D01*
X37061142Y-101027714D01*
X37006718Y-101039083D01*
X31111918Y-100941648D01*
X31044137Y-100920523D01*
X30998537Y-100866106D01*
X30988000Y-100815665D01*
X30988000Y-95957340D01*
X34112000Y-95957340D01*
X34112225Y-95962649D01*
X34126660Y-96132771D01*
X34128452Y-96143259D01*
X34185801Y-96364211D01*
X34189333Y-96374239D01*
X34283085Y-96582363D01*
X34288265Y-96591669D01*
X34415747Y-96781024D01*
X34422406Y-96789307D01*
X34579971Y-96954478D01*
X34587942Y-96961530D01*
X34771082Y-97097790D01*
X34780119Y-97103394D01*
X34983606Y-97206851D01*
X34993459Y-97210852D01*
X35211461Y-97278544D01*
X35221848Y-97280828D01*
X35248043Y-97284300D01*
X35262207Y-97282104D01*
X35266000Y-97268919D01*
X35266000Y-95272115D01*
X35261525Y-95256876D01*
X35260135Y-95255671D01*
X35252452Y-95254000D01*
X34130115Y-95254000D01*
X34114876Y-95258475D01*
X34113671Y-95259865D01*
X34112000Y-95267548D01*
X34112000Y-95957340D01*
X30988000Y-95957340D01*
X30988000Y-94727885D01*
X34112000Y-94727885D01*
X34116475Y-94743124D01*
X34117865Y-94744329D01*
X34125548Y-94746000D01*
X35247885Y-94746000D01*
X35263124Y-94741525D01*
X35264329Y-94740135D01*
X35266000Y-94732452D01*
X35266000Y-92732718D01*
X35262027Y-92719187D01*
X35251420Y-92717662D01*
X35119160Y-92745413D01*
X35108963Y-92748473D01*
X34896660Y-92832315D01*
X34887124Y-92837049D01*
X34691975Y-92955468D01*
X34683382Y-92961734D01*
X34510973Y-93111342D01*
X34503553Y-93118972D01*
X34358820Y-93295488D01*
X34352794Y-93304255D01*
X34239871Y-93502633D01*
X34235405Y-93512297D01*
X34157519Y-93726868D01*
X34154749Y-93737135D01*
X34113919Y-93962932D01*
X34112984Y-93971162D01*
X34112070Y-93990550D01*
X34112000Y-93993526D01*
X34112000Y-94727885D01*
X30988000Y-94727885D01*
X30988000Y-87274400D01*
X35132118Y-87274400D01*
X35152756Y-87431162D01*
X35213264Y-87577241D01*
X35309518Y-87702682D01*
X35434959Y-87798936D01*
X35581038Y-87859444D01*
X35589226Y-87860522D01*
X35659419Y-87869763D01*
X35737800Y-87880082D01*
X35745988Y-87879004D01*
X35886374Y-87860522D01*
X35894562Y-87859444D01*
X36040641Y-87798936D01*
X36166082Y-87702682D01*
X36262336Y-87577241D01*
X36322844Y-87431162D01*
X36343482Y-87274400D01*
X36322844Y-87117638D01*
X36262336Y-86971559D01*
X36166082Y-86846118D01*
X36040641Y-86749864D01*
X35894562Y-86689356D01*
X35737800Y-86668718D01*
X35581038Y-86689356D01*
X35434959Y-86749864D01*
X35309518Y-86846118D01*
X35213264Y-86971559D01*
X35152756Y-87117638D01*
X35132118Y-87274400D01*
X30988000Y-87274400D01*
X30988000Y-86536800D01*
X31008002Y-86468679D01*
X31061658Y-86422186D01*
X31114000Y-86410800D01*
X36068000Y-86410800D01*
X36183151Y-86303874D01*
X36546181Y-85966776D01*
X36609710Y-85935081D01*
X36631489Y-85933109D01*
X37075264Y-85931599D01*
X37433572Y-85930380D01*
X37501760Y-85950150D01*
G37*
%TD.AperFunction*%
%TD*%
M02*
