%TF.GenerationSoftware,KiCad,Pcbnew,(6.0.4)*%
%TF.CreationDate,2022-12-17T19:50:05+01:00*%
%TF.ProjectId,bsc,6273632e-6b69-4636-9164-5f7063625858,rev?*%
%TF.SameCoordinates,Original*%
%TF.FileFunction,Soldermask,Top*%
%TF.FilePolarity,Negative*%
%FSLAX46Y46*%
G04 Gerber Fmt 4.6, Leading zero omitted, Abs format (unit mm)*
G04 Created by KiCad (PCBNEW (6.0.4)) date 2022-12-17 19:50:05*
%MOMM*%
%LPD*%
G01*
G04 APERTURE LIST*
G04 Aperture macros list*
%AMRoundRect*
0 Rectangle with rounded corners*
0 $1 Rounding radius*
0 $2 $3 $4 $5 $6 $7 $8 $9 X,Y pos of 4 corners*
0 Add a 4 corners polygon primitive as box body*
4,1,4,$2,$3,$4,$5,$6,$7,$8,$9,$2,$3,0*
0 Add four circle primitives for the rounded corners*
1,1,$1+$1,$2,$3*
1,1,$1+$1,$4,$5*
1,1,$1+$1,$6,$7*
1,1,$1+$1,$8,$9*
0 Add four rect primitives between the rounded corners*
20,1,$1+$1,$2,$3,$4,$5,0*
20,1,$1+$1,$4,$5,$6,$7,0*
20,1,$1+$1,$6,$7,$8,$9,0*
20,1,$1+$1,$8,$9,$2,$3,0*%
%AMFreePoly0*
4,1,22,0.500000,-0.750000,0.000000,-0.750000,0.000000,-0.745033,-0.079941,-0.743568,-0.215256,-0.701293,-0.333266,-0.622738,-0.424486,-0.514219,-0.481581,-0.384460,-0.499164,-0.250000,-0.500000,-0.250000,-0.500000,0.250000,-0.499164,0.250000,-0.499963,0.256109,-0.478152,0.396186,-0.417904,0.524511,-0.324060,0.630769,-0.204165,0.706417,-0.067858,0.745374,0.000000,0.744959,0.000000,0.750000,
0.500000,0.750000,0.500000,-0.750000,0.500000,-0.750000,$1*%
%AMFreePoly1*
4,1,20,0.000000,0.744959,0.073905,0.744508,0.209726,0.703889,0.328688,0.626782,0.421226,0.519385,0.479903,0.390333,0.500000,0.250000,0.500000,-0.250000,0.499851,-0.262216,0.476331,-0.402017,0.414519,-0.529596,0.319384,-0.634700,0.198574,-0.708877,0.061801,-0.746166,0.000000,-0.745033,0.000000,-0.750000,-0.500000,-0.750000,-0.500000,0.750000,0.000000,0.750000,0.000000,0.744959,
0.000000,0.744959,$1*%
G04 Aperture macros list end*
%ADD10R,1.700000X1.700000*%
%ADD11O,1.700000X1.700000*%
%ADD12RoundRect,0.250000X0.650000X-0.325000X0.650000X0.325000X-0.650000X0.325000X-0.650000X-0.325000X0*%
%ADD13C,0.500000*%
%ADD14RoundRect,0.225000X-0.250000X0.225000X-0.250000X-0.225000X0.250000X-0.225000X0.250000X0.225000X0*%
%ADD15RoundRect,0.250000X-0.475000X0.250000X-0.475000X-0.250000X0.475000X-0.250000X0.475000X0.250000X0*%
%ADD16RoundRect,0.200000X0.275000X-0.200000X0.275000X0.200000X-0.275000X0.200000X-0.275000X-0.200000X0*%
%ADD17R,1.300000X1.700000*%
%ADD18C,3.200000*%
%ADD19RoundRect,0.150000X-0.825000X-0.150000X0.825000X-0.150000X0.825000X0.150000X-0.825000X0.150000X0*%
%ADD20RoundRect,0.150000X0.150000X-0.587500X0.150000X0.587500X-0.150000X0.587500X-0.150000X-0.587500X0*%
%ADD21RoundRect,0.225000X-0.225000X-0.250000X0.225000X-0.250000X0.225000X0.250000X-0.225000X0.250000X0*%
%ADD22RoundRect,0.200000X0.200000X0.275000X-0.200000X0.275000X-0.200000X-0.275000X0.200000X-0.275000X0*%
%ADD23RoundRect,0.200000X-0.275000X0.200000X-0.275000X-0.200000X0.275000X-0.200000X0.275000X0.200000X0*%
%ADD24R,1.000000X1.000000*%
%ADD25O,2.300000X1.600000*%
%ADD26RoundRect,0.150000X0.825000X0.150000X-0.825000X0.150000X-0.825000X-0.150000X0.825000X-0.150000X0*%
%ADD27RoundRect,0.150000X0.587500X0.150000X-0.587500X0.150000X-0.587500X-0.150000X0.587500X-0.150000X0*%
%ADD28R,2.250000X1.750000*%
%ADD29O,2.250000X1.750000*%
%ADD30RoundRect,0.225000X0.225000X0.250000X-0.225000X0.250000X-0.225000X-0.250000X0.225000X-0.250000X0*%
%ADD31RoundRect,0.250000X-0.325000X-0.650000X0.325000X-0.650000X0.325000X0.650000X-0.325000X0.650000X0*%
%ADD32FreePoly0,0.000000*%
%ADD33FreePoly1,0.000000*%
%ADD34RoundRect,0.200000X-0.200000X-0.275000X0.200000X-0.275000X0.200000X0.275000X-0.200000X0.275000X0*%
%ADD35RoundRect,0.250000X-0.650000X0.325000X-0.650000X-0.325000X0.650000X-0.325000X0.650000X0.325000X0*%
%ADD36RoundRect,0.250000X-0.650000X-1.550000X0.650000X-1.550000X0.650000X1.550000X-0.650000X1.550000X0*%
%ADD37O,1.800000X3.600000*%
%ADD38RoundRect,0.218750X-0.256250X0.218750X-0.256250X-0.218750X0.256250X-0.218750X0.256250X0.218750X0*%
%ADD39R,1.500000X2.300000*%
%ADD40O,1.500000X2.300000*%
%ADD41R,0.400000X0.650000*%
%ADD42RoundRect,0.150000X0.150000X-0.650000X0.150000X0.650000X-0.150000X0.650000X-0.150000X-0.650000X0*%
%ADD43RoundRect,0.250000X0.650000X1.550000X-0.650000X1.550000X-0.650000X-1.550000X0.650000X-1.550000X0*%
%ADD44RoundRect,0.225000X0.250000X-0.225000X0.250000X0.225000X-0.250000X0.225000X-0.250000X-0.225000X0*%
%ADD45RoundRect,0.218750X-0.218750X-0.256250X0.218750X-0.256250X0.218750X0.256250X-0.218750X0.256250X0*%
%ADD46RoundRect,0.250000X-0.250000X-0.475000X0.250000X-0.475000X0.250000X0.475000X-0.250000X0.475000X0*%
%ADD47RoundRect,0.218750X0.256250X-0.218750X0.256250X0.218750X-0.256250X0.218750X-0.256250X-0.218750X0*%
%ADD48R,0.900000X2.000000*%
%ADD49R,2.000000X0.900000*%
%ADD50R,5.000000X5.000000*%
%ADD51FreePoly0,90.000000*%
%ADD52FreePoly1,90.000000*%
%ADD53RoundRect,0.150000X-0.150000X0.587500X-0.150000X-0.587500X0.150000X-0.587500X0.150000X0.587500X0*%
%ADD54RoundRect,0.150000X-0.150000X0.650000X-0.150000X-0.650000X0.150000X-0.650000X0.150000X0.650000X0*%
%ADD55RoundRect,0.250000X-1.500000X-0.550000X1.500000X-0.550000X1.500000X0.550000X-1.500000X0.550000X0*%
%ADD56RoundRect,0.218750X0.218750X0.256250X-0.218750X0.256250X-0.218750X-0.256250X0.218750X-0.256250X0*%
%ADD57RoundRect,0.250000X-0.712500X-2.475000X0.712500X-2.475000X0.712500X2.475000X-0.712500X2.475000X0*%
%ADD58RoundRect,0.250000X0.325000X0.650000X-0.325000X0.650000X-0.325000X-0.650000X0.325000X-0.650000X0*%
%ADD59RoundRect,0.250000X0.475000X-0.250000X0.475000X0.250000X-0.475000X0.250000X-0.475000X-0.250000X0*%
G04 APERTURE END LIST*
D10*
%TO.C,J14*%
X135432800Y-81584800D03*
D11*
X135432800Y-79044800D03*
X135432800Y-76504800D03*
%TD*%
D12*
%TO.C,C50*%
X56515000Y-74119000D03*
X56515000Y-71169000D03*
%TD*%
D13*
%TO.C,mouse-bite-3mm-slot*%
X142500000Y-27000000D03*
X141738000Y-30000000D03*
X140988000Y-27000000D03*
X144024000Y-27000000D03*
X142500000Y-30000000D03*
X144024000Y-30000000D03*
X143250000Y-30000000D03*
X140988000Y-30000000D03*
X143250000Y-27000000D03*
X141750000Y-27000000D03*
%TD*%
D14*
%TO.C,C11*%
X69469000Y-43294000D03*
X69469000Y-44844000D03*
%TD*%
D15*
%TO.C,C54*%
X61214000Y-43246000D03*
X61214000Y-45146000D03*
%TD*%
D16*
%TO.C,R40*%
X128115000Y-43751000D03*
X128115000Y-42101000D03*
%TD*%
D17*
%TO.C,D15*%
X127861000Y-49911000D03*
X124361000Y-49911000D03*
%TD*%
D18*
%TO.C,H1*%
X35000000Y-21000000D03*
%TD*%
D10*
%TO.C,J9*%
X74422000Y-89154000D03*
D11*
X76962000Y-89154000D03*
%TD*%
D19*
%TO.C,U11*%
X125287000Y-59309000D03*
X125287000Y-60579000D03*
X125287000Y-61849000D03*
X125287000Y-63119000D03*
X125287000Y-64389000D03*
X125287000Y-65659000D03*
X125287000Y-66929000D03*
X130237000Y-66929000D03*
X130237000Y-65659000D03*
X130237000Y-64389000D03*
X130237000Y-63119000D03*
X130237000Y-61849000D03*
X130237000Y-60579000D03*
X130237000Y-59309000D03*
%TD*%
D20*
%TO.C,Q8*%
X111826000Y-43990500D03*
X113726000Y-43990500D03*
X112776000Y-42115500D03*
%TD*%
D14*
%TO.C,C25*%
X118872000Y-59156000D03*
X118872000Y-60706000D03*
%TD*%
D21*
%TO.C,C60*%
X63995000Y-88900000D03*
X65545000Y-88900000D03*
%TD*%
D22*
%TO.C,R79*%
X61658000Y-85725000D03*
X60008000Y-85725000D03*
%TD*%
%TO.C,R67*%
X65976000Y-90551000D03*
X64326000Y-90551000D03*
%TD*%
D14*
%TO.C,C21*%
X138021000Y-45440000D03*
X138021000Y-46990000D03*
%TD*%
D18*
%TO.C,H4*%
X35000000Y-111000000D03*
%TD*%
D17*
%TO.C,D14*%
X125956000Y-46863000D03*
X122456000Y-46863000D03*
%TD*%
D14*
%TO.C,C32*%
X82169000Y-43294000D03*
X82169000Y-44844000D03*
%TD*%
D23*
%TO.C,R30*%
X122273000Y-49467000D03*
X122273000Y-51117000D03*
%TD*%
D16*
%TO.C,R6*%
X44170600Y-79260200D03*
X44170600Y-77610200D03*
%TD*%
D24*
%TO.C,TP3*%
X105232200Y-60858400D03*
%TD*%
D21*
%TO.C,C51*%
X54470000Y-75946000D03*
X56020000Y-75946000D03*
%TD*%
D19*
%TO.C,U10*%
X93664000Y-60960000D03*
X93664000Y-62230000D03*
X93664000Y-63500000D03*
X93664000Y-64770000D03*
X93664000Y-66040000D03*
X93664000Y-67310000D03*
X93664000Y-68580000D03*
X93664000Y-69850000D03*
X98614000Y-69850000D03*
X98614000Y-68580000D03*
X98614000Y-67310000D03*
X98614000Y-66040000D03*
X98614000Y-64770000D03*
X98614000Y-63500000D03*
X98614000Y-62230000D03*
X98614000Y-60960000D03*
%TD*%
D25*
%TO.C,K4*%
X120142000Y-85852000D03*
X120142000Y-75692000D03*
X120142000Y-73152000D03*
X112522000Y-73152000D03*
X112522000Y-75692000D03*
X112522000Y-85852000D03*
%TD*%
D26*
%TO.C,U7*%
X56958000Y-45847000D03*
X56958000Y-44577000D03*
X56958000Y-43307000D03*
X56958000Y-42037000D03*
X52008000Y-42037000D03*
X52008000Y-43307000D03*
X52008000Y-44577000D03*
X52008000Y-45847000D03*
%TD*%
D23*
%TO.C,R25*%
X113157000Y-53023000D03*
X113157000Y-54673000D03*
%TD*%
D22*
%TO.C,R12*%
X60896000Y-46863000D03*
X59246000Y-46863000D03*
%TD*%
D27*
%TO.C,Q2*%
X145031700Y-70774600D03*
X145031700Y-68874600D03*
X143156700Y-69824600D03*
%TD*%
%TO.C,D21*%
X127401500Y-53782000D03*
X127401500Y-51882000D03*
X125526500Y-52832000D03*
%TD*%
D16*
%TO.C,R62*%
X71628000Y-54800000D03*
X71628000Y-53150000D03*
%TD*%
D28*
%TO.C,PS2*%
X111570500Y-65583500D03*
D29*
X111570500Y-63043500D03*
X111570500Y-60503500D03*
X111570500Y-57963500D03*
%TD*%
D30*
%TO.C,C2*%
X41034000Y-72644000D03*
X39484000Y-72644000D03*
%TD*%
D14*
%TO.C,C19*%
X118999000Y-45834000D03*
X118999000Y-47384000D03*
%TD*%
D20*
%TO.C,Q10*%
X130213000Y-43736500D03*
X132113000Y-43736500D03*
X131163000Y-41861500D03*
%TD*%
D27*
%TO.C,Q7*%
X89304100Y-70698400D03*
X89304100Y-68798400D03*
X87429100Y-69748400D03*
%TD*%
D13*
%TO.C,mouse-bite-3mm-slot*%
X142500000Y-105000000D03*
X141750000Y-102000000D03*
X144024000Y-102000000D03*
X143250000Y-105000000D03*
X140988000Y-105000000D03*
X140988000Y-102000000D03*
X144024000Y-105000000D03*
X142500000Y-102000000D03*
X141738000Y-105000000D03*
X143250000Y-102000000D03*
%TD*%
D31*
%TO.C,C6*%
X63422000Y-74485500D03*
X66372000Y-74485500D03*
%TD*%
D10*
%TO.C,J5*%
X99822000Y-89154000D03*
D11*
X97282000Y-89154000D03*
%TD*%
D32*
%TO.C,JP13*%
X66406000Y-57150000D03*
D33*
X67706000Y-57150000D03*
%TD*%
D34*
%TO.C,R47*%
X134811000Y-65913000D03*
X136461000Y-65913000D03*
%TD*%
D10*
%TO.C,J10*%
X140512800Y-89154000D03*
D11*
X137972800Y-89154000D03*
%TD*%
D13*
%TO.C,mouse-bite-3mm-slot*%
X38250000Y-105000000D03*
X35988000Y-102000000D03*
X37500000Y-105000000D03*
X36738000Y-105000000D03*
X38250000Y-102000000D03*
X35988000Y-105000000D03*
X39024000Y-105000000D03*
X37500000Y-102000000D03*
X39024000Y-102000000D03*
X36750000Y-102000000D03*
%TD*%
D21*
%TO.C,C18*%
X104101600Y-69088000D03*
X105651600Y-69088000D03*
%TD*%
D23*
%TO.C,R60*%
X73152000Y-57595000D03*
X73152000Y-59245000D03*
%TD*%
D34*
%TO.C,R49*%
X123381000Y-57404000D03*
X125031000Y-57404000D03*
%TD*%
D16*
%TO.C,R70*%
X59436000Y-90614000D03*
X59436000Y-88964000D03*
%TD*%
D10*
%TO.C,J16*%
X108305600Y-81584800D03*
D11*
X108305600Y-79044800D03*
X108305600Y-76504800D03*
%TD*%
D34*
%TO.C,R33*%
X115507000Y-44069000D03*
X117157000Y-44069000D03*
%TD*%
D10*
%TO.C,J13*%
X112517000Y-89154000D03*
D11*
X115057000Y-89154000D03*
%TD*%
D35*
%TO.C,C35*%
X109601000Y-42897000D03*
X109601000Y-45847000D03*
%TD*%
D18*
%TO.C,H3*%
X145000000Y-111000000D03*
%TD*%
D17*
%TO.C,D18*%
X145260000Y-46863000D03*
X141760000Y-46863000D03*
%TD*%
D28*
%TO.C,PS5*%
X92137500Y-50800000D03*
D29*
X92137500Y-48260000D03*
X92137500Y-45720000D03*
X92137500Y-43180000D03*
%TD*%
D14*
%TO.C,C22*%
X147447000Y-45580000D03*
X147447000Y-47130000D03*
%TD*%
D17*
%TO.C,D12*%
X116812000Y-46990000D03*
X113312000Y-46990000D03*
%TD*%
D30*
%TO.C,C17*%
X98615800Y-59182000D03*
X97065800Y-59182000D03*
%TD*%
D16*
%TO.C,R8*%
X49483400Y-79502000D03*
X49483400Y-77852000D03*
%TD*%
D21*
%TO.C,C9*%
X45580000Y-45212000D03*
X47130000Y-45212000D03*
%TD*%
D36*
%TO.C,X2*%
X75055000Y-37000000D03*
D37*
X78865000Y-37000000D03*
X82675000Y-37000000D03*
X86485000Y-37000000D03*
X90295000Y-37000000D03*
X94105000Y-37000000D03*
X97915000Y-37000000D03*
X101725000Y-37000000D03*
X105535000Y-37000000D03*
%TD*%
D38*
%TO.C,D25*%
X139420600Y-69062500D03*
X139420600Y-70637500D03*
%TD*%
D35*
%TO.C,C34*%
X84455000Y-42897000D03*
X84455000Y-45847000D03*
%TD*%
D23*
%TO.C,R77*%
X71374000Y-87059000D03*
X71374000Y-88709000D03*
%TD*%
D21*
%TO.C,C15*%
X41871600Y-43332400D03*
X43421600Y-43332400D03*
%TD*%
D23*
%TO.C,R31*%
X131798000Y-49086000D03*
X131798000Y-50736000D03*
%TD*%
D16*
%TO.C,R80*%
X81457800Y-70725800D03*
X81457800Y-69075800D03*
%TD*%
D39*
%TO.C,U1*%
X69688500Y-70032500D03*
D40*
X67148500Y-70032500D03*
X64608500Y-70032500D03*
%TD*%
D16*
%TO.C,R56*%
X120777000Y-57975000D03*
X120777000Y-56325000D03*
%TD*%
D25*
%TO.C,K3*%
X131318000Y-85852000D03*
X131318000Y-75692000D03*
X131318000Y-73152000D03*
X123698000Y-73152000D03*
X123698000Y-75692000D03*
X123698000Y-85852000D03*
%TD*%
D36*
%TO.C,X1*%
X35560000Y-36957000D03*
D37*
X39370000Y-36957000D03*
X43180000Y-36957000D03*
X46990000Y-36957000D03*
X50800000Y-36957000D03*
X54610000Y-36957000D03*
X58420000Y-36957000D03*
X62230000Y-36957000D03*
X66040000Y-36957000D03*
%TD*%
D16*
%TO.C,R54*%
X122148600Y-70827400D03*
X122148600Y-69177400D03*
%TD*%
D30*
%TO.C,C53*%
X59322000Y-75946000D03*
X57772000Y-75946000D03*
%TD*%
D16*
%TO.C,R38*%
X118999000Y-43687000D03*
X118999000Y-42037000D03*
%TD*%
%TO.C,R71*%
X137693400Y-70675000D03*
X137693400Y-69025000D03*
%TD*%
D41*
%TO.C,Q13*%
X46420400Y-79500000D03*
X47070400Y-79500000D03*
X47720400Y-79500000D03*
X47720400Y-77600000D03*
X47070400Y-77600000D03*
X46420400Y-77600000D03*
%TD*%
D14*
%TO.C,C49*%
X44831000Y-68567000D03*
X44831000Y-70117000D03*
%TD*%
%TO.C,C39*%
X94919800Y-43294000D03*
X94919800Y-44844000D03*
%TD*%
D16*
%TO.C,R3*%
X40132000Y-46849800D03*
X40132000Y-45199800D03*
%TD*%
%TO.C,R50*%
X120777000Y-61277000D03*
X120777000Y-59627000D03*
%TD*%
D22*
%TO.C,R5*%
X41719000Y-75959200D03*
X40069000Y-75959200D03*
%TD*%
D13*
%TO.C,mouse-bite-3mm-slot*%
X37500000Y-30000000D03*
X35988000Y-27000000D03*
X39024000Y-30000000D03*
X36750000Y-27000000D03*
X38250000Y-30000000D03*
X36738000Y-30000000D03*
X37500000Y-27000000D03*
X39024000Y-27000000D03*
X38250000Y-27000000D03*
X35988000Y-30000000D03*
%TD*%
D42*
%TO.C,IC3*%
X65786000Y-62020000D03*
X67056000Y-62020000D03*
X68326000Y-62020000D03*
X69596000Y-62020000D03*
X69596000Y-54820000D03*
X68326000Y-54820000D03*
X67056000Y-54820000D03*
X65786000Y-54820000D03*
%TD*%
D25*
%TO.C,K7*%
X83058000Y-85852000D03*
X83058000Y-75692000D03*
X83058000Y-73152000D03*
X75438000Y-73152000D03*
X75438000Y-75692000D03*
X75438000Y-85852000D03*
%TD*%
D13*
%TO.C,mouse-bite-3mm-slot*%
X89250000Y-102000000D03*
X90000000Y-105000000D03*
X90000000Y-102000000D03*
X88488000Y-105000000D03*
X91524000Y-102000000D03*
X89238000Y-105000000D03*
X90750000Y-105000000D03*
X91524000Y-105000000D03*
X90750000Y-102000000D03*
X88488000Y-102000000D03*
%TD*%
D43*
%TO.C,X5*%
X105500000Y-95000000D03*
D37*
X101690000Y-95000000D03*
X97880000Y-95000000D03*
X94070000Y-95000000D03*
X90260000Y-95000000D03*
X86450000Y-95000000D03*
X82640000Y-95000000D03*
X78830000Y-95000000D03*
X75020000Y-95000000D03*
%TD*%
D23*
%TO.C,R10*%
X101803200Y-58471800D03*
X101803200Y-60121800D03*
%TD*%
D34*
%TO.C,R35*%
X134021000Y-43942000D03*
X135671000Y-43942000D03*
%TD*%
D13*
%TO.C,mouse-bite-3mm-slot*%
X91524000Y-30000000D03*
X90000000Y-30000000D03*
X90000000Y-27000000D03*
X90750000Y-27000000D03*
X88488000Y-27000000D03*
X91524000Y-27000000D03*
X89238000Y-30000000D03*
X90750000Y-30000000D03*
X89250000Y-27000000D03*
X88488000Y-30000000D03*
%TD*%
D10*
%TO.C,J11*%
X33065800Y-79796400D03*
D11*
X35605800Y-79796400D03*
X33065800Y-82336400D03*
X35605800Y-82336400D03*
X33065800Y-84876400D03*
X35605800Y-84876400D03*
%TD*%
D42*
%TO.C,IC4*%
X86741000Y-62020000D03*
X88011000Y-62020000D03*
X89281000Y-62020000D03*
X90551000Y-62020000D03*
X90551000Y-54820000D03*
X89281000Y-54820000D03*
X88011000Y-54820000D03*
X86741000Y-54820000D03*
%TD*%
D44*
%TO.C,C24*%
X118872000Y-63881000D03*
X118872000Y-62331000D03*
%TD*%
D14*
%TO.C,C10*%
X69596000Y-48882000D03*
X69596000Y-50432000D03*
%TD*%
%TO.C,C16*%
X59309000Y-43294000D03*
X59309000Y-44844000D03*
%TD*%
D18*
%TO.C,H2*%
X145000000Y-21000000D03*
%TD*%
D22*
%TO.C,R11*%
X60833000Y-41529000D03*
X59183000Y-41529000D03*
%TD*%
D16*
%TO.C,R32*%
X141605000Y-50863000D03*
X141605000Y-49213000D03*
%TD*%
D14*
%TO.C,C30*%
X82169000Y-48628000D03*
X82169000Y-50178000D03*
%TD*%
D34*
%TO.C,R61*%
X95060000Y-52705000D03*
X96710000Y-52705000D03*
%TD*%
D22*
%TO.C,R26*%
X123380000Y-52959000D03*
X121730000Y-52959000D03*
%TD*%
%TO.C,R72*%
X105701600Y-70993000D03*
X104051600Y-70993000D03*
%TD*%
D20*
%TO.C,Q9*%
X121097000Y-43990500D03*
X122997000Y-43990500D03*
X122047000Y-42115500D03*
%TD*%
D27*
%TO.C,Q3*%
X131597400Y-70800000D03*
X131597400Y-68900000D03*
X129722400Y-69850000D03*
%TD*%
D14*
%TO.C,C14*%
X118872000Y-55981000D03*
X118872000Y-57531000D03*
%TD*%
D34*
%TO.C,R85*%
X71121000Y-72339200D03*
X72771000Y-72339200D03*
%TD*%
D16*
%TO.C,R21*%
X79679800Y-70725800D03*
X79679800Y-69075800D03*
%TD*%
D23*
%TO.C,R20*%
X91211400Y-68923400D03*
X91211400Y-70573400D03*
%TD*%
D36*
%TO.C,X3*%
X114554000Y-37000000D03*
D37*
X118364000Y-37000000D03*
X122174000Y-37000000D03*
X125984000Y-37000000D03*
X129794000Y-37000000D03*
X133604000Y-37000000D03*
X137414000Y-37000000D03*
X141224000Y-37000000D03*
X145034000Y-37000000D03*
%TD*%
D25*
%TO.C,K2*%
X146558000Y-85852000D03*
X146558000Y-75692000D03*
X146558000Y-73152000D03*
X138938000Y-73152000D03*
X138938000Y-75692000D03*
X138938000Y-85852000D03*
%TD*%
D22*
%TO.C,R46*%
X147256000Y-65913000D03*
X145606000Y-65913000D03*
%TD*%
D34*
%TO.C,R1*%
X39434000Y-74295000D03*
X41084000Y-74295000D03*
%TD*%
D25*
%TO.C,K6*%
X93980000Y-85852000D03*
X93980000Y-75692000D03*
X93980000Y-73152000D03*
X86360000Y-73152000D03*
X86360000Y-75692000D03*
X86360000Y-85852000D03*
%TD*%
D45*
%TO.C,D1*%
X102233500Y-55626000D03*
X103808500Y-55626000D03*
%TD*%
D43*
%TO.C,X4*%
X66000000Y-95000000D03*
D37*
X62190000Y-95000000D03*
X58380000Y-95000000D03*
X54570000Y-95000000D03*
X50760000Y-95000000D03*
X46950000Y-95000000D03*
X43140000Y-95000000D03*
X39330000Y-95000000D03*
X35520000Y-95000000D03*
%TD*%
D14*
%TO.C,C20*%
X128115000Y-45707000D03*
X128115000Y-47257000D03*
%TD*%
D12*
%TO.C,C52*%
X59690000Y-74119000D03*
X59690000Y-71169000D03*
%TD*%
D16*
%TO.C,R57*%
X63779400Y-58864000D03*
X63779400Y-57214000D03*
%TD*%
%TO.C,R69*%
X57785000Y-90614000D03*
X57785000Y-88964000D03*
%TD*%
D20*
%TO.C,Q11*%
X140147000Y-43863500D03*
X142047000Y-43863500D03*
X141097000Y-41988500D03*
%TD*%
D17*
%TO.C,D19*%
X147292000Y-50038000D03*
X143792000Y-50038000D03*
%TD*%
D35*
%TO.C,C12*%
X71628000Y-42897000D03*
X71628000Y-45847000D03*
%TD*%
D34*
%TO.C,R73*%
X89421200Y-67157600D03*
X91071200Y-67157600D03*
%TD*%
D32*
%TO.C,JP27*%
X86726000Y-57658000D03*
D33*
X88026000Y-57658000D03*
%TD*%
D22*
%TO.C,R22*%
X102806000Y-67310000D03*
X101156000Y-67310000D03*
%TD*%
D14*
%TO.C,C31*%
X107442000Y-48755000D03*
X107442000Y-50305000D03*
%TD*%
D22*
%TO.C,R78*%
X61658000Y-87376000D03*
X60008000Y-87376000D03*
%TD*%
%TO.C,R14*%
X43471600Y-41656000D03*
X41821600Y-41656000D03*
%TD*%
D30*
%TO.C,C7*%
X69609000Y-72326500D03*
X68059000Y-72326500D03*
%TD*%
D10*
%TO.C,J2*%
X60553600Y-49697400D03*
D11*
X60553600Y-52237400D03*
X60553600Y-54777400D03*
%TD*%
D43*
%TO.C,X6*%
X145000000Y-95000000D03*
D37*
X141190000Y-95000000D03*
X137380000Y-95000000D03*
X133570000Y-95000000D03*
X129760000Y-95000000D03*
X125950000Y-95000000D03*
X122140000Y-95000000D03*
X118330000Y-95000000D03*
X114520000Y-95000000D03*
%TD*%
D10*
%TO.C,J4*%
X60553600Y-58618200D03*
D11*
X60553600Y-61158200D03*
%TD*%
D23*
%TO.C,R82*%
X113106200Y-69216000D03*
X113106200Y-70866000D03*
%TD*%
%TO.C,R28*%
X141605000Y-52769000D03*
X141605000Y-54419000D03*
%TD*%
%TO.C,R27*%
X131798000Y-52261000D03*
X131798000Y-53911000D03*
%TD*%
D16*
%TO.C,R83*%
X102438200Y-71081400D03*
X102438200Y-69431400D03*
%TD*%
D35*
%TO.C,C29*%
X114300000Y-57910200D03*
X114300000Y-60860200D03*
%TD*%
D27*
%TO.C,D4*%
X47419500Y-43495000D03*
X47419500Y-41595000D03*
X45544500Y-42545000D03*
%TD*%
D23*
%TO.C,R53*%
X127611900Y-69089000D03*
X127611900Y-70739000D03*
%TD*%
D10*
%TO.C,J12*%
X122275600Y-89154000D03*
D11*
X119735600Y-89154000D03*
%TD*%
D34*
%TO.C,R4*%
X42329600Y-46863000D03*
X43979600Y-46863000D03*
%TD*%
D28*
%TO.C,PS3*%
X79437500Y-50800000D03*
D29*
X79437500Y-48260000D03*
X79437500Y-45720000D03*
X79437500Y-43180000D03*
%TD*%
D46*
%TO.C,C5*%
X39182000Y-70739000D03*
X41082000Y-70739000D03*
%TD*%
D38*
%TO.C,D29*%
X85471000Y-69113300D03*
X85471000Y-70688300D03*
%TD*%
D47*
%TO.C,D30*%
X73888600Y-70688300D03*
X73888600Y-69113300D03*
%TD*%
D27*
%TO.C,Q5*%
X118615700Y-70901600D03*
X118615700Y-69001600D03*
X116740700Y-69951600D03*
%TD*%
D48*
%TO.C,U2*%
X39745000Y-66285000D03*
X41015000Y-66285000D03*
X42285000Y-66285000D03*
X43555000Y-66285000D03*
X44825000Y-66285000D03*
X46095000Y-66285000D03*
X47365000Y-66285000D03*
X48635000Y-66285000D03*
X49905000Y-66285000D03*
X51175000Y-66285000D03*
X52445000Y-66285000D03*
X53715000Y-66285000D03*
X54985000Y-66285000D03*
X56255000Y-66285000D03*
D49*
X57255000Y-63500000D03*
X57255000Y-62230000D03*
X57255000Y-60960000D03*
X57255000Y-59690000D03*
X57255000Y-58420000D03*
X57255000Y-57150000D03*
X57255000Y-55880000D03*
X57255000Y-54610000D03*
X57255000Y-53340000D03*
X57255000Y-52070000D03*
D48*
X56255000Y-49285000D03*
X54985000Y-49285000D03*
X53715000Y-49285000D03*
X52445000Y-49285000D03*
X51175000Y-49285000D03*
X49905000Y-49285000D03*
X48635000Y-49285000D03*
X47365000Y-49285000D03*
X46095000Y-49285000D03*
X44825000Y-49285000D03*
X43555000Y-49285000D03*
X42285000Y-49285000D03*
X41015000Y-49285000D03*
X39745000Y-49285000D03*
D50*
X47245000Y-58785000D03*
%TD*%
D41*
%TO.C,Q1*%
X41107600Y-79512200D03*
X41757600Y-79512200D03*
X42407600Y-79512200D03*
X42407600Y-77612200D03*
X41757600Y-77612200D03*
X41107600Y-77612200D03*
%TD*%
D32*
%TO.C,JP20*%
X66406000Y-59690000D03*
D33*
X67706000Y-59690000D03*
%TD*%
D51*
%TO.C,JP5*%
X116789200Y-59222400D03*
D52*
X116789200Y-57922400D03*
%TD*%
D10*
%TO.C,J15*%
X131176000Y-89154000D03*
D11*
X128636000Y-89154000D03*
X126096000Y-89154000D03*
%TD*%
D24*
%TO.C,TP1*%
X105232200Y-58648600D03*
%TD*%
D16*
%TO.C,R17*%
X120523000Y-70827400D03*
X120523000Y-69177400D03*
%TD*%
D53*
%TO.C,Q12*%
X41412200Y-81752700D03*
X39512200Y-81752700D03*
X40462200Y-83627700D03*
%TD*%
D16*
%TO.C,R16*%
X133707900Y-70739000D03*
X133707900Y-69089000D03*
%TD*%
D23*
%TO.C,R29*%
X113157000Y-49403000D03*
X113157000Y-51053000D03*
%TD*%
D16*
%TO.C,R76*%
X72898000Y-85026000D03*
X72898000Y-83376000D03*
%TD*%
%TO.C,R15*%
X147142200Y-70649600D03*
X147142200Y-68999600D03*
%TD*%
D23*
%TO.C,R68*%
X61087000Y-88964000D03*
X61087000Y-90614000D03*
%TD*%
D27*
%TO.C,Q6*%
X109420900Y-71006500D03*
X109420900Y-69106500D03*
X107545900Y-70056500D03*
%TD*%
D26*
%TO.C,U20*%
X68896000Y-87249000D03*
X68896000Y-85979000D03*
X68896000Y-84709000D03*
X68896000Y-83439000D03*
X68896000Y-82169000D03*
X68896000Y-80899000D03*
X68896000Y-79629000D03*
X68896000Y-78359000D03*
X63946000Y-78359000D03*
X63946000Y-79629000D03*
X63946000Y-80899000D03*
X63946000Y-82169000D03*
X63946000Y-83439000D03*
X63946000Y-84709000D03*
X63946000Y-85979000D03*
X63946000Y-87249000D03*
%TD*%
D22*
%TO.C,R55*%
X56996600Y-68580000D03*
X55346600Y-68580000D03*
%TD*%
D25*
%TO.C,K5*%
X104902000Y-85852000D03*
X104902000Y-75692000D03*
X104902000Y-73152000D03*
X97282000Y-73152000D03*
X97282000Y-75692000D03*
X97282000Y-85852000D03*
%TD*%
D14*
%TO.C,C38*%
X94869000Y-48641000D03*
X94869000Y-50191000D03*
%TD*%
D53*
%TO.C,Q14*%
X48401400Y-81676500D03*
X46501400Y-81676500D03*
X47451400Y-83551500D03*
%TD*%
D22*
%TO.C,R2*%
X47180000Y-46863000D03*
X45530000Y-46863000D03*
%TD*%
D21*
%TO.C,C8*%
X64617000Y-72326500D03*
X66167000Y-72326500D03*
%TD*%
D27*
%TO.C,Q4*%
X77696300Y-70850800D03*
X77696300Y-68950800D03*
X75821300Y-69900800D03*
%TD*%
D14*
%TO.C,C26*%
X132461000Y-65392000D03*
X132461000Y-66942000D03*
%TD*%
D16*
%TO.C,R42*%
X138021000Y-43243000D03*
X138021000Y-41593000D03*
%TD*%
%TO.C,R74*%
X71120000Y-79057000D03*
X71120000Y-77407000D03*
%TD*%
D23*
%TO.C,R24*%
X63779400Y-54013600D03*
X63779400Y-55663600D03*
%TD*%
D17*
%TO.C,D16*%
X131925000Y-46863000D03*
X135425000Y-46863000D03*
%TD*%
D21*
%TO.C,C3*%
X39484000Y-68834000D03*
X41034000Y-68834000D03*
%TD*%
D16*
%TO.C,R18*%
X111404400Y-70866000D03*
X111404400Y-69216000D03*
%TD*%
%TO.C,R59*%
X84582000Y-59563000D03*
X84582000Y-57913000D03*
%TD*%
D47*
%TO.C,D28*%
X100761800Y-71043900D03*
X100761800Y-69468900D03*
%TD*%
D21*
%TO.C,C23*%
X123431000Y-55626000D03*
X124981000Y-55626000D03*
%TD*%
D34*
%TO.C,R34*%
X124750000Y-44069000D03*
X126400000Y-44069000D03*
%TD*%
D28*
%TO.C,PS4*%
X104837500Y-50800000D03*
D29*
X104837500Y-48260000D03*
X104837500Y-45720000D03*
X104837500Y-43180000D03*
%TD*%
D17*
%TO.C,D13*%
X118844000Y-49911000D03*
X115344000Y-49911000D03*
%TD*%
D10*
%TO.C,J8*%
X87117000Y-89154000D03*
D11*
X89657000Y-89154000D03*
%TD*%
D23*
%TO.C,R81*%
X124180600Y-69075800D03*
X124180600Y-70725800D03*
%TD*%
D54*
%TO.C,IC2*%
X146558000Y-56598000D03*
X145288000Y-56598000D03*
X144018000Y-56598000D03*
X142748000Y-56598000D03*
X142748000Y-63798000D03*
X144018000Y-63798000D03*
X145288000Y-63798000D03*
X146558000Y-63798000D03*
%TD*%
D34*
%TO.C,R36*%
X143828000Y-44069000D03*
X145478000Y-44069000D03*
%TD*%
D23*
%TO.C,R51*%
X120777000Y-63691000D03*
X120777000Y-65341000D03*
%TD*%
D14*
%TO.C,C13*%
X118872000Y-65506000D03*
X118872000Y-67056000D03*
%TD*%
D23*
%TO.C,R23*%
X101092000Y-62675000D03*
X101092000Y-64325000D03*
%TD*%
D51*
%TO.C,JP6*%
X108839000Y-64404000D03*
D52*
X108839000Y-63104000D03*
%TD*%
D55*
%TO.C,C48*%
X46857000Y-73152000D03*
X52457000Y-73152000D03*
%TD*%
D27*
%TO.C,D20*%
X118031500Y-53909000D03*
X118031500Y-52009000D03*
X116156500Y-52959000D03*
%TD*%
D34*
%TO.C,R66*%
X46419000Y-68580000D03*
X48069000Y-68580000D03*
%TD*%
D22*
%TO.C,R13*%
X43471600Y-44932600D03*
X41821600Y-44932600D03*
%TD*%
%TO.C,R7*%
X45148000Y-75946000D03*
X43498000Y-75946000D03*
%TD*%
D16*
%TO.C,R44*%
X147447000Y-43624000D03*
X147447000Y-41974000D03*
%TD*%
%TO.C,R75*%
X72898000Y-81661000D03*
X72898000Y-80011000D03*
%TD*%
D56*
%TO.C,D11*%
X97966500Y-55626000D03*
X96391500Y-55626000D03*
%TD*%
D27*
%TO.C,D23*%
X145844500Y-54163000D03*
X145844500Y-52263000D03*
X143969500Y-53213000D03*
%TD*%
D57*
%TO.C,TH1*%
X39030500Y-88138000D03*
X45805500Y-88138000D03*
%TD*%
D17*
%TO.C,D17*%
X137739000Y-49911000D03*
X134239000Y-49911000D03*
%TD*%
D22*
%TO.C,R45*%
X140779000Y-65913000D03*
X139129000Y-65913000D03*
%TD*%
D57*
%TO.C,TH2*%
X48936500Y-88138000D03*
X55711500Y-88138000D03*
%TD*%
D58*
%TO.C,C1*%
X71198000Y-74866500D03*
X68248000Y-74866500D03*
%TD*%
D16*
%TO.C,R52*%
X132461000Y-63690000D03*
X132461000Y-62040000D03*
%TD*%
D14*
%TO.C,C33*%
X107442000Y-43294000D03*
X107442000Y-44844000D03*
%TD*%
D59*
%TO.C,C4*%
X42900600Y-71155600D03*
X42900600Y-69255600D03*
%TD*%
D27*
%TO.C,D22*%
X136037500Y-53909000D03*
X136037500Y-52009000D03*
X134162500Y-52959000D03*
%TD*%
D38*
%TO.C,D27*%
X114782600Y-69240200D03*
X114782600Y-70815200D03*
%TD*%
D35*
%TO.C,C42*%
X97282000Y-42897000D03*
X97282000Y-45847000D03*
%TD*%
D16*
%TO.C,R58*%
X63830200Y-62178200D03*
X63830200Y-60528200D03*
%TD*%
D38*
%TO.C,D26*%
X125907800Y-69113300D03*
X125907800Y-70688300D03*
%TD*%
D39*
%TO.C,U19*%
X53755500Y-78303500D03*
D40*
X56295500Y-78303500D03*
X58835500Y-78303500D03*
%TD*%
D23*
%TO.C,R84*%
X83845400Y-69075800D03*
X83845400Y-70725800D03*
%TD*%
D30*
%TO.C,C27*%
X130188000Y-57531000D03*
X128638000Y-57531000D03*
%TD*%
D34*
%TO.C,R48*%
X142431000Y-65913000D03*
X144081000Y-65913000D03*
%TD*%
D23*
%TO.C,R9*%
X141046200Y-69025000D03*
X141046200Y-70675000D03*
%TD*%
D54*
%TO.C,IC1*%
X138938000Y-56598000D03*
X137668000Y-56598000D03*
X136398000Y-56598000D03*
X135128000Y-56598000D03*
X135128000Y-63798000D03*
X136398000Y-63798000D03*
X137668000Y-63798000D03*
X138938000Y-63798000D03*
%TD*%
D28*
%TO.C,PS1*%
X66864500Y-50851500D03*
D29*
X66864500Y-48311500D03*
X66864500Y-45771500D03*
X66864500Y-43231500D03*
%TD*%
M02*
