M48
; DRILL file {KiCad (6.0.4)} date Sat Dec 17 19:50:06 2022
; FORMAT={-:-/ absolute / inch / decimal}
; #@! TF.CreationDate,2022-12-17T19:50:06+01:00
; #@! TF.GenerationSoftware,Kicad,Pcbnew,(6.0.4)
; #@! TF.FileFunction,NonPlated,1,4,NPTH
FMAT,2
INCH
; #@! TA.AperFunction,NonPlated,NPTH,ComponentDrill
T1C0.0197
; #@! TA.AperFunction,NonPlated,NPTH,ComponentDrill
T2C0.1260
%
G90
G05
T1
X1.4169Y-1.063
X1.4169Y-1.1811
X1.4169Y-4.0157
X1.4169Y-4.1339
X1.4464Y-1.1811
X1.4464Y-4.1339
X1.4469Y-1.063
X1.4469Y-4.0157
X1.4764Y-1.063
X1.4764Y-1.1811
X1.4764Y-4.0157
X1.4764Y-4.1339
X1.5059Y-1.063
X1.5059Y-1.1811
X1.5059Y-4.0157
X1.5059Y-4.1339
X1.5364Y-1.063
X1.5364Y-1.1811
X1.5364Y-4.0157
X1.5364Y-4.1339
X3.4838Y-1.063
X3.4838Y-1.1811
X3.4838Y-4.0157
X3.4838Y-4.1339
X3.5133Y-1.1811
X3.5133Y-4.1339
X3.5138Y-1.063
X3.5138Y-4.0157
X3.5433Y-1.063
X3.5433Y-1.1811
X3.5433Y-4.0157
X3.5433Y-4.1339
X3.5728Y-1.063
X3.5728Y-1.1811
X3.5728Y-4.0157
X3.5728Y-4.1339
X3.6033Y-1.063
X3.6033Y-1.1811
X3.6033Y-4.0157
X3.6033Y-4.1339
X5.5507Y-1.063
X5.5507Y-1.1811
X5.5507Y-4.0157
X5.5507Y-4.1339
X5.5802Y-1.1811
X5.5802Y-4.1339
X5.5807Y-1.063
X5.5807Y-4.0157
X5.6102Y-1.063
X5.6102Y-1.1811
X5.6102Y-4.0157
X5.6102Y-4.1339
X5.6398Y-1.063
X5.6398Y-1.1811
X5.6398Y-4.0157
X5.6398Y-4.1339
X5.6702Y-1.063
X5.6702Y-1.1811
X5.6702Y-4.0157
X5.6702Y-4.1339
T2
X1.378Y-0.8268
X1.378Y-4.3701
X5.7087Y-0.8268
X5.7087Y-4.3701
T0
M30
