%TF.GenerationSoftware,KiCad,Pcbnew,(6.0.4)*%
%TF.CreationDate,2022-12-17T19:50:06+01:00*%
%TF.ProjectId,bsc,6273632e-6b69-4636-9164-5f7063625858,rev?*%
%TF.SameCoordinates,Original*%
%TF.FileFunction,Other,Comment*%
%FSLAX46Y46*%
G04 Gerber Fmt 4.6, Leading zero omitted, Abs format (unit mm)*
G04 Created by KiCad (PCBNEW (6.0.4)) date 2022-12-17 19:50:06*
%MOMM*%
%LPD*%
G01*
G04 APERTURE LIST*
%ADD10C,0.150000*%
%ADD11C,0.100000*%
G04 APERTURE END LIST*
D10*
%TO.C,U2*%
X29452380Y-63856428D02*
X28452380Y-63856428D01*
X29452380Y-63285000D02*
X28880952Y-63713571D01*
X28452380Y-63285000D02*
X29023809Y-63856428D01*
X28928571Y-62856428D02*
X28928571Y-62523095D01*
X29452380Y-62380238D02*
X29452380Y-62856428D01*
X28452380Y-62856428D01*
X28452380Y-62380238D01*
X28928571Y-61951666D02*
X28928571Y-61618333D01*
X29452380Y-61475476D02*
X29452380Y-61951666D01*
X28452380Y-61951666D01*
X28452380Y-61475476D01*
X29452380Y-61046904D02*
X28452380Y-61046904D01*
X28452380Y-60665952D01*
X28500000Y-60570714D01*
X28547619Y-60523095D01*
X28642857Y-60475476D01*
X28785714Y-60475476D01*
X28880952Y-60523095D01*
X28928571Y-60570714D01*
X28976190Y-60665952D01*
X28976190Y-61046904D01*
X29071428Y-60046904D02*
X29071428Y-59285000D01*
X28452380Y-58618333D02*
X28452380Y-58427857D01*
X28500000Y-58332619D01*
X28595238Y-58237380D01*
X28785714Y-58189761D01*
X29119047Y-58189761D01*
X29309523Y-58237380D01*
X29404761Y-58332619D01*
X29452380Y-58427857D01*
X29452380Y-58618333D01*
X29404761Y-58713571D01*
X29309523Y-58808809D01*
X29119047Y-58856428D01*
X28785714Y-58856428D01*
X28595238Y-58808809D01*
X28500000Y-58713571D01*
X28452380Y-58618333D01*
X28452380Y-57761190D02*
X29261904Y-57761190D01*
X29357142Y-57713571D01*
X29404761Y-57665952D01*
X29452380Y-57570714D01*
X29452380Y-57380238D01*
X29404761Y-57285000D01*
X29357142Y-57237380D01*
X29261904Y-57189761D01*
X28452380Y-57189761D01*
X28452380Y-56856428D02*
X28452380Y-56285000D01*
X29452380Y-56570714D02*
X28452380Y-56570714D01*
X28452380Y-55285000D02*
X28452380Y-54618333D01*
X29452380Y-55285000D01*
X29452380Y-54618333D01*
X28452380Y-54046904D02*
X28452380Y-53856428D01*
X28500000Y-53761190D01*
X28595238Y-53665952D01*
X28785714Y-53618333D01*
X29119047Y-53618333D01*
X29309523Y-53665952D01*
X29404761Y-53761190D01*
X29452380Y-53856428D01*
X29452380Y-54046904D01*
X29404761Y-54142142D01*
X29309523Y-54237380D01*
X29119047Y-54285000D01*
X28785714Y-54285000D01*
X28595238Y-54237380D01*
X28500000Y-54142142D01*
X28452380Y-54046904D01*
X29452380Y-53189761D02*
X28452380Y-53189761D01*
X29452380Y-52618333D01*
X28452380Y-52618333D01*
X28928571Y-52142142D02*
X28928571Y-51808809D01*
X29452380Y-51665952D02*
X29452380Y-52142142D01*
X28452380Y-52142142D01*
X28452380Y-51665952D01*
D11*
X33351190Y-46723095D02*
X33351190Y-46961190D01*
X33589285Y-46985000D01*
X33565476Y-46961190D01*
X33541666Y-46913571D01*
X33541666Y-46794523D01*
X33565476Y-46746904D01*
X33589285Y-46723095D01*
X33636904Y-46699285D01*
X33755952Y-46699285D01*
X33803571Y-46723095D01*
X33827380Y-46746904D01*
X33851190Y-46794523D01*
X33851190Y-46913571D01*
X33827380Y-46961190D01*
X33803571Y-46985000D01*
X33851190Y-46104047D02*
X33517857Y-46104047D01*
X33565476Y-46104047D02*
X33541666Y-46080238D01*
X33517857Y-46032619D01*
X33517857Y-45961190D01*
X33541666Y-45913571D01*
X33589285Y-45889761D01*
X33851190Y-45889761D01*
X33589285Y-45889761D02*
X33541666Y-45865952D01*
X33517857Y-45818333D01*
X33517857Y-45746904D01*
X33541666Y-45699285D01*
X33589285Y-45675476D01*
X33851190Y-45675476D01*
X33851190Y-45437380D02*
X33517857Y-45437380D01*
X33565476Y-45437380D02*
X33541666Y-45413571D01*
X33517857Y-45365952D01*
X33517857Y-45294523D01*
X33541666Y-45246904D01*
X33589285Y-45223095D01*
X33851190Y-45223095D01*
X33589285Y-45223095D02*
X33541666Y-45199285D01*
X33517857Y-45151666D01*
X33517857Y-45080238D01*
X33541666Y-45032619D01*
X33589285Y-45008809D01*
X33851190Y-45008809D01*
X28186904Y-49711190D02*
X27948809Y-49711190D01*
X27925000Y-49949285D01*
X27948809Y-49925476D01*
X27996428Y-49901666D01*
X28115476Y-49901666D01*
X28163095Y-49925476D01*
X28186904Y-49949285D01*
X28210714Y-49996904D01*
X28210714Y-50115952D01*
X28186904Y-50163571D01*
X28163095Y-50187380D01*
X28115476Y-50211190D01*
X27996428Y-50211190D01*
X27948809Y-50187380D01*
X27925000Y-50163571D01*
X28805952Y-50211190D02*
X28805952Y-49877857D01*
X28805952Y-49925476D02*
X28829761Y-49901666D01*
X28877380Y-49877857D01*
X28948809Y-49877857D01*
X28996428Y-49901666D01*
X29020238Y-49949285D01*
X29020238Y-50211190D01*
X29020238Y-49949285D02*
X29044047Y-49901666D01*
X29091666Y-49877857D01*
X29163095Y-49877857D01*
X29210714Y-49901666D01*
X29234523Y-49949285D01*
X29234523Y-50211190D01*
X29472619Y-50211190D02*
X29472619Y-49877857D01*
X29472619Y-49925476D02*
X29496428Y-49901666D01*
X29544047Y-49877857D01*
X29615476Y-49877857D01*
X29663095Y-49901666D01*
X29686904Y-49949285D01*
X29686904Y-50211190D01*
X29686904Y-49949285D02*
X29710714Y-49901666D01*
X29758333Y-49877857D01*
X29829761Y-49877857D01*
X29877380Y-49901666D01*
X29901190Y-49949285D01*
X29901190Y-50211190D01*
D10*
X35166666Y-60546904D02*
X35166666Y-60070714D01*
X35452380Y-60642142D02*
X34452380Y-60308809D01*
X35452380Y-59975476D01*
X34785714Y-59642142D02*
X35452380Y-59642142D01*
X34880952Y-59642142D02*
X34833333Y-59594523D01*
X34785714Y-59499285D01*
X34785714Y-59356428D01*
X34833333Y-59261190D01*
X34928571Y-59213571D01*
X35452380Y-59213571D01*
X34785714Y-58880238D02*
X34785714Y-58499285D01*
X34452380Y-58737380D02*
X35309523Y-58737380D01*
X35404761Y-58689761D01*
X35452380Y-58594523D01*
X35452380Y-58499285D01*
X35404761Y-57785000D02*
X35452380Y-57880238D01*
X35452380Y-58070714D01*
X35404761Y-58165952D01*
X35309523Y-58213571D01*
X34928571Y-58213571D01*
X34833333Y-58165952D01*
X34785714Y-58070714D01*
X34785714Y-57880238D01*
X34833333Y-57785000D01*
X34928571Y-57737380D01*
X35023809Y-57737380D01*
X35119047Y-58213571D01*
X34785714Y-57308809D02*
X35452380Y-57308809D01*
X34880952Y-57308809D02*
X34833333Y-57261190D01*
X34785714Y-57165952D01*
X34785714Y-57023095D01*
X34833333Y-56927857D01*
X34928571Y-56880238D01*
X35452380Y-56880238D01*
X34785714Y-56404047D02*
X35452380Y-56404047D01*
X34880952Y-56404047D02*
X34833333Y-56356428D01*
X34785714Y-56261190D01*
X34785714Y-56118333D01*
X34833333Y-56023095D01*
X34928571Y-55975476D01*
X35452380Y-55975476D01*
X35452380Y-55070714D02*
X34928571Y-55070714D01*
X34833333Y-55118333D01*
X34785714Y-55213571D01*
X34785714Y-55404047D01*
X34833333Y-55499285D01*
X35404761Y-55070714D02*
X35452380Y-55165952D01*
X35452380Y-55404047D01*
X35404761Y-55499285D01*
X35309523Y-55546904D01*
X35214285Y-55546904D01*
X35119047Y-55499285D01*
X35071428Y-55404047D01*
X35071428Y-55165952D01*
X35023809Y-55070714D01*
D11*
X33351190Y-69723095D02*
X33351190Y-69961190D01*
X33589285Y-69985000D01*
X33565476Y-69961190D01*
X33541666Y-69913571D01*
X33541666Y-69794523D01*
X33565476Y-69746904D01*
X33589285Y-69723095D01*
X33636904Y-69699285D01*
X33755952Y-69699285D01*
X33803571Y-69723095D01*
X33827380Y-69746904D01*
X33851190Y-69794523D01*
X33851190Y-69913571D01*
X33827380Y-69961190D01*
X33803571Y-69985000D01*
X33851190Y-69104047D02*
X33517857Y-69104047D01*
X33565476Y-69104047D02*
X33541666Y-69080238D01*
X33517857Y-69032619D01*
X33517857Y-68961190D01*
X33541666Y-68913571D01*
X33589285Y-68889761D01*
X33851190Y-68889761D01*
X33589285Y-68889761D02*
X33541666Y-68865952D01*
X33517857Y-68818333D01*
X33517857Y-68746904D01*
X33541666Y-68699285D01*
X33589285Y-68675476D01*
X33851190Y-68675476D01*
X33851190Y-68437380D02*
X33517857Y-68437380D01*
X33565476Y-68437380D02*
X33541666Y-68413571D01*
X33517857Y-68365952D01*
X33517857Y-68294523D01*
X33541666Y-68246904D01*
X33589285Y-68223095D01*
X33851190Y-68223095D01*
X33589285Y-68223095D02*
X33541666Y-68199285D01*
X33517857Y-68151666D01*
X33517857Y-68080238D01*
X33541666Y-68032619D01*
X33589285Y-68008809D01*
X33851190Y-68008809D01*
D10*
%TO.C,H1*%
X38200000Y-21000000D02*
G75*
G03*
X38200000Y-21000000I-3200000J0D01*
G01*
%TO.C,H4*%
X38200000Y-111000000D02*
G75*
G03*
X38200000Y-111000000I-3200000J0D01*
G01*
%TO.C,H3*%
X148200000Y-111000000D02*
G75*
G03*
X148200000Y-111000000I-3200000J0D01*
G01*
%TO.C,H2*%
X148200000Y-21000000D02*
G75*
G03*
X148200000Y-21000000I-3200000J0D01*
G01*
D11*
%TO.C,U2*%
X27400000Y-49385000D02*
X27600000Y-49585000D01*
X34125000Y-71585000D02*
X34325000Y-71385000D01*
X34125000Y-48585000D02*
X34125000Y-43985000D01*
X32000000Y-49385000D02*
X31800000Y-49185000D01*
X34125000Y-43985000D02*
X33925000Y-44185000D01*
X34125000Y-71585000D02*
X34125000Y-66985000D01*
X34125000Y-48585000D02*
X33925000Y-48385000D01*
X34125000Y-71585000D02*
X33925000Y-71385000D01*
X34125000Y-43985000D02*
X34325000Y-44185000D01*
X32000000Y-49385000D02*
X31800000Y-49585000D01*
X32000000Y-49385000D02*
X27400000Y-49385000D01*
X34125000Y-66985000D02*
X34325000Y-67185000D01*
X27400000Y-49385000D02*
X27600000Y-49185000D01*
X34125000Y-66985000D02*
X33925000Y-67185000D01*
X34125000Y-48585000D02*
X34325000Y-48385000D01*
%TD*%
M02*
