M48
; DRILL file {KiCad (6.0.4)} date Sat Dec 17 19:50:06 2022
; FORMAT={-:-/ absolute / inch / decimal}
; #@! TF.CreationDate,2022-12-17T19:50:06+01:00
; #@! TF.GenerationSoftware,Kicad,Pcbnew,(6.0.4)
; #@! TF.FileFunction,Plated,1,4,PTH
FMAT,2
INCH
; #@! TA.AperFunction,Plated,PTH,ViaDrill
T1C0.0157
; #@! TA.AperFunction,Plated,PTH,ViaDrill
T2C0.0236
; #@! TA.AperFunction,Plated,PTH,ComponentDrill
T3C0.0394
; #@! TA.AperFunction,Plated,PTH,ComponentDrill
T4C0.0423
; #@! TA.AperFunction,Plated,PTH,ComponentDrill
T5C0.0472
%
G90
G05
T1
X1.407Y-3.436
X1.51Y-2.86
X1.516Y-3.099
X1.516Y-3.156
X1.522Y-1.938
X1.525Y-2.675
X1.55Y-1.552
X1.565Y-2.0
X1.575Y-3.035
X1.6155Y-2.535
X1.6155Y-2.6722
X1.6555Y-2.3692
X1.66Y-2.925
X1.6616Y-2.0039
X1.665Y-2.86
X1.666Y-2.677
X1.676Y-2.158
X1.682Y-1.674
X1.699Y-3.098
X1.71Y-2.945
X1.715Y-1.999
X1.715Y-2.68
X1.73Y-2.37
X1.745Y-2.805
X1.75Y-2.88
X1.7552Y-1.7252
X1.7648Y-2.0
X1.785Y-3.055
X1.792Y-1.638
X1.7948Y-1.742
X1.865Y-2.545
X1.9Y-1.84
X1.9032Y-3.091
X1.915Y-2.005
X1.9311Y-1.8694
X1.944Y-3.03
X1.945Y-2.745
X1.9527Y-2.6831
X2.01Y-2.682
X2.065Y-2.68
X2.065Y-2.82
X2.068Y-1.616
X2.0977Y-1.8345
X2.102Y-2.213
X2.115Y-2.0095
X2.14Y-2.445
X2.145Y-1.875
X2.1455Y-1.7356
X2.1455Y-2.5503
X2.15Y-2.0365
X2.17Y-2.36
X2.1779Y-1.8043
X2.1821Y-1.6881
X2.1843Y-2.065
X2.225Y-2.855
X2.243Y-3.171
X2.258Y-3.462
X2.275Y-2.5779
X2.285Y-2.7
X2.3246Y-3.4402
X2.334Y-2.5
X2.35Y-2.855
X2.396Y-3.212
X2.4Y-2.8777
X2.4374Y-3.1714
X2.44Y-1.834
X2.462Y-2.432
X2.464Y-1.778
X2.466Y-1.702
X2.466Y-2.253
X2.4753Y-3.5
X2.4954Y-2.8475
X2.55Y-1.65
X2.5644Y-2.9319
X2.5681Y-2.1008
X2.59Y-3.335
X2.6Y-3.185
X2.6Y-3.135
X2.63Y-3.5
X2.6362Y-2.103
X2.716Y-2.392
X2.7278Y-2.0618
X2.73Y-2.34
X2.735Y-2.245
X2.7397Y-3.0444
X2.746Y-2.947
X2.76Y-1.802
X2.78Y-2.121
X2.784Y-1.894
X2.818Y-1.756
X2.844Y-2.332
X2.85Y-3.0535
X2.86Y-3.495
X2.87Y-2.93
X2.88Y-2.11
X2.89Y-3.025
X2.8901Y-2.6417
X2.905Y-2.187
X2.909Y-2.8314
X2.92Y-3.15
X2.92Y-3.285
X2.929Y-1.701
X2.93Y-1.818
X2.97Y-2.088
X2.98Y-2.46
X3.003Y-2.7165
X3.021Y-1.82
X3.03Y-2.286
X3.0351Y-2.6385
X3.066Y-2.894
X3.078Y-3.1345
X3.186Y-2.44
X3.219Y-1.631
X3.2199Y-1.8122
X3.234Y-2.018
X3.235Y-1.85
X3.237Y-2.312
X3.239Y-1.6649
X3.251Y-2.72
X3.255Y-3.117
X3.26Y-1.604
X3.27Y-2.551
X3.2702Y-2.1188
X3.286Y-2.356
X3.3Y-2.517
X3.3035Y-2.1575
X3.33Y-1.855
X3.378Y-2.448
X3.378Y-2.632
X3.382Y-2.107
X3.413Y-2.7105
X3.415Y-1.825
X3.418Y-1.966
X3.42Y-1.728
X3.475Y-2.875
X3.512Y-1.82
X3.526Y-2.284
X3.548Y-1.701
X3.553Y-2.61
X3.5556Y-2.7531
X3.62Y-2.665
X3.6752Y-3.12
X3.676Y-1.85
X3.6874Y-2.7916
X3.7Y-1.764
X3.703Y-2.219
X3.7136Y-2.0156
X3.716Y-2.285
X3.725Y-1.619
X3.746Y-2.358
X3.7478Y-1.5745
X3.7543Y-2.6404
X3.77Y-2.575
X3.7737Y-2.1071
X3.779Y-1.733
X3.782Y-1.885
X3.7839Y-2.5062
X3.7865Y-2.3261
X3.8175Y-2.3961
X3.8207Y-2.1169
X3.8217Y-2.6857
X3.822Y-2.532
X3.83Y-2.61
X3.8365Y-1.764
X3.904Y-2.144
X3.926Y-1.99
X3.93Y-1.735
X3.9449Y-2.6715
X3.962Y-3.002
X3.967Y-2.842
X4.006Y-1.982
X4.035Y-2.267
X4.055Y-2.365
X4.061Y-3.326
X4.0625Y-2.4675
X4.0925Y-2.675
X4.093Y-2.567
X4.111Y-2.475
X4.1145Y-2.3566
X4.115Y-2.26
X4.134Y-2.537
X4.1386Y-3.1207
X4.1395Y-2.6368
X4.1944Y-2.6598
X4.215Y-1.605
X4.22Y-2.287
X4.232Y-1.663
X4.251Y-2.72
X4.276Y-2.683
X4.3Y-1.76
X4.526Y-2.976
X4.598Y-2.203
X4.638Y-2.39
X4.642Y-2.238
X4.686Y-1.76
X4.686Y-1.906
X4.695Y-1.609
X4.6962Y-2.1198
X4.707Y-2.752
X4.7079Y-3.1184
X4.725Y-2.64
X4.786Y-2.452
X4.79Y-2.152
X4.8185Y-2.2369
X4.819Y-2.636
X4.8459Y-2.3914
X4.86Y-2.59
X4.8716Y-1.6581
X4.946Y-3.004
X4.965Y-2.195
X4.968Y-2.118
X4.998Y-2.542
X4.999Y-2.34
X5.0Y-2.406
X5.0Y-2.635
X5.016Y-2.442
X5.02Y-2.265
X5.044Y-1.904
X5.0547Y-2.5581
X5.065Y-2.418
X5.0715Y-1.7554
X5.14Y-3.118
X5.17Y-2.265
X5.1932Y-2.3889
X5.195Y-2.3315
X5.2471Y-1.6598
X5.2571Y-2.2055
X5.265Y-2.6415
X5.2845Y-2.512
X5.288Y-2.552
X5.308Y-2.122
X5.3141Y-2.72
X5.349Y-2.788
X5.3633Y-2.1722
X5.4165Y-2.1724
X5.425Y-2.57
X5.434Y-1.746
X5.434Y-1.9
X5.5131Y-2.2528
X5.5229Y-1.9407
X5.545Y-2.545
X5.5665Y-2.8935
X5.585Y-2.23
X5.6585Y-2.1721
X5.67Y-2.455
X5.71Y-2.672
X5.7178Y-2.1727
X5.738Y-3.116
X5.764Y-1.69
X5.794Y-2.132
X5.8Y-2.645
X5.804Y-1.906
X5.8059Y-2.2463
T2
X1.51Y-3.22
X1.795Y-3.216
T3
X1.3018Y-3.1416
X1.3018Y-3.2416
X1.3018Y-3.3416
X1.4018Y-3.1416
X1.4018Y-3.2416
X1.4018Y-3.3416
X2.1164Y-3.0828
X2.2164Y-3.0828
X2.3164Y-3.0828
X2.384Y-1.9566
X2.384Y-2.0566
X2.384Y-2.1566
X2.384Y-2.3078
X2.384Y-2.4078
X2.5436Y-2.7572
X2.6436Y-2.7572
X2.7436Y-2.7572
X2.93Y-3.51
X2.97Y-2.88
X2.97Y-2.98
X2.97Y-3.38
X3.03Y-3.51
X3.27Y-2.88
X3.27Y-2.98
X3.27Y-3.38
X3.4Y-2.88
X3.4Y-2.98
X3.4Y-3.38
X3.4298Y-3.51
X3.5298Y-3.51
X3.7Y-2.88
X3.7Y-2.98
X3.7Y-3.38
X3.83Y-2.88
X3.83Y-2.98
X3.83Y-3.38
X3.83Y-3.51
X3.93Y-3.51
X4.13Y-2.88
X4.13Y-2.98
X4.13Y-3.38
X4.264Y-3.012
X4.264Y-3.112
X4.264Y-3.212
X4.4298Y-3.51
X4.43Y-2.88
X4.43Y-2.98
X4.43Y-3.38
X4.5298Y-3.51
X4.714Y-3.51
X4.73Y-2.88
X4.73Y-2.98
X4.73Y-3.38
X4.814Y-3.51
X4.87Y-2.88
X4.87Y-2.98
X4.87Y-3.38
X4.9644Y-3.51
X5.0644Y-3.51
X5.1644Y-3.51
X5.17Y-2.88
X5.17Y-2.98
X5.17Y-3.38
X5.332Y-3.012
X5.332Y-3.112
X5.332Y-3.212
X5.432Y-3.51
X5.47Y-2.88
X5.47Y-2.98
X5.47Y-3.38
X5.532Y-3.51
X5.77Y-2.88
X5.77Y-2.98
X5.77Y-3.38
T4
X2.6325Y-1.702
X2.6325Y-1.802
X2.6325Y-1.902
X2.6325Y-2.002
X3.1275Y-1.7
X3.1275Y-1.8
X3.1275Y-1.9
X3.1275Y-2.0
X3.6275Y-1.7
X3.6275Y-1.8
X3.6275Y-1.9
X3.6275Y-2.0
X4.1275Y-1.7
X4.1275Y-1.8
X4.1275Y-1.9
X4.1275Y-2.0
X4.3925Y-2.282
X4.3925Y-2.382
X4.3925Y-2.482
X4.3925Y-2.582
T5
X1.3984Y-3.7402
X1.4Y-1.455
X1.5484Y-3.7402
X1.55Y-1.455
X1.6984Y-3.7402
X1.7Y-1.455
X1.8484Y-3.7402
X1.85Y-1.455
X1.9984Y-3.7402
X2.0Y-1.455
X2.1484Y-3.7402
X2.15Y-1.455
X2.2984Y-3.7402
X2.3Y-1.455
X2.4484Y-3.7402
X2.45Y-1.455
X2.5984Y-3.7402
X2.6Y-1.455
X2.9535Y-3.7402
X2.9549Y-1.4567
X3.1035Y-3.7402
X3.1049Y-1.4567
X3.2535Y-3.7402
X3.2549Y-1.4567
X3.4035Y-3.7402
X3.4049Y-1.4567
X3.5535Y-3.7402
X3.5549Y-1.4567
X3.7035Y-3.7402
X3.7049Y-1.4567
X3.8535Y-3.7402
X3.8549Y-1.4567
X4.0035Y-3.7402
X4.0049Y-1.4567
X4.1535Y-3.7402
X4.1549Y-1.4567
X4.5087Y-3.7402
X4.51Y-1.4567
X4.6587Y-3.7402
X4.66Y-1.4567
X4.8087Y-3.7402
X4.81Y-1.4567
X4.9587Y-3.7402
X4.96Y-1.4567
X5.1087Y-3.7402
X5.11Y-1.4567
X5.2587Y-3.7402
X5.26Y-1.4567
X5.4087Y-3.7402
X5.41Y-1.4567
X5.5587Y-3.7402
X5.56Y-1.4567
X5.7087Y-3.7402
X5.71Y-1.4567
T0
M30
